<?xml version="1.0" encoding="utf-8"?>
<!-- Generator: Adobe Illustrator 25.4.1, SVG Export Plug-In . SVG Version: 6.00 Build 0)  -->
<svg version="1.1" id="Layer_1" xmlns="http://www.w3.org/2000/svg" xmlns:xlink="http://www.w3.org/1999/xlink" x="0px" y="0px"
	 viewBox="0 0 200 100" style="enable-background:new 0 0 200 100;" xml:space="preserve">
<style type="text/css">
	.st0{fill:none;}
	.st1{fill:#AD0940;}
	.st2{fill:#AE0A41;}
	.st3{fill:#AE0A40;}
	.st4{fill:#AE0B41;}
	.st5{fill:#B3A989;}
	.st6{fill:#C6BEA3;}
	.st7{fill:#ADA280;}
	.st8{fill:#A39873;}
	.st9{fill:#CEC7AF;}
	.st10{fill:#948760;}
	.st11{fill:#CBC2A9;}
	.st12{fill:#A29772;}
	.st13{fill:#998D66;}
	.st14{fill:#D3CCB6;}
	.st15{fill:#A79C79;}
	.st16{fill:#9D926C;}
	.st17{fill:#BFB699;}
	.st18{fill:#C3B99D;}
	.st19{fill:#BCB294;}
	.st20{fill:#ACA17F;}
	.st21{fill:#B8AE8F;}
	.st22{fill:#AFA483;}
	.st23{fill:#A19671;}
	.st24{fill:#B7AD8D;}
	.st25{fill:#B1A786;}
	.st26{fill:#B9AF91;}
	.st27{fill:#B5AB8B;}
	.st28{fill:#BEB598;}
	.st29{fill:#9C916A;}
	.st30{fill:#90845D;}
	.st31{fill:#958962;}
	.st32{fill:#C0B79A;}
	.st33{fill:#D4CDB8;}
	.st34{fill:#CAC2A9;}
	.st35{fill:#A59B77;}
	.st36{fill:#AEA483;}
	.st37{fill:#C2B89C;}
	.st38{fill:#DCD6C4;}
	.st39{fill:#9E936E;}
	.st40{fill:#C8C0A6;}
	.st41{fill:#E6E2D5;}
	.st42{fill:#8A7E55;}
	.st43{fill:#7F7248;}
	.st44{fill:#A99E7C;}
</style>
<g>
	<path class="st0" d="M103.17,23.24c0,0.01,0,0.01,0,0.02c0.01,0,0.01-0.01,0.02-0.01c0,0,0,0,0,0c0,0,0,0,0,0
		C103.18,23.24,103.18,23.24,103.17,23.24z"/>
	<polygon class="st0" points="112.01,29.39 112,29.39 112,29.39 	"/>
	<path class="st0" d="M109.48,27.86C109.48,27.86,109.48,27.86,109.48,27.86C109.48,27.86,109.48,27.86,109.48,27.86
		c-0.01-0.01-0.02-0.01-0.02-0.02c0,0.01,0,0.02,0,0.03C109.46,27.86,109.47,27.86,109.48,27.86z"/>
	<polygon class="st0" points="117.46,30.22 117.46,30.22 117.45,30.22 117.45,30.22 117.46,30.22 	"/>
	<path class="st0" d="M113.99,30.13c0-0.01,0-0.02,0.01-0.02c-0.01,0-0.02,0-0.04-0.01C113.97,30.11,113.98,30.12,113.99,30.13z"/>
	<path class="st1" d="M36.02,32.11c-0.08-0.22-0.04-0.59-0.36-0.62c-0.32-0.03-0.33,0.34-0.43,0.56
		c-2.52,5.44-5.04,10.88-7.55,16.32c-0.12,0.26-0.24,0.51-0.41,0.86c-0.19-0.39-0.31-0.63-0.42-0.89
		c-2.53-5.46-5.05-10.93-7.58-16.39c-0.09-0.19-0.1-0.52-0.42-0.48c-0.24,0.04-0.23,0.32-0.29,0.51
		c-1.93,5.62-3.86,11.25-5.79,16.88c-0.87,2.55-1.74,5.1-2.6,7.66c-0.07,0.2-0.42,0.58,0.14,0.61c1.8,0.08,3.86-0.28,4.63-2.72
		c0.5-1.57,1.03-3.14,1.54-4.7c0.94-2.84,1.87-5.69,2.85-8.64c0.12,0.23,0.17,0.33,0.22,0.44c2.43,5.12,4.85,10.25,7.28,15.37
		c0.1,0.21,0.11,0.57,0.43,0.57c0.32-0.01,0.32-0.36,0.43-0.57c1.82-3.82,3.62-7.64,5.43-11.46c0.67-1.41,1.34-2.81,2.05-4.3
		c0.1,0.24,0.15,0.37,0.2,0.5c1.4,4.26,2.82,8.51,4.2,12.78c0.47,1.45,1.41,2.32,2.88,2.64c0.47,0.1,0.97,0.07,1.46,0.13
		c0.58,0.07,0.64-0.11,0.46-0.65C41.58,48.38,38.81,40.24,36.02,32.11z"/>
	<path class="st1" d="M64.75,41.29c-1.17-2.71-3.22-4.44-6.08-5.21c-1.92-0.51-3.87-0.54-5.81-0.2c-1.58,0.27-3.04,0.87-4.28,1.91
		c-2.69,2.24-3.62,5.24-3.68,8.61c0,0.42-0.02,0.84,0.01,1.26c0.02,0.35,0.07,0.69,0.13,1.04c0.71,3.84,2.59,6.75,6.45,8.05
		c1.81,0.61,3.69,0.71,5.59,0.47c3.34-0.42,5.94-1.98,7.45-5.06C66.25,48.58,66.32,44.93,64.75,41.29z M61.55,49.68
		c-1.02,2.75-3.13,4.28-5.97,4.32c-3.13,0.04-5.27-1.33-6.4-4.1c-0.46-1.13-0.69-2.31-0.69-3.7c0.02-1.3,0.35-2.69,1.06-3.97
		c1.33-2.4,3.48-3.36,6.12-3.22c3.93,0.22,6.39,2.98,6.48,7.13C62.17,47.35,61.98,48.54,61.55,49.68z"/>
	<path class="st1" d="M122.23,57.43c0.27-0.11,0.13-0.41,0.13-0.63c0.01-5.15,0.01-10.3,0.01-15.44c0-1.65-0.01-3.31,0.01-4.96
		c0-0.4-0.11-0.53-0.51-0.52c-0.84,0.03-1.68,0.04-2.52,0c-0.53-0.03-0.65,0.14-0.65,0.66c0.02,3.82,0.01,7.64,0.01,11.46
		c0,0.22,0.09,0.46-0.27,0.91c-1.18-1.28-2.29-2.57-3.49-3.77c-3.09-3.07-6.22-6.1-9.33-9.14c-0.14-0.13-0.24-0.43-0.48-0.3
		c-0.21,0.11-0.09,0.38-0.09,0.58c-0.01,6.73,0,13.46,0,20.2c0,0.07,0.01,0.14,0,0.21c-0.05,0.39,0.1,0.53,0.51,0.52
		c0.81-0.03,1.64-0.06,2.44,0.01c0.66,0.06,0.76-0.21,0.75-0.79c-0.02-3.75-0.01-7.5-0.01-11.25c0-0.25-0.06-0.5,0.14-0.91
		c1.52,1.55,2.96,3.04,4.43,4.5c2.81,2.79,5.64,5.56,8.47,8.33C121.89,57.23,122.01,57.52,122.23,57.43z"/>
	<path class="st1" d="M100.9,35.88c-4.26,0.02-8.53,0.03-12.79,0c-0.61,0-0.72,0.19-0.71,0.75c0.03,3.31,0.01,6.61,0.01,9.92
		c0,3.33,0,6.66,0,9.99c0,0.35-0.08,0.67,0.5,0.67c4.4-0.02,8.81-0.02,13.21-0.01c0.38,0,0.48-0.14,0.47-0.49
		c-0.02-0.67-0.04-1.35,0.01-2.03c0.04-0.61-0.11-0.83-0.79-0.82c-3.05,0.04-6.1,0.01-9.15,0.03c-0.49,0-0.63-0.13-0.62-0.62
		c0.03-1.44,0.03-2.89,0-4.33c-0.01-0.52,0.13-0.67,0.66-0.66c2.33,0.03,4.66,0,6.99,0.02c0.47,0,0.66-0.09,0.63-0.6
		c-0.05-0.67-0.05-1.35,0-2.02c0.04-0.52-0.12-0.67-0.65-0.66c-2.31,0.03-4.61,0-6.92,0.02c-0.53,0.01-0.73-0.1-0.71-0.68
		c0.05-1.49,0.05-2.98,0-4.47c-0.03-0.68,0.22-0.79,0.83-0.79c3.03,0.03,6.06,0.01,9.08,0.02c0.44,0,0.7-0.05,0.66-0.59
		c-0.05-0.65-0.05-1.31,0-1.95C101.64,36.02,101.45,35.87,100.9,35.88z"/>
	<path class="st1" d="M189.82,56.78c-0.67-0.71-1.35-1.41-2.03-2.11c-2.57-2.66-5.14-5.33-7.72-7.99c-0.37-0.38-0.43-0.6,0-1.03
		c2.34-2.37,4.64-4.77,6.95-7.17c0.78-0.81,1.55-1.63,2.45-2.58c-1.46,0-2.73,0.01-4-0.01c-0.41-0.01-0.67,0.13-0.96,0.43
		c-2.48,2.62-4.99,5.22-7.62,7.96c0-0.39,0-0.61,0-0.84c0-2.26-0.03-4.52,0.02-6.78c0.01-0.67-0.21-0.82-0.82-0.78
		c-0.72,0.05-1.45,0.05-2.17,0c-0.56-0.04-0.69,0.16-0.68,0.69c0.02,5.85,0.01,11.69,0.01,17.54c0,0.84,0.03,1.68-0.01,2.52
		c-0.02,0.47,0.15,0.59,0.59,0.57c0.81-0.03,1.63-0.04,2.45,0c0.49,0.02,0.63-0.12,0.62-0.61c-0.03-2.12-0.01-4.24-0.01-6.36
		c0-0.71,0-1.42,0-2.13c0.21-0.02,0.25,0.11,0.32,0.19c2.6,2.76,5.2,5.53,7.8,8.29c0.24,0.25,0.41,0.63,0.87,0.63
		c1.26-0.01,2.52,0,3.77-0.01c0.11,0,0.26-0.01,0.31-0.07C190.08,56.96,189.9,56.87,189.82,56.78z"/>
	<path class="st1" d="M135.44,35.96c-2.88-0.19-5.78-0.03-8.66-0.08c-0.5-0.01-0.5,0.24-0.5,0.6c0.01,3.35,0,6.71,0,10.06
		c0,3.33,0.01,6.66-0.01,9.99c0,0.52,0.13,0.69,0.66,0.66c0.79-0.05,1.59-0.04,2.38,0c0.49,0.02,0.63-0.12,0.62-0.62
		c-0.03-2.14,0.01-4.29-0.02-6.43c-0.01-0.54,0.12-0.72,0.69-0.71c1.61,0.02,3.22,0.06,4.82-0.06c3.59-0.27,6.4-3.33,6.37-6.83
		C141.75,38.94,139.18,36.21,135.44,35.96z M134.85,46.13c-1.49,0.05-2.98,0-4.46,0.02c-0.37,0-0.48-0.12-0.48-0.48
		c0.02-1.02,0.01-2.05,0.01-3.07c0-1.02,0.01-2.05,0-3.07c0-0.29,0.03-0.49,0.4-0.48c1.6,0.05,3.21-0.11,4.81,0.09
		c1.91,0.23,3.11,1.68,3.03,3.61C138.08,44.65,136.74,46.06,134.85,46.13z"/>
	<path class="st1" d="M162.99,38.86c1.77,0.26,3.26,1.07,4.53,2.28c0.32,0.3,0.48,0.3,0.77-0.01c0.53-0.56,1.09-1.09,1.66-1.6
		c0.29-0.26,0.29-0.43,0.02-0.73c-4.07-4.47-11-4.02-14.43-1.19c-2.75,2.27-3.72,5.35-3.83,8.78c0,0.26-0.01,0.51,0,0.77
		c0.3,4.8,2.88,9.64,9.1,10.26c3.4,0.34,6.46-0.44,9.02-2.83c0.33-0.31,0.36-0.49,0.05-0.83c-0.51-0.57-0.99-1.18-1.44-1.79
		c-0.24-0.33-0.39-0.41-0.74-0.09c-0.76,0.7-1.64,1.22-2.59,1.62c-3.3,1.39-6.83,0.39-8.49-2.5c-1.66-2.9-1.69-5.91-0.17-8.87
		C157.73,39.66,160.24,38.46,162.99,38.86z"/>
	<path class="st1" d="M84.63,35.88c-0.86,0.04-1.73,0.05-2.58,0c-0.55-0.03-0.76,0.19-0.95,0.67c-1.82,4.47-3.66,8.94-5.54,13.52
		c-0.13-0.28-0.21-0.43-0.27-0.57c-1.79-4.31-3.58-8.62-5.34-12.95c-0.22-0.53-0.47-0.7-1.02-0.67c-0.84,0.05-1.68,0.03-2.51,0.01
		c-0.47-0.01-0.62,0.04-0.39,0.56c3.07,6.82,6.12,13.65,9.17,20.48c0.07,0.16,0.09,0.39,0.31,0.42c0.29,0.04,0.31-0.25,0.39-0.42
		c0.7-1.54,1.38-3.1,2.07-4.64c2.35-5.26,4.69-10.52,7.06-15.77C85.23,36.03,85.2,35.86,84.63,35.88z"/>
	<path class="st1" d="M147.73,35.88c-0.84,0.04-1.68,0.03-2.51,0c-0.41-0.01-0.51,0.13-0.5,0.52c0.02,1.21,0.01,2.42,0.01,3.63
		c0,5.5,0.01,10.99-0.01,16.49c0,0.55,0.14,0.72,0.69,0.69c0.77-0.05,1.54-0.05,2.3,0c0.56,0.04,0.69-0.15,0.69-0.69
		c-0.03-3.31-0.01-6.61-0.01-9.92c0-3.35-0.01-6.71,0.01-10.06C148.4,36,148.25,35.85,147.73,35.88z"/>
	<path class="st1" d="M72.69,77.46c-0.31-0.21-0.59-0.46-0.9-0.66c-0.3-0.2-0.4-0.36-0.16-0.71c0.57-0.82,0.81-1.77,0.89-2.76
		c0.02-0.28,0.18-0.67-0.35-0.62c-0.35,0.03-0.89-0.25-0.85,0.52c0.04,0.76-0.22,1.46-0.55,2.14c-0.18,0.37-0.35,0.43-0.66,0.14
		c-0.47-0.45-0.97-0.87-1.44-1.32c-0.3-0.29-0.69-0.57-0.8-0.93c-0.05-0.18,0.46-0.51,0.69-0.79c0.18-0.21,0.36-0.44,0.47-0.69
		c0.33-0.71,0.41-1.44-0.12-2.11c-0.55-0.69-1.88-0.88-2.85-0.43c-0.87,0.4-1.25,1.19-1.06,2.2c0.07,0.37,0.21,0.75,0.48,0.99
		c0.67,0.62,0.48,1.03-0.16,1.54c-0.64,0.51-0.97,1.24-0.96,2.08c0.02,1.25,0.79,2.17,2.02,2.39c0.96,0.17,2.01,0.2,2.78-0.35
		c1.13-0.81,1.95-0.57,2.82,0.3c0.46,0.47,0.6-0.14,0.84-0.34C73.18,77.79,72.94,77.63,72.69,77.46z M67.14,69.94
		c0.58-0.01,0.96,0.36,0.97,0.94c0.01,0.52-0.7,1.63-1.04,1.63c-0.23,0-0.92-1.15-0.93-1.56C66.12,70.39,66.56,69.95,67.14,69.94z
		 M69.36,76.92c-0.58,0.37-1.2,0.6-1.89,0.59c-0.99,0-1.69-0.49-1.86-1.33c-0.13-0.64,0.45-1.75,1.05-2.07
		c0.18-0.09,0.25-0.01,0.35,0.08c0.81,0.76,1.62,1.53,2.45,2.28C69.73,76.71,69.54,76.8,69.36,76.92z"/>
	<path class="st1" d="M28.26,73.31c-0.13-1.49-0.71-2.74-2.17-3.32c-1.51-0.6-3-0.45-4.26,0.65c-1.44,1.25-1.62,2.93-1.37,4.68
		c0.2,1.42,0.87,2.55,2.34,3.02c3.03,0.99,5.77-1.31,5.49-4.61C28.28,73.58,28.27,73.44,28.26,73.31z M26.3,76.48
		c-0.62,0.78-1.44,1.1-2.41,0.96c-0.96-0.13-1.61-0.7-1.94-1.6c-0.37-1.01-0.41-2.05-0.11-3.09c0.37-1.27,1.38-2.02,2.62-1.99
		c1.24,0.03,2.07,0.78,2.42,2.12C26.99,73.29,27,73.7,27,74.12C27.03,74.98,26.85,75.79,26.3,76.48z"/>
	<path class="st1" d="M109.1,69.82c-1.72-0.45-3.45,0.13-4.41,1.49c-1.06,1.48-1.13,4.18-0.14,5.71c0.54,0.83,1.31,1.31,2.28,1.46
		c2.9,0.46,4.96-1.42,4.94-4.48c-0.01-0.28-0.01-0.56-0.04-0.84C111.56,71.45,110.57,70.2,109.1,69.82z M109.81,76.44
		c-1.18,1.57-3.59,1.31-4.33-0.5c-0.46-1.13-0.5-2.32-0.05-3.48c0.46-1.19,1.44-1.79,2.68-1.7c1.14,0.09,1.94,0.83,2.24,2.06
		c0.1,0.41,0.15,0.82,0.15,1.24C110.5,74.93,110.34,75.74,109.81,76.44z"/>
	<path class="st2" d="M16.8,69.79c-0.34-0.01-0.63-0.05-0.6,0.48c0.05,0.88,0,1.77,0.02,2.65c0.01,0.38-0.07,0.53-0.49,0.52
		c-1.12-0.03-2.24-0.03-3.35,0c-0.39,0.01-0.52-0.1-0.51-0.5c0.03-0.88-0.02-1.77,0.02-2.65c0.03-0.5-0.21-0.51-0.58-0.5
		c-0.37,0.01-0.65-0.03-0.64,0.52c0.03,2.54,0.03,5.07,0,7.61c-0.01,0.55,0.28,0.51,0.65,0.53c0.4,0.02,0.58-0.06,0.57-0.52
		c-0.04-0.98,0-1.96-0.02-2.93c-0.01-0.38,0.09-0.53,0.5-0.52c1.12,0.03,2.24,0.03,3.35,0c0.41-0.01,0.51,0.14,0.5,0.52
		c-0.02,0.95,0.02,1.91-0.02,2.86c-0.02,0.53,0.18,0.59,0.64,0.6c0.49,0.01,0.63-0.14,0.62-0.63c-0.03-1.23-0.01-2.47-0.01-3.7
		c0-1.28-0.03-2.56,0.01-3.84C17.49,69.69,17.14,69.8,16.8,69.79z"/>
	<path class="st3" d="M117.85,74.36c1.38-0.39,2.1-1.36,1.95-2.65c-0.13-1.17-0.98-1.86-2.42-1.92c-0.72-0.03-1.44,0.02-2.16,0
		c-0.4-0.01-0.51,0.14-0.5,0.52c0.02,2.54,0.02,5.07,0,7.61c-0.01,0.53,0.26,0.52,0.64,0.54c0.47,0.03,0.59-0.14,0.58-0.59
		c-0.03-1.08-0.01-2.17-0.01-3.25c0.89,0.99,1.64,2.03,2.41,3.07c0.61,0.84,0.92,0.93,2,0.62c-0.97-1.27-1.92-2.52-2.94-3.85
		C117.59,74.42,117.72,74.4,117.85,74.36z M115.92,73.31c0-0.37,0-0.74,0-1.11c0-0.09-0.03-0.19,0-0.28
		c0.13-0.38-0.35-0.99,0.33-1.15c1-0.22,1.93,0.15,2.2,0.78c0.28,0.66,0.08,1.4-0.51,1.78c-0.53,0.35-1.13,0.37-1.74,0.36
		C115.92,73.68,115.91,73.51,115.92,73.31z"/>
	<path class="st1" d="M83.85,74.24c1.15-0.42,1.73-1.4,1.58-2.64c-0.12-1-0.89-1.7-2.09-1.79c-0.81-0.07-1.63,0-2.44-0.03
		c-0.44-0.02-0.54,0.13-0.54,0.55c0.02,2.51,0.02,5.03,0,7.54c0,0.47,0.14,0.59,0.59,0.58c0.44,0,0.61-0.1,0.6-0.58
		c-0.04-1.08-0.01-2.17-0.01-3.25c0.85,0.91,1.61,1.83,2.24,2.84c0.52,0.84,1.16,1.2,2.21,0.88c-0.99-1.3-1.96-2.57-2.96-3.87
		C83.33,74.39,83.6,74.34,83.85,74.24z M81.7,73.61c-0.42-0.25-0.07-0.95-0.16-1.35c0-0.16-0.02-0.23,0-0.29
		c0.18-0.39-0.4-1.05,0.36-1.2c1.1-0.21,2.02,0.21,2.24,0.93c0.21,0.72-0.09,1.42-0.77,1.74C82.83,73.7,82.16,73.89,81.7,73.61z"/>
	<path class="st4" d="M40.23,70.79c0.72,0.02,1.44-0.01,2.16,0.01c0.41,0.02,0.58-0.07,0.57-0.53c-0.01-0.41-0.15-0.5-0.53-0.49
		c-1.14,0.02-2.28,0.02-3.42,0c-0.4-0.01-0.52,0.12-0.51,0.51c0.02,1.26,0.01,2.51,0.01,3.77c0,1.28,0.01,2.56-0.01,3.84
		c0,0.36,0.06,0.55,0.49,0.54c1.16-0.03,2.33-0.02,3.49,0c0.38,0.01,0.47-0.14,0.46-0.49c-0.01-0.34-0.01-0.58-0.47-0.56
		c-0.77,0.03-1.54-0.01-2.3,0.02c-0.35,0.01-0.5-0.09-0.48-0.46c0.03-0.65,0.03-1.3,0-1.95c-0.02-0.38,0.09-0.54,0.5-0.52
		c0.65,0.03,1.3,0,1.96,0.01c0.36,0,0.66,0.05,0.65-0.51c-0.01-0.59-0.35-0.48-0.68-0.48c-0.65,0-1.3-0.02-1.96,0.01
		c-0.37,0.02-0.48-0.12-0.46-0.48c0.02-0.58,0.03-1.17,0-1.74C39.67,70.85,39.86,70.78,40.23,70.79z"/>
	<path class="st2" d="M90.66,70.79c0.72,0.03,1.44-0.01,2.17,0.02c0.4,0.02,0.52-0.12,0.52-0.51c0-0.4-0.12-0.52-0.52-0.51
		c-1.12,0.02-2.24,0.03-3.35,0c-0.45-0.01-0.6,0.1-0.59,0.57c0.03,1.26,0.01,2.52,0.01,3.77c0,1.26,0.02,2.52-0.01,3.77
		c-0.01,0.43,0.12,0.56,0.55,0.55c1.14-0.03,2.28-0.02,3.42,0c0.38,0.01,0.48-0.14,0.48-0.49c0-0.34-0.03-0.58-0.48-0.56
		c-0.74,0.03-1.49-0.01-2.24,0.02c-0.4,0.01-0.53-0.13-0.52-0.52c0.03-0.63,0.03-1.26,0-1.89c-0.02-0.45,0.17-0.55,0.57-0.53
		c0.7,0.02,1.4-0.01,2.1,0.01c0.36,0.01,0.42-0.17,0.42-0.47c0-0.31-0.01-0.54-0.43-0.53c-0.72,0.03-1.44-0.01-2.17,0.01
		c-0.36,0.01-0.5-0.1-0.49-0.48c0.02-0.56,0.03-1.12,0-1.68C90.09,70.93,90.23,70.77,90.66,70.79z"/>
	<path class="st1" d="M133.57,73.79c-0.57-0.26-1.16-0.49-1.71-0.78c-0.46-0.24-0.74-0.64-0.65-1.2c0.1-0.6,0.48-0.94,1.06-1.05
		c0.58-0.11,1.17-0.09,1.73,0.06c0.32,0.09,0.39-0.01,0.46-0.29c0.12-0.49,0.08-0.82-0.55-0.79c-0.27,0.01-0.55-0.06-0.83-0.09
		c-0.47,0-0.93,0.07-1.38,0.21c-1.04,0.32-1.66,1.06-1.73,2.04c-0.08,1.07,0.32,1.74,1.39,2.25c0.52,0.25,1.07,0.44,1.59,0.7
		c0.56,0.27,0.95,0.68,0.86,1.37c-0.1,0.7-0.56,1.03-1.2,1.19c-0.65,0.16-1.29,0.03-1.93-0.12c-0.22-0.05-0.52-0.29-0.54,0.19
		c-0.02,0.34-0.38,0.79,0.31,0.91c0.95,0.15,1.89,0.24,2.83-0.07c1.07-0.35,1.75-1.16,1.81-2.15
		C135.17,74.98,134.77,74.35,133.57,73.79z"/>
	<path class="st1" d="M55.93,73.74c-0.55-0.24-1.13-0.41-1.65-0.74c-0.46-0.29-0.69-0.69-0.59-1.23c0.1-0.57,0.49-0.88,1.03-0.99
		c0.6-0.12,1.21-0.08,1.8,0.07c0.29,0.08,0.34-0.01,0.4-0.27c0.1-0.51,0.07-0.85-0.58-0.83c-0.25,0.01-0.51-0.05-0.76-0.08
		c-0.43-0.03-0.84,0.06-1.25,0.16c-1.06,0.24-1.81,1.04-1.89,1.98c-0.11,1.16,0.28,1.83,1.41,2.37c0.52,0.25,1.07,0.45,1.59,0.7
		c0.57,0.27,0.92,0.7,0.82,1.39c-0.1,0.67-0.54,0.99-1.15,1.15c-0.66,0.17-1.29,0.04-1.93-0.09c-0.21-0.05-0.53-0.33-0.57,0.14
		c-0.03,0.34-0.36,0.86,0.36,0.96c0.88,0.12,1.75,0.22,2.63-0.04c1.2-0.36,1.93-1.2,2-2.32C57.65,74.98,57.15,74.29,55.93,73.74z"/>
	<path class="st1" d="M99.75,73.76c-0.55-0.25-1.11-0.47-1.65-0.74c-0.5-0.26-0.74-0.7-0.63-1.28c0.1-0.55,0.48-0.83,0.99-0.96
		c0.58-0.14,1.17-0.11,1.73,0.04c0.37,0.1,0.44,0.03,0.52-0.34c0.11-0.52,0-0.69-0.54-0.73c-0.63-0.05-1.25-0.09-1.87,0.04
		c-1.19,0.24-1.96,0.97-2.09,2.04c-0.14,1.09,0.34,1.87,1.5,2.41c0.55,0.25,1.11,0.47,1.65,0.74c0.49,0.25,0.79,0.67,0.71,1.25
		c-0.08,0.58-0.42,0.96-0.99,1.15c-0.7,0.23-1.4,0.17-2.06-0.04c-0.57-0.19-0.67-0.01-0.7,0.51c-0.03,0.39,0.09,0.55,0.45,0.59
		c0.35,0.04,0.69,0.08,1.11,0.13c0.47,0,1-0.02,1.52-0.18c1.18-0.36,1.89-1.17,1.97-2.27C101.45,75.01,100.96,74.31,99.75,73.76z"/>
	<path class="st2" d="M35.45,69.79c-1.67,0.02-3.35,0.01-5.02,0c-0.36,0-0.61,0-0.6,0.5c0.01,0.47,0.19,0.54,0.59,0.52
		c0.44-0.03,0.89,0.02,1.32-0.01c0.45-0.03,0.61,0.1,0.59,0.57c-0.04,1.07-0.01,2.14-0.01,3.21c0,1.09,0.03,2.19-0.01,3.28
		c-0.02,0.52,0.18,0.6,0.64,0.61c0.45,0,0.6-0.11,0.59-0.58c-0.03-1.72-0.02-3.44,0-5.16c0.01-0.62-0.27-1.41,0.13-1.81
		c0.37-0.36,1.15-0.09,1.75-0.1c0.36-0.01,0.61,0.01,0.61-0.5C36.02,69.85,35.85,69.78,35.45,69.79z"/>
	<path class="st3" d="M127.52,69.79c-1.68,0.01-3.35,0.01-5.03,0c-0.34,0-0.6-0.03-0.61,0.48c-0.01,0.53,0.25,0.55,0.63,0.53
		c0.39-0.02,0.79,0.03,1.19-0.01c0.47-0.04,0.65,0.09,0.64,0.6c-0.04,1.07-0.01,2.14-0.01,3.21c0,1.09,0.03,2.19-0.01,3.28
		c-0.03,0.58,0.28,0.55,0.68,0.57c0.46,0.02,0.59-0.13,0.58-0.58c-0.03-1.68-0.03-3.35,0-5.03c0.01-0.66-0.3-1.53,0.14-1.94
		c0.34-0.32,1.19-0.12,1.81-0.1c0.43,0.02,0.55-0.12,0.55-0.55C128.08,69.8,127.86,69.79,127.52,69.79z"/>
	<path class="st1" d="M50.38,33.42c1.16,0.04,2.15-0.9,2.17-2.07c0.02-1.18-0.9-2.15-2.08-2.17c-1.14-0.02-2.1,0.9-2.12,2.04
		C48.33,32.46,49.18,33.38,50.38,33.42z"/>
	<path class="st1" d="M59.12,33.42c1.16,0,2.12-0.96,2.12-2.13c0-1.14-0.92-2.08-2.07-2.11c-1.17-0.03-2.13,0.91-2.15,2.09
		C57.01,32.46,57.94,33.42,59.12,33.42z"/>
	<path class="st3" d="M50.05,77.36c-0.67,0.04-1.35-0.02-2.02,0.02c-0.49,0.03-0.62-0.14-0.62-0.62c0.03-2.12,0-4.23,0.02-6.35
		c0.01-0.48-0.11-0.62-0.61-0.63c-0.54-0.01-0.59,0.21-0.58,0.65c0.02,1.21,0.01,2.42,0.01,3.63c0,1.28,0.02,2.56-0.01,3.84
		c-0.01,0.42,0.1,0.57,0.54,0.56c1.07-0.03,2.14-0.03,3.21,0c0.41,0.01,0.53-0.13,0.5-0.52C50.48,77.61,50.53,77.33,50.05,77.36z"/>
	<path class="st5" d="M107.11,26.04c-0.18-0.42-0.8-0.57-0.69-1.16c0,0,0,0,0,0c0,0,0,0,0,0c-0.27-0.34-0.6-0.6-0.97-0.81
		c0,0,0,0,0,0l0,0c-0.14,0.06-0.24,0.15-0.3,0.3h0l0,0c0.15,0.34,0.65,0.35,0.74,0.81c-0.97,0.13-1.89-0.05-2.81-0.23
		c-0.4-0.08-0.77,0.01-1.15,0.12c0,0,0,0,0,0c0.25,0.32,0.52,0.6,0.85,0.83c1.09-0.03,2.17,0.09,3.25,0.25
		C106.38,26.21,106.76,26.24,107.11,26.04z"/>
	<path class="st6" d="M112,29.39C112,29.39,112,29.39,112,29.39c-0.28-0.18-0.56-0.36-0.85-0.54c0,0,0,0,0,0
		c-0.23-0.1-0.45-0.2-0.68-0.3c0,0,0,0,0,0c-1.95-0.19-3.9-0.37-5.85-0.56c0.21,0.34,0.49,0.61,0.81,0.84
		c1.87,0.18,3.74,0.36,5.61,0.53C111.36,29.4,111.68,29.38,112,29.39z"/>
	<path class="st7" d="M102.86,24.78c0.65,0.19,1.35,0,1.98,0.27c0.2,0.08,0.41,0.01,0.67-0.03c-0.12-0.27-0.45-0.37-0.44-0.67
		c0,0,0,0,0-0.01c-0.11-0.04-0.23-0.08-0.34-0.12c-1.18-0.13-2.36-0.27-3.54-0.41c-0.24-0.03-0.46,0.01-0.66,0.13h0l0,0
		c0.46,0.37,0.93,0.75,1.39,1.12h0C102.16,24.73,102.54,24.68,102.86,24.78z"/>
	<path class="st7" d="M103.07,24.95c0.92,0.18,1.85,0.36,2.81,0.23c-0.08-0.46-0.58-0.48-0.74-0.81l0,0
		c-0.02-0.01-0.05-0.02-0.07-0.02c0,0,0,0,0,0.01c-0.01,0.3,0.32,0.41,0.44,0.67c-0.26,0.04-0.48,0.11-0.67,0.03
		c-0.64-0.27-1.33-0.08-1.98-0.27c-0.32-0.1-0.7-0.05-0.94,0.28C102.3,24.96,102.67,24.87,103.07,24.95z"/>
	<path class="st8" d="M103.17,23.26c0-0.01,0-0.01,0-0.02c-0.27-0.14-0.55-0.28-0.82-0.42c-0.56-0.19-1.12-0.38-1.68-0.57
		c-1.05-0.31-2.13-0.26-3.2-0.29c0,0,0,0,0,0c-0.14,0.01-0.28,0.01-0.43,0.02v0c-0.03,0.04-0.06,0.08-0.09,0.12c0,0,0,0,0,0
		c0.84,0.19,1.56,0.66,2.34,1c1,0,1.98,0.13,2.97,0.26C102.56,23.39,102.89,23.49,103.17,23.26z"/>
	<path class="st9" d="M109.67,30.49c0.2,0.05,0.44,0.07,0.62,0c0.37-0.14,0.57-0.01,0.73,0.3c0,0,0,0,0,0l0,0c0.05,0,0.09,0,0.14,0
		c0.28-0.14,0.56-0.28,0.84-0.42c0.05-0.05,0.09-0.1,0.14-0.14l0,0c0,0,0,0,0,0c-0.15-0.27-0.41-0.39-0.69-0.4
		c-1.49-0.09-2.97-0.22-4.45-0.43c-0.31-0.04-0.59,0.09-0.88,0.14l0,0l0,0c0.21,0.32,0.5,0.54,0.83,0.7
		C107.87,30.21,108.77,30.26,109.67,30.49z"/>
	<path class="st10" d="M111.83,29.09c0.11,0.08,0.24,0.17,0.17,0.3c0,0,0,0,0.01,0c0.27,0.1,0.54,0.2,0.81,0.3c0,0,0,0,0,0
		c0,0,0,0,0,0c0.19,0.04,0.38,0.09,0.57,0.13c0,0,0,0,0,0c0,0,0,0,0,0c0.31-0.31,0.58,0.03,0.87,0.07c0.37,0.05,0.73,0.13,1.1,0.2
		c0.69,0.23,1.39,0.11,2.09,0.13c0,0,0,0,0,0c-0.97-0.51-1.94-1.01-2.91-1.52c-0.22,0.13-0.43,0.26-0.65,0.38
		c-0.25,0.14-0.48,0.45-0.8,0.29c-0.59-0.3-1.27-0.38-1.78-0.83c-0.03,0.06-0.06,0.12-0.09,0.17
		C111.42,28.85,111.63,28.96,111.83,29.09z"/>
	<path class="st10" d="M111.15,28.85C111.15,28.85,111.15,28.85,111.15,28.85c0.28,0.18,0.57,0.36,0.85,0.54
		c0.07-0.13-0.06-0.22-0.17-0.3c-0.2-0.13-0.41-0.24-0.61-0.37C111.19,28.76,111.17,28.8,111.15,28.85
		C111.15,28.85,111.15,28.85,111.15,28.85z"/>
	<path class="st11" d="M107.19,29.23c1.35,0.17,2.71,0.26,4.07,0.39c0.35,0.03,0.69,0.1,0.9,0.43c0.03,0.05,0.03,0.11,0.02,0.16
		c0.17-0.09,0.35-0.17,0.52-0.26l0,0c0.02-0.04,0.03-0.07,0.05-0.11c-0.27-0.11-0.56-0.18-0.74-0.45c0,0-0.01,0-0.01,0
		c-0.02,0.03-0.04,0.07-0.09,0.11c-0.17,0.08-0.36,0.11-0.55,0.09c-1.73-0.18-3.48-0.29-5.21-0.51c-0.26-0.03-0.5-0.09-0.73-0.23
		c0.18,0.28,0.42,0.51,0.69,0.7C106.39,29.15,106.8,29.18,107.19,29.23z"/>
	<path class="st11" d="M111.36,29.58c0.19,0.02,0.37,0,0.55-0.09c0.05-0.04,0.07-0.07,0.09-0.11c-0.32-0.01-0.64,0.01-0.96-0.02
		c-1.87-0.17-3.74-0.35-5.61-0.53c0.22,0.14,0.47,0.2,0.73,0.23C107.88,29.29,109.62,29.4,111.36,29.58z"/>
	<path class="st11" d="M107,29.39c1.48,0.21,2.96,0.33,4.45,0.43c0.28,0.02,0.54,0.13,0.69,0.4c0,0,0,0,0,0
		c0.01-0.01,0.02-0.01,0.04-0.02c0.01-0.05,0-0.1-0.02-0.16c-0.21-0.34-0.54-0.4-0.9-0.43c-1.36-0.13-2.72-0.22-4.07-0.39
		c-0.39-0.05-0.79-0.08-1.07,0.31l0,0C106.41,29.48,106.69,29.35,107,29.39z"/>
	<path class="st11" d="M112.75,29.84c0.02-0.05,0.05-0.1,0.07-0.15c0,0,0,0,0,0c-0.27-0.1-0.54-0.2-0.81-0.3
		C112.18,29.66,112.48,29.73,112.75,29.84z"/>
	<path class="st12" d="M119.68,28.54c-0.84-0.63-1.77-1.1-2.78-1.38c-0.32,0.14-0.63,0.29-0.87,0.55c0,0,0,0,0,0
		c1.02,0.44,2.07,0.84,2.96,1.53C119.31,29.09,119.49,28.81,119.68,28.54z"/>
	<path class="st13" d="M117.45,30.22C117.45,30.22,117.45,30.22,117.45,30.22C117.46,30.22,117.46,30.22,117.45,30.22
		c0.18,0.05,0.39-0.08,0.52,0.13c0,0,0,0,0,0l0.05,0.03c0.18-0.11,0.31-0.26,0.4-0.45c-0.29-0.5-0.85-0.58-1.3-0.84
		c-0.57-0.33-1.16-0.63-1.75-0.95c-0.31,0.14-0.6,0.32-0.84,0.56c1.09,0.16,1.96,0.79,2.87,1.34
		C117.47,30.09,117.48,30.15,117.45,30.22z"/>
	<path class="st13" d="M117.4,30.04c-0.91-0.55-1.78-1.18-2.87-1.34c0.97,0.51,1.94,1.01,2.91,1.52
		C117.48,30.15,117.47,30.09,117.4,30.04z"/>
	<path class="st14" d="M110.04,31.21c0.3-0.13,0.59-0.26,0.89-0.38c-0.67-0.26-1.39-0.24-2.08-0.29c-0.65-0.04-1.27-0.15-1.89-0.3
		c0.56,0.61,1.28,0.98,1.97,1.39C109.17,31.15,109.67,31.35,110.04,31.21z"/>
	<path class="st14" d="M110.93,30.83c0.03-0.01,0.06-0.03,0.09-0.04c0,0,0,0,0,0c-0.16-0.31-0.36-0.44-0.73-0.3
		c-0.18,0.07-0.42,0.05-0.62,0c-0.89-0.23-1.8-0.28-2.71-0.25c0.62,0.14,1.24,0.26,1.89,0.3C109.54,30.58,110.26,30.56,110.93,30.83
		z"/>
	<path class="st15" d="M101.31,23.66c1.06,0.13,2.12,0.17,3.17,0.35c-0.2-0.16-0.39-0.32-0.59-0.48c-0.23-0.09-0.47-0.19-0.7-0.28
		c0,0,0,0,0,0c-0.01,0.01-0.01,0.01-0.02,0.01c0.01,0.04,0.01,0.09,0.01,0.14c-0.16,0.16-0.37,0.2-0.58,0.17
		c-1.11-0.14-2.24-0.08-3.32-0.47c0.42,0.28,0.83,0.56,1.25,0.84C100.7,23.6,101.01,23.62,101.31,23.66z"/>
	<path class="st15" d="M101.2,23.81c1.18,0.14,2.36,0.27,3.54,0.41c-0.09-0.07-0.17-0.14-0.26-0.21c-1.05-0.18-2.11-0.22-3.17-0.35
		c-0.3-0.04-0.61-0.06-0.77,0.28h0C100.74,23.83,100.96,23.79,101.2,23.81z"/>
	<path class="st15" d="M103.18,23.4c0-0.05,0-0.1-0.01-0.14c-0.28,0.23-0.61,0.14-0.92,0.1c-0.99-0.13-1.97-0.25-2.97-0.26
		c1.07,0.39,2.21,0.33,3.32,0.47C102.8,23.6,103.01,23.55,103.18,23.4z"/>
	<path class="st16" d="M118.42,29.93c0.27-0.17,0.38-0.46,0.57-0.69c-1.02-0.44-2.06-0.86-2.96-1.53c0,0,0,0,0,0
		c-0.24,0.11-0.48,0.23-0.66,0.44c1.05,0.27,1.94,0.86,2.87,1.37C118.39,29.59,118.48,29.74,118.42,29.93z"/>
	<path class="st16" d="M116.03,27.71c0.9,0.67,1.94,1.09,2.96,1.53C118.1,28.54,117.06,28.14,116.03,27.71z"/>
	<path class="st16" d="M118.42,29.93c0.06-0.19-0.04-0.34-0.18-0.42c-0.93-0.51-1.83-1.1-2.87-1.37c0.58,0.32,1.17,0.62,1.75,0.95
		C117.57,29.35,118.13,29.44,118.42,29.93z"/>
	<path class="st17" d="M109.45,27.87c0-0.01,0-0.02,0-0.03c-0.21-0.26-0.56-0.34-0.81-0.54l0,0v0c-0.44,0.12-0.9-0.05-1.28-0.04
		c-0.69,0.02-1.34-0.33-2.03-0.14c-0.24,0.06-0.51,0.12-0.72-0.09c-0.26-0.26-0.51-0.11-0.76,0.01c0,0,0,0,0,0c0,0,0,0,0,0
		c0.08,0.24,0.24,0.41,0.44,0.54c1.45,0.01,2.88,0.21,4.31,0.38C108.9,28,109.19,28.02,109.45,27.87z"/>
	<path class="st18" d="M106.53,28c1.26,0.11,2.52,0.23,3.78,0.37c-0.22-0.17-0.55-0.22-0.69-0.5c-0.05,0-0.09-0.01-0.14-0.01
		c0,0,0,0,0,0c-0.01,0-0.02,0.01-0.02,0.01c0,0.03,0,0.06,0,0.09c-0.19,0.21-0.45,0.24-0.71,0.21c-1.29-0.16-2.58-0.23-3.87-0.39
		c-0.21-0.03-0.4-0.1-0.59-0.2c0.11,0.14,0.22,0.27,0.32,0.41c0,0,0,0,0,0l0,0C105.26,27.75,105.9,27.94,106.53,28z"/>
	<path class="st18" d="M110.31,28.37c-1.26-0.14-2.52-0.25-3.78-0.37c-0.63-0.06-1.27-0.25-1.91-0.01l0,0
		c1.95,0.19,3.9,0.37,5.85,0.56C110.43,28.47,110.37,28.42,110.31,28.37z"/>
	<path class="st18" d="M108.75,28.17c0.26,0.03,0.51,0,0.71-0.21c0-0.04,0-0.06,0-0.09c-0.27,0.15-0.55,0.13-0.85,0.1
		c-1.43-0.18-2.86-0.37-4.31-0.38c0.19,0.1,0.38,0.17,0.59,0.2C106.17,27.94,107.46,28.01,108.75,28.17z"/>
	<path class="st19" d="M104.27,26.76c0.64,0.27,1.31,0.1,1.96,0.19c0.75,0.1,1.5,0.26,2.27,0.24c-0.19-0.15-0.37-0.3-0.56-0.45
		c-0.97,0-1.93-0.13-2.9-0.23c-0.61-0.06-1.23-0.21-1.86-0.19c0.22,0.24,0.44,0.48,0.67,0.72C103.92,26.83,104.11,26.7,104.27,26.76
		z"/>
	<path class="st19" d="M104.61,27.03c0.21,0.2,0.48,0.15,0.72,0.09c0.69-0.19,1.34,0.16,2.03,0.14c0.39-0.01,0.84,0.16,1.28,0.04v0
		c-0.04-0.04-0.09-0.07-0.13-0.11c-0.77,0.02-1.52-0.14-2.27-0.24c-0.65-0.09-1.33,0.08-1.96-0.19c-0.16-0.07-0.35,0.07-0.42,0.27
		c0,0,0,0,0,0C104.1,26.92,104.35,26.77,104.61,27.03z"/>
	<path class="st15" d="M117.49,27.14c0.65,0.3,1.3,0.61,1.92,0.96c0.16,0.09,0.32,0.2,0.26,0.44c0.34-0.13,0.41-0.53,0.69-0.72
		c-0.8-0.41-1.6-0.83-2.4-1.24h0c0,0,0,0,0,0c-0.4,0.12-0.76,0.32-1.08,0.58C117.09,27.03,117.3,27.05,117.49,27.14z"/>
	<path class="st15" d="M119.42,28.1c-0.63-0.35-1.27-0.67-1.92-0.96c-0.19-0.09-0.4-0.1-0.6,0.02c1.02,0.28,1.94,0.75,2.78,1.38
		C119.74,28.3,119.58,28.19,119.42,28.1z"/>
	<path class="st20" d="M120.96,27.31c-0.36-0.71-1.25-0.72-1.7-1.31c0,0,0,0,0,0c0,0,0,0,0,0c-0.46,0.11-0.89,0.3-1.28,0.57
		c0.91,0.2,1.76,0.5,2.4,1.24C120.63,27.72,120.8,27.52,120.96,27.31z"/>
	<path class="st20" d="M120.38,27.82c-0.63-0.74-1.49-1.04-2.4-1.24h0C118.78,26.99,119.58,27.4,120.38,27.82z"/>
	<path class="st21" d="M105.01,26.33c0.96,0.09,1.93,0.14,2.88,0.26c0.02,0.01,0.04,0.02,0.05,0.02c0,0,0-0.01,0-0.01v0
		c-0.27-0.18-0.55-0.37-0.82-0.55c-0.02,0.04-0.03,0.09-0.08,0.14c-0.09,0.08-0.2,0.15-0.31,0.14c-1.33-0.04-2.66-0.1-3.96-0.43
		c0.09,0.18,0.24,0.32,0.42,0.42C103.79,25.98,104.42,26.28,105.01,26.33z"/>
	<path class="st21" d="M107.04,26.19c0.04-0.05,0.06-0.09,0.08-0.14c-0.01,0-0.01-0.01-0.02-0.01c-0.35,0.2-0.72,0.17-1.09,0.12
		c-1.08-0.16-2.16-0.28-3.25-0.25c1.3,0.33,2.63,0.39,3.96,0.43C106.85,26.34,106.95,26.26,107.04,26.19z"/>
	<path class="st21" d="M107.95,26.74c0-0.04,0-0.08,0-0.12c-0.02-0.01-0.04-0.02-0.05-0.02c-0.96-0.12-1.92-0.17-2.88-0.26
		c-0.59-0.05-1.21-0.35-1.82-0.02c0.63-0.02,1.25,0.13,1.86,0.19C106.01,26.61,106.97,26.74,107.95,26.74z"/>
	<path class="st22" d="M112.83,31.85c0.18-0.64,0.61-1.2,0.57-1.9c0-0.01,0-0.01,0-0.02c0,0,0,0-0.01,0
		c-0.19,0.03-0.37-0.01-0.55-0.06c-0.02,0.06-0.06,0.11-0.1,0.16c-0.02,0.02-0.05,0.04-0.07,0.06c-0.16,0.87-0.64,1.64-0.8,2.51
		c0.51,0.16,1.02,0.2,1.54,0.01c-0.01-0.01-0.01-0.02-0.02-0.02C112.59,32.62,112.61,32.62,112.83,31.85z"/>
	<path class="st22" d="M112.84,29.87c0.18,0.06,0.36,0.09,0.55,0.06c0,0,0,0,0.01,0c0-0.04-0.01-0.07-0.01-0.11c0,0,0,0,0,0
		c-0.19-0.04-0.38-0.09-0.57-0.13c0,0,0,0,0,0C112.86,29.76,112.86,29.81,112.84,29.87z"/>
	<path class="st22" d="M112.75,29.84c-0.02,0.04-0.03,0.07-0.05,0.11l0,0l0,0c-0.01,0.05-0.02,0.09-0.03,0.14
		c0.02-0.02,0.05-0.04,0.07-0.06c0.04-0.05,0.08-0.11,0.1-0.16c-0.02-0.01-0.04-0.01-0.05-0.01
		C112.77,29.85,112.76,29.85,112.75,29.84z"/>
	<path class="st22" d="M112.79,29.86c0.02,0.01,0.04,0.01,0.05,0.01c0.02-0.05,0.02-0.11-0.02-0.18c-0.02,0.05-0.05,0.1-0.07,0.15
		C112.76,29.85,112.77,29.85,112.79,29.86z"/>
	<path class="st23" d="M115.08,30.38L115.08,30.38c-0.34-0.15-0.71-0.23-1.08-0.27c0,0.01,0,0.02-0.01,0.02
		c0.2,0.16,0.15,0.36,0.08,0.58c-0.23,0.63-0.45,1.26-0.67,1.89l0,0c0,0,0,0.02,0,0.02c0.34,0,0.67,0.01,0.98-0.16
		C114.49,31.72,114.82,31.06,115.08,30.38L115.08,30.38z"/>
	<path class="st24" d="M121.78,26.7c0.37-0.23,0.75-0.45,1.12-0.68c-0.38-0.22-0.63-0.66-1.13-0.69c0,0,0,0,0,0c0,0,0,0,0,0
		c-0.63,0.01-1.23,0.16-1.81,0.42C120.63,25.95,121.24,26.26,121.78,26.7C121.78,26.7,121.78,26.7,121.78,26.7z"/>
	<path class="st25" d="M120.96,27.31c0.27-0.2,0.54-0.41,0.82-0.61c0,0,0,0,0,0c-0.66-0.21-1.27-0.51-1.81-0.94
		c-0.26,0-0.5,0.09-0.7,0.25c0.5,0.13,0.92,0.43,1.35,0.7C120.81,26.83,121.04,26.99,120.96,27.31z"/>
	<path class="st25" d="M120.96,27.31c0.08-0.32-0.15-0.48-0.35-0.61c-0.43-0.26-0.84-0.57-1.35-0.7c0,0,0,0,0,0
		C119.71,26.59,120.6,26.6,120.96,27.31z"/>
	<path class="st25" d="M119.96,25.76c0.54,0.43,1.16,0.73,1.81,0.94C121.24,26.26,120.63,25.95,119.96,25.76z"/>
	<path class="st26" d="M111.43,32c0.19-0.5,0.36-1.01,0.53-1.52c-0.24,0.19-0.5,0.34-0.82,0.39c0,0-0.01,0-0.01,0
		c-0.18,0.5-0.36,0.99-0.54,1.49h0c0,0,0,0,0,0c0.31,0.16,0.64,0.22,0.99,0.23C111.35,32.44,111.33,32.25,111.43,32z"/>
	<path class="st26" d="M111.16,30.79c-0.01,0.03-0.02,0.05-0.03,0.08c0,0,0.01,0,0.01,0c0.31-0.05,0.58-0.2,0.82-0.39
		c0.01-0.04,0.03-0.08,0.04-0.11C111.72,30.51,111.44,30.65,111.16,30.79z"/>
	<path class="st27" d="M112.52,30.25c0.01-0.03,0.03-0.05,0.04-0.08c-0.11,0.08-0.24,0.12-0.39,0.06c-0.01,0.05-0.03,0.1-0.07,0.15
		c-0.02,0.02-0.05,0.03-0.08,0.06c0.14,0.28-0.03,0.53-0.12,0.77c-0.17,0.45-0.34,0.89-0.33,1.38c0.1,0.01,0.19,0.01,0.29,0.02
		C111.71,31.71,112.26,31.02,112.52,30.25z"/>
	<path class="st27" d="M112.14,30.22c-0.05,0.05-0.09,0.1-0.14,0.14c0.02,0.02,0.01,0.04,0.03,0.07c0.02-0.02,0.05-0.03,0.08-0.06
		c0.04-0.05,0.06-0.1,0.07-0.15C112.16,30.23,112.15,30.23,112.14,30.22L112.14,30.22z"/>
	<path class="st27" d="M112.17,30.21c0,0.01,0,0.02,0,0.02c0.15,0.06,0.28,0.01,0.39-0.06c0.04-0.07,0.09-0.15,0.14-0.22
		C112.52,30.04,112.35,30.12,112.17,30.21z"/>
	<path class="st27" d="M112.17,30.21c-0.01,0.01-0.02,0.01-0.04,0.02c0.01,0.01,0.02,0,0.03,0.01
		C112.17,30.22,112.17,30.22,112.17,30.21z"/>
	<path class="st27" d="M112.56,30.17c-0.01,0.03-0.03,0.05-0.04,0.08c-0.26,0.77-0.81,1.46-0.66,2.35c0.16-0.87,0.64-1.64,0.8-2.51
		C112.63,30.12,112.6,30.14,112.56,30.17z"/>
	<path class="st27" d="M112.7,29.95c-0.05,0.07-0.1,0.14-0.14,0.22c0.03-0.02,0.07-0.05,0.1-0.07
		C112.67,30.04,112.69,30,112.7,29.95L112.7,29.95z"/>
	<path class="st27" d="M112.02,30.43c-0.02,0.02-0.04,0.03-0.06,0.05c-0.17,0.51-0.34,1.02-0.53,1.52c-0.1,0.25-0.08,0.43,0.14,0.59
		c-0.01-0.49,0.15-0.94,0.33-1.38C112,30.96,112.16,30.71,112.02,30.43z"/>
	<path class="st27" d="M111.96,30.48c0.02-0.02,0.04-0.03,0.06-0.05c-0.01-0.02-0.01-0.04-0.03-0.07
		C111.99,30.41,111.97,30.44,111.96,30.48z"/>
	<path class="st28" d="M122.9,26.02c0.66-0.14,1.28-0.41,1.97-0.47c-1.01-0.39-2.04-0.49-3.1-0.22
		C122.37,25.19,122.68,25.53,122.9,26.02z"/>
	<path class="st28" d="M122.9,26.02c-0.22-0.48-0.53-0.82-1.13-0.69c0,0,0,0,0,0C122.27,25.36,122.51,25.8,122.9,26.02z"/>
	<path class="st29" d="M115.31,31.55c0.1-0.39,0.4-0.73,0.32-1.17c0,0,0,0,0,0c0,0,0,0,0,0c-0.09,0-0.19,0-0.28,0
		c-0.08,0-0.16,0-0.24,0.01c-0.05,0.76-0.35,1.43-0.74,2.08c0.38-0.11,0.8-0.13,1.13-0.4C115.14,32,115.25,31.78,115.31,31.55z"/>
	<path class="st29" d="M115.08,30.38L115.08,30.38c-0.26,0.68-0.59,1.34-0.7,2.08c0.39-0.64,0.69-1.32,0.74-2.08
		C115.1,30.38,115.09,30.38,115.08,30.38z"/>
	<path class="st30" d="M117.77,30.37c-0.43,0.05-0.87,0.09-1.3,0.14c0,0,0,0,0,0c0,0,0,0,0,0c-0.12,0.43-0.43,0.8-0.41,1.27
		c0.72-0.37,1.42-0.79,1.96-1.41c-0.03,0-0.06,0-0.09,0C117.88,30.38,117.83,30.38,117.77,30.37z"/>
	<path class="st30" d="M117.77,30.37c0.05,0,0.11,0,0.16,0c0.03,0,0.06,0,0.09,0l-0.05-0.03C117.91,30.36,117.84,30.37,117.77,30.37
		z"/>
	<path class="st31" d="M116.41,30.5c-0.12-0.03-0.23-0.06-0.35-0.1c-0.08-0.01-0.16-0.02-0.24-0.04c-0.05,0-0.1,0-0.14,0.01
		c0.16,0.25,0.08,0.5-0.02,0.75c-0.12,0.3-0.21,0.6-0.15,0.93c0.22-0.02,0.4-0.11,0.55-0.26C115.81,31.25,116.09,30.87,116.41,30.5z
		"/>
	<path class="st31" d="M115.82,30.37c0.08,0.02,0.16,0.03,0.24,0.04C115.98,30.38,115.9,30.37,115.82,30.37z"/>
	<path class="st31" d="M115.66,31.12c0.1-0.24,0.18-0.5,0.02-0.75c-0.01,0-0.03,0-0.04,0c0,0,0,0,0,0c0.08,0.44-0.22,0.78-0.32,1.17
		c-0.06,0.24-0.18,0.45,0.19,0.51C115.44,31.72,115.53,31.42,115.66,31.12z"/>
	<path class="st31" d="M116.47,30.52c-0.02,0-0.04-0.01-0.06-0.02c-0.32,0.37-0.6,0.75-0.35,1.29
		C116.05,31.32,116.35,30.95,116.47,30.52C116.47,30.52,116.47,30.52,116.47,30.52z"/>
	<path class="st32" d="M111.1,30.86c-0.04,0-0.08-0.01-0.12-0.02c-0.21,0.33-0.6,0.35-0.91,0.51c-0.03,0.01-0.06,0.01-0.08,0.02
		c-0.07,0.22-0.15,0.45-0.22,0.67v0c0.26,0.15,0.52,0.29,0.82,0.32C110.45,31.74,110.71,31.28,111.1,30.86z"/>
	<path class="st32" d="M111.02,30.79L111.02,30.79c-0.01,0.02-0.03,0.03-0.04,0.05c0.04,0.01,0.08,0.02,0.12,0.02
		c0.02-0.02,0.04-0.05,0.06-0.07C111.11,30.79,111.07,30.79,111.02,30.79z"/>
	<path class="st32" d="M110.93,30.83c-0.3,0.13-0.59,0.26-0.89,0.38c-0.02,0.05-0.04,0.1-0.05,0.16c0.03-0.01,0.06-0.01,0.08-0.02
		c0.31-0.16,0.7-0.18,0.91-0.51C110.97,30.83,110.95,30.83,110.93,30.83C110.93,30.83,110.93,30.83,110.93,30.83z"/>
	<path class="st32" d="M110.93,30.83C110.93,30.83,110.93,30.83,110.93,30.83c0.02,0.01,0.04,0.01,0.05,0.01
		c0.01-0.02,0.03-0.03,0.04-0.05C110.99,30.8,110.96,30.81,110.93,30.83z"/>
	<path class="st32" d="M111.13,30.87c-0.01,0-0.02-0.01-0.03-0.01c-0.39,0.42-0.65,0.88-0.51,1.49h0
		C110.77,31.86,110.95,31.36,111.13,30.87z"/>
	<path class="st32" d="M111.1,30.86c0.01,0,0.02,0.01,0.03,0.01c0.01-0.03,0.02-0.05,0.03-0.08
		C111.14,30.81,111.12,30.84,111.1,30.86z"/>
	<path class="st33" d="M100.62,22.06c0.02,0.01,0.04,0.01,0.07,0.02c0.01-0.1,0.04-0.19,0.15-0.25c0,0,0,0,0,0c0,0,0,0,0,0
		c-0.49-0.25-1.02-0.28-1.55-0.27c-0.2,0.14-0.42,0.2-0.65,0.23C99.3,21.79,99.97,21.83,100.62,22.06z"/>
	<path class="st33" d="M100.62,22.06c-0.65-0.22-1.31-0.26-1.98-0.26c-0.39,0.06-0.8,0.03-1.17,0.17c1.07,0.03,2.16-0.02,3.2,0.29
		c0-0.06,0-0.12,0.01-0.17C100.66,22.07,100.64,22.06,100.62,22.06z"/>
	<path class="st34" d="M102.41,22.65c0.03-0.09,0.06-0.18,0.1-0.27c0,0,0,0,0,0c0,0,0,0,0,0c-0.51-0.32-1.07-0.49-1.67-0.55
		c0.01,0.1-0.01,0.19-0.06,0.28C101.33,22.25,101.87,22.44,102.41,22.65z"/>
	<path class="st34" d="M100.77,22.1c-0.03,0.05-0.05,0.1-0.1,0.14c0.56,0.19,1.12,0.38,1.68,0.57c0.02-0.05,0.04-0.11,0.06-0.16
		C101.87,22.44,101.33,22.25,100.77,22.1z"/>
	<path class="st34" d="M100.68,22.08c0.03,0.01,0.06,0.02,0.09,0.03c0.04-0.08,0.07-0.17,0.06-0.28c0,0,0,0,0,0
		C100.72,21.89,100.69,21.98,100.68,22.08z"/>
	<path class="st34" d="M100.68,22.08c-0.01,0.06-0.01,0.11-0.01,0.17c0.05-0.04,0.08-0.09,0.1-0.14
		C100.74,22.09,100.71,22.08,100.68,22.08z"/>
	<path class="st35" d="M107.96,26.53c0.01,0.01,0.02,0.02,0.02,0.03c0.01,0.02-0.01,0.04-0.01,0.07c0.28,0.12,0.55,0.25,0.64,0.57
		c0.35,0.14,0.83,0.14,0.85,0.65c0.01,0.01,0.02,0.01,0.02,0.02c0,0,0,0,0,0c0.04-0.04,0.1-0.05,0.15-0.04
		c0.01-0.1,0.05-0.2,0.16-0.25h0c0,0,0,0,0,0c-0.56-0.42-1.12-0.84-1.68-1.26C108.01,26.35,107.97,26.43,107.96,26.53z"/>
	<path class="st35" d="M108.64,27.3c0.25,0.2,0.6,0.28,0.81,0.54c-0.02-0.5-0.5-0.5-0.85-0.65
		C108.62,27.23,108.64,27.25,108.64,27.3L108.64,27.3z"/>
	<path class="st35" d="M109.63,27.82c-0.06,0-0.11,0-0.15,0.04c0.05,0,0.09,0.01,0.14,0.01C109.62,27.85,109.63,27.83,109.63,27.82z
		"/>
	<path class="st35" d="M108.61,27.19c-0.09-0.32-0.36-0.45-0.64-0.57c0,0.04,0.01,0.08-0.02,0.11c0.19,0.15,0.37,0.3,0.56,0.45
		C108.54,27.19,108.57,27.19,108.61,27.19C108.61,27.19,108.61,27.19,108.61,27.19z"/>
	<path class="st35" d="M108.61,27.19C108.61,27.19,108.61,27.19,108.61,27.19c-0.03,0-0.07,0-0.1,0c0.04,0.04,0.09,0.07,0.13,0.11
		C108.64,27.25,108.62,27.23,108.61,27.19z"/>
	<path class="st35" d="M107.98,26.56c-0.01-0.01-0.02-0.02-0.02-0.03c0,0.02-0.01,0.04-0.02,0.07l0,0v0c0,0,0,0.01,0,0.01
		c0.01,0,0.02,0.01,0.03,0.01C107.97,26.6,107.99,26.58,107.98,26.56z"/>
	<path class="st35" d="M107.94,26.61c0,0.04,0,0.08,0,0.12c0.03-0.03,0.02-0.07,0.02-0.11C107.96,26.62,107.95,26.62,107.94,26.61z"
		/>
	<path class="st36" d="M107.13,26.04c0.32,0.03,0.57,0.18,0.77,0.41c-0.02-0.1,0.03-0.16,0.21-0.15c-0.53-0.52-1.08-1.01-1.69-1.43
		c0.14,0.26,0.35,0.47,0.53,0.71C107.06,25.72,107.18,25.87,107.13,26.04z"/>
	<path class="st36" d="M107.11,26.04c0.01,0,0.01,0,0.02,0c0.06-0.17-0.06-0.32-0.17-0.46c-0.18-0.23-0.39-0.44-0.53-0.71
		c0,0,0,0,0,0C106.31,25.47,106.93,25.62,107.11,26.04z"/>
	<path class="st36" d="M107.13,26.04C107.12,26.04,107.12,26.05,107.13,26.04c0.27,0.19,0.54,0.37,0.82,0.56
		c-0.03-0.05-0.04-0.1-0.05-0.14C107.7,26.22,107.45,26.07,107.13,26.04z"/>
	<path class="st36" d="M107.11,26.04c0.01,0,0.01,0.01,0.02,0.01c0,0,0,0,0-0.01C107.12,26.04,107.11,26.04,107.11,26.04z"/>
	<path class="st36" d="M107.9,26.46c0.02,0.02,0.04,0.05,0.06,0.07c0.02-0.09,0.05-0.18,0.15-0.23
		C107.93,26.29,107.88,26.36,107.9,26.46z"/>
	<path class="st36" d="M107.96,26.53c-0.02-0.03-0.04-0.05-0.06-0.07c0.01,0.04,0.02,0.09,0.05,0.14l0,0
		C107.94,26.57,107.95,26.55,107.96,26.53z"/>
	<path class="st37" d="M102.47,22.69c0.25,0.17,0.64,0.19,0.7,0.55c0.01,0,0.01,0.01,0.02,0.01c0,0,0,0,0,0
		c0.27-0.11,0.48,0.07,0.7,0.16c0-0.12,0.01-0.23,0.01-0.35c0,0,0,0,0,0c0,0,0,0,0,0c-0.37-0.43-0.95-0.43-1.4-0.68
		C102.56,22.51,102.53,22.6,102.47,22.69z"/>
	<path class="st37" d="M102.47,22.69c-0.03,0.04-0.07,0.09-0.12,0.12c0.27,0.14,0.55,0.28,0.82,0.42
		C103.11,22.88,102.72,22.86,102.47,22.69z"/>
	<path class="st37" d="M103.19,23.25c0.23,0.09,0.47,0.19,0.7,0.28c0-0.04,0-0.08,0-0.12C103.67,23.32,103.46,23.13,103.19,23.25z"
		/>
	<path class="st37" d="M102.41,22.65c0.01,0,0.01,0,0.02,0.01c0.01,0.01,0.03,0.02,0.05,0.03c0.06-0.09,0.09-0.18,0.03-0.31
		c0,0,0,0,0,0C102.47,22.47,102.44,22.56,102.41,22.65z"/>
	<path class="st37" d="M102.47,22.69c-0.02-0.01-0.03-0.02-0.05-0.03c-0.01,0-0.01,0-0.02-0.01c-0.02,0.05-0.04,0.11-0.06,0.16
		C102.4,22.77,102.44,22.73,102.47,22.69z"/>
	<path class="st19" d="M103.95,23.43c0.25,0.19,0.58,0.3,0.72,0.6c0.18,0.03,0.33,0.09,0.43,0.24c0.05-0.16,0.15-0.26,0.35-0.21
		c-0.41-0.49-1.04-0.65-1.54-1.01C103.96,23.19,104,23.31,103.95,23.43z"/>
	<path class="st19" d="M105.1,24.28c0.02,0.03,0.04,0.05,0.05,0.08h0c0.05-0.14,0.16-0.24,0.3-0.3l0,0
		C105.24,24.02,105.15,24.12,105.1,24.28z"/>
	<path class="st19" d="M104.66,24.04c0.03,0.06,0.06,0.11,0.07,0.18c0.11,0.04,0.23,0.08,0.34,0.12c0.01-0.02,0.01-0.04,0.02-0.06
		C105,24.13,104.84,24.06,104.66,24.04z"/>
	<path class="st19" d="M105.08,24.34c0.02,0.01,0.05,0.02,0.07,0.02c-0.01-0.03-0.03-0.06-0.05-0.08
		C105.09,24.3,105.08,24.32,105.08,24.34z"/>
	<path class="st19" d="M104.66,24.04c-0.14-0.3-0.46-0.42-0.72-0.6c-0.01,0.03-0.03,0.06-0.06,0.09c0.2,0.16,0.39,0.32,0.59,0.48
		C104.54,24.02,104.6,24.03,104.66,24.04C104.66,24.04,104.66,24.04,104.66,24.04z"/>
	<path class="st19" d="M104.66,24.04c-0.06-0.01-0.12-0.02-0.19-0.03c0.09,0.07,0.17,0.14,0.26,0.21
		C104.72,24.15,104.69,24.09,104.66,24.04C104.66,24.04,104.66,24.04,104.66,24.04z"/>
	<path class="st19" d="M103.89,23.41c0.01,0.01,0.02,0.01,0.04,0.02c0,0,0.01,0.01,0.01,0.01c0.05-0.12,0.02-0.25-0.04-0.37
		c0,0,0,0,0,0C103.9,23.18,103.9,23.29,103.89,23.41z"/>
	<path class="st19" d="M103.93,23.43c-0.01,0-0.03-0.01-0.04-0.02c0,0.04,0,0.08,0,0.12c0.03-0.03,0.04-0.06,0.06-0.09
		C103.94,23.43,103.94,23.43,103.93,23.43z"/>
	<path class="st38" d="M97.1,21.86c0.14-0.05,0.29-0.06,0.43-0.06c0.02-0.02,0.04-0.04,0.07-0.05c0.55-0.1,1.11-0.2,1.68-0.19
		c-0.7-0.26-1.4-0.15-2.1,0c-0.03,0.1-0.07,0.21-0.1,0.31C97.08,21.87,97.09,21.86,97.1,21.86z"/>
	<path class="st38" d="M97.53,21.8c-0.15,0-0.29,0.01-0.43,0.06c-0.01,0.01-0.02,0.01-0.03,0.02c-0.01,0.04-0.02,0.07-0.04,0.11
		c0.14-0.01,0.28-0.01,0.43-0.02c0,0,0,0,0,0c0,0,0,0,0,0C97.46,21.89,97.49,21.84,97.53,21.8z"/>
	<path class="st38" d="M97.53,21.8c0.01,0,0.02,0,0.03,0c0.36,0,0.72,0,1.07,0c0.22-0.03,0.44-0.09,0.65-0.23
		c-0.57-0.01-1.12,0.08-1.68,0.19C97.57,21.75,97.56,21.78,97.53,21.8z"/>
	<path class="st38" d="M97.56,21.79c-0.01,0-0.02,0-0.03,0c-0.04,0.04-0.07,0.09-0.07,0.16c0,0,0,0,0,0
		c0.37-0.14,0.78-0.11,1.17-0.17C98.28,21.79,97.92,21.79,97.56,21.79z"/>
	<path class="st39" d="M110.41,28.38c0.27,0.03,0.5,0.17,0.73,0.29c0.03-0.06,0.09-0.1,0.16-0.13c-0.51-0.33-1.01-0.65-1.52-0.98
		c-0.01,0.1-0.05,0.18-0.12,0.25C109.92,28,110.29,28.06,110.41,28.38z"/>
	<path class="st39" d="M110.47,28.55C110.47,28.55,110.47,28.55,110.47,28.55c0.23,0.1,0.45,0.2,0.68,0.3
		c-0.03-0.07-0.03-0.12-0.01-0.17c-0.23-0.13-0.46-0.26-0.73-0.29C110.43,28.44,110.46,28.48,110.47,28.55
		C110.47,28.55,110.47,28.55,110.47,28.55z"/>
	<path class="st39" d="M111.14,28.68c0.02,0.01,0.04,0.02,0.06,0.03c0.01,0,0.01,0.01,0.02,0.01c0.03-0.06,0.06-0.12,0.09-0.17
		C111.23,28.58,111.17,28.62,111.14,28.68z"/>
	<path class="st39" d="M111.15,28.85C111.15,28.85,111.15,28.85,111.15,28.85c0.02-0.04,0.04-0.09,0.07-0.13
		c-0.01,0-0.01-0.01-0.02-0.01c-0.02-0.01-0.04-0.02-0.06-0.03C111.12,28.72,111.12,28.78,111.15,28.85z"/>
	<path class="st39" d="M110.31,28.37c0.01,0,0.02,0,0.03,0c0.03,0,0.05,0.01,0.08,0.01c-0.13-0.32-0.5-0.38-0.74-0.57
		c-0.02,0.02-0.03,0.04-0.05,0.05C109.75,28.15,110.08,28.19,110.31,28.37z"/>
	<path class="st39" d="M110.31,28.37c0.06,0.05,0.12,0.1,0.16,0.18c0,0,0,0,0,0c0-0.07-0.04-0.11-0.06-0.17
		c-0.03,0-0.05-0.01-0.08-0.01C110.33,28.37,110.32,28.37,110.31,28.37z"/>
	<path class="st39" d="M109.63,27.82c0.01,0,0.02-0.01,0.03-0.01c0,0,0.01,0,0.01,0.01c0.07-0.07,0.1-0.15,0.12-0.25h0
		C109.67,27.62,109.64,27.71,109.63,27.82z"/>
	<path class="st39" d="M109.67,27.81c0,0-0.01,0-0.01-0.01c-0.01,0-0.02,0.01-0.03,0.01c0,0.02-0.01,0.03-0.01,0.05
		C109.64,27.85,109.65,27.83,109.67,27.81z"/>
	<path class="st40" d="M109.83,31.4c-0.3,0.07-0.61,0.11-0.9,0.22h0l0,0c0.26,0.17,0.5,0.39,0.84,0.41c0,0,0,0,0,0
		C109.63,31.77,109.68,31.57,109.83,31.4z"/>
	<path class="st40" d="M109.83,31.4c0.06-0.07,0.13-0.13,0.21-0.19c-0.37,0.14-0.87-0.06-1.12,0.42h0
		C109.22,31.52,109.53,31.47,109.83,31.4z"/>
	<path class="st40" d="M109.83,31.4c-0.15,0.17-0.2,0.37-0.06,0.63c0.07-0.22,0.15-0.45,0.22-0.67
		C109.94,31.38,109.88,31.39,109.83,31.4z"/>
	<path class="st40" d="M109.83,31.4c0.05-0.01,0.11-0.02,0.16-0.04c0.02-0.05,0.04-0.1,0.05-0.16
		C109.96,31.27,109.89,31.34,109.83,31.4z"/>
	<path class="st41" d="M97.02,21.9c-0.03-0.14,0.07-0.24,0.16-0.34c-0.38,0.03-0.79-0.1-1.26,0.28c0.47-0.04,0.71,0.2,1.03,0.25
		c0,0,0,0,0,0C96.91,21.99,96.95,21.94,97.02,21.9z"/>
	<path class="st41" d="M97.04,21.98L97.04,21.98c-0.01-0.03-0.02-0.05-0.02-0.08c-0.06,0.04-0.11,0.09-0.07,0.2
		C96.98,22.06,97.01,22.02,97.04,21.98L97.04,21.98z"/>
	<path class="st41" d="M97.02,21.9c0.02-0.01,0.04-0.02,0.06-0.03c0.03-0.1,0.07-0.21,0.1-0.31C97.08,21.66,96.99,21.76,97.02,21.9z
		"/>
	<path class="st41" d="M97.02,21.9c0.01,0.02,0.01,0.05,0.02,0.08l0,0c0.01-0.04,0.02-0.07,0.04-0.11
		C97.05,21.88,97.04,21.89,97.02,21.9z"/>
	<path class="st42" d="M115.3,30.26c-0.13-0.02-0.26-0.04-0.39-0.07c0.07,0.04,0.15,0.09,0.21,0.15
		C115.18,30.3,115.24,30.27,115.3,30.26z"/>
	<path class="st42" d="M114.23,30.04c-0.25-0.05-0.5-0.09-0.75-0.1c0,0.01,0.01,0.01,0.02,0.02c0.16,0.01,0.32,0.05,0.46,0.14
		c0,0,0,0,0,0c0.01,0,0.02,0,0.04,0.01c0-0.03,0.01-0.05,0.02-0.07C114.08,30.03,114.16,30.03,114.23,30.04z"/>
	<path class="st42" d="M114.23,30.04c0.24,0.01,0.47,0.04,0.68,0.15c0.13,0.03,0.26,0.05,0.39,0.07c0.02,0,0.03-0.01,0.05-0.01
		c0-0.05,0-0.1,0-0.15c-0.37-0.07-0.73-0.15-1.1-0.2c-0.29-0.04-0.55-0.38-0.87-0.07c0,0,0,0,0,0c0.04,0.03,0.07,0.07,0.09,0.11
		C113.73,29.94,113.98,29.98,114.23,30.04z"/>
	<path class="st42" d="M113.48,29.94c-0.03,0-0.05-0.01-0.08-0.01c0,0.01,0,0.01,0,0.02c0.03,0,0.06,0.01,0.1,0.01
		C113.49,29.95,113.48,29.95,113.48,29.94z"/>
	<path class="st42" d="M113.48,29.94c-0.03-0.04-0.05-0.08-0.09-0.11c0,0.04,0.01,0.07,0.01,0.11
		C113.43,29.93,113.45,29.94,113.48,29.94z"/>
	<path class="st42" d="M114.91,30.19c-0.23-0.05-0.45-0.1-0.68-0.15c-0.07,0-0.15-0.01-0.22-0.01c0,0.03-0.01,0.05-0.02,0.07
		c0.37,0.04,0.74,0.12,1.08,0.27h0c0.01-0.02,0.03-0.02,0.05-0.04C115.06,30.27,114.99,30.23,114.91,30.19z"/>
	<path class="st42" d="M114.23,30.04c0.23,0.05,0.45,0.1,0.68,0.15C114.7,30.07,114.47,30.05,114.23,30.04z"/>
	<path class="st42" d="M115.3,30.26c-0.07,0.01-0.13,0.04-0.18,0.08c0,0,0,0,0,0c0,0.01,0,0.02,0,0.04c0.08,0,0.16,0,0.24-0.01
		c0-0.03,0-0.07,0-0.1C115.34,30.26,115.32,30.26,115.3,30.26z"/>
	<path class="st42" d="M115.36,30.25c-0.02,0-0.04,0.01-0.05,0.01c0.02,0,0.04,0.01,0.05,0.01
		C115.36,30.26,115.36,30.25,115.36,30.25z"/>
	<path class="st42" d="M115.12,30.34c-0.02,0.01-0.03,0.02-0.05,0.04c0.01,0,0.03,0,0.04,0C115.12,30.36,115.12,30.35,115.12,30.34
		C115.12,30.34,115.12,30.34,115.12,30.34z"/>
	<path class="st43" d="M117.54,30.31c-0.03-0.02-0.06-0.05-0.09-0.08c0,0,0,0,0,0c0,0-0.01,0-0.01,0c-0.01,0.03-0.02,0.06-0.06,0.09
		C117.44,30.31,117.49,30.31,117.54,30.31z"/>
	<path class="st43" d="M115.67,30.36c0.02-0.01,0.04-0.01,0.06-0.02c-0.06-0.01-0.12-0.02-0.18-0.04c0.04,0.01,0.08,0.01,0.11,0.03
		C115.67,30.35,115.67,30.35,115.67,30.36z"/>
	<path class="st43" d="M116.47,30.43c-0.04,0-0.07,0-0.11,0c0.02,0.02,0.04,0.03,0.07,0.05C116.44,30.47,116.46,30.45,116.47,30.43z
		"/>
	<path class="st43" d="M115.41,30.26c0.05,0,0.1,0.03,0.15,0.05c0.06,0.02,0.12,0.03,0.18,0.04c0.23-0.07,0.44-0.05,0.63,0.09
		c0.04,0,0.07,0,0.11,0c0,0,0,0,0,0c0.3-0.04,0.61-0.1,0.91-0.12c0.04-0.03,0.05-0.06,0.06-0.09c-0.7-0.02-1.41,0.1-2.09-0.13
		C115.41,30.15,115.42,30.2,115.41,30.26z"/>
	<path class="st43" d="M117.97,30.35L117.97,30.35C117.97,30.35,117.97,30.35,117.97,30.35c-0.13-0.21-0.34-0.09-0.52-0.13
		c0.03,0.04,0.06,0.06,0.09,0.08C117.69,30.31,117.83,30.32,117.97,30.35z"/>
	<path class="st43" d="M115.66,30.34c-0.03-0.02-0.07-0.02-0.11-0.03c-0.03-0.01-0.05-0.01-0.08-0.02c-0.02,0-0.05-0.01-0.07-0.01
		c-0.01,0.03-0.01,0.06-0.04,0.1c0.09,0,0.19,0,0.28,0c0,0,0,0,0,0c0.01-0.01,0.03-0.01,0.04-0.01
		C115.67,30.35,115.67,30.35,115.66,30.34z"/>
	<path class="st43" d="M115.47,30.29c0.03,0.01,0.05,0.01,0.08,0.02c-0.05-0.02-0.09-0.04-0.15-0.05c0,0.01-0.01,0.01-0.01,0.02
		C115.42,30.28,115.45,30.28,115.47,30.29z"/>
	<path class="st43" d="M117.39,30.31C117.38,30.32,117.38,30.32,117.39,30.31c-0.31,0.09-0.61,0.12-0.92,0.12
		c-0.01,0.02-0.03,0.03-0.04,0.05c0.01,0.01,0.03,0.02,0.05,0.03c0,0,0,0,0,0c0.43-0.05,0.87-0.09,1.3-0.14
		c-0.08-0.01-0.16-0.02-0.23-0.07C117.49,30.31,117.44,30.31,117.39,30.31z"/>
	<path class="st43" d="M117.39,30.31c-0.31,0.02-0.61,0.08-0.91,0.12c0,0,0,0,0,0C116.77,30.44,117.08,30.4,117.39,30.31
		C117.38,30.32,117.38,30.32,117.39,30.31z"/>
	<path class="st43" d="M117.54,30.31c0.07,0.05,0.15,0.06,0.23,0.07c0.07-0.01,0.13-0.01,0.2-0.02l0,0
		C117.83,30.32,117.69,30.31,117.54,30.31z"/>
	<path class="st43" d="M115.67,30.36C115.68,30.37,115.68,30.37,115.67,30.36c0.05,0,0.1,0,0.15,0c-0.03-0.01-0.06-0.01-0.09-0.02
		C115.71,30.35,115.69,30.36,115.67,30.36z"/>
	<path class="st43" d="M116.36,30.43c-0.1,0-0.2-0.01-0.3-0.03c0.12,0.03,0.23,0.07,0.35,0.1c0.01-0.01,0.01-0.01,0.02-0.02
		C116.41,30.46,116.38,30.45,116.36,30.43z"/>
	<path class="st43" d="M115.73,30.35c0.03,0.01,0.06,0.01,0.09,0.02c0.08,0.01,0.16,0.02,0.24,0.04c0.1,0.01,0.2,0.02,0.3,0.03
		C116.17,30.3,115.96,30.28,115.73,30.35z"/>
	<path class="st43" d="M115.64,30.37c0.01,0,0.03,0,0.04,0c0,0,0-0.01,0-0.01C115.66,30.37,115.65,30.37,115.64,30.37z"/>
	<path class="st43" d="M116.41,30.5c0.02,0,0.04,0.01,0.06,0.02c-0.01-0.01-0.03-0.02-0.05-0.03
		C116.42,30.49,116.42,30.49,116.41,30.5z"/>
	<path class="st43" d="M115.36,30.25c0.02,0,0.03,0.01,0.04,0.01c0.01-0.06,0-0.11-0.05-0.17C115.36,30.14,115.36,30.2,115.36,30.25
		C115.36,30.25,115.36,30.25,115.36,30.25z"/>
	<path class="st43" d="M115.36,30.27c0,0.03,0,0.07,0,0.1c0.03-0.03,0.03-0.06,0.04-0.1C115.39,30.27,115.37,30.27,115.36,30.27z"/>
	<path class="st43" d="M115.4,30.27c0,0,0.01-0.01,0.01-0.02c-0.02,0-0.03-0.01-0.04-0.01c0,0,0,0-0.01,0c0,0.01,0,0.01,0,0.02
		C115.37,30.27,115.39,30.27,115.4,30.27z"/>
	<path class="st44" d="M113.45,31.94c0.21-0.59,0.42-1.19,0.53-1.81c-0.01-0.01-0.02-0.02-0.03-0.03c0,0,0,0,0,0
		c-0.17,0.08-0.31,0.04-0.44-0.05c0.08,0.68-0.33,1.23-0.52,1.83c-0.13,0.41-0.05,0.59,0.34,0.67c0.01,0.02,0.03,0.03,0.04,0.05
		c0.01,0,0.01,0,0.02,0c0,0,0,0,0,0C113.22,32.36,113.38,32.15,113.45,31.94z"/>
	<path class="st44" d="M112.99,31.87c0.2-0.6,0.6-1.15,0.52-1.83c-0.04-0.03-0.08-0.06-0.12-0.09c0.03,0.7-0.39,1.27-0.57,1.9
		c-0.22,0.76-0.24,0.76,0.55,0.74c-0.01-0.02-0.03-0.03-0.04-0.05C112.94,32.46,112.86,32.28,112.99,31.87z"/>
	<path class="st44" d="M113.99,30.13c-0.12,0.62-0.32,1.22-0.53,1.81c-0.07,0.21-0.24,0.42-0.06,0.65c0.22-0.63,0.44-1.26,0.67-1.89
		C114.14,30.49,114.18,30.29,113.99,30.13z"/>
	<path class="st44" d="M113.5,29.96c0,0.01,0.01,0.01,0.01,0.02c0,0.02,0,0.05,0.01,0.07c0.13,0.09,0.27,0.13,0.44,0.05c0,0,0,0,0,0
		c0,0,0,0,0,0C113.81,30.01,113.66,29.97,113.5,29.96z"/>
	<path class="st44" d="M113.5,29.96c-0.03,0-0.06-0.01-0.1-0.01c0.04,0.03,0.08,0.07,0.12,0.09c0-0.02,0-0.05-0.01-0.07
		C113.51,29.97,113.5,29.97,113.5,29.96z"/>
</g>
</svg>
