<?xml version="1.0" encoding="utf-8"?>
<!-- Generator: Adobe Illustrator 25.4.1, SVG Export Plug-In . SVG Version: 6.00 Build 0)  -->
<svg version="1.1" id="Layer_1" xmlns="http://www.w3.org/2000/svg" xmlns:xlink="http://www.w3.org/1999/xlink" x="0px" y="0px"
	 viewBox="0 0 200 100" style="enable-background:new 0 0 200 100;" xml:space="preserve">
<style type="text/css">
	.st0{fill:#D3DADE;}
	.st1{fill:url(#SVGID_1_);}
	.st2{fill:#45596A;}
	.st3{fill:url(#SVGID_00000124880206866003438420000014688457522289516437_);}
</style>
<g>
	<path d="M9.62,49.73c0.27,0.01,0.27-0.23,0.33-0.38c1.53-4.24,3.05-8.47,4.58-12.71c0.65-1.79,1.3-3.58,1.94-5.38
		c0.11-0.3,0.26-0.4,0.57-0.39c0.95,0.02,1.9,0.03,2.85-0.01c0.41-0.02,0.49,0.2,0.59,0.5c0.8,2.29,1.61,4.59,2.42,6.87
		c1.34,3.75,2.67,7.5,4.03,11.24c0.18,0.49,0.13,0.65-0.43,0.62c-0.76-0.04-1.52-0.05-2.28,0c-0.48,0.03-0.66-0.17-0.79-0.59
		c-0.33-1.09-0.71-2.17-1.05-3.27c-0.11-0.36-0.28-0.51-0.68-0.5c-2.23,0.02-4.45,0.02-6.68,0c-0.44,0-0.65,0.16-0.77,0.57
		c-0.35,1.11-0.73,2.22-1.09,3.33c-0.1,0.33-0.25,0.48-0.63,0.46c-0.97-0.03-1.94-0.01-2.91-0.01C9.62,49.96,9.62,49.84,9.62,49.73z
		 M18.32,34.38c-1.08,2.97-2.01,5.87-2.99,8.83c1.93,0,3.79,0,5.66,0c0.26,0,0.31-0.09,0.22-0.35
		C20.26,40.07,19.39,37.25,18.32,34.38z"/>
	<path class="st0" d="M129.62,13.62c-0.12,0.19-0.31,0.1-0.47,0.1c-2.94,0-5.88,0-8.82,0c-0.2,0-0.42-0.08-0.58,0.12
		c-0.02-0.07-0.05-0.15-0.07-0.22C122.99,13.62,126.3,13.62,129.62,13.62z"/>
	<linearGradient id="SVGID_1_" gradientUnits="userSpaceOnUse" x1="161.0415" y1="61.3074" x2="181.453" y2="95.5787">
		<stop  offset="0" style="stop-color:#C14B4F"/>
		<stop  offset="1" style="stop-color:#AE151A"/>
	</linearGradient>
	<path class="st1" d="M168.1,85.62c-2.62-0.11-4.98-0.96-7.07-2.55c-1.6-1.21-2.77-2.79-3.76-4.51c-1.18-2.05-2.35-4.09-3.54-6.14
		c-1.05-1.82-2.11-3.63-3.17-5.45c-0.21-0.36-0.41-0.71-0.61-1.07c0.19-0.2,0.01-0.39-0.03-0.57c-0.72-3-0.27-5.81,1.43-8.38
		c1-1.51,2.31-2.73,3.86-3.68c2.12-1.3,4.4-2.19,6.84-2.66c0.62,0.77,1.24,1.54,1.85,2.31c1.2,1.51,2.39,3.03,3.58,4.55
		c1.28,1.64,2.56,3.28,3.84,4.91c1.09,1.38,2.18,2.76,3.27,4.14c1.16,1.49,2.32,2.98,3.48,4.47c1.07,1.37,2.17,2.72,3.24,4.09
		c0.87,1.1,1.71,2.22,2.58,3.33c0.63,0.81,1.28,1.62,1.91,2.43c1.04,1.32,2.07,2.64,3.11,3.96c0.18,0.23,0.37,0.46,0.56,0.69
		c-0.2,0.22-0.47,0.11-0.7,0.11c-6.1,0.01-12.2,0-18.29,0.01C169.7,85.61,168.9,85.62,168.1,85.62z"/>
	<path class="st0" d="M162.06,50.61c-2.45,0.46-4.72,1.36-6.84,2.66c-1.55,0.95-2.86,2.16-3.86,3.68c-1.7,2.57-2.15,5.38-1.43,8.38
		c0.04,0.19,0.22,0.37,0.03,0.57c-1.14-1.94-2.3-3.86-3.4-5.82c-1.29-2.3-2.73-4.51-3.85-6.9c-0.43-0.92-0.76-1.88-0.87-2.89
		c-0.18-1.68,0.58-2.89,1.97-3.78c1.52-0.97,3.21-1.42,4.94-1.82c1.43-0.33,2.89-0.48,4.34-0.67c0.5-0.07,1.01-0.08,1.51-0.1
		c2.12-0.12,4.25-0.22,6.37-0.11c1.29,0.06,2.61,0.1,3.86,0.46c1.62,0.46,3.28,0.82,4.66,1.92c1.35,1.06,2.21,2.41,2.69,4.03
		c0.05,0.18-0.03,0.24-0.25,0.17c-1.93-0.68-3.95-0.45-5.92-0.4C164.7,50.01,163.35,50.18,162.06,50.61z"/>
	<path d="M40.04,50.05c-0.86,0.01-1.71-0.01-2.57,0.03c-0.43,0.02-0.55-0.12-0.54-0.55c0.02-2.99,0.03-5.98,0-8.97
		c-0.01-0.79-0.21-1.53-0.75-2.19c-0.77-0.95-2.75-0.94-3.62,0.58c-0.62,1.09-0.87,2.29-0.87,3.53c0,2.36,0,4.72,0.02,7.08
		c0,0.4-0.1,0.53-0.51,0.51c-0.74-0.03-1.49-0.03-2.23,0c-0.4,0.02-0.52-0.1-0.51-0.51c0.02-3.75,0-7.5,0.03-11.25
		c0.01-0.82-0.13-1.62-0.14-2.44c0-0.4,0.16-0.47,0.51-0.46c0.59,0.02,1.18,0.03,1.77,0c0.46-0.03,0.6,0.18,0.6,0.59
		c0,0.5-0.06,1.01,0.16,1.49c1.68-3.03,6.36-3.28,8.13,0.21c0.48-0.75,1.02-1.46,1.78-1.89c1.72-0.98,3.48-0.87,5.17,0.06
		c1.45,0.79,1.98,2.18,2,3.73c0.05,3.29,0.01,6.59,0.02,9.88c0,0.43-0.09,0.62-0.56,0.58c-0.61-0.04-1.22-0.05-1.83,0
		c-0.55,0.04-0.74-0.1-0.74-0.7c0.04-2.86,0.03-5.71,0.01-8.57c0-0.86-0.18-1.71-0.74-2.38c-1.01-1.21-2.95-0.85-3.77,0.68
		c-0.5,0.93-0.71,1.95-0.77,2.99c-0.13,0.25-0.07,0.52-0.07,0.78C40.03,45.27,40.04,47.66,40.04,50.05z"/>
	<path d="M42.18,54.85c1.16,3.29,2.3,6.59,3.47,9.87c1.1,3.07,2.22,6.13,3.35,9.19c0.08,0.22,0.04,0.28-0.16,0.28
		c-1.03,0-2.05,0-3.08,0.01c-0.21,0-0.21-0.13-0.27-0.28c-0.54-1.26-0.87-2.59-1.34-3.87c-0.03-0.09-0.05-0.18-0.14-0.23
		c-0.19-0.02-0.37-0.05-0.56-0.05c-2.21,0-4.42,0-6.62,0c-0.19,0-0.38-0.05-0.56,0.06c-0.45,1.32-0.92,2.63-1.35,3.95
		c-0.11,0.34-0.27,0.44-0.6,0.43c-0.84-0.02-1.67-0.01-2.51,0c-0.32,0-0.38-0.07-0.26-0.39c0.89-2.37,1.75-4.74,2.62-7.12
		c0.74-2.03,1.46-4.06,2.19-6.09c0.69-1.92,1.4-3.84,2.1-5.75C39.69,54.85,40.93,54.85,42.18,54.85z M40.21,58.35
		c-0.12,0.12-0.16,0.14-0.17,0.17c-0.93,2.75-1.84,5.5-2.78,8.24c-0.15,0.43,0.03,0.44,0.35,0.44c1.67-0.01,3.35-0.01,5.02,0
		c0.48,0.01,0.54-0.15,0.38-0.57c-0.59-1.65-1.15-3.3-1.71-4.96C40.94,60.6,40.59,59.51,40.21,58.35z"/>
	<path d="M101.92,48.26c-0.75,1.01-1.66,1.64-2.82,1.95c-2.7,0.74-5.34-0.78-5.73-3.8c-0.4-3.07,1.64-4.77,3.89-5.38
		c1.28-0.35,2.58-0.51,3.92-0.46c0.63,0.03,0.77-0.19,0.66-0.8c-0.33-1.77-1.34-2.07-2.85-2.14c-1.29-0.06-2.55,0.24-3.72,0.82
		c-0.64,0.32-0.72,0.27-0.73-0.42c-0.01-0.55,0.01-1.1-0.01-1.66c-0.01-0.28,0.12-0.41,0.37-0.49c1.63-0.5,3.29-0.82,5-0.67
		c1.39,0.12,2.71,0.42,3.73,1.49c0.9,0.94,1.29,2.08,1.31,3.34c0.03,2.27-0.01,4.53,0.01,6.8c0.01,0.87,0.12,1.73,0.21,2.59
		c0.04,0.42,0.01,0.69-0.53,0.65c-0.64-0.05-1.3-0.03-1.94,0c-0.44,0.02-0.66-0.15-0.61-0.58
		C102.11,49.09,101.98,48.73,101.92,48.26z M101.76,44.67c0.08-0.68,0.15-1.35-0.02-2.03c-1.17,0-2.34,0.03-3.46,0.45
		c-0.88,0.33-1.51,0.87-1.75,1.83c-0.24,0.99,0.1,2.16,0.88,2.69c0.7,0.48,1.81,0.44,2.66-0.07
		C101.17,46.89,101.49,45.8,101.76,44.67z"/>
	<path d="M54.08,43.55c0,1.1,0.26,2.14,0.99,2.98c0.65,0.75,1.53,1.11,2.51,1.26c1.33,0.2,2.56-0.11,3.76-0.66
		c0.64-0.3,0.84-0.17,0.87,0.55c0.02,0.49,0.12,0.97,0.11,1.47c-0.01,0.36-0.12,0.52-0.48,0.63c-1.64,0.48-3.29,0.76-5.01,0.56
		c-1.56-0.18-2.98-0.63-4.09-1.78c-0.97-1-1.54-2.23-1.72-3.59c-0.25-1.94-0.28-3.87,0.43-5.75c0.81-2.16,2.28-3.65,4.59-3.95
		c2.02-0.26,4.01-0.03,5.52,1.65c0.91,1.02,1.38,2.22,1.56,3.55c0.12,0.92-0.01,1.84,0,2.76c0,0.1-0.01,0.19-0.12,0.23
		c-2.75,0.01-5.5,0.01-8.25,0.02C54.52,43.46,54.28,43.39,54.08,43.55z M54.14,41.25c1.87,0,3.75,0,5.63,0
		c0.25,0,0.24-0.17,0.25-0.35c0.06-0.78-0.19-1.48-0.58-2.14c-0.87-1.49-3.49-1.57-4.48-0.16C54.4,39.39,54.2,40.27,54.14,41.25z"/>
	<path d="M92.49,74.16c-0.91,0.01-1.83,0-2.74,0.04c-0.44,0.02-0.37-0.27-0.37-0.52c0-2.8,0.01-5.6-0.01-8.4
		c0-0.51,0.03-1.01-0.07-1.53c-0.2-1.02-0.69-1.79-1.7-2c-1.11-0.23-2.01,0.23-2.69,1.17c-0.8,1.11-1.07,2.37-1.09,3.68
		c-0.05,2.36-0.02,4.72,0,7.08c0,0.38-0.08,0.54-0.5,0.52c-0.87-0.04-1.75-0.03-2.62-0.04c-0.01-0.25-0.01-0.49-0.02-0.74
		c-0.03-3.89,0.06-7.77-0.05-11.66c-0.07-0.63,0-1.28-0.16-1.91c-0.06-0.24-0.01-0.44,0.33-0.43c0.76,0.02,1.52,0.01,2.27,0
		c0.18,0,0.29,0.04,0.26,0.25c0.09,0.64-0.05,1.29,0.11,1.93c0.49-0.43,0.68-1.1,1.24-1.5c0.61-0.44,1.25-0.77,1.98-0.84
		c1.75-0.17,3.44-0.12,4.75,1.31c0.68,0.75,1.03,1.63,1.07,2.64C92.48,66.87,92.49,70.52,92.49,74.16z"/>
	<path d="M116.39,40.16c-0.19-1.66-1.02-2.49-2.4-2.42c-0.91,0.04-1.56,0.53-2.06,1.23c-0.74,1.03-1.01,2.23-1.03,3.47
		c-0.03,2.36-0.01,4.71,0.01,7.07c0,0.44-0.11,0.6-0.57,0.58c-0.85-0.04-1.71-0.02-2.56-0.03c0-3.74-0.01-7.48-0.01-11.21
		c0-0.24-0.04-0.49-0.05-0.73c-0.1-0.73,0.05-1.48-0.13-2.21c-0.08-0.31,0.03-0.49,0.41-0.47c0.66,0.03,1.33,0.01,2,0.01
		c0.27,0,0.45,0.06,0.44,0.37c0.07,0.6-0.06,1.21,0.09,1.81c0.35-0.17,0.41-0.57,0.63-0.84c0.82-0.99,1.83-1.52,3.11-1.56
		c1.16-0.03,2.3,0,3.31,0.68c1.25,0.84,1.93,2.07,1.97,3.51c0.09,3.42,0.03,6.85,0.04,10.27c0,0.29-0.08,0.41-0.39,0.4
		c-0.91-0.02-1.83-0.02-2.74-0.03c0-3.05,0-6.11-0.01-9.16C116.45,40.64,116.49,40.39,116.39,40.16z"/>
	<path d="M113.68,74.4c-1.32,0.12-2.59-0.2-3.83-0.68c-0.34-0.13-0.53-0.32-0.48-0.72c0.07-0.58,0.09-1.17,0.13-1.75
		c0.03-0.43,0.29-0.3,0.51-0.19c0.73,0.36,1.47,0.69,2.28,0.78c1.2,0.13,2.42,0.15,3.49-0.57c0.81-0.54,0.8-1.78,0-2.35
		c-0.69-0.49-1.47-0.77-2.26-1.03c-1.12-0.38-2.24-0.74-3.15-1.57c-1.28-1.16-1.48-3.66-0.45-5.09c0.97-1.34,2.32-1.87,3.91-2.03
		c1.27-0.13,2.49,0.05,3.71,0.36c0.13,0.03,0.25,0.07,0.37,0.11c0.78,0.26,0.84,0.36,0.84,1.18c0,0.46,0.01,0.91-0.01,1.37
		c-0.01,0.33-0.17,0.47-0.51,0.33c-0.45-0.19-0.88-0.42-1.35-0.58c-0.95-0.32-1.91-0.41-2.89-0.21c-0.66,0.14-1.52,0.64-1.4,1.69
		c0.07,0.65,0.53,0.97,1,1.28c0.57,0.38,1.23,0.56,1.87,0.76c1.04,0.32,2.04,0.73,2.9,1.41c0.68,0.54,1.1,1.3,1.24,2.15
		c0.19,1.19,0.18,2.36-0.61,3.4c-0.87,1.15-2.08,1.62-3.42,1.87C114.95,74.42,114.33,74.45,113.68,74.4z"/>
	<path d="M84.7,42.85c-0.04,1.26,0.14,2.47,0.81,3.57c0.61,1,2.32,1.46,3.35,1.29c0.81-0.13,1.57-0.35,2.31-0.66
		c0.42-0.18,0.69-0.14,0.63,0.43c-0.05,0.49,0.13,0.97,0.11,1.47c-0.01,0.34-0.13,0.52-0.42,0.66c-2.52,1.23-5.83,1.04-7.98-0.8
		c-1.03-0.88-1.57-2.09-1.85-3.41c-0.5-2.35-0.45-4.66,0.57-6.89c0.78-1.69,2.08-2.73,3.91-3.11c1.66-0.35,3.29-0.3,4.88,0.35
		c0.92,0.38,1.05,0.65,0.86,1.74c-0.02,0.13-0.08,0.26-0.09,0.38c-0.07,0.88-0.1,0.89-0.93,0.49c-1.25-0.61-2.56-0.8-3.87-0.32
		c-1.35,0.49-1.9,1.63-2.18,2.95C84.69,41.61,84.71,42.23,84.7,42.85z"/>
	<path d="M67.31,54.09c0.87-0.01,1.75,0,2.62-0.03c0.41-0.02,0.51,0.12,0.51,0.52c-0.02,1.75-0.01,3.5-0.01,5.25
		c0,4.6-0.01,9.2,0.01,13.8c0,0.43-0.09,0.6-0.56,0.58c-0.85-0.05-1.71-0.03-2.56-0.04C67.32,67.47,67.32,60.78,67.31,54.09z"/>
	<path d="M59.91,61.61c0.41-0.81,0.9-1.58,1.73-2.01c1.15-0.6,2.36-0.5,3.58-0.17c0.23,0.06,0.18,0.21,0.18,0.35
		c0.01,0.59,0.03,1.18,0.01,1.77c-0.01,0.51-0.25,0.69-0.72,0.52c-1.06-0.4-2.01-0.23-2.91,0.45c-0.77,0.58-1.07,1.43-1.3,2.3
		c-0.26,1-0.23,2.02-0.23,3.05c0.01,1.94-0.01,3.88,0.01,5.83c0,0.39-0.1,0.53-0.5,0.51c-0.74-0.03-1.49-0.03-2.23,0
		c-0.39,0.01-0.52-0.08-0.52-0.5c0.02-3.83,0-7.66,0.03-11.48c0.01-0.76-0.1-1.51-0.13-2.27c-0.01-0.37,0.06-0.56,0.49-0.54
		c0.68,0.03,1.37,0.02,2.06,0c0.29-0.01,0.37,0.1,0.32,0.36C59.87,60.39,59.71,61.01,59.91,61.61z"/>
	<path d="M68.73,50.04c-0.87,0.01-1.75,0-2.62,0.03c-0.42,0.02-0.5-0.14-0.5-0.52c0.01-3.69-0.01-7.38,0.03-11.07
		c0.01-0.86-0.17-1.69-0.14-2.55c0.01-0.38,0.09-0.54,0.51-0.52c0.59,0.03,1.18,0.04,1.77,0c0.47-0.03,0.6,0.19,0.6,0.59
		c0,0.52,0,1.04,0.06,1.57c0.39-0.44,0.6-0.95,1.01-1.36c0.55-0.54,1.2-0.88,1.92-0.98c0.66-0.09,1.36-0.11,2.03,0.08
		c0.34,0.1,0.63,0.3,0.56,0.66c-0.11,0.57-0.08,1.13-0.11,1.69c-0.02,0.4-0.13,0.54-0.61,0.39c-1.65-0.52-3.18-0.02-3.94,1.83
		c-0.29,0.7-0.43,1.44-0.5,2.2c-0.02,0.32-0.05,0.64-0.05,0.96C68.73,45.39,68.73,47.72,68.73,50.04z"/>
	<path d="M53.51,74.17c-0.87,0.01-1.75,0-2.62,0.04c-0.38,0.01-0.48-0.11-0.48-0.48c0.02-1.9,0.01-3.81,0.01-5.71
		c0-2.68,0.01-5.37-0.01-8.05c0-0.43,0.12-0.56,0.55-0.54c0.85,0.04,1.71,0.03,2.57,0.04C53.52,64.36,53.52,69.26,53.51,74.17z"/>
	<path d="M77.06,74.16c-0.91,0.01-1.82,0.01-2.73,0.04c-0.32,0.01-0.39-0.13-0.37-0.41c0.02-0.38,0-0.76,0-1.14
		c0-4.2,0.01-8.39-0.01-12.59c0-0.47,0.08-0.68,0.62-0.64c0.83,0.06,1.67,0.03,2.5,0.04c0.01,2.7,0.01,5.39,0.01,8.09
		C77.08,69.76,77.07,71.96,77.06,74.16z"/>
	<path d="M75.67,35.46c0.91-0.01,1.82-0.01,2.74-0.03c0.31-0.01,0.39,0.11,0.38,0.4c-0.01,0.89,0,1.79,0,2.68
		c0,3.67-0.01,7.34,0.01,11.01c0,0.45-0.11,0.59-0.57,0.57c-0.85-0.04-1.71-0.02-2.57-0.03C75.66,45.19,75.66,40.32,75.67,35.46z"/>
	<path d="M77.14,55.67c-0.01,0.52,0.28,1.22-0.07,1.52c-0.3,0.26-0.97,0.1-1.48,0.09c-0.52-0.01-1.2,0.23-1.53-0.11
		c-0.3-0.31-0.09-0.98-0.08-1.48c0.01-0.52-0.24-1.19,0.11-1.53c0.32-0.31,0.98-0.1,1.49-0.09c0.52,0.01,1.22-0.24,1.52,0.11
		C77.34,54.49,77.14,55.16,77.14,55.67z"/>
	<path d="M53.51,54.07c0.26,0.21,0.12,0.49,0.12,0.74c0.02,0.7,0.01,1.4,0.01,2.1c0,0.19,0.03,0.39-0.27,0.38
		c-0.93-0.01-1.86-0.01-2.79-0.01c-0.08,0-0.14-0.04-0.16-0.13c-0.04-1.03-0.05-2.06,0-3.1l-0.01,0.01
		C51.44,54.07,52.47,54.07,53.51,54.07z"/>
	<path d="M77.22,33.3c-0.58-0.08-1.25,0.21-1.58-0.13c-0.3-0.32-0.09-0.98-0.08-1.49c0.01-0.52-0.24-1.22,0.11-1.52
		c0.3-0.26,0.98-0.1,1.48-0.09c0.52,0.02,1.2-0.24,1.53,0.11c0.3,0.32,0.09,0.98,0.08,1.49c-0.01,0.52,0.24,1.22-0.11,1.52
		C78.34,33.45,77.67,33.28,77.22,33.3z"/>
	<path class="st2" d="M168.1,85.62c0.8,0,1.59-0.01,2.39-0.01c6.1,0,12.2,0,18.29-0.01c0.23,0,0.5,0.11,0.7-0.11
		c0.16,0.04,0.18,0.16,0.04,0.21c-0.17,0.06-0.38,0.04-0.56,0.04c-6.78,0-13.56,0-20.34,0C168.45,85.74,168.24,85.84,168.1,85.62z"
		/>
	<path d="M67.31,54.09c0,6.69,0.01,13.38,0.01,20.07c-0.18-0.11-0.08-0.28-0.08-0.41c-0.01-6.41-0.01-12.82,0-19.24
		C67.24,54.38,67.17,54.21,67.31,54.09z"/>
	<path d="M77.06,74.16c0.01-2.2,0.02-4.41,0.02-6.61c0-2.7-0.01-5.39-0.01-8.09c0.13,0.1,0.07,0.25,0.07,0.37c0,4.66,0,9.32,0,13.97
		C77.14,73.92,77.22,74.07,77.06,74.16z"/>
	<path d="M53.51,74.17c0-4.9,0.01-9.81,0.01-14.71c0.15,0.09,0.08,0.24,0.08,0.36c0,4.67,0,9.33,0,14
		C53.6,73.93,53.69,74.09,53.51,74.17z"/>
	<path d="M75.67,35.46c0,4.86-0.01,9.73-0.01,14.59c-0.16-0.11-0.08-0.28-0.08-0.42c0-4.59,0-9.18,0-13.77
		C75.58,35.73,75.48,35.56,75.67,35.46z"/>
	
		<linearGradient id="SVGID_00000111912131444830915920000006948840996670638238_" gradientUnits="userSpaceOnUse" x1="132.5909" y1="20.2332" x2="151.3814" y2="50.9878">
		<stop  offset="0" style="stop-color:#018BC9"/>
		<stop  offset="1" style="stop-color:#164E90"/>
	</linearGradient>
	<path style="fill:url(#SVGID_00000111912131444830915920000006948840996670638238_);" d="M155.68,42.24
		c-0.06,0.1-0.14,0.15-0.23,0.17C155.54,42.39,155.61,42.34,155.68,42.24c-0.11-0.13-0.23-0.25-0.33-0.38
		c-0.86-1.15-1.7-2.3-2.56-3.44c-1.39-1.85-2.77-3.7-4.2-5.52c-0.56-0.72-0.98-1.55-1.69-2.15c-0.52-0.9-1.19-1.69-1.81-2.52
		c-1.73-2.31-3.51-4.59-5.25-6.89c-1.42-1.88-2.78-3.79-4.56-5.37c-1.41-1.25-2.99-1.97-4.86-2.14c-0.14-0.01-0.38,0.09-0.33-0.22
		c-0.15,0-0.3,0-0.46,0c-0.12,0.19-0.31,0.1-0.47,0.1c-2.94,0-5.88,0-8.82,0c-0.2,0-0.42-0.08-0.58,0.12
		c0.87,1.52,1.72,3.05,2.6,4.56c1.28,2.21,2.59,4.41,3.88,6.61c1.12,1.92,2.25,3.83,3.37,5.75c0.01,0.06,0,0.12,0.02,0.17
		c1.42,2.42,2.83,4.85,4.27,7.26c0.85,1.42,1.8,2.75,3.38,3.47c1.45,0.66,3.01,0.8,4.57,0.86c0.05-0.05,0.11-0.07,0.17-0.09
		c-0.06,0.02-0.12,0.05-0.17,0.09c0.09,0.01,0.19,0.02,0.28,0.02c4.39,0,8.79,0,13.18,0c0.13,0,0.28,0.01,0.39-0.04
		C155.85,42.43,155.78,42.32,155.68,42.24z M142.28,42.4c0.06,0,0.12,0.01,0.18,0.01C142.41,42.41,142.34,42.4,142.28,42.4z
		 M155,42.41L155,42.41c-2.07,0-4.15,0-6.22,0C150.85,42.41,152.93,42.41,155,42.41z"/>
	<path d="M80.63,61.76c0.11,3.89,0.02,7.77,0.05,11.66c0,0.25,0.01,0.49,0.02,0.74c-0.18-0.11-0.08-0.28-0.08-0.41
		C80.61,69.76,80.62,65.76,80.63,61.76z"/>
	<path d="M107.7,38.1c0.02,0.24,0.05,0.49,0.05,0.73c0.01,3.74,0.01,7.48,0.01,11.21c-0.13-0.1-0.08-0.24-0.08-0.37
		C107.69,45.82,107.7,41.96,107.7,38.1z"/>
	<path d="M92.49,74.16c0-3.65-0.01-7.29-0.01-10.94c0.16,0.05,0.09,0.19,0.09,0.29c0,3.45,0,6.9,0,10.36
		C92.57,73.97,92.63,74.09,92.49,74.16z"/>
	<path class="st0" d="M116.39,40.16c0.11,0.24,0.06,0.49,0.06,0.73c0.01,3.05,0.01,6.11,0.01,9.16c-0.12-0.08-0.08-0.2-0.08-0.31
		C116.38,46.54,116.38,43.35,116.39,40.16z"/>
	<path d="M54.08,43.55c0.2-0.16,0.44-0.08,0.66-0.08c2.75-0.01,5.5-0.02,8.25-0.02c-0.14,0.21-0.35,0.1-0.52,0.1
		C59.67,43.55,56.88,43.55,54.08,43.55z"/>
	<path d="M98.19,67.54c0.21-0.13,0.45-0.07,0.67-0.07c2.74-0.01,5.48-0.02,8.22-0.03c-0.17,0.2-0.39,0.09-0.58,0.09
		C103.73,67.54,100.96,67.54,98.19,67.54z"/>
	<path d="M68.73,50.04c0-2.33,0-4.66,0.01-6.98c0-0.32,0.04-0.64,0.05-0.96c0,2.52,0.01,5.05,0.01,7.57
		C68.8,49.8,68.86,49.94,68.73,50.04z"/>
	<path d="M40.04,50.05c0-2.39,0-4.78,0-7.17c0-0.26-0.05-0.53,0.07-0.78c0,2.53,0.01,5.06,0.01,7.59
		C40.12,49.81,40.19,49.96,40.04,50.05z"/>
	<path d="M36.25,69.82c0.18-0.1,0.37-0.06,0.56-0.06c2.21,0,4.42,0,6.62,0c0.19,0,0.37,0.03,0.56,0.05
		C41.42,69.82,38.83,69.82,36.25,69.82z"/>
	<path d="M42.18,54.85c-1.24,0-2.49-0.01-3.73-0.01C39.69,54.73,40.93,54.72,42.18,54.85z"/>
	<path d="M50.42,54.06c-0.05,1.03-0.05,2.06,0,3.1c-0.23-0.85-0.04-1.71-0.09-2.57C50.32,54.41,50.23,54.2,50.42,54.06z"/>
	<path d="M53.51,54.07c-1.03,0-2.06,0-3.1,0c0.26-0.22,0.57-0.11,0.85-0.1C52.01,54.01,52.77,53.82,53.51,54.07z"/>
	<path d="M83.44,61.61c-0.16-0.64-0.02-1.29-0.11-1.93C83.56,60.31,83.35,60.97,83.44,61.61z"/>
	<path d="M94.99,65.85c-0.05,0.64-0.05,1.28,0,1.92C94.83,67.13,94.84,66.49,94.99,65.85z"/>
	<path d="M106.38,73.56c-0.02-0.63-0.05-1.25-0.07-1.88C106.53,72.3,106.33,72.93,106.38,73.56z"/>
	<path d="M102.29,59.21c-0.6-0.06-1.2-0.09-1.8,0C101.09,59.07,101.69,59.06,102.29,59.21z"/>
	<path d="M110.52,37.61c-0.16-0.6-0.03-1.21-0.09-1.81C110.64,36.39,110.46,37.01,110.52,37.61z"/>
	<path d="M59.91,61.61c-0.2-0.6-0.04-1.22-0.12-1.83C60.04,60.38,59.79,61.01,59.91,61.61z"/>
	<path d="M101.76,44.67c-0.01-0.68-0.01-1.35-0.02-2.03C101.91,43.32,101.84,43.99,101.76,44.67z"/>
	<path d="M98.21,67.46c0,1.1,0.26,2.14,0.99,2.98c0.65,0.75,1.53,1.11,2.51,1.26c1.33,0.2,2.56-0.11,3.76-0.66
		c0.64-0.3,0.84-0.17,0.87,0.55c0.02,0.49,0.12,0.97,0.11,1.47c-0.01,0.36-0.12,0.52-0.48,0.63c-1.64,0.48-3.29,0.76-5.01,0.56
		c-1.56-0.18-2.98-0.63-4.09-1.78c-0.97-1-1.54-2.23-1.72-3.59c-0.25-1.94-0.28-3.87,0.43-5.75c0.81-2.16,2.28-3.65,4.59-3.95
		c2.02-0.26,4.01-0.03,5.52,1.65c0.91,1.02,1.38,2.22,1.56,3.55c0.12,0.92-0.01,1.84,0,2.76c0,0.1-0.01,0.19-0.12,0.23
		c-2.75,0.01-5.5,0.01-8.25,0.02C98.65,67.38,98.42,67.31,98.21,67.46z M98.27,65.17c1.87,0,3.75,0,5.63,0
		c0.25,0,0.24-0.17,0.25-0.35c0.06-0.78-0.19-1.48-0.58-2.14c-0.87-1.49-3.49-1.57-4.48-0.16C98.53,63.31,98.33,64.19,98.27,65.17z"
		/>
</g>
</svg>
