<?xml version="1.0" encoding="utf-8"?>
<!-- Generator: Adobe Illustrator 25.4.1, SVG Export Plug-In . SVG Version: 6.00 Build 0)  -->
<svg version="1.1" id="Layer_1" xmlns="http://www.w3.org/2000/svg" xmlns:xlink="http://www.w3.org/1999/xlink" x="0px" y="0px"
	 viewBox="0 0 200 100" style="enable-background:new 0 0 200 100;" xml:space="preserve">
<style type="text/css">
	.st0{fill:#E71243;}
	.st1{fill:#E71444;}
</style>
<g>
	<path class="st0" d="M189.52,44.77c-1.65,0.01-3.29,0.01-4.94,0.04c-0.35,0.01-0.49-0.09-0.47-0.46c0.03-0.42,0.01-0.84,0.01-1.39
		c-0.76,0.73-1.51,1.28-2.37,1.67c-5.44,2.43-11.71-1.04-12.62-6.98c-0.34-2.25-0.27-4.49,0.47-6.65c1.4-4.06,4.39-6.29,8.55-6.85
		c3.93-0.53,7.76-0.02,11.37,1.76c0.04,0.02,0.1,0.01,0.15,0.01c0,0.1,0,0.2,0,0.3c-0.26,0.25-0.14,0.56-0.14,0.85
		C189.52,32.97,189.52,38.87,189.52,44.77z M184.12,32.87c0-1.37-0.03-2.49,0.01-3.61c0.02-0.51-0.11-0.75-0.66-0.83
		c-1.29-0.2-2.59-0.26-3.88-0.07c-2.01,0.28-3.58,1.27-4.34,3.22c-0.86,2.17-0.85,4.39,0.06,6.55c0.86,2.05,2.68,3.02,4.89,2.75
		c2.04-0.25,3.39-1.63,3.79-3.84C184.24,35.56,184.04,34.09,184.12,32.87z"/>
	<path class="st1" d="M189.67,76.08c-1.4,0-2.79-0.02-4.19,0.01c-0.47,0.01-0.58-0.13-0.58-0.59c0.01-7.25,0.01-14.5,0-21.75
		c0-0.43,0.14-0.61,0.54-0.72c1.42-0.39,2.82-0.8,4.24-1.21C189.67,59.91,189.67,68,189.67,76.08z"/>
	<path class="st1" d="M46.74,82.82c-0.65-0.49-1.36-0.9-1.64-1.75c-0.42-1.3,0.2-2.67,1.48-3.2c1.26-0.52,2.8,0.01,3.42,1.2
		c0.61,1.16,0.21,2.6-0.93,3.34c-0.22,0.14-0.46,0.27-0.69,0.41C47.84,82.82,47.29,82.82,46.74,82.82z"/>
	<path class="st1" d="M53.78,82.82c-0.65-0.48-1.36-0.9-1.64-1.75c-0.42-1.3,0.2-2.67,1.48-3.2c1.26-0.52,2.8,0.01,3.43,1.19
		c0.62,1.18,0.19,2.67-0.99,3.39c-0.21,0.13-0.42,0.24-0.63,0.36C54.88,82.82,54.33,82.82,53.78,82.82z"/>
	<path class="st1" d="M124.43,82.82c-0.81-0.45-1.57-0.95-1.8-1.94c-0.31-1.35,0.41-2.66,1.72-3.08c1.34-0.43,2.87,0.26,3.35,1.52
		c0.49,1.28-0.11,2.7-1.41,3.3c-0.12,0.06-0.32-0.01-0.36,0.2C125.43,82.82,124.93,82.82,124.43,82.82z"/>
	<path class="st1" d="M131.48,82.82c-0.81-0.45-1.57-0.95-1.8-1.94c-0.31-1.35,0.41-2.65,1.71-3.08c1.33-0.43,2.87,0.26,3.35,1.52
		c0.49,1.28-0.11,2.7-1.4,3.3c-0.12,0.06-0.32,0-0.36,0.2C132.48,82.82,131.98,82.82,131.48,82.82z"/>
	<path class="st1" d="M138.53,82.82c-0.81-0.45-1.58-0.92-1.81-1.93c-0.31-1.37,0.46-2.72,1.79-3.11c1.35-0.4,2.85,0.33,3.3,1.61
		c0.47,1.32-0.16,2.69-1.48,3.26c-0.1,0.04-0.26,0-0.29,0.17C139.53,82.82,139.03,82.82,138.53,82.82z"/>
	<path class="st1" d="M189.52,44.77c0-5.9,0-11.8,0.01-17.69c0-0.28-0.11-0.6,0.14-0.85c0,6.19,0,12.38,0,18.57
		C189.62,44.78,189.57,44.78,189.52,44.77z"/>
	<path class="st0" d="M56.78,58.31c0,3.23,0,6.42,0,9.62c0,0.72,0,1.45,0.13,2.16c0.21,1.21,0.89,1.86,2.11,1.94
		c0.55,0.04,1.1-0.02,1.65,0.04c0.66,0.07,0.88-0.12,0.88-0.84c-0.03-5.74,0-11.48-0.04-17.22c0-0.68,0.21-0.96,0.85-1.11
		c1.28-0.31,2.54-0.69,3.86-1.06c0,2.16,0.02,4.26-0.01,6.35c-0.01,0.6,0.07,0.76,0.72,0.54c2.38-0.79,4.79-1.02,7.18-0.04
		c3.07,1.27,4.5,3.74,4.86,6.9c0.23,2.06,0.05,4.09-0.82,6c-0.18,0.4-0.03,0.46,0.33,0.46c1.02-0.02,2.05,0.02,3.07-0.03
		c1.2-0.05,1.86-0.68,2.1-1.85c0.15-0.74,0.13-1.49,0.13-2.24c0-4.69,0.01-9.38-0.01-14.07c0-0.51,0.13-0.74,0.64-0.86
		c1.11-0.28,2.22-0.58,3.3-0.96c0.68-0.23,0.78-0.02,0.78,0.61c-0.02,4.99-0.02,9.98-0.01,14.97c0,0.75,0.03,1.5,0.1,2.24
		c0.12,1.39,0.9,2.12,2.29,2.17c0.95,0.03,1.9-0.02,2.85,0.03c0.57,0.03,0.71-0.14,0.7-0.7c-0.03-3.92-0.01-7.84-0.01-11.75
		c0-1.95,0.02-3.89-0.01-5.84c-0.01-0.46,0.13-0.65,0.58-0.76c1.13-0.29,2.26-0.62,3.38-0.97c0.56-0.18,0.76-0.11,0.75,0.55
		c-0.03,3.42-0.01,6.84-0.01,10.26c0,4.17-0.01,8.33,0.01,12.5c0,0.61-0.18,0.74-0.75,0.73c-2.65-0.03-5.3,0.01-7.95-0.02
		c-1.69-0.02-3.16-0.5-4.04-2.31c-0.6,1.18-1.5,1.86-2.7,2.11c-0.59,0.12-1.18,0.21-1.78,0.21c-7.65,0-15.3,0-22.95,0
		c-1.79,0-3.39-0.41-4.28-2.32c-0.97,1.91-2.62,2.28-4.4,2.31c-1.95,0.04-3.9,0.02-5.85,0c-0.41,0-0.61,0.05-0.67,0.54
		c-0.44,3.75-2.72,5.66-6.57,5.55c-1.23-0.04-2.43-0.23-3.6-0.63c-0.44-0.15-0.6-0.32-0.4-0.8c0.28-0.66,0.51-1.35,0.72-2.04
		c0.13-0.41,0.27-0.55,0.74-0.38c0.88,0.32,1.79,0.43,2.72,0.2c1.07-0.26,1.63-0.86,1.73-1.97c0.03-0.37,0.03-0.75,0.03-1.12
		c0-5.04,0.01-10.08-0.01-15.12c0-0.5,0.1-0.75,0.64-0.88c1.16-0.28,2.31-0.63,3.45-1c0.53-0.17,0.67-0.09,0.66,0.49
		c-0.02,4.12,0,8.23-0.03,12.35c0,0.64,0.12,0.85,0.81,0.83c1.62-0.06,3.25-0.01,4.87-0.03c1.59-0.02,2.33-0.69,2.49-2.29
		c0.27-2.79,0.07-5.58,0.12-8.38c0.03-1.8,0-1.81,1.71-2.3c0.93-0.27,1.87-0.53,2.8-0.79C56.66,58.29,56.68,58.3,56.78,58.31z
		 M66.22,67.25c0,1.12,0,2.24,0,3.36c0,1.64,0,1.64,1.62,1.83c3.38,0.4,5.72-1.11,6.29-4.06c0.12-0.64,0.1-1.29,0.07-1.94
		c-0.2-4.05-3.9-6.15-7.48-4.25c-0.35,0.18-0.5,0.39-0.5,0.81C66.24,64.41,66.22,65.83,66.22,67.25z"/>
	<path class="st1" d="M116.66,74.16c-2.56,2.3-5.36,2.51-8.26,1.31c-2.96-1.23-4.23-3.74-4.51-6.79c-0.14-1.57-0.03-3.15,0.5-4.65
		c1.22-3.49,3.8-5.38,7.37-5.84c2.93-0.38,5.82,0,8.61,1.08c0.73,0.28,1.05,0.66,1.04,1.51c-0.06,3.54-0.01,7.09-0.04,10.63
		c0,0.51,0.12,0.68,0.66,0.67c1.7-0.04,3.4,0,5.1-0.03c1.49-0.03,2.27-0.73,2.41-2.21c0.28-2.99,0.07-5.98,0.12-8.97
		c0.02-1.29,0-1.3,1.27-1.66c0.93-0.27,1.88-0.5,2.8-0.81c0.55-0.19,0.6-0.01,0.6,0.48c-0.01,3.22-0.01,6.44,0,9.66
		c0,0.55,0.05,1.1,0.14,1.64c0.19,1.17,0.89,1.83,2.08,1.87c1.87,0.05,3.75,0.01,5.62,0.04c0.57,0.01,0.41-0.38,0.41-0.66
		c0.01-3.64,0.03-7.29-0.02-10.93c-0.01-0.71,0.2-1,0.88-1.16c1.04-0.24,2.07-0.56,3.09-0.89c0.58-0.19,0.79-0.15,0.79,0.57
		c-0.04,3.52-0.02,7.04-0.02,10.55c0,1.95-0.01,3.89,0.01,5.84c0.01,0.5-0.11,0.69-0.66,0.68c-3.45-0.02-6.9,0-10.35-0.02
		c-1.96-0.01-2.75-0.44-4.17-2.22c-0.85,1.71-2.41,2.18-4.12,2.2c-3.6,0.05-7.2,0.01-10.8,0.03c-0.48,0-0.61-0.17-0.57-0.61
		C116.69,75.08,116.66,74.68,116.66,74.16z M116.63,65.58c0.01,0,0.02,0,0.03,0c0-1.02-0.02-2.04,0.01-3.06
		c0.01-0.42-0.1-0.61-0.56-0.69c-1.07-0.18-2.15-0.22-3.2-0.07c-2.07,0.29-3.47,1.43-4,3.5c-0.38,1.48-0.36,2.96,0.16,4.41
		c0.72,2.01,2.32,2.95,4.45,2.66c1.72-0.24,2.97-1.7,3.09-3.69C116.68,67.62,116.63,66.6,116.63,65.58z"/>
	<path class="st1" d="M165.74,76.09c-3.2,0-6.4,0-9.6,0c-0.31,0-0.62-0.1-0.67,0.43c-0.37,3.84-2.71,5.61-6.43,5.63
		c-1.33,0.01-2.63-0.22-3.89-0.68c-0.35-0.13-0.46-0.29-0.31-0.65c0.28-0.69,0.53-1.4,0.75-2.11c0.14-0.44,0.3-0.6,0.79-0.4
		c0.7,0.28,1.45,0.38,2.21,0.28c1.54-0.19,2.2-0.92,2.24-2.47c0.01-0.27,0.01-0.55,0.01-0.82c0-4.96,0.01-9.93-0.02-14.89
		c0-0.65,0.2-0.91,0.81-1.05c1.09-0.26,2.17-0.58,3.23-0.93c0.56-0.18,0.71-0.09,0.7,0.52c-0.03,4.17-0.01,8.33-0.01,12.5
		c0,1.09,0,1.09,1.13,1.09c0.85,0,1.7-0.02,2.55,0.01c0.52,0.02,0.61-0.07,0.42-0.6c-1.08-2.98-1.11-5.97,0.29-8.86
		c1.51-3.12,4.09-4.74,7.54-4.97c1.89-0.12,3.74,0.03,5.46,0.95c0.45,0.24,0.63,0.44,0.32,0.96c-0.46,0.77-0.86,1.57-1.24,2.39
		c-0.21,0.45-0.37,0.55-0.88,0.32c-1.93-0.86-3.83-0.86-5.58,0.47c-0.26,0.19-0.49,0.43-0.69,0.68c-1.67,2.06-1.55,6.12,0.21,8.1
		c0.36,0.4,0.74,0.58,1.3,0.57c2.37-0.03,4.75-0.01,7.12-0.01c0.27,0,0.55,0,0.82-0.02c1.43-0.1,2.18-0.84,2.28-2.27
		c0.02-0.3,0.01-0.6,0.01-0.9c0-5.06,0.02-10.13-0.02-15.19c0-0.7,0.15-1.05,0.88-1.21c1.14-0.25,2.26-0.63,3.38-0.96
		c0.31-0.09,0.51-0.13,0.5,0.32c-0.06,6.11,0.15,12.23-0.12,18.33c-0.12,2.75-1.89,4.71-4.51,5.26c-0.71,0.15-1.43,0.21-2.16,0.2
		C171.64,76.08,168.69,76.09,165.74,76.09z"/>
	<path class="st0" d="M89.83,44.8c-0.77-0.05-1.94,0.37-2.6-0.15c-0.62-0.48-0.72-1.63-1.05-2.49c-0.37-0.98-0.74-1.96-1.08-2.94
		c-0.13-0.37-0.3-0.55-0.74-0.55c-4,0.02-8,0.02-12,0c-0.45,0-0.6,0.19-0.73,0.56c-0.6,1.66-1.23,3.31-1.83,4.98
		c-0.15,0.43-0.35,0.63-0.85,0.61c-1.52-0.04-3.05-0.03-4.57-0.01c-0.49,0.01-0.66-0.06-0.46-0.61c3.27-8.99,6.75-17.89,10.69-26.61
		c0.16-0.35,0.34-0.47,0.72-0.47c2,0.02,4,0.02,6,0c0.41,0,0.62,0.12,0.79,0.5c3.93,8.73,7.42,17.63,10.68,26.62
		c0.18,0.49,0.1,0.6-0.41,0.58C91.6,44.78,90.8,44.8,89.83,44.8z M78.46,21.83c-1.75,3.69-3.09,7.47-4.52,11.21
		c-0.23,0.6,0.21,0.47,0.5,0.47c2.6,0.01,5.2-0.02,7.79,0.02c0.7,0.01,0.65-0.22,0.45-0.72c-0.89-2.3-1.74-4.61-2.62-6.91
		C79.55,24.54,79,23.19,78.46,21.83z"/>
	<path class="st0" d="M9.67,44.8c0.99-2.66,1.93-5.23,2.91-7.79c2.47-6.49,5.09-12.93,7.93-19.27c0.22-0.49,0.48-0.64,1-0.63
		c1.92,0.03,3.85,0.02,5.77,0c0.39,0,0.63,0.08,0.81,0.47c3.98,8.84,7.51,17.85,10.8,26.97c0.02,0.04,0,0.1,0,0.25
		c-1.33,0-2.66,0-3.99,0c-1.77,0-1.77,0-2.4-1.68c-0.48-1.31-0.98-2.61-1.44-3.93c-0.14-0.4-0.34-0.53-0.76-0.52
		c-3.97,0.02-7.95,0.02-11.92,0c-0.46,0-0.64,0.16-0.79,0.58c-0.6,1.69-1.25,3.36-1.86,5.04c-0.11,0.29-0.18,0.53-0.59,0.53
		C13.37,44.79,11.6,44.8,9.67,44.8z M24.33,21.67c-1.62,3.83-2.97,7.65-4.42,11.43c-0.18,0.47,0.14,0.41,0.41,0.41
		c2.67,0,5.34-0.01,8.01,0.01c0.54,0.01,0.56-0.15,0.39-0.59c-0.89-2.32-1.76-4.65-2.65-6.97C25.53,24.55,25.03,23.12,24.33,21.67z"
		/>
	<path class="st1" d="M140.37,26.37c3.81-3.78,9.82-2.61,12.53,0.32c1.86,2.02,2.62,4.43,2.63,7.12c0.02,3.23-0.74,6.19-3.18,8.49
		c-2.04,1.92-4.59,2.65-7.29,2.93c-3.2,0.34-6.39,0-9.57-0.31c-0.47-0.05-0.68-0.2-0.67-0.73c0.02-8.28,0.02-16.57,0-24.85
		c0-0.49,0.16-0.68,0.63-0.81c1.35-0.35,2.69-0.76,4.03-1.15c0.9-0.26,0.9-0.26,0.9,0.71C140.37,20.81,140.37,23.52,140.37,26.37z
		 M140.37,36.54c0,1.37,0.02,2.52-0.01,3.67c-0.01,0.44,0.16,0.61,0.57,0.69c1.26,0.22,2.54,0.26,3.8,0.11
		c2.3-0.28,3.96-1.46,4.7-3.71c0.55-1.67,0.56-3.39,0.11-5.09c-0.69-2.65-2.49-3.93-5.16-3.74c-2.2,0.16-3.65,1.77-3.95,4.42
		C140.29,34.18,140.41,35.48,140.37,36.54z"/>
	<path class="st1" d="M124.27,43.07c-0.79,0.73-1.64,1.32-2.62,1.71c-5.31,2.09-11.19-1.2-12.22-6.85
		c-0.38-2.09-0.34-4.18,0.22-6.23c1.07-3.95,3.67-6.42,7.62-7.32c3.95-0.9,7.84-0.34,11.61,1.09c0.76,0.29,1.07,0.69,1.06,1.59
		c-0.06,5.66-0.04,11.33-0.01,16.99c0,0.63-0.17,0.8-0.79,0.78c-1.37-0.05-2.75-0.04-4.12,0c-0.53,0.01-0.7-0.15-0.66-0.67
		C124.39,43.81,124.46,43.46,124.27,43.07z M124.38,32.79c0-1.37-0.02-2.5,0.01-3.62c0.01-0.47-0.15-0.65-0.61-0.73
		c-1.29-0.22-2.59-0.26-3.88-0.09c-1.98,0.27-3.56,1.22-4.34,3.12c-0.92,2.24-0.91,4.54,0.06,6.76c0.85,1.94,2.61,2.86,4.75,2.64
		c1.97-0.2,3.27-1.39,3.78-3.49C124.54,35.79,124.31,34.16,124.38,32.79z"/>
	<path class="st1" d="M27.39,58.23c-0.22,3.92,0.4,7.79-0.46,11.57c-1.05,4.62-4.28,6.76-8.87,6.48c-4.76-0.29-7.74-3.33-8.22-8.11
		c-0.15-1.44-0.12-2.89-0.16-4.33c-0.01-0.44,0.15-0.59,0.56-0.7c1.16-0.3,2.31-0.63,3.44-1c0.55-0.18,0.72-0.12,0.71,0.51
		c-0.02,1.82-0.08,3.64,0.07,5.46c0.02,0.22,0.02,0.45,0.05,0.67c0.45,3.06,3.42,4.56,6.18,3.09c1.49-0.8,1.83-2.25,1.88-3.75
		c0.08-2.59,0.07-5.18,0.06-7.78c0-0.57,0.14-0.84,0.72-0.98C24.67,59.04,25.97,58.63,27.39,58.23z"/>
	<path class="st1" d="M52.82,35.51c0-2.87,0-5.73,0-8.6c0-0.36,0-0.66,0.4-0.87c3.88-2.02,7.91-2.79,12.22-1.63
		c0.66,0.18,0.91,0.39,0.54,1.1c-0.44,0.86-0.76,1.78-1.11,2.69c-0.15,0.39-0.28,0.57-0.8,0.46c-1.68-0.33-3.36-0.33-5,0.33
		c-0.52,0.21-0.71,0.46-0.71,1.03c0.02,4.64-0.01,9.27,0.03,13.91c0.01,0.75-0.21,0.91-0.92,0.88c-1.35-0.06-2.7-0.04-4.04,0
		c-0.51,0.01-0.62-0.15-0.62-0.63C52.83,41.29,52.82,38.4,52.82,35.51z"/>
	<path class="st1" d="M95.68,35.43c0-2.84,0-5.68,0-8.53c0-0.37,0.02-0.66,0.41-0.86c3.85-2,7.87-2.79,12.14-1.63
		c0.94,0.26,0.93,0.29,0.57,1.17c-0.36,0.88-0.73,1.75-1.07,2.63c-0.15,0.39-0.29,0.56-0.8,0.46c-1.71-0.34-3.41-0.33-5.07,0.37
		c-0.49,0.21-0.65,0.46-0.65,0.99c0.02,4.66,0,9.33,0.03,13.99c0.01,0.68-0.19,0.83-0.83,0.8c-1.37-0.05-2.75-0.04-4.12,0
		c-0.51,0.01-0.62-0.16-0.62-0.64C95.69,41.26,95.68,38.34,95.68,35.43z"/>
	<path class="st1" d="M35.6,64.03c0,3.76-0.01,7.53,0.01,11.29c0,0.57-0.11,0.79-0.73,0.76c-1.12-0.05-2.25-0.04-3.37-0.01
		c-0.47,0.01-0.65-0.09-0.65-0.61c0.02-7.25,0.01-14.51,0-21.76c0-0.43,0.14-0.6,0.55-0.71c1.2-0.31,2.4-0.65,3.59-1.04
		c0.55-0.18,0.61,0,0.6,0.48C35.59,56.31,35.6,60.17,35.6,64.03z"/>
	<path class="st0" d="M47.61,23.97c0,0.99,0,1.88,0,2.78c0,5.73-0.02,11.46,0.02,17.2c0,0.75-0.22,0.9-0.91,0.88
		c-1.37-0.06-2.75-0.03-4.12-0.01c-0.43,0.01-0.54-0.13-0.54-0.55c0.01-6.06,0.01-12.11,0.01-18.17c0-0.31,0-0.54,0.41-0.65
		C44.16,24.99,45.83,24.49,47.61,23.97z"/>
	<path class="st0" d="M165.1,23.98c0,0.29,0,0.51,0,0.73c0,6.46-0.01,12.92,0.01,19.38c0,0.6-0.17,0.75-0.75,0.73
		c-1.42-0.04-2.85-0.03-4.27,0c-0.43,0.01-0.55-0.12-0.55-0.55c0.01-6.06,0.01-12.12,0.01-18.18c0-0.29,0-0.52,0.37-0.62
		C161.63,24.99,163.32,24.49,165.1,23.98z"/>
	<path class="st1" d="M162.36,22.68c-1.74,0.01-3.13-1.33-3.13-3.03c0-1.66,1.37-3,3.08-3c1.73-0.01,3.1,1.29,3.13,2.96
		C165.47,21.31,164.11,22.66,162.36,22.68z"/>
	<path class="st1" d="M44.9,22.67c-1.76,0.04-3.14-1.26-3.16-2.98c-0.02-1.65,1.28-3,2.95-3.05c1.77-0.05,3.21,1.23,3.25,2.91
		C47.98,21.27,46.65,22.63,44.9,22.67z"/>
	<path class="st1" d="M18.49,56.77c-1.45,0-2.64-1.17-2.64-2.58c-0.01-1.42,1.17-2.57,2.64-2.58c1.51,0,2.71,1.16,2.68,2.61
		C21.14,55.64,19.96,56.77,18.49,56.77z"/>
	<path class="st1" d="M109.6,51.18c1.51,0.03,2.6,1.14,2.58,2.61c-0.02,1.47-1.22,2.58-2.74,2.54c-1.44-0.04-2.59-1.23-2.55-2.66
		C106.92,52.24,108.11,51.15,109.6,51.18z"/>
	<path class="st1" d="M116.64,51.18c1.5,0.03,2.6,1.14,2.58,2.6c-0.02,1.46-1.22,2.58-2.74,2.54c-1.44-0.04-2.59-1.22-2.56-2.66
		C113.96,52.24,115.15,51.15,116.64,51.18z"/>
</g>
</svg>
