<?xml version="1.0" encoding="utf-8"?>
<!-- Generator: Adobe Illustrator 25.4.1, SVG Export Plug-In . SVG Version: 6.00 Build 0)  -->
<svg version="1.1" id="Layer_1" xmlns="http://www.w3.org/2000/svg" xmlns:xlink="http://www.w3.org/1999/xlink" x="0px" y="0px"
	 viewBox="0 0 200 100" style="enable-background:new 0 0 200 100;" xml:space="preserve">
<style type="text/css">
	.st0{fill:#E0241A;}
	.st1{fill:#3C7156;}
</style>
<path class="st0" d="M35.31,75.23c-12.48-0.03-22.71-8.56-24.85-20.53c-1.11-6.22-0.22-12.19,3.06-17.61
	c4.24-7.01,10.51-11.12,18.69-12.14c11.72-1.46,24.75,6.04,27.31,20.31c1.49,8.28-0.53,15.7-6.14,22.01
	c-3.61,4.06-8.28,6.37-13.56,7.48C38.23,75.09,36.61,75.2,35.31,75.23z M50.79,46.59c0,0.03-0.01,0.06,0,0.08
	c0.21,0.22,0.43,0.43,0.65,0.64c0.54,0.52,0.54,0.56-0.08,0.98c-1.67,1.12-3.34,2.24-5.01,3.35c-0.21,0.14-0.43,0.26-0.66,0.36
	c-0.88,0.36-1.68,0.29-2.38-0.43c-0.98-1-2.04-1.9-2.95-2.97c-0.7-0.83-1.59-1.25-2.72-1.25c-7.43,0.02-14.86,0.01-22.28,0.01
	c-0.28,0-0.56,0-0.84,0.01c-0.2,0-0.41,0.02-0.55,0.17c-0.69,0.71-1.38,1.44-2.13,2.22c0.29,0,0.56,0,0.83,0
	c2.54-0.01,5.08-0.03,7.62-0.04c2.88-0.01,5.75-0.02,8.63-0.02c0.28,0,0.6-0.09,0.91,0.25c-0.7,0.53-1.36,1.03-2.03,1.53
	c-0.69,0.52-1.38,1.04-2.07,1.56c-0.67,0.5-1.34,1.01-2.01,1.51c-0.67,0.5-1.34,1.01-2.01,1.51c-0.69,0.52-1.39,1.03-2.07,1.57
	c-0.64,0.5-1.35,0.91-1.98,1.6c0.27,0.01,0.4,0.03,0.54,0.03c3.94,0,7.87-0.01,11.81,0.01c0.51,0,0.91-0.16,1.31-0.46
	c2.15-1.6,4.31-3.19,6.46-4.79c0.43-0.32,0.89-0.58,1.42-0.7c0.75-0.17,1.45-0.08,2.03,0.48c0.58,0.57,1.27,1,1.91,1.49
	c0.6,0.46,1.26,0.56,1.98,0.35c0.68-0.19,1.29-0.51,1.87-0.92c3.59-2.57,7.17-5.13,10.76-7.71c0.17-0.12,0.4-0.19,0.45-0.45
	C57.33,46.45,51.45,46.47,50.79,46.59z"/>
<path class="st1" d="M50.79,46.59c0.67-0.12,6.54-0.14,7.4-0.02c-0.04,0.26-0.28,0.33-0.45,0.45c-3.58,2.57-7.17,5.14-10.76,7.71
	c-0.57,0.41-1.19,0.73-1.87,0.92c-0.72,0.21-1.38,0.11-1.98-0.35c-0.64-0.49-1.33-0.92-1.91-1.49c-0.57-0.56-1.28-0.65-2.03-0.48
	c-0.52,0.12-0.98,0.38-1.42,0.7c-2.15,1.6-4.31,3.18-6.46,4.79c-0.4,0.3-0.8,0.46-1.31,0.46c-3.94-0.01-7.87-0.01-11.81-0.01
	c-0.14,0-0.27-0.01-0.54-0.03c0.63-0.68,1.34-1.1,1.98-1.6c0.68-0.53,1.38-1.05,2.07-1.57c0.67-0.5,1.34-1.01,2.01-1.51
	c0.67-0.5,1.34-1.01,2.01-1.51c0.69-0.52,1.38-1.04,2.07-1.56c0.66-0.5,1.33-1,2.03-1.53c-0.3-0.34-0.62-0.25-0.91-0.25
	c-2.88,0-5.75,0.01-8.63,0.02c-2.54,0.01-5.08,0.02-7.62,0.04c-0.27,0-0.53,0-0.83,0c0.75-0.79,1.43-1.51,2.13-2.22
	c0.14-0.14,0.35-0.17,0.55-0.17c0.28,0,0.56-0.01,0.84-0.01c7.43,0,14.86,0,22.28-0.01c1.12,0,2.01,0.42,2.72,1.25
	c0.9,1.07,1.97,1.97,2.95,2.97c0.7,0.72,1.5,0.79,2.38,0.43c0.23-0.09,0.45-0.22,0.66-0.36c1.67-1.11,3.35-2.23,5.01-3.35
	c0.62-0.42,0.61-0.46,0.08-0.98c-0.22-0.21-0.44-0.43-0.65-0.64C50.78,46.65,50.79,46.62,50.79,46.59z"/>
<path class="st1" d="M92.32,32.48c-4.96-0.07-9.92-0.04-14.87-0.07c-0.65,0-0.99,0.23-1.1,0.91c-0.27,1.66-0.6,3.31-0.9,4.97
	c-1.01,5.5-2.01,11-3.01,16.51c-0.24,1.34-0.2,1.43,1.16,1.41c5.09-0.07,10.18,0.12,15.28-0.2c3.32-0.21,6.97-3.16,7.69-6.37
	c0.52-2.29-0.26-4.29-2.33-5.42c-0.39-0.21-0.88-0.27-1.29-0.76c0.5-0.27,0.88-0.51,1.29-0.69c1.75-0.78,2.71-2.21,3.28-3.97
	c0.37-1.15,0.25-2.23-0.33-3.29C96.11,33.59,94.48,32.51,92.32,32.48z M88.87,48.82c-0.48,1.32-1.38,2.1-2.8,2.25
	c-1.36,0.14-2.73,0.1-4.09,0.1c-0.64,0-0.89-0.26-0.79-0.93c0.17-1.08,0.28-2.16,0.41-3.25c0.06-0.55,0.35-0.8,0.9-0.8
	c0.68,0.01,1.36,0,1.86,0c1.23-0.03,2.28-0.03,3.3,0.24C88.93,46.78,89.32,47.58,88.87,48.82z M88.96,40.98
	c-0.58,0.5-1.27,0.69-2.01,0.73c-0.59,0.03-1.18,0.01-1.77,0.01c0,0.01,0,0.02,0,0.03c-0.23,0-0.45,0-0.68,0
	c-1.79,0-1.79,0-1.48-1.71c0.03-0.18,0.08-0.35,0.11-0.53c0.51-2.8,0.14-2.29,2.88-2.34c0.68-0.01,1.36-0.01,2.03,0.14
	c0.79,0.18,1.54,0.43,1.69,1.33C89.9,39.54,89.68,40.35,88.96,40.98z"/>
<path class="st1" d="M139.7,38.67c-2.2-0.41-4.25,0.05-6.14,1.22c-0.5,0.31-0.98,0.66-1.46,1c-0.4,0.29-0.68,0.32-0.97-0.19
	c-0.85-1.49-2.27-2.04-3.87-2.15c-2.1-0.15-4.06,0.34-5.83,1.52c-0.37,0.25-0.68,0.61-1.23,0.72c-0.19-0.33-0.08-0.59-0.04-0.86
	c0.12-0.9,0.12-0.94-0.77-0.95c-1.55-0.03-3.09,0.02-4.64-0.02c-0.74-0.02-1.06,0.31-1.17,1c-0.14,0.85-0.31,1.7-0.48,2.55
	c-0.8,4.2-1.61,8.39-2.4,12.59c-0.19,1.02-0.12,1.09,0.92,1.11c1.5,0.02,3,0.02,4.5,0c1.17-0.01,1.19-0.02,1.42-1.18
	c0.42-2.14,0.81-4.29,1.2-6.43c0.19-1.03,0.46-2.04,0.95-2.97c0.4-0.74,0.95-1.33,1.74-1.65c0.82-0.33,1.71-0.3,2.32,0.26
	c0.59,0.54,0.74,1.37,0.52,2.25c-0.71,2.87-1.08,5.8-1.61,8.71c-0.16,0.89-0.06,0.99,0.93,1.01c1.45,0.03,2.91,0.02,4.36,0.01
	c1.36-0.01,1.36-0.02,1.66-1.4c0.54-2.53,1.07-5.07,1.6-7.61c0.15-0.72,0.36-1.41,0.7-2.06c0.46-0.89,1.23-1.32,2.2-1.4
	c1.44-0.12,2.29,0.92,1.96,2.33c-0.69,3.02-1.09,6.08-1.6,9.13c-0.15,0.9-0.07,0.98,0.93,0.99c1.5,0.02,3,0.02,4.5,0
	c1.21-0.01,1.22-0.02,1.46-1.29c0.37-1.92,0.75-3.84,1.1-5.76c0.35-1.88,0.81-3.73,0.96-5.64C143.63,40.87,142.33,39.17,139.7,38.67
	z"/>
<path class="st1" d="M163.15,39.05c-3.52-0.5-7.03-0.62-10.56,0.17c-2.25,0.5-3.61,1.98-4.8,3.72c-0.47,0.68-0.32,0.89,0.57,1
	c1.49,0.18,2.98,0.31,4.47,0.52c0.71,0.1,1.19-0.11,1.65-0.66c1.26-1.51,2.97-1.33,4.65-1.06c0.52,0.08,0.87,0.49,0.85,1.08
	c-0.01,0.55-0.23,0.96-0.81,1.11c-0.26,0.07-0.53,0.15-0.79,0.21c-2.35,0.51-4.7,1.03-7.06,1.54c-1.2,0.26-2.38,0.6-3.46,1.21
	c-2.02,1.13-2.64,3.01-2.71,5.16c-0.02,0.71,0.36,1.3,0.82,1.82c0.93,1.04,2.14,1.52,3.49,1.66c2.88,0.3,5.63-0.03,8.06-1.77
	c0.14-0.1,0.32-0.16,0.6-0.3c0.07,0.25,0.11,0.38,0.15,0.51c0.3,1.2,0.34,1.25,1.53,1.26c1.5,0.02,3,0.02,4.5,0
	c0.87-0.02,0.94-0.11,0.78-0.98c-0.11-0.59-0.22-1.16-0.05-1.75c0.52-1.7,0.68-3.47,0.99-5.22c0.31-1.75,0.62-3.49,0.54-5.27
	C166.48,40.85,165.25,39.34,163.15,39.05z M159.05,49.14c-0.4,2.62-2.59,3.69-4.63,3.78c-1.03,0-1.81-0.43-1.99-1.1
	c-0.14-0.53,0.54-1.85,1.21-2.12c1.55-0.65,3.2-1,4.84-1.35C159.09,48.22,159.12,48.69,159.05,49.14z"/>
<path class="st1" d="M186.44,38.7c-2.66-0.53-5.04,0.15-7.2,1.74c-0.36,0.26-0.62,0.67-1.17,0.78c-0.16-0.52,0.04-0.91,0.12-1.3
	c0.12-0.63-0.08-0.95-0.75-0.95c-1.64,0.01-3.27,0.01-4.91,0c-0.55,0-0.82,0.26-0.9,0.8c-0.09,0.63-0.23,1.25-0.35,1.88
	c-0.8,4.47-1.61,8.95-2.4,13.43c-0.19,1.05-0.14,1.11,0.9,1.13c1.64,0.02,3.27-0.01,4.91,0.02c0.72,0.01,1.06-0.24,1.16-0.99
	c0.3-2.21,0.67-4.4,1-6.61c0.16-1.09,0.49-2.12,0.96-3.11c0.55-1.15,1.5-1.66,2.72-1.77c0.81-0.07,1.39,0.26,1.8,0.97
	c0.42,0.73,0.33,1.48,0.19,2.25c-0.49,2.68-0.97,5.37-1.43,8.06c-0.18,1.07-0.1,1.16,1.02,1.18c1.46,0.02,2.91,0.02,4.37,0
	c1.22-0.01,1.24-0.02,1.49-1.26c0.43-2.19,0.84-4.38,1.24-6.57c0.32-1.74,0.8-3.46,0.81-5.25C190.02,40.71,188.82,39.18,186.44,38.7
	z"/>
<path class="st1" d="M108.25,38.97c-1.5-0.02-3-0.02-4.5-0.01c-1.36,0.01-1.37,0.02-1.64,1.41c-0.58,2.99-1.14,5.98-1.72,8.97
	c-0.36,1.87-0.74,3.75-1.07,5.62c-0.21,1.19-0.18,1.21,1.06,1.23c0.73,0.01,1.45,0,2.18,0c0,0,0,0,0,0c0.77,0,1.55-0.03,2.32,0.01
	c0.7,0.03,1.08-0.2,1.23-0.94c1.01-5.08,2.06-10.15,3.08-15.23C109.4,39.04,109.34,38.99,108.25,38.97z"/>
<path class="st1" d="M109.6,32.42c-0.91,0.01-1.81,0-2.72,0c0,0,0,0,0,0.01c-0.91,0-1.81,0-2.72,0c-0.48,0-0.75,0.21-0.82,0.7
	c-0.13,0.99-0.28,1.97-0.43,2.95c-0.09,0.59,0.17,0.84,0.74,0.84c1.77,0,3.53,0,5.3,0c0.49,0,0.73-0.25,0.81-0.72
	c0.16-0.98,0.34-1.96,0.53-2.94C110.41,32.69,110.2,32.41,109.6,32.42z"/>
<path class="st1" d="M70.84,67.47l1.49-7.13h2.44c0.53,0,0.9,0.02,1.11,0.05c0.35,0.05,0.65,0.15,0.89,0.29
	c0.24,0.15,0.43,0.34,0.55,0.58c0.13,0.24,0.19,0.51,0.19,0.81c0,0.4-0.11,0.74-0.33,1.03c-0.22,0.29-0.56,0.51-1.02,0.66
	c0.37,0.1,0.65,0.28,0.86,0.54c0.21,0.26,0.31,0.55,0.31,0.87c0,0.43-0.12,0.84-0.37,1.22c-0.24,0.38-0.58,0.66-1.01,0.83
	s-1.01,0.25-1.76,0.25H70.84z M72.55,66.32h1.42c0.59,0,0.99-0.04,1.19-0.11c0.2-0.08,0.37-0.2,0.49-0.38
	c0.12-0.18,0.18-0.36,0.18-0.56c0-0.24-0.09-0.43-0.26-0.59c-0.18-0.15-0.47-0.23-0.88-0.23h-1.75L72.55,66.32z M73.19,63.22h1.12
	c0.5,0,0.86-0.04,1.09-0.11c0.22-0.07,0.39-0.19,0.5-0.35c0.11-0.16,0.17-0.34,0.17-0.52c0-0.18-0.05-0.33-0.16-0.45
	c-0.1-0.12-0.25-0.19-0.44-0.23c-0.11-0.02-0.37-0.03-0.77-0.03h-1.14L73.19,63.22z"/>
<path class="st1" d="M82.72,65.89h-2.83l-0.86,1.58h-1.51l4.03-7.13h1.63l1.16,7.13h-1.39L82.72,65.89z M82.54,64.7l-0.41-2.87
	L80.4,64.7H82.54z"/>
<path class="st1" d="M90.94,67.47h-1.37l-1.93-4.79l-1,4.79h-1.37l1.49-7.13h1.37l1.93,4.77l1-4.77h1.36L90.94,67.47z"/>
<path class="st1" d="M96.41,63.66h3.19l-0.64,3.06c-0.38,0.24-0.84,0.45-1.38,0.62c-0.55,0.17-1.1,0.25-1.67,0.25
	c-0.88,0-1.56-0.2-2.03-0.6c-0.64-0.54-0.96-1.34-0.96-2.37c0-0.69,0.14-1.36,0.41-2c0.33-0.77,0.8-1.36,1.41-1.78
	c0.61-0.42,1.33-0.63,2.15-0.63c0.82,0,1.48,0.19,1.98,0.57c0.5,0.38,0.83,0.94,0.99,1.67l-1.37,0.16c-0.12-0.4-0.31-0.71-0.58-0.91
	c-0.27-0.2-0.6-0.31-1.01-0.31c-0.47,0-0.91,0.12-1.3,0.37c-0.4,0.25-0.71,0.63-0.93,1.14s-0.34,1.08-0.34,1.69
	c0,0.6,0.14,1.04,0.41,1.33c0.27,0.29,0.67,0.43,1.2,0.43c0.31,0,0.64-0.04,0.97-0.13c0.33-0.09,0.62-0.2,0.86-0.32l0.22-1.06h-1.82
	L96.41,63.66z"/>
<path class="st1" d="M100.23,67.47l1.49-7.13h1.46l-1.24,5.94h3.63l-0.25,1.19H100.23z"/>
<path class="st1" d="M110.95,65.89h-2.83l-0.86,1.58h-1.51l4.03-7.13h1.63l1.16,7.13h-1.39L110.95,65.89z M110.77,64.7l-0.41-2.87
	l-1.72,2.87H110.77z"/>
<path class="st1" d="M113.5,67.47l1.49-7.13h1.92c0.54,0,0.88,0.01,1.03,0.02c0.3,0.03,0.56,0.09,0.79,0.18
	c0.23,0.09,0.44,0.22,0.63,0.38c0.19,0.16,0.35,0.36,0.49,0.59c0.14,0.23,0.24,0.5,0.32,0.79c0.08,0.3,0.11,0.63,0.11,0.99
	c0,0.77-0.15,1.45-0.44,2.05c-0.29,0.6-0.66,1.07-1.11,1.42c-0.34,0.27-0.78,0.47-1.32,0.6c-0.3,0.07-0.77,0.11-1.41,0.11H113.5z
	 M115.2,66.32h0.74c0.54,0,0.93-0.03,1.17-0.1c0.24-0.07,0.46-0.19,0.67-0.37c0.29-0.26,0.53-0.61,0.73-1.05
	c0.2-0.44,0.3-0.95,0.3-1.55c0-0.51-0.08-0.89-0.25-1.14c-0.16-0.25-0.36-0.42-0.61-0.51c-0.17-0.06-0.47-0.09-0.9-0.09h-0.85
	L115.2,66.32z"/>
<path class="st1" d="M120.67,67.47l1.49-7.13h5.29l-0.25,1.19h-3.82l-0.34,1.62h3.69l-0.25,1.19h-3.69l-0.45,1.94h4.15l-0.25,1.19
	H120.67z"/>
<path class="st1" d="M127.54,65.16l1.4-0.07c0.02,0.44,0.1,0.74,0.23,0.9c0.21,0.25,0.61,0.38,1.19,0.38c0.48,0,0.83-0.08,1.04-0.26
	c0.21-0.17,0.32-0.38,0.32-0.62c0-0.21-0.09-0.39-0.26-0.54c-0.12-0.11-0.46-0.28-1.01-0.52c-0.55-0.24-0.96-0.44-1.21-0.6
	c-0.25-0.16-0.46-0.37-0.6-0.63c-0.15-0.26-0.22-0.56-0.22-0.9c0-0.6,0.22-1.1,0.65-1.49c0.44-0.4,1.06-0.59,1.89-0.59
	c0.84,0,1.48,0.2,1.94,0.59c0.46,0.39,0.71,0.91,0.76,1.57l-1.41,0.06c-0.04-0.34-0.16-0.6-0.37-0.78
	c-0.21-0.18-0.52-0.27-0.93-0.27c-0.41,0-0.69,0.07-0.87,0.21c-0.17,0.14-0.26,0.32-0.26,0.54c0,0.2,0.08,0.37,0.24,0.51
	c0.16,0.14,0.51,0.32,1.06,0.56c0.82,0.35,1.34,0.64,1.57,0.86c0.33,0.32,0.5,0.74,0.5,1.25c0,0.63-0.25,1.17-0.75,1.61
	c-0.5,0.45-1.19,0.67-2.08,0.67c-0.61,0-1.14-0.1-1.59-0.31c-0.45-0.21-0.77-0.49-0.95-0.86C127.61,66.06,127.52,65.63,127.54,65.16
	z"/>
<path class="st1" d="M138.88,64.28h-2.76l-0.67,3.19h-1.47l1.49-7.13h1.46l-0.57,2.75h2.76l0.58-2.75h1.46l-1.49,7.13h-1.47
	L138.88,64.28z"/>
<path class="st1" d="M148.23,65.89h-2.83l-0.86,1.58h-1.51l4.03-7.13h1.63l1.16,7.13h-1.39L148.23,65.89z M148.05,64.7l-0.41-2.87
	l-1.72,2.87H148.05z"/>
<path class="st1" d="M150.69,67.47l1.49-7.13h1.46l-1.49,7.13H150.69z"/>
<path class="st1" d="M155.02,67.47h-1.47l1.49-7.13h3.17c0.54,0,0.97,0.06,1.27,0.17c0.3,0.11,0.55,0.32,0.73,0.62
	c0.19,0.3,0.28,0.66,0.28,1.09c0,0.61-0.18,1.11-0.54,1.5c-0.36,0.39-0.91,0.64-1.65,0.73c0.19,0.17,0.37,0.39,0.53,0.67
	c0.33,0.56,0.69,1.35,1.09,2.36h-1.58c-0.13-0.4-0.38-1.03-0.74-1.88c-0.2-0.46-0.42-0.77-0.64-0.93c-0.14-0.09-0.38-0.14-0.73-0.14
	h-0.6L155.02,67.47z M155.86,63.44h0.78c0.79,0,1.31-0.05,1.57-0.14c0.26-0.09,0.46-0.24,0.61-0.44c0.15-0.2,0.22-0.41,0.22-0.63
	c0-0.26-0.1-0.45-0.32-0.58c-0.13-0.08-0.41-0.12-0.84-0.12h-1.62L155.86,63.44z"/>
<path class="st1" d="M160.76,67.47l1.49-7.13h1.46l-1.24,5.94h3.63l-0.25,1.19H160.76z"/>
<path class="st1" d="M166.74,67.47l1.49-7.13h1.46l-1.49,7.13H166.74z"/>
<path class="st1" d="M175.28,67.47h-1.37l-1.93-4.79l-1,4.79h-1.37l1.49-7.13h1.37l1.93,4.77l1-4.77h1.36L175.28,67.47z"/>
<path class="st1" d="M176.77,67.47l1.49-7.13h5.29l-0.25,1.19h-3.82l-0.34,1.62h3.69l-0.25,1.19h-3.69l-0.45,1.94h4.15l-0.25,1.19
	H176.77z"/>
<path class="st1" d="M183.64,65.16l1.4-0.07c0.02,0.44,0.1,0.74,0.23,0.9c0.21,0.25,0.61,0.38,1.19,0.38c0.48,0,0.83-0.08,1.04-0.26
	c0.21-0.17,0.32-0.38,0.32-0.62c0-0.21-0.09-0.39-0.26-0.54c-0.12-0.11-0.46-0.28-1.01-0.52c-0.55-0.24-0.96-0.44-1.21-0.6
	c-0.25-0.16-0.46-0.37-0.6-0.63c-0.15-0.26-0.22-0.56-0.22-0.9c0-0.6,0.22-1.1,0.65-1.49c0.44-0.4,1.06-0.59,1.89-0.59
	c0.84,0,1.48,0.2,1.94,0.59c0.46,0.39,0.71,0.91,0.76,1.57l-1.41,0.06c-0.04-0.34-0.16-0.6-0.37-0.78
	c-0.21-0.18-0.52-0.27-0.93-0.27c-0.41,0-0.69,0.07-0.87,0.21c-0.17,0.14-0.26,0.32-0.26,0.54c0,0.2,0.08,0.37,0.24,0.51
	c0.16,0.14,0.51,0.32,1.06,0.56c0.82,0.35,1.34,0.64,1.57,0.86c0.33,0.32,0.5,0.74,0.5,1.25c0,0.63-0.25,1.17-0.75,1.61
	c-0.5,0.45-1.19,0.67-2.08,0.67c-0.61,0-1.14-0.1-1.59-0.31c-0.45-0.21-0.77-0.49-0.95-0.86C183.71,66.06,183.62,65.63,183.64,65.16
	z"/>
</svg>
