<?xml version="1.0" encoding="utf-8"?>
<!-- Generator: Adobe Illustrator 25.4.1, SVG Export Plug-In . SVG Version: 6.00 Build 0)  -->
<svg version="1.1" id="Layer_1" xmlns="http://www.w3.org/2000/svg" xmlns:xlink="http://www.w3.org/1999/xlink" x="0px" y="0px"
	 viewBox="0 0 200 100" style="enable-background:new 0 0 200 100;" xml:space="preserve">
<style type="text/css">
	.st0{fill:#FF1625;}
	.st1{fill:#0456AB;}
	.st2{fill:url(#SVGID_1_);}
</style>
<g>
	<path class="st0" d="M184.52,42.39c-0.94-0.18-1.89-0.22-2.84-0.22c-2.53,0-5.07-0.02-7.6,0.01c-3.12,0.04-6.24,0.08-9.36,0.1
		c-0.97,0.01-1.93,0.02-2.9,0.02c-3.21,0.01-6.43,0.02-9.64,0c-2.91-0.02-5.83-0.07-8.74-0.16c-1.72-0.06-3.44-0.21-5.16-0.33
		c-1.69-0.11-3.37-0.31-5.05-0.52c-1.47-0.19-2.94-0.44-4.4-0.72c-1.6-0.3-3.19-0.63-4.78-0.99c-1.74-0.39-3.48-0.8-5.19-1.32
		c-0.66-0.2-1.34-0.33-2.06-0.66c1.03-0.04,1.99-0.08,2.94-0.12c2.85-0.12,5.69-0.24,8.54-0.35c3.04-0.11,6.07-0.27,9.11-0.36
		c2.42-0.07,4.84-0.25,7.26-0.31c2.83-0.07,5.66-0.21,8.49-0.33c2.61-0.11,5.22-0.15,7.83-0.28c4.21-0.21,8.42-0.28,12.63-0.26
		c1.97,0.01,3.93,0.15,5.86,0.46c1.78,0.29,3.51,0.78,5.11,1.66c0.99,0.54,1.76,1.33,2.39,2.25c0.76,1.11,1.49,2.23,2.06,3.45
		c0.33,0.71,0.73,1.41,0.65,2.24c0.02-0.29-0.09-0.55-0.25-0.79c-0.42-0.63-0.98-1.09-1.64-1.46
		C186.77,42.85,185.66,42.57,184.52,42.39z"/>
	<path class="st1" d="M109.4,50.93c1.14,0,2.27,0,3.43,0c0,0.22-0.26,0.36-0.19,0.6c0.07,0.21,0.15,0.42,0.22,0.63
		c0.48,1.29,0.95,2.57,1.43,3.86c0.29,0.8,0.57,1.6,0.87,2.4c0.07,0.2,0.13,0.42,0.34,0.65c0.94-2.7,1.87-5.36,2.8-8.01
		c0.03,0,0.06-0.01,0.09-0.01c1.02,2.56,2.05,5.13,3.11,7.8c0.34-0.76,0.51-1.44,0.75-2.1c0.2-0.56,0.38-1.14,0.57-1.7
		c0.29-0.88,0.59-1.77,0.88-2.65c0.07-0.21,0.12-0.43,0.21-0.63c0.13-0.28,0.16-0.54-0.05-0.81c0.78,0,1.51,0,2.35,0
		c-0.94,0.7-1.03,1.74-1.38,2.65c-0.35,0.91-0.63,1.85-0.94,2.78c-0.42,1.26-0.83,2.52-1.25,3.77c-0.3,0.9-0.61,1.79-0.92,2.69
		c-0.05,0.14-0.04,0.36-0.22,0.39c-0.23,0.03-0.48,0-0.67-0.17c-0.14-0.13-0.26-0.27-0.35-0.44c-0.41-0.83-0.75-1.7-1.07-2.57
		c-0.27-0.73-0.57-1.44-0.86-2.15c-0.15-0.37-0.3-0.73-0.44-1.1c-0.03-0.07-0.06-0.15-0.14-0.18c-0.09,0.04-0.12,0.14-0.15,0.22
		c-0.44,1.25-0.88,2.5-1.32,3.75c-0.28,0.8-0.58,1.6-0.85,2.41c-0.07,0.19-0.16,0.27-0.37,0.28c-0.9,0.04-0.93,0.01-1.23-0.84
		c-0.44-1.22-0.9-2.43-1.35-3.64c-0.52-1.4-1.04-2.81-1.56-4.21c-0.29-0.78-0.6-1.56-0.89-2.34
		C110.05,51.73,109.78,51.31,109.4,50.93z"/>
	<path class="st1" d="M9.68,50.91c0.25,0,0.4,0,0.55,0c1.31,0,2.63,0.01,3.94,0c0.85-0.01,1.68,0.09,2.47,0.38
		c1.57,0.59,2.34,1.94,1.98,3.58c-0.19,0.84-0.81,1.4-1.62,1.73c-0.09,0.04-0.19,0.04-0.23,0.16c0.3,0.08,0.6,0.15,0.9,0.23
		c0.98,0.29,1.7,0.9,1.99,1.87c0.34,1.14,0.13,2.32-0.82,3.16c-0.83,0.74-1.84,1.04-2.9,1.15c-1.39,0.14-2.79,0.05-4.18,0.06
		c-0.64,0.01-1.28,0-2.02,0c0.51-0.54,0.51-1.14,0.51-1.74c-0.01-2.93,0-5.86,0-8.79c0-0.05,0-0.1,0-0.14
		C10.27,51.98,10.24,51.41,9.68,50.91z M12.78,59.74c0,0.62,0,1.23,0,1.85c0,0.42,0,0.44,0.43,0.49c0.58,0.08,1.17,0.12,1.75,0.03
		c0.32-0.05,0.64-0.13,0.94-0.31c1.1-0.66,1.18-2.32,0.78-3.09c-0.1-0.19-0.2-0.38-0.37-0.54c-0.38-0.35-0.83-0.5-1.31-0.62
		c-0.62-0.15-1.26-0.07-1.89-0.09c-0.25-0.01-0.33,0.09-0.32,0.33C12.79,58.44,12.78,59.09,12.78,59.74z M12.78,54.18
		c0,0.6,0,1.2,0,1.81c0,0.33,0.01,0.32,0.35,0.34c0.48,0.03,0.95-0.03,1.42-0.13c0.47-0.1,0.9-0.33,1.19-0.73
		c0.49-0.66,0.54-1.4,0.26-2.16c-0.28-0.78-0.89-1.12-1.66-1.23c-0.39-0.05-0.79-0.04-1.19-0.03c-0.37,0.01-0.37,0.02-0.37,0.38
		C12.78,53.01,12.78,53.6,12.78,54.18z"/>
	<path class="st1" d="M112.28,63.05c-1.23,0.26-2.38,0.32-3.53,0.19c-0.24-0.03-0.44-0.13-0.63-0.29c-0.52-0.43-0.92-0.96-1.29-1.51
		c-0.48-0.72-0.92-1.47-1.39-2.2c-0.4-0.61-0.85-1.18-1.52-1.52c-0.1-0.05-0.2-0.1-0.3-0.14c-0.62-0.25-0.71-0.19-0.71,0.45
		c0,1.22,0,2.44,0,3.66c0,0.82,0,0.83,0.44,1.53c-1.13,0-2.24,0-3.35,0c-0.01-0.02-0.03-0.07-0.02-0.08
		c0.37-0.41,0.41-0.89,0.4-1.42c-0.01-3.04-0.01-6.08,0-9.12c0-0.59,0.03-1.18-0.47-1.68c0.12,0,0.23,0,0.35,0
		c1.35,0,2.69-0.02,4.04,0.01c1,0.02,1.97,0.21,2.87,0.7c1.29,0.7,1.73,2.2,1.24,3.41c-0.31,0.77-0.84,1.32-1.61,1.63
		c-0.25,0.1-0.5,0.19-0.75,0.29c0,0.15,0.14,0.15,0.23,0.2c0.83,0.45,1.41,1.16,1.96,1.89c0.61,0.8,1.15,1.66,1.8,2.43
		c0.32,0.39,0.67,0.75,1.08,1.05C111.44,62.77,111.82,62.85,112.28,63.05z M102.9,54.18c0,0.62,0,1.23,0,1.85
		c0,0.19,0.06,0.3,0.27,0.29c0.22-0.01,0.44,0.01,0.66-0.01c0.73-0.06,1.34-0.35,1.73-1c0.34-0.59,0.34-1.23,0.22-1.88
		c-0.09-0.47-0.35-0.79-0.73-1.05c-0.56-0.38-1.19-0.36-1.83-0.34c-0.24,0.01-0.33,0.08-0.33,0.33
		C102.91,52.98,102.9,53.58,102.9,54.18z"/>
	<path class="st1" d="M65.11,50.91c1.06,0,2.11,0,3.17,0c0.09,0,0.19-0.04,0.29,0.06c-0.46,0.42-0.51,0.97-0.5,1.55
		c0.02,1.11,0,2.22,0.01,3.32c0,0.34,0.01,0.35,0.34,0.36c1.53,0.06,3.07,0.05,4.6,0c0.22-0.01,0.31-0.07,0.31-0.3
		c-0.01-1.31,0-2.63,0-3.94c0-0.25-0.09-0.46-0.22-0.66c-0.07-0.11-0.16-0.22-0.26-0.37c1.18,0,2.31,0,3.44,0
		c0,0.03,0.02,0.07,0,0.09c-0.37,0.38-0.42,0.85-0.42,1.36c0.01,3.09,0.01,6.17,0,9.26c0,0.54-0.06,1.09,0.39,1.48
		c-0.03,0.06-0.03,0.07-0.04,0.09c-0.01,0.01-0.02,0.03-0.03,0.03c-1.08,0-2.15,0-3.23,0c-0.01-0.02-0.03-0.06-0.02-0.08
		c0.34-0.42,0.4-0.9,0.39-1.43c-0.02-1.27-0.01-2.53-0.01-3.8c0-0.37-0.02-0.36-0.36-0.39c-1.52-0.11-3.03-0.11-4.55,0
		c-0.33,0.02-0.33,0.03-0.33,0.37c0,1.38,0,2.75,0,4.13c0,0.43,0.17,0.79,0.46,1.17c-1.16,0-2.26,0-3.44,0
		c0.2-0.27,0.41-0.49,0.42-0.81c0.01-0.3,0.02-0.6,0.02-0.9c0-3.06,0-6.11,0-9.17c0-0.5-0.01-0.99-0.47-1.33
		C65.08,50.97,65.1,50.94,65.11,50.91z"/>
	<path class="st1" d="M26.78,57.01c1.25,0.66,1.94,1.8,2.7,2.88c0.55,0.77,1.07,1.56,1.76,2.21c0.36,0.34,0.74,0.63,1.23,0.77
		c0.15,0.04,0.3,0.09,0.49,0.14c-0.5,0.2-0.97,0.21-1.44,0.25c-0.57,0.05-1.14,0.03-1.71,0.02c-0.56-0.02-1-0.27-1.36-0.66
		c-0.73-0.81-1.31-1.73-1.85-2.68C26.3,59.37,26,58.8,25.58,58.3c-0.33-0.38-0.72-0.66-1.21-0.81c-0.37-0.11-0.46-0.04-0.46,0.33
		c0,1.38,0,2.76,0,4.13c0,0.45,0.12,0.87,0.49,1.25c-1.18,0-2.3,0-3.49,0c0.46-0.5,0.48-1.07,0.47-1.66c-0.01-3.06-0.01-6.11,0-9.17
		c0-0.52-0.06-1.01-0.48-1.36c0.06-0.16,0.17-0.1,0.25-0.1c1.39,0,2.79-0.03,4.18,0c0.97,0.02,1.91,0.2,2.78,0.67
		c1.23,0.66,1.61,1.7,1.43,2.97c-0.18,1.25-1.15,2.02-2.44,2.32C27.02,56.91,26.92,56.89,26.78,57.01z M23.91,54.15
		c0,0.62,0,1.23,0,1.85c0,0.14-0.02,0.3,0.19,0.32c0.62,0.04,1.24,0.02,1.79-0.31c0.63-0.38,0.95-0.97,1-1.68
		c0.09-1.2-0.43-1.95-1.47-2.22c-0.38-0.1-0.79-0.06-1.18-0.05c-0.24,0.01-0.33,0.1-0.33,0.34C23.92,52.98,23.91,53.56,23.91,54.15z
		"/>
	<path class="st1" d="M85.24,50.91c1.07,0,2.03,0,2.99,0c0.16,0,0.21,0.07,0.26,0.21c0.36,1.01,0.73,2.02,1.1,3.03
		c0.28,0.76,0.56,1.51,0.83,2.27c0.44,1.2,0.87,2.4,1.31,3.6c0.26,0.73,0.52,1.46,0.79,2.18c0.14,0.39,0.43,0.69,0.76,1.02
		c-1.13,0-2.21,0-3.34,0c0.23-0.37,0.06-0.7-0.06-1.03c-0.31-0.86-0.64-1.71-0.95-2.58c-0.08-0.24-0.22-0.31-0.45-0.32
		c-1.26-0.07-2.53-0.06-3.79,0c-0.29,0.01-0.41,0.15-0.51,0.4c-0.33,0.89-0.68,1.77-1.03,2.65c-0.11,0.29-0.26,0.58-0.05,0.9
		c-0.74,0-1.43,0-2.13,0c-0.01-0.04-0.03-0.08-0.02-0.09c0.56-0.46,0.74-1.13,0.99-1.75c0.48-1.2,0.94-2.41,1.4-3.62
		c0.52-1.36,1.03-2.71,1.55-4.07c0.17-0.44,0.34-0.88,0.53-1.32C85.64,51.88,85.84,51.4,85.24,50.91z M88.36,57.98
		c-0.55-1.5-1.1-3.02-1.67-4.6c-0.1,0.21-0.18,0.34-0.24,0.49c-0.5,1.29-1.01,2.58-1.51,3.87c-0.12,0.31-0.1,0.34,0.25,0.36
		c0.95,0.05,1.89,0.06,2.84,0C88.14,58.09,88.26,58.11,88.36,57.98z"/>
	<path class="st1" d="M133.05,63.21c0.15-0.31,0.1-0.6,0-0.89c-0.34-0.93-0.7-1.86-1.04-2.8c-0.06-0.16-0.15-0.23-0.31-0.23
		c-0.09,0-0.19-0.02-0.28-0.02c-1.17-0.06-2.34-0.05-3.51,0c-0.34,0.01-0.51,0.13-0.63,0.48c-0.32,0.94-0.72,1.85-1.09,2.78
		c-0.09,0.22-0.22,0.44,0.09,0.69c-0.81,0-1.51,0-2.22,0c-0.03-0.15,0.09-0.21,0.16-0.28c0.23-0.2,0.39-0.46,0.5-0.74
		c0.41-1.04,0.8-2.09,1.2-3.14c0.39-1,0.78-2,1.17-3c0.45-1.16,0.9-2.33,1.35-3.49c0.05-0.12,0.08-0.24,0.14-0.35
		c0.24-0.45,0.27-0.87-0.15-1.22c0.03-0.14,0.13-0.1,0.2-0.1c0.86,0,1.71,0.01,2.57-0.01c0.27-0.01,0.37,0.09,0.46,0.35
		c0.29,0.85,0.61,1.69,0.92,2.53c0.41,1.14,0.82,2.29,1.23,3.43c0.28,0.79,0.58,1.57,0.87,2.35c0.31,0.84,0.62,1.69,0.92,2.54
		c0.1,0.29,0.27,0.53,0.47,0.76c0.09,0.11,0.23,0.17,0.28,0.34C135.24,63.21,134.16,63.21,133.05,63.21z M131.48,58.07
		c-0.58-1.6-1.13-3.13-1.72-4.74c-0.62,1.63-1.24,3.15-1.83,4.76C129.15,58.15,130.29,58.18,131.48,58.07z"/>
	<path class="st1" d="M152.51,53.42c-0.25-0.12-0.3-0.34-0.44-0.48c-0.72-0.72-1.57-1.17-2.62-1.1c-0.53,0.04-1.02,0.21-1.35,0.68
		c-0.27,0.38-0.32,0.78-0.17,1.21c0.19,0.53,0.56,0.91,1,1.24c0.6,0.46,1.26,0.84,1.89,1.26c0.82,0.54,1.61,1.1,2.16,1.95
		c0.4,0.63,0.55,1.31,0.47,2.04c-0.19,1.61-1.09,2.5-2.55,2.97c-1.49,0.48-3,0.33-4.5-0.04c-0.35-0.09-0.68-0.26-1.01-0.41
		c-0.13-0.06-0.25-0.15-0.27-0.31c-0.11-0.83-0.11-1.66,0.05-2.58c0.28,0.43,0.48,0.81,0.77,1.13c0.82,0.93,1.84,1.43,3.09,1.33
		c0.56-0.05,1.07-0.23,1.44-0.71c0.43-0.56,0.45-1.53,0.01-2.08c-0.41-0.52-0.94-0.88-1.48-1.24c-0.82-0.53-1.67-1.02-2.39-1.69
		c-0.96-0.91-1.51-1.99-1.24-3.34c0.18-0.93,0.74-1.56,1.6-1.97c0.77-0.37,1.57-0.49,2.4-0.48c0.74,0,1.49,0,2.21,0.21
		c0.14,0.04,0.27,0.08,0.41,0.12c0.28,0.08,0.41,0.24,0.41,0.55C152.42,52.23,152.47,52.8,152.51,53.42z"/>
	<path class="st1" d="M62.66,53.5c-0.36-0.46-0.67-0.83-1.09-1.11c-0.62-0.41-1.28-0.62-2.02-0.54c-0.6,0.06-1.14,0.27-1.42,0.88
		c-0.27,0.58-0.08,1.08,0.26,1.55c0.33,0.46,0.78,0.78,1.24,1.08c0.64,0.43,1.31,0.83,1.94,1.27c0.57,0.4,1.1,0.85,1.49,1.44
		c0.96,1.4,0.64,3.36-0.7,4.42c-0.76,0.6-1.65,0.86-2.59,0.94c-1.42,0.12-2.81-0.05-4.12-0.66c-0.2-0.09-0.36-0.2-0.38-0.44
		c-0.07-0.79-0.09-1.58,0.07-2.42c0.31,0.35,0.47,0.74,0.75,1.05c0.95,1.03,2.08,1.58,3.51,1.26c0.95-0.22,1.39-0.88,1.36-1.83
		c-0.02-0.55-0.32-0.95-0.7-1.3c-0.55-0.5-1.19-0.87-1.82-1.27c-0.74-0.46-1.46-0.95-2.03-1.61c-0.9-1.04-1.2-2.19-0.71-3.51
		c0.26-0.68,0.77-1.1,1.39-1.41c1.17-0.59,2.42-0.53,3.67-0.45c0.48,0.03,0.94,0.12,1.39,0.28c0.38,0.13,0.38,0.14,0.39,0.54
		C62.57,52.24,62.57,52.82,62.66,53.5z"/>
	<path class="st1" d="M37.41,52.74c0.28-0.61,0.52-1.14,0.75-1.66c0.05-0.11,0.13-0.17,0.26-0.16c0.11,0.01,0.22,0,0.33,0
		c2.91,0,5.83,0,8.74,0c0.62,0,1.23-0.05,1.85-0.1c-0.24,0.87-1.22,1.62-2.08,1.6c-0.74-0.02-1.49-0.06-2.23-0.07
		c-0.44-0.01-0.45-0.06-0.45,0.42c0,3.1,0,6.21,0,9.31c0,0.33,0.05,0.63,0.28,0.88c0.06,0.06,0.14,0.13,0.11,0.26
		c-1.11,0-2.23,0-3.35,0c-0.01-0.02-0.03-0.06-0.02-0.07c0.38-0.43,0.44-0.95,0.43-1.5c-0.02-2.9-0.01-5.8-0.01-8.69
		c0-0.11-0.01-0.22,0-0.33c0.02-0.19-0.08-0.26-0.25-0.25c-1.22,0.04-2.44-0.1-3.65,0.13C37.92,52.54,37.72,52.63,37.41,52.74z"/>
	<path class="st1" d="M145.22,50.94c-1.08,0.74-1.47,1.91-2.09,2.92c-0.57,0.93-1.08,1.89-1.63,2.83c-0.24,0.42-0.39,0.83-0.38,1.34
		c0.04,1.23,0.02,2.47,0.01,3.7c-0.01,0.54,0.06,1.03,0.45,1.48c-1.15,0-2.26,0-3.44,0c0.46-0.48,0.46-1.03,0.45-1.58
		c-0.01-1.3-0.01-2.6,0-3.89c0-0.31-0.09-0.57-0.26-0.84c-0.81-1.28-1.58-2.58-2.39-3.85c-0.4-0.63-0.87-1.2-1.5-1.62
		c-0.24-0.16-0.52-0.21-0.83-0.27c0.21-0.19,0.46-0.19,0.69-0.24c0.74-0.13,1.48-0.14,2.22-0.08c0.73,0.06,1.2,0.52,1.57,1.09
		c0.76,1.18,1.5,2.37,2.24,3.56c0.04,0.06,0.1,0.12,0.16,0.2c0.41-0.7,0.8-1.38,1.2-2.06c0.31-0.55,0.62-1.1,0.94-1.64
		c0.27-0.46,0.29-0.6,0.11-1.04C143.55,50.94,144.35,50.94,145.22,50.94z"/>
	<path class="st1" d="M49.86,50.94c1.33,0,2.5,0,3.77,0c-0.56,0.43-0.59,0.96-0.59,1.53c0.01,3.15,0.01,6.3,0,9.44
		c0,0.49,0.1,0.9,0.46,1.25c-0.32,0.1-2.67,0.13-3.53,0.04c0.54-0.46,0.51-1.06,0.51-1.66c-0.01-2.97-0.01-5.95,0-8.92
		C50.48,52.02,50.52,51.41,49.86,50.94z"/>
	<path class="st1" d="M33.37,50.93c1.18,0,2.36,0,3.63,0c-0.57,0.43-0.61,0.98-0.6,1.56c0.01,3.13,0.01,6.26,0,9.4
		c0,0.5,0.1,0.94,0.52,1.32c-1.2,0-2.34,0-3.49,0c-0.03-0.05-0.02-0.12,0.03-0.16c0.35-0.3,0.38-0.7,0.38-1.12
		c-0.01-3.1,0-6.2,0-9.3c0-0.6,0.07-1.22-0.55-1.63C33.32,50.97,33.35,50.95,33.37,50.93z"/>
	<path class="st1" d="M97.7,63.22c-1.23,0-2.38,0-3.63,0c0.65-0.51,0.55-1.16,0.55-1.78c0-2.96-0.01-5.92,0-8.88
		c0-0.59,0.03-1.18-0.62-1.62c1.31,0,2.5,0,3.7,0c0.02,0.03,0,0.05-0.02,0.08c-0.41,0.34-0.52,0.79-0.52,1.31
		c0.01,2.72,0.01,5.45,0.01,8.17c0,0.43,0.02,0.86,0,1.28C97.13,62.31,97.25,62.78,97.7,63.22z"/>
	<linearGradient id="SVGID_1_" gradientUnits="userSpaceOnUse" x1="164.3035" y1="48.144" x2="189.673" y2="48.144">
		<stop  offset="0" style="stop-color:#0456AB"/>
		<stop  offset="0.2453" style="stop-color:#0658AC"/>
		<stop  offset="0.383" style="stop-color:#0F5DAF"/>
		<stop  offset="0.494" style="stop-color:#1C66B3"/>
		<stop  offset="0.5908" style="stop-color:#3074BA"/>
		<stop  offset="0.6785" style="stop-color:#4A85C2"/>
		<stop  offset="0.7594" style="stop-color:#699ACD"/>
		<stop  offset="0.8352" style="stop-color:#8EB3D9"/>
		<stop  offset="0.907" style="stop-color:#BAD0E8"/>
		<stop  offset="0.9731" style="stop-color:#E9F0F8"/>
		<stop  offset="1" style="stop-color:#FFFFFF"/>
	</linearGradient>
	<path class="st2" d="M189.42,44.88c-0.42-0.63-0.98-1.09-1.64-1.46c-1.01-0.57-2.12-0.86-3.26-1.04c-0.04,0.12-0.11,0.21-0.21,0.3
		c-0.74,0.62-1.56,1.12-2.39,1.61c-0.42,0.25-0.89,0.4-1.27,0.72c-0.78,0.34-1.55,0.69-2.33,1.03c-0.97,0.42-1.96,0.77-2.94,1.16
		c-0.59,0.23-1.21,0.36-1.76,0.68c-0.7,0.13-1.34,0.43-2.01,0.65c-0.5,0.16-1.03,0.26-1.51,0.5c-0.96,0.3-1.93,0.6-2.89,0.9
		c-0.95,0.29-1.91,0.53-2.91,0.92c0.46,0.15,0.83,0.29,1.21,0.4c1.23,0.33,2.47,0.65,3.71,0.97c0.92,0.23,1.84,0.46,2.76,0.66
		c0.93,0.21,1.87,0.4,2.81,0.58c0.83,0.16,1.67,0.31,2.52,0.38c0.04,0.01,0.08,0.01,0.12,0.02c0.11,0.04,0.22,0.09,0.33,0
		c0.73-0.14,1.39-0.47,2.06-0.76c0.34-0.14,0.72-0.22,1.01-0.47c0.56-0.13,1.03-0.46,1.55-0.68c0.36-0.15,0.72-0.33,1.05-0.54
		c0.29-0.19,0.6-0.36,0.91-0.5c1.05-0.45,2.01-1.08,2.96-1.7c0.08,0.01,0.15-0.03,0.21-0.08c0.44-0.39,0.9-0.75,1.3-1.2
		c0.58-0.66,0.91-1.37,0.84-2.24C189.68,45.37,189.57,45.11,189.42,44.88z"/>
</g>
</svg>
