<?xml version="1.0" encoding="utf-8"?>
<!-- Generator: Adobe Illustrator 25.4.1, SVG Export Plug-In . SVG Version: 6.00 Build 0)  -->
<svg version="1.1" id="Layer_1" xmlns="http://www.w3.org/2000/svg" xmlns:xlink="http://www.w3.org/1999/xlink" x="0px" y="0px"
	 viewBox="0 0 200 100" style="enable-background:new 0 0 200 100;" xml:space="preserve">
<style type="text/css">
	.st0{fill:#FDFDFD;}
	.st1{fill:#EF1A2D;}
</style>
<path class="st0" d="M20.18,45.06c-0.29,0.43-0.78,0.23-1.16,0.33c-4.53,1.14-7.64,3.77-9,8.28C9.95,53.9,10,54.24,9.65,54.33
	c0-2.9,0.02-5.79-0.02-8.69c-0.01-0.5,0.1-0.6,0.6-0.59C13.55,45.08,16.87,45.06,20.18,45.06z"/>
<g>
	<path class="st1" d="M28.25,38.37c1.02,0.47,4.3,2.02,6.2,5.82c1.09,2.16,1.52,4.67,1.18,7.29c-0.66,5.05-5.28,9.54-10.64,10.32
		c-0.39,0.06-0.98,0.37-1.02-0.47c-0.03-0.58,0.09-0.87,0.78-1.01c4.88-1.02,8.37-4.4,9.11-8.72c1.05-6.07-3.02-11.68-9.19-12.67
		c-6.43-1.03-12.24,3.2-13.11,9.56c-0.75,5.45,3.74,11.17,9.28,11.85c0.58,0.07,0.95,0.01,1.11-0.66c0.38-1.49,0.37-3,0.3-4.51
		c-0.03-0.62-0.43-0.79-0.98-0.54c-0.54,0.25-1.04,0.56-1.57,0.83c-0.73,0.37-1.34,0.97-2.35,0.31c-0.46-0.3-1.36,0.09-2.13,0.17
		c0.16-1.01,1.17-1.9,0.35-2.97c-0.02-0.02,0.32-0.35,0.52-0.49c0.87-0.62,0.59-1.08-0.21-1.44c-0.35-0.16-0.71-0.28-1.06-0.42
		c-0.61-0.23-1.2-0.4-0.63-1.29c0.29-0.46-0.16-0.94-0.43-1.37c-0.26-0.41-0.71-0.72-0.77-1.28c0.54-0.25,1.1-0.08,1.63-0.12
		c0.38-0.03,0.91,0.05,1.07-0.28c0.6-1.25,1.19-0.39,1.82-0.07c0.68,0.34,1.26,1.29,2.11,0.82c1-0.54,0.27-1.52,0.26-2.3
		c-0.01-0.78-0.46-1.71,0.97-1.78c0.53-0.03,0.67-0.7,0.88-1.15c0.29-0.59,0.57-1.18,0.95-1.94c0.4,0.85,0.72,1.52,1.03,2.19
		c0.24,0.53,0.61,1.07,1.19,0.98c1.07-0.15,0.8,0.48,0.74,1.02c-0.07,0.71-0.22,1.42-0.22,2.13c0,0.92,0.52,1.2,1.34,0.78
		c0.34-0.17,0.64-0.42,0.96-0.61c0.65-0.38,1.14-1.27,2-0.02c0.44,0.64,1.69,0.07,2.74,0.35c-0.34,0.49-0.63,0.92-0.93,1.34
		c-0.25,0.35-0.64,0.76-0.44,1.13c0.7,1.28-0.4,1.28-1.06,1.58c-1.6,0.72-1.61,0.72-0.5,1.95c0.1,0.11,0.28,0.33,0.24,0.38
		c-0.57,0.83,0.02,1.5,0.24,2.25c0.19,0.63-0.02,0.81-0.72,0.56c-0.59-0.21-1.29-0.53-1.88,0.14c-0.32,0.36-0.62,0-0.89-0.14
		c-0.72-0.36-1.42-0.75-2.13-1.14c-0.84-0.47-1.25-0.29-1.24,0.73c0.04,1.89,0.04,3.78-0.29,5.66c-0.16,0.89-0.33,1.49-1.48,0.79
		c-0.69-0.42-1.63-0.42-2.44-0.67c-2.54-0.79-4.61-2.04-6.18-3.78c-2.02-2.24-2.65-4.62-2.8-5.2c-0.2-0.81-0.65-3.05,0.07-5.78
		c0.17-0.64,0.84-2.99,2.92-5.21c2.67-2.86,5.89-3.6,6.89-3.81C21.2,37.2,24.57,36.7,28.25,38.37z"/>
	<g>
		<path d="M59.72,58.15h-4.74l-0.77-3.07H49.4l-0.8,3.07h-4.65l5.33-18.38h5.12L59.72,58.15z M53.34,51.77
			c-0.68-2.74-1.19-5.34-1.53-7.81h-0.06c-0.36,2.54-0.87,5.14-1.52,7.81H53.34z"/>
		<path d="M62.19,39.77h4.56v18.38h-4.56V39.77z"/>
		<path d="M71.2,39.77h5.31c2.15,0,3.84,0.5,5.09,1.51c1.24,1.01,1.87,2.38,1.87,4.12c0,0.89-0.24,1.75-0.71,2.58
			c-0.47,0.83-1.16,1.46-2.06,1.88l3.64,8.29h-4.82l-3.69-8.37h-0.08v8.37H71.2V39.77z M75.76,43.32v4.36
			c2.02-0.04,3.02-0.68,3.02-1.94c0-0.85-0.23-1.46-0.7-1.83C77.62,43.55,76.84,43.35,75.76,43.32z"/>
		<path d="M105.01,53.81v4.36c-0.96,0.28-1.83,0.43-2.59,0.43c-2.64,0-4.78-0.91-6.42-2.72c-1.64-1.81-2.46-4.2-2.46-7.15
			c0-2.74,0.83-5.01,2.48-6.79c1.66-1.79,3.75-2.68,6.27-2.68c0.98,0,1.89,0.12,2.71,0.36V44c-0.87-0.27-1.7-0.4-2.47-0.4
			c-1.18,0-2.17,0.5-2.95,1.49c-0.78,0.99-1.17,2.25-1.17,3.79c0,1.65,0.39,2.96,1.18,3.92c0.79,0.96,1.84,1.44,3.15,1.44
			C103.4,54.23,104.15,54.09,105.01,53.81z"/>
		<path d="M122.01,58.15h-4.74l-0.77-3.07h-4.82l-0.8,3.07h-4.65l5.33-18.38h5.12L122.01,58.15z M115.63,51.77
			c-0.68-2.74-1.19-5.34-1.53-7.81h-0.06c-0.36,2.54-0.87,5.14-1.52,7.81H115.63z"/>
		<path d="M124.32,39.77h4.61l5.79,10.6l-0.17-1.98v-8.62h4.56v18.38h-4.68l-5.67-10.44l0.12,2.29v8.15h-4.56V39.77z"/>
		<path d="M157.48,58.15h-4.74l-0.77-3.07h-4.82l-0.8,3.07h-4.65l5.33-18.38h5.12L157.48,58.15z M151.1,51.77
			c-0.68-2.74-1.19-5.34-1.53-7.81h-0.06c-0.36,2.54-0.87,5.14-1.52,7.81H151.1z"/>
		<path d="M159.78,39.77h4.26c2.95,0,5.19,0.77,6.73,2.31c1.53,1.54,2.3,3.78,2.3,6.74c0,2.24-0.38,4.05-1.14,5.42
			c-0.76,1.38-1.82,2.37-3.17,2.99c-1.36,0.61-2.86,0.92-4.51,0.92h-4.47V39.77z M164.34,43.68v10.55c1.38-0.11,2.36-0.56,2.93-1.34
			c0.57-0.78,0.86-2.08,0.86-3.88c0-1.06-0.1-1.97-0.3-2.71c-0.2-0.74-0.5-1.31-0.9-1.71s-0.78-0.64-1.16-0.74
			S164.92,43.71,164.34,43.68z"/>
		<path d="M189.64,58.15h-4.74l-0.77-3.07h-4.82l-0.8,3.07h-4.65l5.33-18.38h5.12L189.64,58.15z M183.26,51.77
			c-0.68-2.74-1.19-5.34-1.53-7.81h-0.06c-0.36,2.54-0.87,5.14-1.52,7.81H183.26z"/>
	</g>
</g>
</svg>
