<?xml version="1.0" encoding="utf-8"?>
<!-- Generator: Adobe Illustrator 25.4.1, SVG Export Plug-In . SVG Version: 6.00 Build 0)  -->
<svg version="1.1" id="Layer_1" xmlns="http://www.w3.org/2000/svg" xmlns:xlink="http://www.w3.org/1999/xlink" x="0px" y="0px"
	 viewBox="0 0 200 100" style="enable-background:new 0 0 200 100;" xml:space="preserve">
<style type="text/css">
	.st0{fill:#D10733;}
	.st1{fill:#FEFEFE;}
	.st2{fill:#3FA9F5;}
	.st3{fill:#9C0C24;}
	.st4{fill:#DF6764;}
</style>
<g>
	<path d="M173.86,69.06c-2.1,2.86-4.46,3.56-7.73,2.82c-1.07-0.24-2.08-0.58-3.03-1.26c-2.48-1.78-2.49-5.86,0.34-7.76
		c2.1-1.41,4.5-1.87,6.96-2.14c0.38-0.04,0.77-0.01,1.16-0.01c2.18,0,2.18,0,2-2.23c-0.13-1.64-1.31-3.43-2.55-3.75
		c-2.05-0.53-3.93,0.04-5.14,1.76c-0.71,1-1.28,2.06-1.62,3.24c-0.09,0.31-0.22,0.67-0.6,0.66c-0.49-0.01-0.28-0.46-0.36-0.73
		c-0.37-1.32-0.75-2.63-1.13-3.94c-0.13-0.44-0.16-0.69,0.45-0.87c2.92-0.85,5.84-1.65,8.92-1.48c2.41,0.13,4.63,0.7,6.02,2.92
		c0.64,1.02,0.9,2.16,1.04,3.34c0.35,3.02,0.14,6.04,0.18,9.07c0.01,0.5,0.14,0.91,0.39,1.34c0.83,1.38,1.88,1.15,2.68-0.02
		c0.58-0.84,0.81-1.86,0.81-2.91c0-5.42-0.01-10.84,0.01-16.26c0-1.08-0.33-1.86-1.44-2.18c-0.2-0.06-0.55-0.14-0.46-0.51
		c0.08-0.31,0.37-0.17,0.57-0.22c1.95-0.44,3.97-0.55,5.9-1.11c0.55-0.16,0.66,0.15,0.65,0.62c-0.02,1.19,0,2.39,0,3.58
		c0,5.45-0.01,10.9,0.01,16.35c0.01,1.5,0.39,2.86,1.87,3.6c0.23,0.12,0.23,0.27,0.23,0.46c-0.01,0.27-0.21,0.3-0.4,0.3
		c-0.45,0.01-0.9-0.13-1.33-0.13c-2.18-0.02-4.36-0.11-6.55,0.07c-2.18,0.18-4.38,0.07-6.58,0.05c-0.61-0.01-0.69-0.63-0.77-1.06
		C174.27,70.12,174.14,69.61,173.86,69.06z M173.76,63.78c0-1.99,0-1.99-1.56-1.92c-0.06,0-0.13,0-0.19,0
		c-2.83,0.06-5.05,2.14-5.2,4.96c-0.07,1.25,0.25,2.48,1.24,3.29c1.57,1.29,3.56,0.75,4.61-1.01
		C173.72,67.33,173.55,65.35,173.76,63.78z"/>
	<path class="st0" d="M31.46,44.85c-0.32-0.14-0.86,0.25-0.97-0.4c0,0,0.02-0.02,0.02-0.02c0.42-0.02,0.91,0.17,1.15-0.4
		c0.52-0.84,0.39-1.77,0.39-2.69l0.01-0.01c0.23,0.2,0.29,0.55,0.7,0.58c1.94,0.17,3.88,0.34,5.81,0.6
		c0.81,0.11,1.75-0.15,2.39,0.62c-0.53,0.62-1.08,1.21-1.73,1.71c-0.17-0.41-0.34-1.01-0.89-0.53c-0.52,0.45-0.93,1.06-1.3,1.66
		c-1.38,2.21-2.42,4.58-3.24,7.05c-0.61,1.85-1.37,3.66-1.17,5.68c0.06,0.63-0.03,1.28-0.08,1.92c-0.1,1.41,1,2.48,2.42,1.7
		c1.93-1.07,3.24-2.68,4.26-4.58c0.06,0.07,0.13,0.14,0.17,0.22c1.14,2.68,2.61,5.2,3.83,7.84c0.9,1.97,2.01,3.84,2.77,5.87
		c-5.64,0.01-11.28,0.03-16.92,0.04c-3.03,0-6.06-0.02-9.09-0.03c0.57-0.89,1.12-1.8,1.71-2.68c2.05-3.03,4.12-6.04,6.17-9.07
		c1.11-1.63,2.21-3.27,3.26-4.94c0.62-0.99,1.42-1.88,1.74-3.06c-0.4,0.26-0.85,0.42-1.09,0.86c-0.53,0.99-1.18,1.9-1.82,2.83
		c-2.08,3.01-4.12,6.05-6.12,9.11c-1.5,2.31-3.14,4.54-4.51,6.94c-0.85,0-1.7,0-2.56-0.01c0.13-0.66,0.75-0.94,1.11-1.42
		c3.15-4.25,6.34-8.47,9.47-12.73c0.77-1.05,1.78-1.94,2.18-3.25l-0.01,0.01c0.67-0.45,1.34-0.9,1.36-1.84
		c0.01-0.22,0.11-0.38,0.3-0.48c0.41-0.03,0.49-0.3,0.48-0.65c0.02-0.07,0.06-0.11,0.12-0.13c0.26-0.03,0.5-0.07,0.26-0.41
		c0.02-0.39,0.11-0.81-0.37-1.01c0.7-1.2,1.8-2.07,2.69-3.11c1.11-1.3,0.89-1.87-0.82-2.2c-0.22-0.04-0.51,0.03-0.66-0.09
		C32.15,43.82,31.81,44.32,31.46,44.85z"/>
	<path d="M104.45,58.34c0.76-1.48,1.51-2.89,2.76-3.99c1.14-1.01,2.49-1.08,3.88-0.97c0.64,0.05,0.16,0.55,0.1,0.73
		c-0.56,1.72-1.17,3.42-1.79,5.17c-0.2-0.11-0.45-0.16-0.58-0.32c-1.18-1.44-2.61-0.85-3.53,0.9c-0.27,0.52-0.42,1.16-0.43,1.75
		c-0.05,2.16-0.1,4.33,0.01,6.48c0.06,1.17,0.45,2.34,1.72,2.88c0.23,0.1,0.38,0.25,0.35,0.51c-0.05,0.34-0.33,0.25-0.53,0.25
		c-4.81,0.01-9.61,0-14.42,0.01c-0.36,0-0.68-0.09-0.68-0.5c0-0.75-0.54-1.37-0.42-2.08c-0.45,0.38-0.94,0.69-1.29,1.11
		c-1.54,1.86-3.63,2.09-5.78,1.81c-1.17-0.15-2.33-0.49-3.42-1.1c-2.79-1.58-3.19-5.86-0.41-7.92c2.25-1.66,4.86-2.14,7.55-2.35
		c0.26-0.02,0.52,0,0.77,0c2.18,0,2.18,0,2.01-2.22c-0.13-1.72-0.88-3.14-2.53-3.72c-1.93-0.69-3.56,0.06-4.85,1.36
		c-1,1.01-1.48,2.3-1.89,3.61c-0.11,0.36-0.26,0.62-0.6,0.63c-0.3,0.01-0.28-0.37-0.33-0.57c-0.37-1.34-0.63-2.72-1.05-4.05
		c-0.25-0.78,0.2-0.91,0.7-1.03c1.89-0.43,3.73-1.01,5.68-1.23c2.04-0.23,4.02-0.22,5.96,0.45c2.61,0.91,3.77,2.85,3.93,5.54
		c0.13,2.35,0.04,4.71,0.02,7.06c-0.01,1.03,0.17,2.03,0.39,3.03c0.19,0.85,0.78,1.29,1.56,1.48c0.69,0.17,1.04-0.41,1.38-0.83
		c0.65-0.78,0.92-1.75,0.92-2.75c0.02-3.16,0.01-6.32,0-9.48c0-1.1-0.69-2.12-1.72-2.49c-0.25-0.09-0.4-0.14-0.39-0.43
		c0.01-0.32,0.22-0.35,0.46-0.35c1.96-0.01,3.87-0.37,5.78-0.76c0.54-0.11,0.75,0.11,0.73,0.67
		C104.43,55.86,104.45,57.1,104.45,58.34z M90.52,63.82c0-0.16,0.01-0.32,0-0.48c-0.02-0.51,0.12-1.12-0.12-1.5
		c-0.3-0.48-0.86,0.16-1.33,0.03c-0.18-0.05-0.39-0.03-0.58,0c-1.38,0.21-2.61,0.67-3.61,1.74c-1.34,1.43-1.32,3.17-1.06,4.87
		c0.17,1.1,0.96,2.07,2.2,2.27c1.29,0.2,2.46-0.08,3.23-1.32C90.34,67.69,90.56,65.79,90.52,63.82z"/>
	<path d="M118.78,56.88c2.07-3.69,6.16-4.31,9.2-2.78c1.97,1,2.91,2.77,2.97,4.91c0.09,3.16,0.04,6.32,0.01,9.48
		c-0.01,0.69,0.22,1.24,0.59,1.78c0.99,1.43,2.95,0.66,3.4-0.36c0.28-0.63,0.49-1.3,0.49-2.03c-0.03-3.45-0.02-6.9-0.01-10.35
		c0-1.04-0.35-1.78-1.42-2.1c-0.21-0.06-0.53-0.14-0.49-0.49c0.02-0.21,0.2-0.22,0.36-0.23c1.87-0.15,3.74-0.4,5.58-0.8
		c0.85-0.18,1.04,0.03,1.03,0.89c-0.05,4.16-0.03,8.32-0.01,12.48c0,0.85,0.08,1.72,0.47,2.52c0.28,0.58,0.7,1,1.34,1.15
		c0.26,0.06,0.52,0.05,0.49,0.43c-0.03,0.46-0.39,0.36-0.65,0.35c-0.93-0.04-1.84-0.21-2.78-0.2c-4.8,0.07-9.59,0.32-14.39,0.21
		c-0.26-0.01-0.52,0-0.77-0.01c-0.16-0.01-0.33-0.03-0.34-0.24c-0.02-0.19,0.08-0.3,0.25-0.36c1.71-0.58,1.88-1.96,1.86-3.49
		c-0.03-2.58-0.01-5.16-0.01-7.74c0-0.97-0.28-1.89-0.63-2.78c-0.47-1.19-1.44-1.81-2.67-1.81c-1.33-0.01-2.16,0.83-2.69,1.98
		c-0.72,1.56-1.03,3.22-0.97,4.93c0.06,2.02-0.15,4.05,0.18,6.07c0.19,1.17,0.64,2.12,1.69,2.74c0.17,0.1,0.47,0.13,0.42,0.45
		c-0.07,0.4-0.4,0.26-0.62,0.26c-2.81,0.01-5.61,0.01-8.42,0c-0.2,0-0.48,0.1-0.57-0.21c-0.09-0.31,0.18-0.38,0.37-0.47
		c1.2-0.61,1.5-1.73,1.73-2.92c0.24-1.24,0.18-2.49,0.18-3.74c0.01-1.94,0.06-3.87-0.02-5.8c-0.05-1.3-0.31-2.58-1.78-3.1
		c-0.29-0.1-0.33-0.26-0.31-0.5c0.02-0.27,0.23-0.28,0.42-0.28c1.96,0.02,3.86-0.43,5.77-0.77c0.49-0.09,0.8,0.06,0.76,0.66
		C118.75,55.26,118.78,55.93,118.78,56.88z"/>
	<path d="M66.82,72.11c-2.94,0.25-5.85-0.52-8.46-2.33c-2.98-2.06-4.51-4.93-4.63-8.56c-0.07-2.17,0.23-4.26,1.35-6.17
		c1.39-2.36,3.42-3.94,5.93-5.01c2.73-1.17,5.59-1.08,8.41-0.92c2.57,0.15,5.09,0.77,7.44,1.92c0.4,0.2,0.52,0.39,0.35,0.89
		c-0.64,1.86-1.18,3.76-1.78,5.63c-0.06,0.2,0.13,0.61-0.33,0.53c-0.3-0.05-0.42-0.27-0.48-0.61c-0.29-1.56-0.68-3.11-1.58-4.44
		c-2.57-3.82-8.56-3.99-10.96,0.64c-1.5,2.89-1.85,5.99-1.41,9.22c0.33,2.42,0.99,4.65,2.77,6.43c1.12,1.12,2.43,1.61,4.04,1.65
		c2.38,0.05,4.38-0.61,5.98-2.42c1.11-1.24,1.48-2.79,1.94-4.31c0.08-0.28,0.07-0.64,0.46-0.59c0.3,0.04,0.28,0.36,0.34,0.61
		c0.39,1.57,0.79,3.14,1.24,4.7c0.15,0.5-0.01,0.64-0.44,0.84C73.74,71.37,71.11,72.28,66.82,72.11z"/>
	<path class="st1" d="M39.23,44.86c0.65-0.5,1.2-1.09,1.73-1.71c1.51-0.95,3.03-1.86,4.67-2.58c4.57-1.99,9.28-3.52,14.08-4.85
		c2.72-0.75,5.47-1.33,8.17-2.14c0.11,0.02,0.23,0.03,0.34,0.05c-0.9,1.03-2.24,0.92-3.38,1.23c-4.81,1.3-9.45,3.07-13.97,5.14
		c-1.65,0.76-3.35,1.44-4.88,2.48c-1.69,1.15-2.26,2.86-2.76,4.68c-0.88,3.2,0.09,6.21,0.91,9.21c0.94,3.43,1.88,6.84,2.26,10.4
		c0.15,1.42,0.38,2.83,0.38,4.27c0,0.66-0.25,0.78-0.79,0.64c-0.76-2.03-1.86-3.9-2.77-5.87c-1.22-2.64-2.69-5.16-3.83-7.84
		c-0.03-0.08-0.11-0.15-0.17-0.22c-0.22-0.75-0.43-1.51-0.68-2.25c-0.75-2.25-0.93-4.52-0.56-6.89
		C38.2,47.28,38.8,46.11,39.23,44.86z"/>
	<path class="st2" d="M43.84,44.86c0.55-0.5,1.01-1.09,1.46-1.71c1.27-0.95,2.55-1.86,3.93-2.58c3.84-1.99,7.81-3.52,11.85-4.85
		c2.29-0.75,4.61-1.33,6.88-2.14c0.09,0.02,0.19,0.03,0.28,0.05c-0.75,1.03-1.89,0.92-2.85,1.23c-4.05,1.3-7.95,3.07-11.76,5.14
		c-1.39,0.76-2.82,1.44-4.11,2.48c-1.42,1.15-1.9,2.86-2.33,4.68c-0.74,3.2,0.08,6.21,0.77,9.21c0.79,3.43,1.59,6.84,1.91,10.4
		c0.13,1.42,0.32,2.83,0.32,4.27c0,0.66-0.21,0.78-0.67,0.64c-0.64-2.03-1.57-3.9-2.33-5.87c-1.02-2.64-2.27-5.16-3.22-7.84
		c-0.03-0.08-0.09-0.15-0.14-0.22c-0.19-0.75-0.36-1.51-0.57-2.25c-0.63-2.25-0.79-4.52-0.47-6.89
		C42.98,47.28,43.48,46.11,43.84,44.86z"/>
	<path class="st3" d="M67.88,33.59c-2.7,0.8-5.46,1.38-8.17,2.14c-4.79,1.33-9.51,2.86-14.08,4.85c-1.64,0.72-3.16,1.63-4.67,2.58
		c-0.65-0.77-1.59-0.51-2.39-0.62c-1.93-0.26-3.87-0.43-5.81-0.6c-0.41-0.04-0.47-0.39-0.7-0.58c0.02-0.4,0.03-0.79-0.18-1.15
		c1.23,0.25,2.46,0.5,3.68,0.75c1.12,0.23,2.25,0.58,3.31-0.2c0.28-0.22,0.64-0.34,0.76-0.72c0.27-0.28,0.59-0.47,0.95-0.62
		c0,0.2,0,0.39,0,0.59c-0.11,0.03-0.25,0.03-0.26,0.19c0,0.02,0.04,0.06,0.06,0.06c0.16-0.01,0.16-0.14,0.19-0.26
		c1.31-0.39,2.34-1.17,3.1-2.31c0.04-0.02,0.09-0.03,0.14-0.03c0.08-0.06,0.16-0.13,0.24-0.19l-0.01,0.01
		c0.07-0.06,0.14-0.13,0.21-0.19l0,0c0.29,0,0.53-0.06,0.56-0.42c0.01-0.12,0.02-0.23,0.03-0.35l0,0.01
		c0.33,0.08,0.47-0.14,0.58-0.39c0,0,0,0,0,0c1.5-0.93,2.84-2.05,4.09-3.29c1.7-1.41,3.4-2.82,5.09-4.24
		c2.63,1.45,5.35,2.69,8.23,3.59C64.5,32.7,66.24,32.97,67.88,33.59z"/>
	<path d="M156.72,57.16c0-1.16-0.35-1.64-1.51-2.03c-0.3-0.1-0.71-0.03-0.59-0.53c0.11-0.47,0.55-0.32,0.81-0.26
		c1.47,0.34,2.95,0.1,4.42,0.16c0.37,0.01,0.75-0.14,1.13-0.17c0.2-0.02,0.49-0.08,0.55,0.23c0.05,0.22,0.03,0.4-0.22,0.56
		c-2.75,1.74-3.76,4.71-5.15,7.4c-1.5,2.92-2.91,5.88-4.37,8.82c-0.15,0.31-0.29,0.72-0.69,0.72c-0.38,0-0.42-0.44-0.56-0.71
		c-2.01-3.87-4-7.74-6-11.61c-0.56-1.08-1.16-2.13-1.83-3.14c-0.31-0.47-0.66-0.86-1.17-1.09c-0.4-0.18-0.8-0.45-0.64-0.93
		c0.16-0.5,0.68-0.3,1-0.25c2.15,0.36,4.3,0.1,6.46,0.16c0.6,0.02,1.2-0.13,1.81-0.17c0.2-0.01,0.5-0.08,0.54,0.24
		c0.04,0.31-0.16,0.47-0.45,0.51c-0.16,0.03-0.32,0.04-0.46,0.11c-1.24,0.61-1.42,1.47-0.65,2.84c1.19,2.11,2.36,4.23,3.54,6.34
		c0.15,0.27,0.18,0.69,0.55,0.72c0.45,0.04,0.37-0.44,0.51-0.7c0.84-1.57,1.91-3.02,2.53-4.71
		C156.55,58.88,156.76,58.03,156.72,57.16z"/>
	<path class="st3" d="M31.46,44.85c0.35-0.53,0.69-1.03,1.42-0.48c0.15,0.12,0.44,0.05,0.66,0.09c1.72,0.33,1.93,0.9,0.82,2.2
		c-0.89,1.05-1.99,1.91-2.69,3.12c-1.42,1.57-2.86,3.12-4.25,4.72c-3.43,3.91-6.84,7.83-10.24,11.75c-1.56,1.79-3.15,3.56-4.57,5.46
		c-0.83,0-1.66,0-2.61,0c0.57-1.1,1.47-1.8,2.18-2.61c2.37-2.69,4.86-5.27,7.28-7.92c2.99-3.28,5.92-6.61,8.93-9.86
		c1.27-1.37,2.42-2.86,3.86-4.04c0.51-0.41,0.64-0.86,0.55-1.42c-0.1-0.6-0.53-0.83-1.11-0.86C31.61,44.99,31.54,44.9,31.46,44.85z"
		/>
	<path class="st4" d="M12.61,71.71c1.42-1.9,3.02-3.67,4.57-5.46c3.41-3.92,6.82-7.85,10.24-11.75c1.4-1.59,2.83-3.14,4.25-4.72
		c0.48,0.21,0.39,0.62,0.37,1.01c-0.09,0.14-0.17,0.28-0.26,0.41c-0.06,0.02-0.1,0.07-0.12,0.13c-0.24,0.16-0.38,0.39-0.48,0.64
		c-0.19,0.11-0.29,0.27-0.3,0.48c-0.56,0.53-1.28,0.95-1.36,1.84c0,0,0.01-0.01,0.01-0.01c-0.46,0.02-0.65,0.4-0.87,0.69
		c-1.33,1.75-2.6,3.55-4.04,5.22c-1.44,1.68-2.76,3.45-4.18,5.14c-1.13,1.35-2.18,2.76-3.31,4.11c-0.6,0.72-1.38,1.33-1.76,2.23
		C14.45,71.7,13.53,71.71,12.61,71.71z"/>
	<path d="M137.83,46.76c1.56,0,2.62,1.11,2.63,2.75c0.01,1.65-1.13,2.89-2.65,2.87c-1.36-0.02-2.58-1.34-2.57-2.81
		C135.24,47.96,136.34,46.77,137.83,46.76z"/>
	<path class="st4" d="M67.88,33.59c-1.64-0.62-3.38-0.88-5.05-1.4c-2.89-0.9-5.6-2.14-8.23-3.59c-0.09-0.06-0.18-0.12-0.26-0.17
		c-0.01-0.14-0.02-0.29-0.04-0.43c0.91-0.41,1.74,0.11,2.55,0.33c3.77,1.01,7.2,2.85,10.69,4.54c0.33,0.16,0.59,0.46,0.69,0.78
		C68.1,33.62,67.99,33.6,67.88,33.59z"/>
	<path class="st3" d="M15.37,71.7c0.37-0.91,1.16-1.52,1.76-2.23c1.13-1.35,2.18-2.77,3.31-4.11c1.42-1.69,2.74-3.47,4.18-5.14
		c1.44-1.67,2.7-3.47,4.04-5.22c0.22-0.29,0.42-0.67,0.87-0.69c-0.4,1.3-1.41,2.2-2.18,3.25c-3.13,4.26-6.32,8.48-9.47,12.73
		c-0.36,0.48-0.97,0.77-1.11,1.42C16.31,71.7,15.84,71.7,15.37,71.7z"/>
	<path class="st4" d="M19.33,71.71c1.37-2.4,3-4.63,4.51-6.94c2-3.07,4.04-6.1,6.12-9.11c0.64-0.92,1.29-1.84,1.82-2.83
		c0.24-0.45,0.69-0.6,1.09-0.86c-0.33,1.18-1.13,2.08-1.74,3.06c-1.05,1.67-2.16,3.3-3.26,4.94c-2.05,3.03-4.12,6.04-6.17,9.07
		c-0.59,0.88-1.14,1.78-1.71,2.68C19.76,71.71,19.55,71.71,19.33,71.71z"/>
	<path class="st4" d="M38.86,40.75c-1.06,0.78-2.19,0.44-3.31,0.2c-1.23-0.26-2.46-0.5-3.68-0.75c-0.13-0.19-0.18-0.38,0-0.56
		c0.06-0.02,0.12-0.02,0.19,0c1.74,0.28,3.45,0.77,5.23,0.72c0.26-0.01,0.53-0.02,0.79-0.03C38.36,40.42,38.83,40.17,38.86,40.75z"
		/>
	<path class="st0" d="M44.8,36.85c-0.03,0.35-0.27,0.42-0.56,0.42c0.02-0.28-0.11-0.33-0.32-0.18c-0.2,0.14-0.58,0.22-0.25,0.59
		c-0.76,1.14-1.79,1.91-3.1,2.31l0.01,0.01c0-0.2,0-0.39,0-0.59c0,0-0.01,0-0.01,0c0.07-0.05,0.15-0.1,0.22-0.15
		c1.26-1.15,2.53-2.28,3.93-3.26c0.03,0.05,0.07,0.09,0.12,0.13c0,0.13,0,0.26-0.01,0.39l0-0.01c-0.17,0-0.35,0.02-0.34,0.23
		C44.51,36.87,44.68,36.85,44.8,36.85z"/>
	<path class="st0" d="M37.28,40.35c-1.78,0.05-3.49-0.44-5.23-0.72C33.84,39.57,35.56,39.93,37.28,40.35z"/>
	<path class="st0" d="M30.49,44.45c-0.8-1.31-0.8-3.49,0-4.48c0,0,0.02,0.02,0.02,0.02c-0.5,1.48-0.56,2.96,0,4.44L30.49,44.45z"/>
	<path class="st0" d="M45.6,35.34c0.45-0.74,1.17-1.17,1.83-1.67c0.04,0.05,0.08,0.1,0.12,0.14c-0.48,0.7-1.19,1.14-1.85,1.64
		C45.67,35.41,45.64,35.37,45.6,35.34z"/>
	<path class="st0" d="M31.86,39.63c-0.17,0.19-0.12,0.38,0,0.56c0.21,0.36,0.2,0.75,0.18,1.15l-0.01,0.01
		c-0.33-0.4-0.32-0.99-0.74-1.34c-0.26,0-0.53-0.01-0.79-0.01c0,0-0.02-0.02-0.02-0.02C30.8,39.28,31.4,39.71,31.86,39.63z"/>
	<path class="st0" d="M48.12,33.21c0.34-0.59,0.92-0.9,1.44-1.29c0.06,0.07,0.12,0.14,0.17,0.21c-0.24,0.23-0.47,0.45-0.71,0.68
		c-0.28,0.16-0.57,0.31-0.85,0.47L48.12,33.21z"/>
	<path class="st0" d="M52.4,29.75c0.28-0.65,0.85-0.98,1.42-1.31c0.05,0.06,0.1,0.11,0.15,0.17c-0.42,0.5-0.9,0.93-1.5,1.21
		C52.45,29.79,52.42,29.77,52.4,29.75z"/>
	<path class="st0" d="M38.86,40.75c-0.03-0.57-0.5-0.33-0.79-0.42c0.5-0.18,1.02-0.29,1.55-0.29C39.5,40.41,39.14,40.53,38.86,40.75
		z"/>
	<path class="st0" d="M44.72,35.99c0.25-0.27,0.44-0.63,0.88-0.66c0.04,0.04,0.07,0.07,0.11,0.11c-0.1,0.22-0.43,0.35-0.29,0.68
		c0,0,0,0,0,0c-0.19,0-0.39,0-0.58,0C44.79,36.08,44.75,36.04,44.72,35.99z"/>
	<path class="st0" d="M49.56,31.92c0.25-0.27,0.43-0.63,0.88-0.65c0.06,0.05,0.11,0.11,0.17,0.16c-0.21,0.33-0.48,0.59-0.87,0.7
		C49.68,32.06,49.62,31.99,49.56,31.92z"/>
	<path class="st0" d="M50.63,31.08c0.2-0.41,0.6-0.57,0.97-0.78c0.06,0.06,0.12,0.11,0.18,0.17c-0.23,0.38-0.63,0.55-0.97,0.79
		C50.75,31.2,50.69,31.14,50.63,31.08z"/>
	<path class="st0" d="M51.6,30.3c0.19-0.29,0.38-0.59,0.8-0.55c0.02,0.02,0.05,0.05,0.07,0.07c-0.13,0.32-0.39,0.51-0.69,0.66
		C51.72,30.42,51.66,30.36,51.6,30.3z"/>
	<path class="st0" d="M47.43,33.67c0.18-0.23,0.35-0.47,0.69-0.46c0,0,0.06,0.06,0.06,0.06c-0.1,0.3-0.37,0.41-0.63,0.53
		C47.51,33.76,47.47,33.72,47.43,33.67z"/>
	<path class="st0" d="M54.29,27.99c0.01,0.14,0.02,0.29,0.04,0.43c-0.12,0.06-0.24,0.13-0.36,0.19c-0.05-0.06-0.1-0.11-0.15-0.17
		C53.98,28.29,54.14,28.14,54.29,27.99z"/>
	<path class="st0" d="M50.44,31.27c0.06-0.06,0.13-0.13,0.19-0.19c0.06,0.06,0.12,0.12,0.18,0.18c-0.07,0.06-0.13,0.12-0.2,0.17
		C50.55,31.38,50.5,31.33,50.44,31.27z"/>
	<path class="st3" d="M40.79,39.25c-0.07,0.05-0.15,0.1-0.22,0.15C40.64,39.36,40.71,39.31,40.79,39.25z"/>
	<path class="st4" d="M39.23,44.86c-0.42,1.25-1.02,2.42-1.24,3.77c-0.38,2.37-0.19,4.64,0.56,6.89c0.25,0.74,0.45,1.5,0.68,2.25
		c-1.02,1.9-2.33,3.51-4.26,4.58c-1.41,0.78-2.51-0.29-2.42-1.7c0.04-0.64,0.14-1.29,0.08-1.92c-0.19-2.02,0.56-3.83,1.17-5.68
		c0.81-2.48,1.86-4.84,3.24-7.05c0.37-0.59,0.78-1.2,1.3-1.66C38.89,43.85,39.06,44.45,39.23,44.86z"/>
	<path class="st3" d="M30.51,39.99c0.26,0,0.53,0.01,0.79,0.01c-0.11,0.33-0.23,0.65-0.32,0.98c-0.34,1.15-0.02,2.57,0.68,3.05
		c-0.23,0.56-0.72,0.38-1.15,0.4C29.95,42.95,30.01,41.47,30.51,39.99z"/>
	<path d="M31.66,44.04c-0.69-0.48-1.01-1.9-0.68-3.05c0.1-0.33,0.22-0.65,0.32-0.98c0.42,0.35,0.41,0.94,0.74,1.34
		C32.05,42.26,32.17,43.2,31.66,44.04z"/>
	<path class="st3" d="M29.52,54.31c0.08-0.89,0.8-1.3,1.36-1.84C30.87,53.4,30.19,53.85,29.52,54.31z"/>
	<path class="st3" d="M31.18,51.99c0.1-0.26,0.24-0.49,0.48-0.64C31.68,51.69,31.6,51.96,31.18,51.99z"/>
	<path class="st3" d="M31.78,51.21c0.09-0.14,0.17-0.28,0.26-0.41C32.28,51.14,32.04,51.18,31.78,51.21z"/>
	<path class="st1" d="M50.61,31.43c0.07-0.06,0.13-0.12,0.2-0.17c0.34-0.24,0.74-0.41,0.97-0.79c0.3-0.15,0.56-0.34,0.69-0.66
		c0.6-0.28,1.08-0.7,1.5-1.21c0.12-0.06,0.24-0.13,0.36-0.19c0.09,0.06,0.18,0.12,0.26,0.17c-1.7,1.41-3.4,2.82-5.09,4.24
		c-0.16-0.01-0.31-0.02-0.47-0.02c0.24-0.23,0.47-0.45,0.71-0.68C50.13,32.03,50.4,31.76,50.61,31.43z"/>
	<path class="st4" d="M49.03,32.81c0.16,0.01,0.31,0.02,0.47,0.02c-1.25,1.24-2.59,2.37-4.09,3.29c-0.14-0.33,0.19-0.45,0.29-0.68
		c0.66-0.5,1.37-0.94,1.85-1.64c0.26-0.12,0.52-0.23,0.63-0.53C48.47,33.12,48.75,32.96,49.03,32.81z"/>
	<path class="st4" d="M43.67,37.68c-0.33-0.37,0.05-0.45,0.25-0.59c0.21-0.14,0.34-0.1,0.32,0.18c0,0,0,0,0,0
		c-0.07,0.06-0.14,0.13-0.21,0.19c0,0,0.01-0.01,0.01-0.01c-0.08,0.06-0.16,0.13-0.24,0.19C43.76,37.64,43.71,37.66,43.67,37.68z"/>
	<path class="st4" d="M44.84,36.12c0.19,0,0.39,0,0.58,0c-0.12,0.25-0.25,0.47-0.58,0.39C44.83,36.38,44.84,36.25,44.84,36.12z"/>
	<path class="st0" d="M40.57,39.98c-0.03,0.11-0.03,0.25-0.19,0.26c-0.02,0-0.06-0.04-0.06-0.06
		C40.33,40.02,40.46,40.02,40.57,39.98C40.57,39.99,40.57,39.98,40.57,39.98z"/>
	<path class="st4" d="M44.8,36.85c-0.12,0-0.3,0.02-0.31-0.12c-0.01-0.2,0.17-0.23,0.34-0.23C44.82,36.62,44.81,36.74,44.8,36.85z"
		/>
	<path class="st0" d="M43.81,37.64c0.08-0.06,0.16-0.13,0.24-0.19C43.97,37.52,43.89,37.58,43.81,37.64z"/>
	<path class="st0" d="M44.04,37.46c0.07-0.06,0.14-0.13,0.21-0.19C44.17,37.33,44.11,37.4,44.04,37.46z"/>
</g>
</svg>
