<?xml version="1.0" encoding="utf-8"?>
<!-- Generator: Adobe Illustrator 25.4.1, SVG Export Plug-In . SVG Version: 6.00 Build 0)  -->
<svg version="1.1" id="Layer_1" xmlns="http://www.w3.org/2000/svg" xmlns:xlink="http://www.w3.org/1999/xlink" x="0px" y="0px"
	 viewBox="0 0 200 100" style="enable-background:new 0 0 200 100;" xml:space="preserve">
<style type="text/css">
	.st0{fill:#22B573;}
	.st1{fill:#2775BC;}
	.st2{fill:#08A8E0;}
</style>
<g>
	<path class="st0" d="M96.12,51.9c-0.05-0.12-0.01-0.23,0.03-0.33c0.71-2.2,1.48-4.37,2.56-6.41c0.27-0.5,0.56-0.99,0.88-1.46
		c0.06-0.09,0.16-0.17,0.13-0.33c-0.17-0.03-0.28,0.1-0.39,0.19c-1.08,0.86-2.11,1.78-3.1,2.74c-3.69,3.57-6.92,7.52-9.92,11.68
		c-0.18,0.25-0.36,0.5-0.58,0.8c0-0.28,0.1-0.46,0.16-0.64c0.93-2.53,1.94-5.02,3.28-7.38c1.45-2.55,3.15-4.93,5.06-7.15
		c3.78-4.39,8.07-8.23,12.68-11.72c2.75-2.09,5.7-3.85,8.87-5.24c3.14-1.38,6.4-2.34,9.82-2.68c2.34-0.23,4.67-0.19,6.97,0.33
		c0.86,0.19,1.69,0.46,2.47,0.87c0.07,0.04,0.14,0.07,0.22,0.11c1.39,0.8,1.88,2.01,1.44,3.55c-0.22,0.77-0.6,1.5-1.06,1.99
		c-0.04-0.13-0.09-0.25-0.12-0.36c-0.23-0.79-0.75-1.32-1.51-1.6c-0.79-0.29-1.62-0.32-2.45-0.24c-1.68,0.15-3.28,0.62-4.86,1.17
		c-2.63,0.92-5.14,2.09-7.6,3.39c-0.54,0.29-1.05,0.64-1.57,0.98c-4.66,3.06-9.21,6.26-13.5,9.82c-2.18,1.81-4.28,3.69-6.17,5.8
		c-0.54,0.61-1.06,1.23-1.53,1.89C96.27,51.78,96.23,51.88,96.12,51.9L96.12,51.9z"/>
	<path class="st1" d="M49.08,78.37c-0.04,0.13-0.05,0.17-0.06,0.22c-0.23,0.93-0.53,1.17-1.5,1.18c-0.91,0.01-1.82,0-2.73,0
		c-0.41,0-0.42-0.01-0.42-0.44c0-3.97,0-7.93,0-11.9c0-4.55,0-9.1,0-13.65c0-0.1,0.01-0.2,0-0.29c-0.02-0.23,0.09-0.31,0.31-0.34
		c0.91-0.11,1.82-0.13,2.72,0.04c1.13,0.22,1.93,1.1,2.05,2.25c0.04,0.35,0.06,0.71,0.06,1.07c0.01,1.95,0,3.9,0,5.85
		c0,0.18-0.02,0.36,0.03,0.53c0.14,0.08,0.21-0.04,0.29-0.11c1.15-0.88,2.43-1.34,3.88-1.35c1.17,0,2.3,0.12,3.39,0.55
		c1.37,0.54,2.36,1.51,3.08,2.78c0.78,1.37,1.11,2.87,1.2,4.43c0.11,1.81,0.02,3.61-0.44,5.37c-0.27,1.03-0.69,2-1.29,2.88
		c-0.96,1.4-2.28,2.28-3.95,2.64c-1.81,0.39-3.55,0.26-5.21-0.61C49.98,79.2,49.53,78.83,49.08,78.37z M49.5,70.9
		c0,1.3,0.01,2.6,0,3.89c0,0.25,0.07,0.43,0.28,0.57c0.34,0.22,0.67,0.45,1.05,0.61c2.12,0.94,4.15,0.02,4.83-2.18
		c0-0.02,0.01-0.03,0.01-0.05c0.42-1.46,0.48-2.94,0.36-4.44c-0.06-0.78-0.19-1.55-0.51-2.27c-0.48-1.07-1.28-1.74-2.44-1.94
		c-0.6-0.1-1.19-0.07-1.79,0.02c-1.11,0.16-1.82,1.01-1.78,2.12C49.53,68.47,49.5,69.69,49.5,70.9z"/>
	<path class="st1" d="M94.34,78.7c0,0.18,0,0.35,0,0.53c0,2.7,0,5.39,0,8.09c0,0.1,0,0.19,0,0.29c-0.01,0.37-0.01,0.37-0.38,0.37
		c-1.46,0-2.92,0-4.38,0c-0.35,0-0.35-0.01-0.36-0.35c0-0.1,0-0.19,0-0.29c0-8.27,0-16.54,0-24.8c0-0.63,0-0.64,0.63-0.69
		c0.88-0.07,1.75-0.09,2.61,0.15c0.78,0.22,1.38,0.63,1.65,1.44c0.01,0.02,0.04,0.04,0.07,0.06c0.1,0.01,0.14-0.06,0.2-0.12
		c1.42-1.37,3.1-2.02,5.08-1.94c1.45,0.06,2.79,0.41,3.95,1.31c0.93,0.73,1.56,1.68,2.02,2.76c0.49,1.15,0.72,2.36,0.8,3.59
		c0.12,1.84,0.05,3.67-0.41,5.47c-0.22,0.87-0.56,1.7-1.02,2.47c-0.89,1.51-2.15,2.54-3.85,3c-1.8,0.48-3.57,0.4-5.26-0.45
		C95.2,79.36,94.79,79.04,94.34,78.7z M94.37,71.02c0,1.27,0,2.53,0,3.8c0,0.22,0.04,0.4,0.23,0.55c1.07,0.8,2.25,1.13,3.57,0.81
		c0.64-0.15,1.16-0.49,1.57-1c0.36-0.45,0.59-0.97,0.76-1.51c0.43-1.37,0.47-2.78,0.36-4.19c-0.06-0.79-0.2-1.58-0.55-2.31
		c-0.48-1.01-1.25-1.63-2.36-1.82c-0.62-0.11-1.22-0.07-1.84,0.02c-1.15,0.17-1.78,1.12-1.75,2.06
		C94.4,68.61,94.37,69.81,94.37,71.02z"/>
	<path class="st2" d="M62.25,22.22c0.21,0.03,0.33,0.15,0.46,0.23c2.61,1.73,5.36,3.17,8.35,4.15c2.29,0.75,4.64,1.24,7.03,1.52
		c3.04,0.36,6.09,0.38,9.14,0.16c3.68-0.26,7.32-0.85,10.91-1.68c2.47-0.56,4.91-1.21,7.33-1.96c0.06-0.02,0.12-0.03,0.23-0.06
		c-0.06,0.16-0.17,0.21-0.26,0.28c-1.82,1.34-3.73,2.55-5.68,3.67c-2.77,1.6-5.64,3.02-8.62,4.2c-3.12,1.23-6.32,2.19-9.63,2.72
		c-2.54,0.41-5.1,0.56-7.67,0.33c-1.57-0.14-3.12-0.42-4.64-0.86c-2.82-0.82-4.78-2.62-5.93-5.3c-0.99-2.31-1.33-4.74-1.07-7.25
		C62.22,22.34,62.23,22.29,62.25,22.22z"/>
	<path class="st1" d="M75.33,77.89c-0.4,0.41-0.78,0.76-1.21,1.05c-0.82,0.56-1.71,0.92-2.7,1.05c-1.1,0.15-2.2,0.15-3.3-0.03
		c-2.08-0.34-3.47-1.73-3.88-3.83c-0.23-1.19-0.28-2.39-0.28-3.59c-0.01-3.4-0.01-6.79,0-10.19c0-0.44,0-0.44,0.45-0.48
		c0.81-0.06,1.62-0.13,2.42,0.06c0.24,0.06,0.47,0.12,0.7,0.21c0.89,0.34,1.38,0.98,1.5,1.93c0.04,0.31,0.06,0.61,0.06,0.92
		c0,2.4,0,4.81,0,7.21c0,0.62-0.01,1.24,0.1,1.85c0.21,1.22,0.77,1.78,1.99,1.9c0.99,0.1,1.94-0.02,2.84-0.49
		c0.74-0.38,1.14-0.94,1.13-1.82c-0.02-3.69-0.01-7.38-0.01-11.07c0-0.13,0.01-0.26,0-0.39c-0.01-0.2,0.06-0.3,0.27-0.31
		c0.84-0.06,1.68-0.14,2.52,0.04c1.48,0.32,2.29,1.26,2.3,2.77c0.02,3.22,0.01,6.43,0.01,9.65c0,1.66,0,3.31,0,4.97
		c0,0.45,0,0.45-0.46,0.45c-0.93,0-1.85,0-2.78,0c-0.05,0-0.1,0-0.15,0c-0.99-0.03-1.3-0.32-1.42-1.29
		C75.43,78.3,75.44,78.12,75.33,77.89z"/>
	<path class="st1" d="M124.29,79.71c-1.15,0.48-2.3,0.61-3.48,0.4c-0.95-0.17-1.57-0.73-1.85-1.66c-0.02-0.06-0.04-0.12-0.06-0.19
		c-0.19,0-0.27,0.17-0.39,0.26c-2.29,1.82-4.86,2.18-7.58,1.27c-2.1-0.71-3.1-2.35-3.27-4.52c-0.1-1.29,0.07-2.54,0.87-3.61
		c0.66-0.89,1.52-1.55,2.52-2.02c1.32-0.63,2.74-0.91,4.18-1.07c1-0.11,2-0.2,3.01-0.19c0.24,0,0.31-0.09,0.3-0.31
		c-0.01-0.45,0.01-0.91-0.11-1.36c-0.18-0.66-0.56-1.12-1.2-1.37c-0.44-0.17-0.91-0.25-1.38-0.28c-1.73-0.14-3.31,0.32-4.81,1.13
		c-0.29,0.15-0.58,0.29-0.86,0.45c-0.18,0.1-0.29,0.08-0.41-0.08c-0.45-0.63-0.78-1.31-0.97-2.06c-0.1-0.43,0.04-0.8,0.34-1.11
		c0.43-0.44,0.96-0.72,1.51-0.96c1.22-0.52,2.5-0.81,3.82-0.93c1.62-0.14,3.25-0.13,4.84,0.29c1.33,0.35,2.46,1.01,3.2,2.22
		c0.46,0.75,0.66,1.58,0.8,2.43c0.12,0.71,0.12,1.42,0.12,2.14c0,2.18-0.01,4.35,0,6.53c0,0.75,0.02,1.49,0.12,2.24
		C123.67,78.16,123.87,78.94,124.29,79.71z M118.62,73.08c0-0.55,0-1.1,0-1.65c0-0.4-0.01-0.42-0.4-0.4
		c-1.04,0.05-2.07,0.15-3.08,0.39c-0.4,0.09-0.77,0.24-1.13,0.44c-1.11,0.62-1.68,1.54-1.52,2.84c0.13,1.1,0.72,1.94,1.93,2.12
		c0.34,0.05,0.68,0.06,1.02,0.03c1.01-0.09,1.93-0.41,2.7-1.1c0.34-0.31,0.52-0.68,0.5-1.16C118.6,74.09,118.62,73.58,118.62,73.08z
		"/>
	<path class="st1" d="M36.48,71.74c-1.66,0-3.31,0-4.97,0c-0.11,0-0.23,0-0.34,0c-0.19-0.01-0.26,0.09-0.24,0.27
		c0.15,1.2,0.52,2.31,1.33,3.24c0.64,0.73,1.49,1.08,2.43,1.22c2.05,0.31,3.86-0.21,5.39-1.62c0.07-0.07,0.15-0.13,0.22-0.19
		c0.11-0.1,0.21-0.07,0.28,0.04c0.5,0.7,0.98,1.42,1.23,2.26c0.19,0.62,0.01,1.15-0.44,1.61c-0.3,0.31-0.65,0.54-1.02,0.74
		c-1.08,0.57-2.23,0.88-3.43,1.01c-1.73,0.18-3.44,0.09-5.12-0.37c-2.71-0.76-4.47-2.54-5.4-5.16c-0.53-1.49-0.65-3.04-0.61-4.61
		c0.03-1.17,0.19-2.33,0.62-3.43c1.08-2.75,3.05-4.46,5.94-5.08c1.42-0.31,2.84-0.31,4.25,0.01c2.66,0.61,4.36,2.26,5.12,4.87
		c0.47,1.62,0.44,3.27,0.3,4.93c-0.02,0.21-0.1,0.29-0.3,0.28c-0.11-0.01-0.23,0-0.34,0C39.76,71.74,38.12,71.74,36.48,71.74z
		 M34.15,68.93c0.99,0,1.98,0,2.97,0c0.35,0,0.36-0.01,0.35-0.35c-0.01-0.79-0.17-1.54-0.51-2.26c-0.37-0.79-0.99-1.21-1.82-1.38
		c-0.39-0.08-0.77-0.09-1.16-0.06c-1.07,0.07-1.91,0.56-2.49,1.48c-0.41,0.65-0.56,1.38-0.61,2.13c-0.03,0.43-0.03,0.45,0.4,0.45
		C32.23,68.93,33.19,68.93,34.15,68.93z"/>
	<path class="st1" d="M151.42,69.24c0-2.93,0-5.85,0-8.78c0-1.09,0.09-2.17,0.42-3.22c0.66-2.06,2.03-3.42,4.08-4.04
		c2.28-0.69,4.56-0.54,6.81,0.19c0.35,0.11,0.68,0.31,1.01,0.48c0.2,0.11,0.37,0.27,0.52,0.44c0.47,0.55,0.52,1.29,0.11,1.89
		c-0.34,0.5-0.69,0.98-1.04,1.47c-0.2,0.28-0.22,0.29-0.48,0.09c-1.05-0.79-2.25-1.05-3.54-0.99c-0.39,0.02-0.77,0.11-1.13,0.26
		c-0.75,0.32-1.25,0.85-1.46,1.65c-0.1,0.39-0.17,0.79-0.17,1.2c0,0.47,0,0.94,0,1.41c0,0.59-0.05,0.54,0.56,0.54
		c1.74,0,3.48,0,5.21,0c0.74,0,0.65-0.09,0.65,0.64c0,0.91,0,1.82,0,2.73c0,0.51,0,0.51-0.5,0.51c-1.72,0-3.44,0-5.16,0
		c-0.1,0-0.19,0-0.29,0c-0.47,0-0.48,0-0.48,0.48c0,4.32,0,8.65,0,12.97c0,0.66,0.05,0.59-0.61,0.59c-1.35,0-2.7,0-4.04,0
		c-0.47,0-0.47,0-0.47-0.48C151.42,75.94,151.42,72.59,151.42,69.24z"/>
	<path class="st1" d="M23.68,67.19C23.14,66.73,22.6,66.32,22,66c-1.45-0.79-2.97-0.88-4.53-0.4c-0.9,0.27-1.53,0.89-1.97,1.71
		c-0.47,0.88-0.68,1.82-0.74,2.8c-0.07,1.06,0.01,2.11,0.27,3.14c0.56,2.16,2.18,3.35,4.41,3.26c1.49-0.06,2.78-0.57,3.86-1.61
		c0.05-0.04,0.1-0.08,0.15-0.12c0.05,0.03,0.1,0.05,0.13,0.08c0.49,0.63,0.89,1.32,1.09,2.11c0.22,0.9-0.04,1.54-0.8,2.06
		c-0.46,0.31-0.96,0.55-1.47,0.75c-1.63,0.64-3.32,0.71-5.04,0.55c-0.94-0.09-1.86-0.27-2.74-0.63c-2.39-0.98-3.89-2.79-4.6-5.22
		c-0.65-2.24-0.72-4.53-0.09-6.79c0.81-2.9,2.68-4.86,5.56-5.76c2.29-0.72,4.58-0.66,6.84,0.12c0.62,0.21,1.19,0.52,1.71,0.92
		c0.81,0.61,1.04,1.3,0.74,2.27C24.54,65.95,24.19,66.6,23.68,67.19z"/>
	<path class="st1" d="M188.22,67.2c-0.67-0.62-1.37-1.1-2.17-1.44c-1.36-0.58-2.75-0.61-4.14-0.13c-1.23,0.42-1.88,1.4-2.26,2.58
		c-0.57,1.79-0.51,3.6,0.02,5.38c0.58,1.95,2.17,2.99,4.26,2.93c1.49-0.05,2.79-0.55,3.87-1.59c0.05-0.04,0.1-0.08,0.15-0.12
		c0.01-0.01,0.03-0.01,0.05-0.01c0.12,0.03,0.18,0.13,0.24,0.22c0.39,0.54,0.71,1.13,0.91,1.77c0.31,0.97,0.06,1.72-0.8,2.28
		c-0.98,0.64-2.06,1.03-3.21,1.2c-1.8,0.26-3.59,0.18-5.35-0.35c-1.92-0.58-3.37-1.75-4.4-3.47c-0.78-1.32-1.14-2.75-1.26-4.26
		c-0.11-1.41-0.11-2.83,0.25-4.21c0.82-3.2,2.83-5.27,6.01-6.15c2.02-0.56,4.04-0.51,6.05,0.09c0.82,0.24,1.57,0.61,2.24,1.15
		c0.34,0.27,0.58,0.6,0.71,1.02c0.08,0.26,0.1,0.51,0.03,0.77C189.21,65.69,188.83,66.48,188.22,67.2z"/>
	<path class="st1" d="M140.14,67.2c-0.53-0.49-1.08-0.86-1.66-1.19c-1.38-0.77-2.84-0.87-4.34-0.48c-1.16,0.29-1.89,1.08-2.36,2.15
		c-0.32,0.72-0.49,1.48-0.55,2.26c-0.08,1.14-0.03,2.27,0.28,3.38c0.32,1.16,0.93,2.1,2.01,2.7c0.73,0.41,1.53,0.51,2.35,0.49
		c1.5-0.03,2.78-0.56,3.87-1.59c0.05-0.04,0.1-0.08,0.15-0.12c0.01-0.01,0.03-0.01,0.08-0.02c0.56,0.69,1.01,1.46,1.19,2.35
		c0.15,0.8-0.12,1.44-0.81,1.89c-0.96,0.63-2.02,1.04-3.16,1.22c-1.8,0.29-3.6,0.23-5.36-0.29c-2.67-0.78-4.36-2.59-5.28-5.17
		c-0.32-0.89-0.45-1.83-0.5-2.77c-0.06-1.27-0.09-2.54,0.19-3.78c0.73-3.24,2.67-5.4,5.86-6.35c2.31-0.69,4.62-0.6,6.88,0.25
		c0.58,0.22,1.11,0.53,1.6,0.91c0.67,0.52,0.91,1.2,0.68,2.03C141.06,65.84,140.68,66.54,140.14,67.2z"/>
	<path class="st2" d="M100.77,21.52c-0.39,0.25-0.77,0.42-1.15,0.6c-2.93,1.35-5.99,2.22-9.19,2.6c-4.01,0.48-7.97,0.24-11.87-0.82
		c-1.5-0.41-2.9-1.04-4.14-2c-1.89-1.48-2.88-3.42-2.98-5.82c-0.06-1.46,0.17-2.88,0.68-4.25c0.04-0.12,0.1-0.24,0.15-0.36
		c0.18,0.06,0.26,0.21,0.36,0.34c3.04,3.68,6.84,6.29,11.3,7.94c2.97,1.1,6.05,1.71,9.21,1.95c2.35,0.17,4.7,0.13,7.05-0.12
		C100.36,21.55,100.53,21.47,100.77,21.52z"/>
	<path class="st2" d="M101.5,30.67c-0.09,0.3-0.3,0.53-0.48,0.78c-2.25,3.22-4.78,6.2-7.79,8.74c-2.24,1.9-4.67,3.5-7.42,4.6
		c-1.88,0.75-3.83,1.1-5.86,0.96c-1.09-0.08-2.15-0.3-3.16-0.74c-2.04-0.9-3.28-2.48-3.89-4.6c-0.12-0.44-0.21-0.88-0.27-1.32
		c0.12-0.12,0.22-0.04,0.32-0.01c2.66,0.87,5.38,1,8.13,0.67c3.6-0.44,6.98-1.6,10.25-3.11c3.43-1.58,6.65-3.52,9.7-5.76
		c0.13-0.09,0.24-0.23,0.41-0.25C101.48,30.64,101.5,30.67,101.5,30.67z"/>
	<path class="st1" d="M171.54,72.11c0,2.47,0,4.94,0,7.41c0,0.52,0,0.53-0.54,0.57c-0.76,0.07-1.52,0.09-2.28-0.02
		c-1.31-0.19-2.06-0.95-2.25-2.25c-0.05-0.32-0.06-0.65-0.06-0.97c0-4.81,0-9.62,0-14.43c0-0.51,0-0.52,0.5-0.55
		c0.86-0.06,1.72-0.12,2.57,0.08c1.15,0.27,1.81,0.99,2.01,2.17c0.05,0.29,0.06,0.58,0.06,0.87c0,1.17,0,2.34,0,3.51
		C171.54,69.7,171.54,70.9,171.54,72.11z"/>
	<path class="st1" d="M148.12,71.99c0,2.47,0,4.94,0,7.4c0,0.66,0,0.66-0.67,0.71c-0.75,0.05-1.49,0.07-2.23-0.05
		c-1.2-0.19-1.91-0.89-2.13-2.08c-0.05-0.24-0.08-0.48-0.08-0.73c0-0.21,0-0.42,0-0.63c0-4.71,0-9.42,0-14.13
		c0-0.58,0-0.59,0.57-0.63c0.79-0.05,1.59-0.1,2.38,0.07c1.29,0.26,2.04,1.11,2.13,2.42c0.02,0.36,0.04,0.71,0.04,1.07
		C148.13,67.61,148.12,69.8,148.12,71.99C148.12,71.99,148.12,71.99,148.12,71.99z"/>
	<path class="st0" d="M128.78,22.31c-0.52-0.42-1.09-0.76-1.71-1c-1.03-0.4-2.09-0.58-3.18-0.63c-0.2-0.01-0.33,0.06-0.46,0.2
		c-0.86,0.91-1.91,1.45-3.17,1.52c-1.29,0.07-2.33-0.42-3.22-1.5c1.4,0.42,2.66,0.39,3.84-0.39c-2.99-0.46-6-0.49-9.01-0.39
		c-2.99,0.1-5.97,0.42-8.93,0.84c0.67-0.44,1.39-0.77,2.12-1.07c3.02-1.28,6.15-2.17,9.39-2.67c2.9-0.45,5.82-0.56,8.74-0.21
		c1.2,0.14,2.37,0.38,3.48,0.87c0.46,0.2,0.89,0.46,1.29,0.77C128.91,19.39,129.46,20.75,128.78,22.31z"/>
	<path class="st1" d="M145.36,58.63c-1.57-0.01-2.7-1.14-2.7-2.71c0-1.59,1.19-2.76,2.79-2.74c1.55,0.02,2.73,1.22,2.71,2.78
		C148.15,57.51,146.97,58.64,145.36,58.63z"/>
	<path class="st1" d="M166.09,55.94c0-1.61,1.16-2.77,2.76-2.76c1.53,0.01,2.71,1.19,2.72,2.71c0.01,1.61-1.14,2.75-2.77,2.74
		C167.21,58.63,166.09,57.51,166.09,55.94z"/>
	<path class="st1" d="M96.12,51.9c-0.01,0.04-0.03,0.08-0.04,0.12c-0.01-0.01-0.02-0.02-0.03-0.04
		C96.05,51.93,96.06,51.89,96.12,51.9C96.12,51.9,96.12,51.9,96.12,51.9z"/>
	<path class="st2" d="M101.58,30.54c0.01-0.01,0.02-0.02,0.02-0.03C101.59,30.52,101.58,30.53,101.58,30.54L101.58,30.54z"/>
	<path class="st2" d="M101.57,30.53c0.02,0.06,0,0.11-0.07,0.13c0,0-0.03-0.03-0.03-0.03C101.48,30.57,101.52,30.55,101.57,30.53
		C101.58,30.54,101.57,30.53,101.57,30.53z"/>
</g>
</svg>
