<?xml version="1.0" encoding="utf-8"?>
<!-- Generator: Adobe Illustrator 25.4.1, SVG Export Plug-In . SVG Version: 6.00 Build 0)  -->
<svg version="1.1" id="Layer_1" xmlns="http://www.w3.org/2000/svg" xmlns:xlink="http://www.w3.org/1999/xlink" x="0px" y="0px"
	 viewBox="0 0 200 100" style="enable-background:new 0 0 200 100;" xml:space="preserve">
<style type="text/css">
	.st0{fill:#1C0F44;}
</style>
<g>
	<path class="st0" d="M131,69.72c-0.41,0-0.62,0-0.83,0c-3.89,0-7.78-0.01-11.67,0.01c-0.47,0-0.79-0.14-1.11-0.5
		c-3.67-4.09-7.36-8.17-11.05-12.25c-0.17-0.19-0.36-0.38-0.67-0.7c-0.18,0.25-0.31,0.48-0.49,0.67c-3.7,4.1-7.4,8.2-11.13,12.28
		c-0.21,0.23-0.58,0.46-0.88,0.46c-4.08,0.03-8.17,0.02-12.25,0.02c-0.09,0-0.18-0.02-0.43-0.05C86.78,62.79,92.99,56,99.26,49.14
		c-5.64-6.25-11.27-12.48-16.98-18.81c0.34-0.02,0.54-0.05,0.74-0.05c3.79,0,7.59,0.01,11.38-0.01c0.49,0,0.8,0.17,1.11,0.51
		c3.21,3.54,6.43,7.07,9.65,10.6c0.18,0.19,0.33,0.4,0.65,0.78c0.22-0.32,0.34-0.56,0.52-0.75c3.24-3.55,6.47-7.1,9.73-10.63
		c0.23-0.25,0.63-0.48,0.95-0.49c3.89-0.03,7.78-0.02,11.67-0.02c0.16,0,0.32,0.03,0.6,0.07c-5.71,6.31-11.34,12.53-17.01,18.8
		C118.48,55.98,124.67,62.77,131,69.72z"/>
	<path class="st0" d="M21.44,47.05c-0.36,0-0.63-0.03-0.88,0.01c-0.85,0.13-1.32-0.13-1.72-0.99c-0.9-1.93-3.92-2.16-5.39-0.43
		c-0.55,0.64-0.91,1.53-1.12,2.36c-0.35,1.37-0.22,2.77,0.38,4.08c0.68,1.49,2.04,2.31,3.56,2.18c1.57-0.13,2.57-1.03,2.97-2.76
		c0.11-0.46,0.28-0.59,0.71-0.57c0.47,0.02,0.95,0.01,1.41,0.01c0.21,2.17-1.63,4.44-3.91,4.93c-3.64,0.79-6.9-1.5-7.36-5.22
		c-0.32-2.59,0.18-4.94,2.31-6.68c1.91-1.56,5.14-1.62,7.15-0.2C20.65,44.53,21.25,45.61,21.44,47.05z"/>
	<path class="st0" d="M138.47,47.04c-0.66,0-1.25,0.03-1.84-0.02c-0.15-0.01-0.34-0.23-0.4-0.4c-0.5-1.34-1.46-2.06-2.87-2.12
		c-1.49-0.06-2.7,0.52-3.39,1.87c-1.01,1.99-1.01,4.03,0,6.01c0.7,1.37,2.11,2.04,3.61,1.83c1.44-0.2,2.37-1.07,2.72-2.67
		c0.11-0.52,0.34-0.67,0.83-0.63c0.45,0.03,0.9,0.01,1.34,0.01c0.01,2.77-2.18,4.97-4.95,5.08c-3.57,0.14-6.23-2.35-6.43-6.03
		c-0.09-1.64,0.19-3.2,1.1-4.61c1.8-2.79,5.92-3.53,8.58-1.52C137.78,44.62,138.39,45.64,138.47,47.04z"/>
	<path class="st0" d="M47,43.08c0.65,0,1.25,0,1.91,0c0,1.5,0,2.98,0,4.56c0.17-0.09,0.26-0.11,0.3-0.17
		c1.44-1.83,5.13-1.54,6.29,1.14c0.74,1.72,0.7,3.44-0.01,5.17c-1.09,2.64-4.97,2.87-6.62,0.81c-0.03,0.39-0.06,0.7-0.09,1.08
		c-0.58,0-1.16,0-1.78,0C47,51.48,47,47.32,47,43.08z M54.19,51.03c-0.25-0.69-0.4-1.49-0.8-2.13c-0.93-1.48-3.18-1.42-4.01,0.1
		c-0.76,1.39-0.75,2.85,0.03,4.25c0.46,0.83,1.24,1.19,2.17,1.15c0.93-0.03,1.68-0.46,2.04-1.34C53.86,52.47,53.98,51.8,54.19,51.03
		z"/>
	<path class="st0" d="M45.29,51.65c-2.23,0-4.43,0-6.62,0c-0.13,1.22,0.51,2.28,1.52,2.62c1.17,0.4,2.34-0.01,2.98-0.96
		c0.14-0.21,0.45-0.38,0.7-0.42c0.41-0.07,0.85-0.02,1.28-0.02c-0.32,1.95-2.28,3.28-4.43,3.08c-1.69-0.16-3.01-0.88-3.66-2.49
		c-0.78-1.92-0.68-3.82,0.59-5.53c1.45-1.95,4.4-2.2,6.2-0.57C45,48.4,45.54,49.94,45.29,51.65z M43.33,50.3
		c-0.1-1.49-1.1-2.49-2.37-2.45c-1.34,0.04-2.32,1.07-2.3,2.45C40.2,50.3,41.74,50.3,43.33,50.3z"/>
	<path class="st0" d="M173.53,51.65c0.06,2.07,1.44,3.16,3.26,2.65c0.35-0.1,0.82-0.3,0.95-0.58c0.52-1.12,1.43-0.83,2.37-0.8
		c-0.29,1.29-1.03,2.14-2.16,2.64c-3.33,1.5-6.66-0.91-6.42-4.63c0.12-1.87,0.81-3.46,2.61-4.23c3.03-1.31,6.18,0.72,6.19,4.41
		c0,0.47-0.24,0.54-0.64,0.54c-1.78-0.01-3.55-0.01-5.33-0.01C174.1,51.65,173.85,51.65,173.53,51.65z M173.56,50.29
		c1.58,0,3.12,0,4.65,0c0.01-1.38-0.96-2.41-2.23-2.44C174.63,47.82,173.62,48.81,173.56,50.29z"/>
	<path class="st0" d="M24.69,51.68c-0.01,1.37,0.61,2.32,1.66,2.62c1.33,0.38,2.29-0.05,3.1-1.4c0.57,0,1.14,0,1.72,0
		c-0.1,1.39-1.42,2.67-3.02,2.96c-3.22,0.58-5.74-1.39-5.47-5.11c0.22-3.03,2.35-4.78,5.16-4.37c2.29,0.33,3.71,2.53,3.6,4.84
		c-0.02,0.48-0.35,0.42-0.66,0.42c-1.78,0-3.55,0-5.33,0C25.2,51.65,24.94,51.67,24.69,51.68z M29.37,50.3
		c-0.05-1.46-1.07-2.48-2.35-2.45c-1.33,0.04-2.29,1.03-2.31,2.45C26.25,50.3,27.79,50.3,29.37,50.3z"/>
	<path class="st0" d="M75.32,46.6c2.06-0.24,2.06-0.24,2.69,1.58c0.6,1.72,1.2,3.43,1.87,5.35c0.84-2.45,1.61-4.71,2.39-6.97
		c0.66,0,1.28,0,1.96,0c-0.02,0.15-0.01,0.29-0.05,0.41c-1.2,3.24-2.4,6.47-3.6,9.7c-0.11,0.29-0.24,0.57-0.37,0.86
		c-0.57,1.29-1.52,1.93-2.95,1.81c-0.33-0.03-0.67-0.03-1.06-0.05c0-0.55,0-1.07,0-1.61c0.09-0.01,0.18-0.03,0.27-0.02
		c1.63,0.23,2.64-1.04,2.05-2.59c-0.98-2.58-1.96-5.15-2.94-7.73C75.49,47.1,75.41,46.86,75.32,46.6z"/>
	<path class="st0" d="M162.12,52.84c0.58,0,1.12-0.03,1.67,0.02c0.15,0.01,0.33,0.23,0.4,0.4c0.57,1.23,2.82,1.63,3.8,0.67
		c0.5-0.49,0.38-1.29-0.32-1.61c-0.65-0.29-1.37-0.42-2.06-0.62c-0.64-0.19-1.3-0.33-1.92-0.59c-0.91-0.38-1.35-1.11-1.37-2.09
		c-0.02-0.96,0.38-1.69,1.23-2.11c1.55-0.76,3.15-0.81,4.73-0.14c0.97,0.41,1.51,1.21,1.64,2.3c-0.69,0-1.33,0-1.97,0
		c-0.6-1.11-1.78-1.55-2.97-1.03c-0.28,0.12-0.62,0.48-0.64,0.75c-0.02,0.27,0.25,0.73,0.51,0.84c0.67,0.29,1.41,0.44,2.12,0.65
		c0.6,0.17,1.22,0.3,1.78,0.54c1.76,0.77,2.06,2.93,0.59,4.18c-1.47,1.25-4.65,1.31-6.16,0.11
		C162.49,54.54,162.17,53.8,162.12,52.84z"/>
	<path class="st0" d="M181.87,52.86c0.65,0,1.24,0,1.84,0c0.77,1.43,1.74,1.86,3.29,1.42c0.51-0.14,0.96-0.39,1.01-0.99
		c0.04-0.59-0.33-0.96-0.84-1.11c-0.85-0.26-1.72-0.43-2.57-0.66c-1.17-0.31-2.27-0.71-2.51-2.13c-0.17-1.01,0.16-1.92,1.05-2.4
		c1.67-0.91,3.4-0.95,5.11-0.12c0.84,0.41,1.32,1.16,1.41,2.21c-0.6,0-1.17,0.03-1.73-0.02c-0.15-0.01-0.33-0.21-0.43-0.36
		c-0.56-0.92-2.43-1.18-3.2-0.44c-0.46,0.43-0.34,1.11,0.33,1.39c0.68,0.28,1.42,0.41,2.13,0.62c0.6,0.17,1.21,0.3,1.78,0.56
		c1.74,0.77,2,2.97,0.52,4.19c-1.46,1.2-4.52,1.27-6.04,0.14C182.27,54.63,181.92,53.93,181.87,52.86z"/>
	<path class="st0" d="M153.6,46.58c0.67,0,1.27,0,1.92,0c0,3.01,0,6.02,0,9.09c-0.58,0-1.19,0-1.85,0c-0.03-0.33-0.06-0.67-0.1-1.14
		c-0.93,1.11-1.99,1.6-3.35,1.39c-1.6-0.25-2.53-1.04-2.61-2.67c-0.12-2.2-0.03-4.41-0.03-6.66c0.64,0,1.25,0,1.95,0
		c0,0.58,0,1.14,0,1.71c0,1.42-0.02,2.83,0.02,4.25c0.03,1.14,0.54,1.73,1.52,1.86c1.11,0.15,2.08-0.42,2.37-1.43
		c0.11-0.41,0.16-0.85,0.16-1.28C153.61,50.02,153.6,48.34,153.6,46.58z"/>
	<path class="st0" d="M70.17,48.09c-0.55-0.09-1.1-0.05-1.43-0.3c-0.19-0.14-0.04-0.76-0.04-1.23c0.47,0,0.91,0,1.47,0
		c0-0.51,0-0.96,0-1.4c0-0.43,0-0.85,0-1.33c0.67,0,1.28,0,1.98,0c0,0.88,0,1.76,0,2.7c0.65,0,1.21,0,1.82,0c0,0.5,0,0.92,0,1.41
		c-0.58,0.03-1.14,0.06-1.81,0.09c0,0.94,0,1.84,0,2.74c0,0.72-0.01,1.44,0,2.16c0.01,1.15,0.25,1.37,1.43,1.32
		c0.12,0,0.23,0,0.38,0c0,0.47,0,0.92,0,1.44c-0.82,0-1.63,0.07-2.42-0.02c-0.69-0.08-1.19-0.55-1.25-1.29
		c-0.08-1-0.1-2.01-0.12-3.01C70.16,50.28,70.17,49.21,70.17,48.09z"/>
	<path class="st0" d="M59.89,55.68c-0.7,0-1.29,0-1.94,0c0-3.02,0-6.03,0-9.09c0.56,0,1.12,0,1.76,0c0,0.48,0,0.97,0,1.7
		c0.87-1.43,1.88-2.17,3.46-1.91c0,0.61,0,1.19,0,1.83c-0.14,0-0.26,0.01-0.37,0c-1.89-0.27-2.88,1.3-2.91,2.71
		C59.87,52.48,59.89,54.04,59.89,55.68z"/>
	<path class="st0" d="M145.75,48.16c-0.56,0.05-1.09,0-1.55,0.16c-1.17,0.39-1.67,1.34-1.73,2.49c-0.07,1.32-0.03,2.64-0.04,3.96
		c0,0.28,0,0.57,0,0.9c-0.67,0-1.27,0-1.93,0c0-3.02,0-6.03,0-9.08c0.59,0,1.15,0,1.8,0c0,0.5,0,0.99,0,1.59
		c1.17-1.61,2.1-2.06,3.44-1.73C145.75,47,145.75,47.56,145.75,48.16z"/>
	<path class="st0" d="M33.15,43.09c0.63,0,1.2,0,1.83,0c0,4.2,0,8.36,0,12.58c-0.58,0-1.17,0-1.83,0
		C33.15,51.5,33.15,47.33,33.15,43.09z"/>
	<path class="st0" d="M66.78,55.7c-0.64,0-1.21,0-1.85,0c0-3.04,0-6.06,0-9.12c0.6,0,1.19,0,1.85,0
		C66.78,49.6,66.78,52.62,66.78,55.7z"/>
	<path class="st0" d="M158.08,55.67c0-3.03,0-6.04,0-9.09c0.63,0,1.24,0,1.89,0c0,3.03,0,6.04,0,9.09
		C159.34,55.67,158.73,55.67,158.08,55.67z"/>
	<path class="st0" d="M64.92,43.08c0.64,0,1.23,0,1.88,0c0,0.59,0,1.16,0,1.77c-0.61,0-1.22,0-1.88,0
		C64.92,44.3,64.92,43.73,64.92,43.08z"/>
	<path class="st0" d="M158.1,43.09c0.62,0,1.21,0,1.86,0c0,0.59,0,1.17,0,1.79c-0.62,0-1.21,0-1.86,0
		C158.1,44.31,158.1,43.74,158.1,43.09z"/>
</g>
</svg>
