<?xml version="1.0" encoding="utf-8"?>
<!-- Generator: Adobe Illustrator 25.4.1, SVG Export Plug-In . SVG Version: 6.00 Build 0)  -->
<svg version="1.1" id="Layer_1" xmlns="http://www.w3.org/2000/svg" xmlns:xlink="http://www.w3.org/1999/xlink" x="0px" y="0px"
	 viewBox="0 0 200 100" style="enable-background:new 0 0 200 100;" xml:space="preserve">
<style type="text/css">
	.st0{fill:#0072B6;}
	.st1{fill:#166092;}
	.st2{fill:#6DA1CA;}
	.st3{fill:#6399C3;}
	.st4{fill:#5A91BC;}
	.st5{fill:#437DAB;}
	.st6{fill:#75A9D0;}
	.st7{fill:#3572A2;}
	.st8{fill:#2A6B9C;}
	.st9{fill:#2F6F9F;}
	.st10{fill:#528AB6;}
	.st11{fill:#86ABC7;}
	.st12{fill:#ADC7D9;}
	.st13{fill:#FCC500;}
	.st14{fill:#00396B;}
	.st15{fill:#01396B;}
	.st16{fill:#8EC0E2;}
	.st17{fill:#003A6C;}
	.st18{fill:#8FC0E3;}
	.st19{fill:#004375;}
	.st20{fill:#003E70;}
	.st21{fill:#00497B;}
	.st22{fill:#04598B;}
	.st23{fill:#7AABD1;}
	.st24{fill:#014F81;}
	.st25{fill:#6697C1;}
	.st26{fill:#8ABBDF;}
	.st27{fill:#015385;}
	.st28{fill:#7DB1D6;}
	.st29{fill:#89BBDE;}
	.st30{fill:#036FBF;}
	.st31{fill:#216697;}
	.st32{fill:#FEE898;}
	.st33{fill:#83A6B7;}
	.st34{fill:#4B84B2;}
	.st35{fill:#3B77A6;}
	.st36{fill:#FBC300;}
	.st37{fill:#FBC301;}
	.st38{fill:#FEECA6;}
	.st39{fill:#FEEA9F;}
	.st40{fill:#FEECA5;}
	.st41{fill:#FEDF7C;}
	.st42{fill:#FEE58E;}
	.st43{fill:#FEE99D;}
	.st44{fill:#FED042;}
	.st45{fill:#FED451;}
	.st46{fill:#FEDB6B;}
	.st47{fill:#FED24B;}
	.st48{fill:#FED659;}
	.st49{fill:#FEDA69;}
	.st50{fill:#FED75E;}
	.st51{fill:#FEE182;}
	.st52{fill:#FEDB6A;}
	.st53{fill:#FEDE76;}
	.st54{fill:#FDCC2D;}
	.st55{fill:#FDC915;}
	.st56{fill:#FEE183;}
	.st57{fill:#FEE797;}
	.st58{fill:#FEE48B;}
	.st59{fill:#FEEBA2;}
	.st60{fill:#FEDC71;}
	.st61{fill:#FEE89A;}
	.st62{fill:#FECE34;}
	.st63{fill:#FEE387;}
	.st64{fill:#8CBEE1;}
	.st65{fill:#FED965;}
	.st66{fill:#80B1D6;}
	.st67{fill:#76A7CE;}
	.st68{fill:#538AC6;}
	.st69{fill:#006CC6;}
	.st70{fill:#859377;}
	.st71{fill:#588AB5;}
	.st72{fill:#002F63;}
	.st73{fill:#FDCA1F;}
	.st74{fill:#FEE692;}
	.st75{fill:#FECF3B;}
	.st76{fill:#FEDE79;}
	.st77{fill:#6E9EC7;}
	.st78{fill:#588BC0;}
	.st79{fill:#FEE693;}
	.st80{fill:#FEDC70;}
	.st81{fill:#FEE288;}
	.st82{fill:#FECA00;}
	.st83{fill:#FDCB26;}
	.st84{fill:#6D9FC7;}
	.st85{fill:#5C8DB7;}
</style>
<g>
	<g>
		<path class="st0" d="M190.04,62.32c-1.24,0.59-1.98,0.29-2.43-1c-0.24-0.7-0.27-1.42-0.27-2.15c-0.01-4.78-0.02-9.56,0-14.35
			c0-0.51-0.15-0.61-0.62-0.61c-1.83,0.03-3.65,0.02-5.48,0.01c-3.98-0.02-7.18,1.67-9.54,4.74c-2.62,3.42-3.19,7.41-2.5,11.6
			c0.05,0.3,0.02,0.47-0.24,0.65c-1.02,0.71-2.12,1.06-3.37,0.94c-1.07-0.11-1.79-0.66-2.17-1.66c-0.23-0.62-0.29-1.27-0.29-1.92
			c-0.02-3.57-0.01-7.15-0.03-10.72c0-0.35,0.11-0.44,0.45-0.43c1.49,0.02,2.98,0,4.47,0.01c0.35,0,0.49-0.08,0.48-0.46
			c-0.03-0.76-0.03-1.53,0-2.29c0.01-0.36-0.1-0.47-0.47-0.47c-1.38,0.02-2.76,0.01-4.14,0.01c-0.79,0-0.79,0-0.79-0.81
			c0-1.64,0-3.28-0.01-4.91c0-0.19,0.12-0.49-0.1-0.55c-0.27-0.08-0.23,0.27-0.34,0.42c-0.15,0.21-0.26,0.46-0.41,0.66
			c-2.3,3.03-4.81,5.87-7.98,8.05c-0.09,0.06-0.23,0.1-0.19,0.24c0.03,0.14,0.18,0.11,0.28,0.11c0.82,0,1.64,0.03,2.46-0.01
			c0.48-0.02,0.58,0.14,0.57,0.59c-0.02,3.83-0.01,7.67-0.01,11.5c0,0.62,0.04,1.23,0.13,1.84c0.32,2.31,1.62,3.73,3.88,4.28
			c1.5,0.36,2.96,0.23,4.39-0.29c1.42-0.52,2.65-1.35,3.79-2.32c0.21-0.18,0.34-0.3,0.53,0.05c1.59,2.87,4.9,3.17,7.16,2.45
			c1.98-0.63,3.35-2.01,4.45-3.71c0.09-0.14,0.11-0.36,0.34-0.39c0.13,0.95,0.4,1.83,0.91,2.63c0.88,1.39,2.32,2.01,3.94,1.69
			c0.94-0.19,1.73-0.65,2.43-1.3c0.53-0.49,0.82-1.13,1.17-1.74c0-0.19,0-0.37,0-0.56C190.29,62.08,190.18,62.25,190.04,62.32z
			 M181.96,57c0,0.27-0.06,0.5-0.21,0.73c-0.54,0.81-1.13,1.57-1.89,2.18c-0.48,0.39-1.01,0.7-1.6,0.88
			c-1.36,0.41-2.37-0.05-2.97-1.34c-0.36-0.78-0.44-1.61-0.47-2.45c-0.08-2.17,0.1-4.31,0.8-6.38c0.27-0.8,0.65-1.54,1.21-2.18
			c0.73-0.83,1.63-1.27,2.74-1.29c0.65-0.01,1.3,0.02,1.95-0.01c0.4-0.02,0.45,0.15,0.45,0.49c-0.01,1.58-0.01,3.16-0.01,4.74
			C181.96,53.91,181.95,55.45,181.96,57z"/>
		<path class="st0" d="M129.63,44.81c-2.61-1.04-5.3-1.16-8.01-0.49c-2.17,0.53-4.06,1.59-5.51,3.31
			c-2.73,3.23-3.17,6.94-2.14,10.92c0.12,0.45,0.05,0.69-0.29,0.98c-1.74,1.44-3.78,2.08-5.99,2.33c-3.91,0.45-7.23-1.14-9-4.65
			c-2.19-4.35-2.25-8.85-0.29-13.31c0.94-2.14,2.57-3.72,4.77-4.55c3.59-1.35,7.2-1.41,10.75,0.2c0.28,0.13,0.44,0.16,0.63-0.14
			c0.65-1,1.32-1.98,2-2.96c0.15-0.21,0.16-0.32-0.09-0.47c-0.5-0.29-1-0.57-1.54-0.78c-2.11-0.83-4.34-1.01-5.76-1.07
			c-2.73-0.08-4.62,0.05-6.47,0.53c-4.19,1.1-7.73,3.2-10.17,6.87c-2.84,4.27-3.3,8.96-2.09,13.81c1.38,5.48,4.92,8.95,10.46,10.12
			c5.2,1.09,9.98-0.04,14.15-3.42c0.33-0.27,0.5-0.29,0.77,0.07c0.67,0.88,1.52,1.6,2.49,2.12c3.89,2.07,7.89,2.17,11.88,0.41
			c2.87-1.26,4.63-3.54,5.41-6.57c0.48-1.87,0.53-3.76,0.18-5.65C135.11,48.79,133.1,46.19,129.63,44.81z M129.01,59.61
			c-0.3,0.71-0.7,1.35-1.24,1.9c-1.75,1.75-4.46,1.66-6.08-0.21c-1.14-1.32-1.6-2.92-1.78-4.61c-0.26-2.43-0.15-4.84,1-7.07
			c1.17-2.3,3.52-3.21,5.65-2.21c1.19,0.56,1.93,1.54,2.44,2.72c0.65,1.51,0.84,3.11,0.82,4.74
			C129.83,56.5,129.65,58.09,129.01,59.61z"/>
		<path class="st0" d="M149.48,53.16c-1.05-0.52-2.12-1-3.16-1.53c-0.6-0.3-1.15-0.69-1.54-1.26c-0.72-1.06-0.33-2.28,0.87-2.71
			c0.53-0.19,1.09-0.24,1.65-0.24c1.45,0,2.91-0.02,4.36,0.01c0.43,0.01,0.53-0.12,0.52-0.53c-0.03-0.74-0.03-1.49,0-2.23
			c0.01-0.35-0.1-0.44-0.44-0.44c-1.12,0.02-2.23,0.01-3.35,0.01c-0.78,0-1.56-0.01-2.35,0c-1.87,0.03-3.67,0.32-5.31,1.29
			c-2.99,1.76-3.6,5.78-1.26,8.25c0.77,0.81,1.73,1.34,2.72,1.82c1.29,0.62,2.62,1.16,3.74,2.08c0.81,0.67,1.3,1.49,1.07,2.58
			c-0.22,1.07-0.98,1.62-1.95,1.94c-2.42,0.8-5.17-0.07-6.7-2.1c-0.12-0.16-0.23-0.34-0.35-0.5c-0.06-0.09-0.13-0.2-0.26-0.15
			c-0.12,0.05-0.11,0.18-0.1,0.29c0.03,0.3,0.06,0.59,0.11,0.89c0.36,2.44,1.55,4.26,4.04,4.86c3.13,0.75,6.16,0.4,8.9-1.39
			c2.42-1.58,3.45-4.76,2.47-7.37C152.48,54.98,151.09,53.95,149.48,53.16z"/>
	</g>
	<g>
		<path class="st1" d="M56.81,21.12c0.1,0.28,0.31,0.41,0.6,0.41c0.25,0.26,0.3,0.58,0.31,0.91c0.03,2.18,0.05,4.35-0.01,6.53
			c-0.02,0.95-0.23,1.09-1.1,1c-0.18-0.17-0.27-0.39-0.27-0.62c-0.01-2.63-0.13-5.27,0.06-7.9c0.05-0.12,0.12-0.23,0.21-0.33
			C56.68,21.12,56.75,21.12,56.81,21.12z"/>
		<path class="st2" d="M51.22,21.12c0.13,0,0.27,0,0.4,0c0.18,0.21,0.28,0.45,0.28,0.72c-0.03,2.71,0.14,5.41-0.09,8.12
			c-0.02,0.12-0.06,0.23-0.12,0.34c-0.24,0.23-0.53,0.25-0.83,0.23c-0.18-0.02-0.34-0.08-0.47-0.23c-0.03-0.19,0.07-0.34,0.18-0.48
			c0.23-0.36,0.17-0.77,0.17-1.16c0.01-2.02,0.01-4.05,0-6.07C50.73,22.03,50.85,21.54,51.22,21.12z"/>
		<path class="st3" d="M51.63,30.1c0-2.99,0-5.99-0.01-8.98c0.2,0,0.4,0,0.6,0c0.24,0.26,0.3,0.59,0.29,0.93
			c-0.02,2.56,0.06,5.11-0.04,7.67c-0.03,0.13-0.08,0.24-0.15,0.35C52.1,30.28,51.87,30.27,51.63,30.1z"/>
		<path class="st4" d="M52.22,29.9c0-2.93,0-5.85,0-8.78c0.33,0,0.67,0,1,0c0.02,0.05,0.05,0.11,0.07,0.16
			c-0.01,0.12-0.05,0.23-0.11,0.34c-0.19,2.27-0.03,4.54-0.09,6.81c-0.01,0.49,0.09,0.99-0.2,1.45
			C52.68,30.08,52.45,30.07,52.22,29.9z"/>
		<path class="st5" d="M54.22,21.12c0.2,0,0.4,0,0.6,0c0.07,0.1,0.08,0.2,0.04,0.32c-0.33,0.9-0.19,1.85-0.17,2.77
			c0.04,1.45-0.3,2.89-0.04,4.35c0.1,0.55,0.01,1.12-0.28,1.64c-0.36,0.19-0.7,0.19-1-0.1c0.31-2.33,0.07-4.67,0.15-7.01
			c0.02-0.52-0.07-1.06,0.11-1.57C53.73,21.22,54.03,21.26,54.22,21.12z"/>
		<path class="st6" d="M51.22,21.12c-0.35,1.03-0.18,2.1-0.19,3.15c-0.03,1.65,0,3.31-0.01,4.96c0,0.33,0.16,0.77-0.39,0.87
			c-0.33-0.31-0.29-0.72-0.29-1.12c-0.01-2.12,0-4.25,0-6.37c0-0.4,0.02-0.8,0.28-1.13c0.11-0.15,0.38-0.12,0.42-0.36
			C51.09,21.12,51.15,21.12,51.22,21.12z"/>
		<path class="st7" d="M54.82,21.32c0-0.07,0-0.13,0-0.2c0.13,0,0.27,0,0.4,0c0.25,0.26,0.27,0.59,0.28,0.93
			c0.01,2.32,0.02,4.65-0.01,6.97c0,0.37-0.03,0.73-0.22,1.06c-0.17,0.14-0.35,0.14-0.53,0.02c-0.29-0.92-0.2-1.88-0.18-2.81
			c0.04-1.65,0.01-3.29,0.06-4.94C54.63,22.01,54.56,21.63,54.82,21.32z"/>
		<path class="st8" d="M55.62,21.12c0.07,0,0.13,0,0.2,0c0.16,0.1,0.32,0.21,0.39,0.4c0.22,2.55,0.09,5.1,0.07,7.65
			c0,0.41-0.18,0.77-0.59,0.97c-0.14,0.04-0.25,0.01-0.34-0.1c0.15-2.59,0.04-5.18,0.08-7.76C55.42,21.88,55.34,21.47,55.62,21.12z"
			/>
		<path class="st9" d="M55.62,21.12c0,2.16,0,4.32,0,6.48c0,0.83,0.03,1.65-0.2,2.46c-0.07,0.08-0.13,0.07-0.2,0
			c0-2.98,0-5.96,0-8.93C55.35,21.12,55.48,21.12,55.62,21.12z"/>
		<path class="st10" d="M54.22,21.12c-0.09,0.16-0.24,0.19-0.4,0.2c-0.2,0.16-0.4,0.17-0.6,0c0-0.07,0-0.13,0-0.2
			C53.55,21.12,53.88,21.12,54.22,21.12z"/>
		<path class="st11" d="M56.02,21.35c-0.07-0.08-0.14-0.15-0.2-0.23c0.13,0,0.27,0,0.4,0c0.05,0.04,0.07,0.09,0.07,0.14
			c-0.01,0.05-0.02,0.08-0.03,0.08C56.17,21.4,56.1,21.4,56.02,21.35z"/>
		<path class="st12" d="M56.23,21.29c-0.01-0.06-0.01-0.11-0.01-0.17c0.13,0,0.27,0,0.4,0c0.01,0.06,0,0.12-0.01,0.18
			C56.47,21.44,56.35,21.42,56.23,21.29z"/>
		<path class="st0" d="M65.86,64c2.88-1.28,5.46-3.02,7.71-5.22c0.5-0.49,0.91-0.58,1.56-0.36c4.03,1.37,8.07,2.69,12.21,4.06
			c-1.34,1.42-2.77,2.59-4.25,3.69c-6.43,4.76-13.67,7.75-21.34,9.81c-8.41,2.26-16.98,3.28-25.69,2.76
			c-6.12-0.37-12.09-1.47-17.59-4.34c-3.5-1.83-6.5-4.21-8.04-7.98c-1.65-4.03-0.95-7.89,1.18-11.55c2.43-4.18,6.03-7.22,10-9.86
			c2.69-1.79,5.54-3.3,8.52-4.55c0.76-0.32,1.32-0.68,1.26-1.58c0.38,0.27,0.35,0.69,0.36,1.08c0.01,1.29,0.06,2.58-0.05,3.86
			c-0.02,0.12-0.05,0.23-0.11,0.33c-0.11,0.17-0.24,0.18-0.4,0.06C31,43.97,31.02,43.68,31,43.39c-0.02-0.35-0.17-0.53-0.54-0.48
			c-0.24,0.02-0.46,0.08-0.69,0.14c-0.34,0.08-0.7,0.1-1.02,0.26c-0.8,0.24-1.01,0.82-1.02,1.6c-0.02,1.41,0.14,2.83-0.11,4.24
			c-0.07,0.16-0.18,0.28-0.34,0.36c-0.11,0.03-0.21,0-0.3-0.08c-0.38-0.79-0.16-1.62-0.2-2.44c-0.04-0.81,0.02-1.63-0.05-2.61
			c-1.59,1.24-2.19,2.73-2.07,4.52c0.07,1.02,0.09,2.04-0.03,3.06c-0.01,0.15-0.04,0.29-0.11,0.43c-0.05,0.08-0.11,0.16-0.16,0.25
			c-0.08,2.19-0.05,4.38-0.01,6.57c0.05,0.08,0.11,0.15,0.16,0.23c0.71,1.45,1.36,2.93,2.61,4.03c0.61,0.6,1.3,1.09,2.03,1.54
			c0.31,0.18,0.64,0.33,0.96,0.5c0.47,0.3,1,0.48,1.5,0.72c1.15,0.51,2.35,0.89,3.57,1.21c0.37,0.12,0.74,0.19,1.11,0.29
			c0.24,0.03,0.47,0.07,0.7,0.12c0.27,0.09,0.55,0.12,0.83,0.17c0.28,0.07,0.55,0.14,0.84,0.15c0.34,0.01,0.67,0.15,1.01,0.17
			c0.25,0.02,0.5,0.02,0.75,0.02c0.16,0,0.32,0.01,0.48,0.03c0.43,0.07,0.86,0.19,1.3,0.13c1.6-0.01,3.2-0.02,4.79,0
			c0.86,0.11,1.71-0.14,2.56-0.17c0.47,0.05,0.91-0.07,1.36-0.16c0.34-0.05,0.69-0.01,1.02-0.12c0.19-0.05,0.38-0.09,0.57-0.13
			c0.28-0.07,0.56-0.14,0.85-0.17c0.29-0.01,0.56-0.09,0.84-0.15c0.32-0.05,0.66-0.05,0.97-0.16c0.27-0.07,0.55-0.11,0.81-0.2
			c0.27-0.07,0.54-0.11,0.8-0.2c0.26-0.07,0.53-0.11,0.79-0.2c0.26-0.07,0.52-0.11,0.78-0.19c0.21-0.06,0.42-0.13,0.63-0.19
			c0.25-0.07,0.5-0.1,0.74-0.2c0.16-0.07,0.32-0.14,0.48-0.2c0.2-0.08,0.41-0.14,0.62-0.22c0.38-0.12,0.75-0.24,1.13-0.38
			c0.21-0.08,0.42-0.14,0.61-0.26c0.44-0.25,0.97-0.29,1.4-0.56C64.59,64.38,65.17,64.03,65.86,64z"/>
		<path class="st0" d="M66.88,33.87c3.64-0.06,11.38,1.58,14.67,3.14c-0.49,0.21-0.89,0.38-1.3,0.55c-3.1,1.29-6.2,2.57-9.29,3.87
			c-0.46,0.19-0.83,0.21-1.31,0.01c-1.07-0.45-2.17-0.81-3.27-1.21c-0.34-0.17-0.45-0.47-0.45-0.82c-0.03-1.61-0.04-3.22,0-4.83
			C65.95,33.98,66.2,33.64,66.88,33.87z"/>
		<path class="st13" d="M65.86,64c-0.56,0.38-1.16,0.65-1.81,0.83c-0.47,0.21-0.59-0.13-0.68-0.46c-0.1-0.35-0.06-0.73-0.06-1.09
			c0-9.92,0-19.83,0-29.75c0-0.36-0.1-0.73,0.13-1.06c1.13-0.25,1.78,0.43,2.37,1.23l0-0.03c0.15,0.19,0.2,0.41,0.19,0.65
			c-0.05,1.94,0.14,3.87-0.1,5.81C65.88,48.09,65.87,56.04,65.86,64z"/>
		<path class="st14" d="M41.81,31.88c0.01-0.37,0.04-0.73,0.02-1.1c-0.13-4.01,1.84-6.65,5.39-8.26c0.43,0.01,0.46,0.36,0.47,0.63
			c0.04,2.52,0.17,5.04-0.07,7.56c-0.01,0.06-0.05,0.12-0.07,0.18c-0.19,0.37-0.52,0.6-0.9,0.73c-1.53,0.54-2.63,1.6-3.62,2.83
			c-0.18,0.23-0.3,0.66-0.75,0.37c-0.31-0.81-0.04-1.67-0.18-2.6c0-0.03-0.15,0.18-0.04,0.11c0.21,0.96-0.12,1.97,0.28,2.91
			c-0.08,0.31-0.03,0.78-0.6,0.52c-0.33-1.18-0.17-2.38-0.11-3.58C41.68,32.08,41.74,31.97,41.81,31.88z"/>
		<path class="st15" d="M31.47,44.11c-0.03-1.74-0.05-3.49-0.08-5.23c0.18-2.71,1.72-4.43,4.04-5.6c0.53,0.06,0.49,0.51,0.49,0.83
			c0.02,1.96,0.11,3.92-0.05,5.87c-0.04,0.17-0.11,0.32-0.21,0.46c-0.58,0.56-1.4,0.75-2.01,1.28c-0.58,0.51-1.1,1.06-1.51,1.71
			C31.98,43.71,31.88,44.08,31.47,44.11z"/>
		<path class="st16" d="M47.18,31.12c0.18-0.21,0.23-0.46,0.23-0.74c0-2.44,0-4.89,0-7.33c0-0.2-0.01-0.4-0.19-0.53
			c0.73-0.48,1.57-0.63,2.39-0.82c0.25,0.22,0.28,0.52,0.28,0.81c0.02,2.38,0.02,4.75,0,7.13c0,0.27-0.05,0.53-0.19,0.76
			c-0.51,0.68-1.32,0.66-2.04,0.85C47.49,31.27,47.32,31.24,47.18,31.12z"/>
		<path class="st17" d="M65.8,33.71c-0.64-0.45-1.26-0.93-2-1.21c-0.13-0.16-0.45-0.05-0.5-0.33c-0.02-0.11-0.01-0.22,0.03-0.33
			c0.18-0.44,0.21-0.89,0.2-1.36c-0.04-1.68-0.03-3.37-0.01-5.06c0.01-0.4-0.11-0.88,0.43-1.09c1.27,0.92,2.06,2.03,1.95,3.73
			C65.77,29.93,65.83,31.82,65.8,33.71z"/>
		<path class="st18" d="M35.69,40.29c-0.02-1.99-0.04-3.98-0.07-5.96c-0.01-0.35,0.13-0.74-0.18-1.04c0.58-0.49,1.32-0.57,2-0.78
			c0.37,0.37,0.29,0.85,0.3,1.31c0.02,1.42,0,2.83,0.01,4.25c0,0.49,0,0.99,0.28,1.43c0.08,0.16,0.1,0.32-0.05,0.46
			c-0.26,0.19-0.59,0.18-0.88,0.29c-0.28,0.07-0.57,0.13-0.86,0.2C36.03,40.45,35.84,40.45,35.69,40.29z"/>
		<path class="st19" d="M61.47,22.7c0.42,0.11,0.81,0.27,1.09,0.63c0.36,2.4,0.13,4.8,0.13,7.2c0,0.4-0.1,0.79-0.5,1.02
			c-0.15,0.08-0.3,0.11-0.47,0.1c-0.26-0.04-0.51-0.12-0.76-0.2c-0.24-0.11-0.52-0.15-0.64-0.44c-0.01-0.12,0.01-0.22,0.06-0.33
			c0.33-0.42,0.32-0.91,0.32-1.41c0-1.84-0.03-3.69,0.02-5.53C60.74,23.29,60.54,22.55,61.47,22.7z"/>
		<path class="st20" d="M62,31.52c0.58-0.47,0.45-1.13,0.45-1.74c0.01-2-0.03-4-0.03-6c0-0.15,0.09-0.31,0.14-0.46
			c0.45,0.36,1.1,0.42,1.4,1c-0.33,1.24-0.09,2.5-0.14,3.74c-0.03,0.99,0.01,1.99,0.07,2.98c0.03,0.49-0.24,0.79-0.51,1.12
			c-0.33,0.14-0.61-0.03-0.91-0.12c-0.17-0.07-0.33-0.15-0.46-0.29C61.95,31.69,61.95,31.61,62,31.52z"/>
		<path class="st21" d="M61.47,22.7c-0.6,0.09-0.45,0.56-0.45,0.93c-0.01,2.09-0.02,4.17,0.01,6.26c0.01,0.52-0.03,0.93-0.63,1.06
			c-0.27,0.19-0.54,0.18-0.81-0.01c-0.06-0.1-0.1-0.21-0.1-0.32c0.09-1.35,0.21-2.7,0.11-4.05c-0.1-1.27,0.14-2.51,0.2-3.77
			c0.02-0.47,0.3-0.74,0.82-0.48C60.94,22.34,61.22,22.48,61.47,22.7z"/>
		<path class="st22" d="M56.61,29.9c0.69,0.1,0.82-0.26,0.81-0.86c-0.02-2.5-0.01-5-0.01-7.5c0.43-0.13,0.84-0.05,1.23,0.17
			c-0.12,2.62-0.15,5.24-0.05,7.86c0.02,0.57-0.36,0.73-0.8,0.84c-0.09,0.03-0.18,0.06-0.28,0.07c-0.24,0.04-0.49,0.03-0.72-0.04
			c-0.23-0.08-0.48-0.14-0.62-0.38C56.24,29.81,56.39,29.74,56.61,29.9z"/>
		<path class="st23" d="M38.43,32.27c0.36-0.25,0.78-0.17,1.18-0.21c0.03,0.04,0.06,0.08,0.09,0.12c-0.07,2.22,0.31,4.44,0.04,6.67
			c-0.02,0.18,0.06,0.32,0.18,0.44c0.07,0.07,0.13,0.15,0.17,0.23c-0.02,0.17-0.13,0.26-0.28,0.32c-0.21,0.07-0.42,0.08-0.63,0.08
			c-0.12,0-0.23,0-0.34-0.02c-0.25-0.05-0.46-0.14-0.57-0.39c-0.28-2.2-0.11-4.41-0.09-6.61C38.17,32.67,38.29,32.46,38.43,32.27z"
			/>
		<path class="st24" d="M60.6,22.32c-0.33,0-0.63,0.06-0.59,0.48c0.14,1.4-0.17,2.79-0.12,4.21c0.05,1.19,0.33,2.52-0.3,3.71
			c-0.24,0.19-0.5,0.22-0.77,0.1c-0.15-0.08-0.25-0.21-0.29-0.37c0.38-1.22,0.29-2.49,0.24-3.72c-0.06-1.39,0.19-2.76,0.04-4.14
			c-0.03-0.31,0.09-0.59,0.41-0.72C59.72,21.92,60.19,22.04,60.6,22.32z"/>
		<path class="st25" d="M41.81,31.88c0,0.08,0.01,0.15,0.01,0.23c-0.19,1.21-0.04,2.42-0.08,3.63c0.01,0.17-0.03,0.31-0.19,0.39
			c-0.25-0.07-0.22-0.24-0.22-0.22c0,0.23,0.23,0.63,0.19,1.06c0.01,0.49-0.03,0.97,0.02,1.45c0.07,0.66-0.19,1.05-0.83,1.21
			c-0.23,0.05-0.45,0.05-0.64-0.11l-0.02-0.05c0.16-2.03,0.07-4.07,0.09-6.1c0-0.36-0.01-0.72,0.12-1.07
			c0.09-0.28,0.37-0.27,0.58-0.36C41.16,31.91,41.48,31.89,41.81,31.88z"/>
		<path class="st26" d="M38.43,32.27c0,2.47,0.01,4.94,0.01,7.4c-0.11,0.1-0.22,0.11-0.35,0.03c-0.61,0.02-0.66-0.36-0.66-0.85
			c0.02-2.12,0.01-4.24,0.01-6.35C37.74,32.31,38.08,32.26,38.43,32.27z"/>
		<path class="st27" d="M59.23,21.86c-0.39,0.87-0.06,1.79-0.14,2.69c-0.16,1.72-0.08,3.46-0.07,5.19c0,0.36-0.21,0.53-0.41,0.75
			c-0.4,0.31-0.73,0.26-0.99-0.18c1.27-0.28,0.65-1.3,0.68-1.95c0.09-2.01-0.11-4.03,0.12-6.04c0.03-0.23,0-0.47,0.23-0.62
			C58.85,21.69,59.07,21.69,59.23,21.86z"/>
		<path class="st28" d="M50.6,21.48c0.01,2.87,0.01,5.75,0.02,8.62c-0.06,0.06-0.13,0.13-0.19,0.19c-0.39,0.22-0.62,0.18-0.62-0.34
			c0.03-2.56,0-5.11,0.01-7.67c0-0.32,0.08-0.59,0.39-0.74C50.35,21.52,50.48,21.5,50.6,21.48z"/>
		<path class="st29" d="M50.22,21.53c-0.18,0.29-0.2,0.62-0.2,0.95c0,2.47,0.01,4.94-0.04,7.41c-0.01,0.45,0.18,0.4,0.45,0.4
			c0.14,0.01,0.28,0.02,0.42,0.04c0.01,0.18-0.11,0.27-0.26,0.34c-0.2,0.07-0.4,0.08-0.61,0.07c-0.21-0.01-0.41-0.05-0.56-0.22
			c0.19-0.33,0.2-0.69,0.2-1.06c-0.01-2.59-0.01-5.17-0.01-7.76C49.78,21.51,50,21.52,50.22,21.53z"/>
		<path class="st30" d="M65.89,40.13c-0.03-2.15-0.06-4.3-0.09-6.46c0.36,0.06,0.71,0.13,1.07,0.19c-0.29,0.04-0.67,0-0.66,0.43
			c0.07,1.98-0.24,3.97,0.17,5.93C66.22,40.2,66.06,40.16,65.89,40.13z"/>
		<path class="st23" d="M40.83,31.93c-0.13,0.06-0.26,0.11-0.4,0.17c-0.26,0.19-0.52,0.25-0.79,0.02c0,0-0.04-0.06-0.04-0.06
			C40,31.83,40.42,31.9,40.83,31.93z"/>
		<path class="st31" d="M56.61,29.9c-0.16,0.01-0.31,0.04-0.39,0.19c-0.2,0.18-0.41,0.18-0.6-0.01c0.34-0.36,0.41-0.79,0.41-1.28
			c-0.02-2.48-0.01-4.96-0.01-7.45c0.07-0.02,0.14-0.04,0.21-0.06c0.13,0.01,0.25,0.01,0.38,0.02
			C56.61,24.17,56.61,27.03,56.61,29.9z"/>
		<path class="st32" d="M50.62,30.49c0.08-0.05,0.16-0.11,0.24-0.16c0.25-0.01,0.51-0.03,0.76-0.05c0.19-0.11,0.39-0.09,0.59-0.03
			c0.13,0.35-0.21,0.39-0.36,0.56c-0.18,2.48-0.12,4.96-0.15,7.45c-0.04,3.72,0.09,7.43,0.03,11.15c-0.06,3.38,0.1,6.76-0.03,10.14
			c-0.01,0.33-0.01,0.66-0.08,0.99c-0.15,0.45-0.17,0.91-0.01,1.37c0.05,0.33,0.07,0.66-0.15,0.95c-0.16,0.1-0.31,0.1-0.47,0.01
			c-0.44-1.04-0.36-2.13-0.32-3.22c0.08-2.35-0.11-4.7,0.02-7.05c0.12-2.09-0.1-4.17-0.04-6.25c0.07-2.71-0.03-5.42,0.02-8.13
			c0.03-1.85-0.06-3.7,0.07-5.55C50.79,31.92,50.64,31.21,50.62,30.49z"/>
		<path class="st33" d="M52.21,30.33c-0.2-0.02-0.4-0.03-0.59-0.05c0-0.06,0.01-0.12,0.01-0.17c0.2,0,0.4-0.01,0.6-0.01
			c0.4-0.08,0.8-0.29,1.2-0.02c0.33-0.01,0.65-0.01,0.98-0.02c0.13-0.09,0.27-0.06,0.4,0c0.14,0,0.27,0,0.41,0c0.07,0,0.13,0,0.2,0
			c0.07,0,0.13,0.01,0.2,0.01c0.2,0,0.4,0.01,0.6,0.01c0.2,0.06,0.4,0.12,0.59,0.18c-0.23,0.31-0.58,0.28-0.91,0.3
			c-0.16,0.01-0.32,0.01-0.48,0c-0.26,0.01-0.52-0.01-0.78,0c-0.21,0-0.41-0.01-0.62,0c-0.31,0-0.62-0.01-0.92-0.01
			c-0.1,0-0.21,0-0.31-0.01C52.57,30.53,52.36,30.5,52.21,30.33z"/>
		<path class="st34" d="M53.43,30.08c-0.4,0.01-0.8,0.01-1.2,0.02c0-0.06-0.01-0.13,0-0.19c0.2,0,0.4,0,0.6,0
			c0.29-0.34,0.2-0.76,0.2-1.15c0.01-2.09,0-4.19,0.01-6.28c0-0.39-0.09-0.8,0.2-1.15c0,0,0,0,0,0c0.2,0,0.4,0,0.6,0
			c0,2.49-0.01,4.98,0.01,7.47C53.83,29.28,53.75,29.7,53.43,30.08z"/>
		<path class="st10" d="M53.22,21.32c0,2.54,0.01,5.08-0.01,7.62c0,0.35,0.22,0.84-0.39,0.96c0-2.54-0.01-5.08,0.01-7.62
			C52.83,21.94,52.61,21.45,53.22,21.32z"/>
		<path class="st35" d="M54.81,30.06c-0.13,0-0.27,0-0.4,0c0.11-1.19-0.23-2.35-0.07-3.56c0.19-1.41,0.06-2.87,0.08-4.31
			c0.01-0.33-0.16-0.77,0.39-0.86C54.81,24.23,54.81,27.15,54.81,30.06z"/>
		<path class="st36" d="M47.18,31.12c0.16-0.02,0.32-0.04,0.48-0.05c0.33,0.4,0.28,0.88,0.28,1.34c0.01,11.6,0.01,23.21-0.01,34.81
			c0,0.59,0.17,1.33-0.71,1.55c-1.74,0.11-3.48,0.13-5.22-0.03c-0.65-0.39-0.49-1.04-0.49-1.62c-0.02-5.68-0.02-11.36-0.01-17.04
			c0.01-3.49-0.05-6.97,0.03-10.46c0.13-1.15-0.18-2.31,0.14-3.46c0.04-0.12,0.11-0.21,0.22-0.27c0.1-0.2,0.21-0.41,0.31-0.61
			c-0.11-0.23-0.11-0.4,0.21-0.44C43.58,33.06,45.17,31.82,47.18,31.12z"/>
		<path class="st37" d="M31.47,44.11c0.89-1.66,2.08-2.98,3.92-3.61c0.34-0.14,0.39,0.14,0.47,0.35c0.12,0.32,0.08,0.66,0.08,0.99
			c0,8.15,0.01,16.31-0.01,24.46c0,0.53,0.26,1.27-0.67,1.4c-1.33-0.29-2.61-0.7-3.83-1.31c-0.23-0.35-0.31-0.73-0.31-1.14
			c0.01-5.58-0.05-11.16,0.03-16.74c0.01-1.03,0-2.06,0.01-3.09c0.01-0.39-0.06-0.81,0.24-1.14C31.47,44.23,31.49,44.18,31.47,44.11
			z"/>
		<path class="st38" d="M47.24,68.76c0.52-0.29,0.38-0.8,0.38-1.24c0-11.69,0-23.38,0-35.07c0-0.46,0.03-0.93,0.05-1.39
			c0.59-0.18,1.17-0.37,1.76-0.55c0.2,0,0.39,0.01,0.59,0.01c0.05,0.28-0.44,0.45-0.16,0.78c0.1,2.23,0.01,4.45,0.05,6.67
			c0.11,6.2-0.1,12.39,0.02,18.59c0.08,3.87-0.18,7.74,0.04,11.61c-0.03,0.2-0.14,0.33-0.34,0.38
			C48.84,68.7,48.04,68.79,47.24,68.76z"/>
		<path class="st39" d="M49.63,68.56c0.06-0.05,0.13-0.11,0.19-0.16c0.14-1.44-0.05-2.89,0.02-4.33c0.17-3.51,0.03-7.02,0.02-10.53
			c-0.01-3.73,0.03-7.46-0.01-11.18c-0.03-3.51-0.1-7.02-0.01-10.53c0.01-0.35,0.02-0.66-0.23-0.93c-0.09-0.36,0.39-0.12,0.39-0.37
			c0.2-0.01,0.4-0.03,0.6-0.04c0.74,0.68,0.44,1.58,0.36,2.34c-0.1,1.09,0.15,2.15,0.01,3.23c-0.17,1.35-0.07,2.71-0.09,4.06
			c-0.02,0.99,0.04,2.01,0.04,3.01c0,1.45,0,2.91-0.04,4.36c-0.02,0.69,0.04,1.36,0.08,2.05c0.09,1.53-0.06,3.08-0.06,4.62
			c0,1.22-0.13,2.45,0.05,3.67c0.08,0.52,0.06,1.05-0.03,1.58c-0.2,1.14,0.11,2.28,0.07,3.42c0.31,0.33,0.22,0.74,0.21,1.13
			c-0.03,1.09,0.09,2.19,0.06,3.28c-0.01,0.4-0.05,0.8-0.27,1.15C50.57,68.55,50.11,68.61,49.63,68.56z"/>
		<path class="st37" d="M24.42,52.45c0.03-0.11,0.06-0.23,0.08-0.34c0.37-1.33,1.15-2.26,2.52-2.63c0.08-0.03,0.15-0.05,0.23-0.08
			c0.35,0.34,0.32,0.79,0.32,1.21c0.01,3.91,0.02,7.82,0,11.74c0,0.47,0.11,1.02-0.47,1.3c-1.35-1.12-2.24-2.52-2.68-4.22
			c-0.01-0.06-0.01-0.12-0.02-0.17c-0.03-2.21-0.02-4.43,0-6.64C24.4,52.56,24.41,52.5,24.42,52.45z"/>
		<path class="st40" d="M36.23,40.25c0.23-0.22,0.52-0.18,0.8-0.2c0.2,0.06,0.32,0.2,0.4,0.38c0.2,1.02,0.09,2.05,0.09,3.08
			c-0.01,4.42,0.02,8.83,0.02,13.25c0,3.34,0.02,6.69-0.02,10.03c-0.01,0.46,0.26,1.11-0.54,1.26c-0.24-0.04-0.49-0.07-0.73-0.11
			c-0.3-0.36-0.3-0.79-0.3-1.23c0-8.41,0-16.82,0-25.23C35.94,41.05,35.93,40.61,36.23,40.25z"/>
		<path class="st41" d="M54.02,30.31c0.2-0.01,0.4-0.01,0.59-0.02c0.56,0.33,0.5,0.89,0.5,1.42c0.01,3.16,0,6.31,0,9.47
			c0.01,7.67-0.02,15.33,0.02,23c0.01,1.15-0.19,2.32,0.11,3.46c-0.31,0.22-0.67,0.22-1.03,0.21c-0.39-0.19-0.45-0.55-0.45-0.93
			c0.03-3.44,0.14-6.89,0.08-10.33c-0.04-2.25-0.01-4.5-0.05-6.76c-0.04-2.35,0.01-4.7,0.01-7.05c0-2.98-0.09-5.96,0.01-8.94
			C53.87,32.66,53.6,31.46,54.02,30.31z"/>
		<path class="st42" d="M52.21,30.33c0.2,0,0.41,0,0.61,0c0.49,1.15,0.25,2.36,0.25,3.53c-0.05,6.73,0.08,13.45,0.01,20.18
			c-0.05,4.53,0.15,9.07-0.09,13.6c-0.06,0.22-0.26,0.36-0.37,0.55c-0.19,0.01-0.39,0.03-0.58,0.04c-0.04-0.04-0.08-0.08-0.12-0.12
			c-0.24-1.14-0.17-2.31-0.15-3.45c0.09-5.03-0.07-10.06,0.04-15.08c0.07-3.21-0.16-6.42,0.02-9.62c0.12-2.08-0.14-4.15,0.06-6.23
			c0.1-1.05,0-2.16-0.26-3.22C51.83,30.49,52.06,30.54,52.21,30.33z"/>
		<path class="st43" d="M27.1,63.65c0.22-0.21,0.17-0.49,0.17-0.75c0-4.5-0.01-9-0.02-13.5c0.07-0.06,0.14-0.13,0.22-0.19
			c0.37-0.37,0.8-0.45,1.28-0.27c0.58,0.29,0.57,0.84,0.59,1.37c0.07,1.85-0.12,3.7-0.03,5.55c0.13,2.78-0.03,5.56-0.06,8.34
			c0,0.32,0.08,0.67-0.19,0.94C28.32,64.75,27.64,64.29,27.1,63.65z"/>
		<path class="st44" d="M60.44,31.09c0.22-0.01,0.44,0.01,0.6,0.2c-0.18,0.45-0.14,0.92-0.14,1.38c0,10.44,0,20.88,0,31.32
			c0,0.46,0.04,0.93-0.04,1.39c-0.09,0.23-0.11,0.46,0.02,0.68c-0.16,0.18-0.37,0.19-0.59,0.19c-0.68,0.21-0.63-0.33-0.64-0.68
			c-0.1-1.75-0.11-3.51-0.08-5.27c0.05-2.42,0.03-4.83,0.01-7.25c-0.02-3.41-0.02-6.83,0.01-10.24c0.01-1.92-0.02-3.84,0.04-5.76
			c0.05-1.79-0.08-3.57,0.03-5.36C59.69,31.14,59.84,30.84,60.44,31.09z"/>
		<path class="st45" d="M58.89,30.68c0.24,0.01,0.48,0.03,0.71,0.04c0.03,0.05,0.05,0.1,0.08,0.15c-0.22,0.43-0.2,0.9-0.2,1.36
			c-0.02,7.08,0.01,14.15,0,21.23c-0.01,3.95-0.06,7.9,0.02,11.86c0.01,0.4-0.03,0.81,0.32,1.11c-0.2,0.2-0.46,0.22-0.73,0.22
			c-0.64,0.22-0.79-0.06-0.83-0.67c-0.12-2.16,0.07-4.31,0.03-6.46c-0.1-5.57-0.07-11.14-0.05-16.72c0-2.09-0.12-4.18-0.01-6.26
			c0.09-1.79-0.13-3.58,0.08-5.36c0.02-0.19-0.03-0.4,0.15-0.55C58.61,30.6,58.75,30.62,58.89,30.68z"/>
		<path class="st46" d="M31.39,48.43c0.01,5.22,0.03,10.44,0.04,15.66c0,0.76,0.01,1.53,0.01,2.29c-0.51-0.15-0.97-0.38-1.41-0.68
			c-0.26-0.41-0.3-0.87-0.3-1.34c-0.01-4.9,0.01-9.81-0.01-14.71c0-0.33-0.03-0.67,0.22-0.94c0.32-0.3,0.73-0.3,1.13-0.35
			C31.18,48.36,31.29,48.38,31.39,48.43z"/>
		<path class="st47" d="M59.81,66.42c-0.34-0.02-0.66,0.12-0.64-0.53c0.1-3.73,0.01-7.47,0.08-11.21c0.08-4.19-0.12-8.38-0.1-12.58
			c0.02-3.41,0.07-6.82,0-10.23c-0.01-0.34-0.15-0.94,0.52-1.02c0.24,0.03,0.47,0.05,0.71,0.08c0.01,0.05,0.03,0.1,0.05,0.14
			c-0.26,0.05-0.54-0.07-0.53,0.46c0.03,2.22-0.1,4.45-0.03,6.67c0.09,2.86,0.02,5.72,0,8.57c-0.02,2.61,0.11,5.23-0.03,7.84
			c-0.09,1.61,0.26,3.25,0.08,4.84c-0.19,1.73,0.14,3.44-0.06,5.16c-0.06,0.52-0.2,1.21,0.44,1.61C60.17,66.4,60,66.42,59.81,66.42z
			"/>
		<path class="st48" d="M58.41,30.7c0.43,0.48,0.07,1.02,0.08,1.53c0.04,1.98-0.11,3.97,0,5.94c0.14,2.55,0,5.11,0.01,7.66
			c0.01,2.59,0.04,5.18-0.03,7.77c-0.06,2.07,0.05,4.14,0.07,6.2c0.02,2.11-0.16,4.21-0.03,6.32c0.04,0.57,0.28,0.46,0.57,0.52
			c-0.19,0.17-0.41,0.2-0.65,0.19c-0.82,0.3-0.82-0.31-0.84-0.8c-0.08-1.96-0.07-3.92-0.06-5.87c0.03-4.24-0.02-8.49,0-12.73
			c0.02-4.18-0.05-8.36,0.06-12.54c0.03-1.13-0.1-2.26-0.02-3.38C57.61,31.07,57.56,30.37,58.41,30.7z"/>
		<path class="st49" d="M41.83,39.48c0,9.33,0.01,18.67,0.02,28c0,0.42-0.1,0.87,0.17,1.26c-0.39-0.04-0.78-0.08-1.18-0.12
			c-0.22-0.27-0.1-0.57-0.1-0.86c-0.01-9.27,0.02-18.55-0.01-27.82c0-0.3,0.21-0.42,0.45-0.52C41.4,39.3,41.63,39.31,41.83,39.48z"
			/>
		<path class="st50" d="M58.41,30.7c-0.8-0.04-0.58,0.61-0.58,0.98c0,1.23,0.06,2.46,0.01,3.7c-0.07,1.87,0.01,3.74,0.01,5.61
			c0.01,2.44,0.03,4.88,0.01,7.32c-0.02,2.63,0.02,5.25-0.02,7.88c-0.03,2.57-0.03,5.14-0.03,7.71c0,0.72-0.02,1.44,0.02,2.15
			c0.02,0.36-0.04,0.85,0.6,0.77c-0.22,0.19-0.48,0.22-0.76,0.21c-0.32,0.08-0.65,0.2-0.77-0.27c0.04-10.31-0.02-20.62,0-30.92
			c0-1.33,0.01-2.66,0-3.99c0-0.36,0.03-0.73-0.14-1.08c0.03-0.69,0.56-0.23,0.83-0.36c0-0.04,0.01-0.07,0.01-0.11
			c0.31,0.15,0.65,0.2,0.99,0.18c0.09,0.06,0.19,0.12,0.28,0.18C58.73,30.69,58.57,30.69,58.41,30.7z"/>
		<path class="st51" d="M54.02,30.31c0.36,0.71,0.15,1.52,0.12,2.2c-0.16,3.33-0.04,6.65,0,9.98c0.03,2.37-0.11,4.73-0.11,7.1
			c0,2.3,0.12,4.6,0.11,6.9c-0.01,3.43-0.08,6.87-0.12,10.3c-0.01,0.37,0.02,0.73,0.21,1.06c-0.24,0.19-0.51,0.22-0.81,0.17
			c-0.46-0.85-0.23-1.76-0.21-2.64c0.06-2.35-0.03-4.7-0.04-7.05c-0.01-2.72-0.01-5.45,0.01-8.17c0.01-2.18,0.03-4.37,0-6.55
			c-0.03-1.68,0.1-3.37,0.08-5.05c-0.03-2.38,0-4.75,0.05-7.13c0.01-0.25-0.1-0.45-0.19-0.66c-0.07-0.14-0.15-0.28-0.09-0.45
			C53.35,30.31,53.69,30.31,54.02,30.31z"/>
		<path class="st52" d="M57.6,30.41c-0.26,0.03-0.53,0.06-0.79,0.09c0.23,2.24,0.06,4.49,0.08,6.74c0.05,5.9,0.01,11.79,0.02,17.69
			c0,0.46-0.03,0.93,0.05,1.39c-0.19,3.64-0.05,7.29-0.08,10.93c-0.24,0.18-0.51,0.2-0.8,0.19c-0.19,0.07-0.38,0.12-0.52-0.08
			c0.26-1.04,0.14-2.11,0.14-3.16c0.02-10.86,0.01-21.73,0.01-32.59c0-0.43-0.08-0.86,0.1-1.28c0.33-0.02,0.66-0.03,1-0.05
			C57.08,30.32,57.34,30.36,57.6,30.41z"/>
		<path class="st53" d="M55.62,67.41c0.16,0.01,0.31,0.02,0.47,0.03c-0.25,0.2-0.54,0.2-0.84,0.19c-0.49,0.05-0.46-0.21-0.45-0.6
			c0.12-3.77,0.03-7.54,0.06-11.31c0.02-2.71-0.01-5.43-0.03-8.15c-0.04-5.34-0.01-10.68-0.01-16.02c0-0.43,0.04-0.87-0.21-1.26
			c0.27,0,0.54,0,0.8,0.01c0.32,0.35,0.3,0.79,0.3,1.23c0,11.04,0.01,22.08-0.01,33.12C55.7,65.56,55.79,66.49,55.62,67.41z"/>
		<path class="st54" d="M62.06,31.68c0.14,0.06,0.29,0.12,0.43,0.18c0,0.18,0.01,0.37,0,0.55c-0.01,8.13-0.01,16.25,0,24.38
			c0,2.35-0.03,4.71-0.01,7.06c0,0.46-0.01,0.93,0.11,1.38c0.01,0.06,0.01,0.13,0.02,0.19c-0.15,0.16-0.34,0.22-0.56,0.21
			c-0.46,0.19-0.6-0.11-0.68-0.46c-0.08-0.32-0.05-0.66-0.05-0.99c0-10.35,0-20.71,0-31.06c0-0.33-0.02-0.67,0.05-0.99
			C61.46,31.79,61.6,31.49,62.06,31.68z"/>
		<path class="st55" d="M63.4,32.3c0.14,0.07,0.27,0.13,0.41,0.2c-0.18,0.03-0.26,0.09-0.26,0.32c0.03,10.29,0.04,20.59,0.07,30.88
			c0,0.4-0.28,0.98,0.43,1.14c-0.42,0.35-0.95,0.4-1.43,0.59c0,0-0.03-0.05-0.03-0.05c-0.1-0.18-0.11-0.37-0.02-0.56
			c0.23-0.51,0.15-1.05,0.15-1.57c0-9.72,0-19.44,0-29.16c0-0.43-0.04-0.87,0.04-1.29C62.83,32.48,62.9,32.1,63.4,32.3z"/>
		<path class="st56" d="M39.24,39.69c0.2-0.01,0.4-0.02,0.6-0.02c0.31,0.32,0.28,0.73,0.29,1.12c0.07,3.3,0.01,6.59,0.03,9.89
			c0.02,3.47-0.08,6.95,0.02,10.42c0.06,1.88-0.04,3.77-0.05,5.66c0,0.47,0.03,0.93,0.21,1.36c0.08,0.14,0.15,0.29,0.1,0.46
			c-0.27-0.03-0.55-0.05-0.82-0.08c-0.69-0.25-0.65-0.84-0.66-1.41c-0.04-4.48-0.01-8.96-0.01-13.44c0-4.22-0.01-8.43,0-12.65
			C38.95,40.55,38.88,40.08,39.24,39.69z"/>
		<path class="st57" d="M30.24,48.68c-0.14,0.17-0.24,0.3-0.24,0.59c0.03,5.48,0.02,10.96,0.02,16.44
			c-0.33-0.19-0.65-0.37-0.98-0.56c-0.22-1.75,0-3.49-0.02-5.24c-0.02-2.03-0.03-4.06-0.11-6.09c-0.05-1.19,0.09-2.43,0.14-3.65
			c0.02-0.46-0.07-0.84-0.42-1.15c0.09-0.45,0.51-0.36,0.79-0.5c0.1-0.03,0.19-0.04,0.29-0.05C29.93,48.46,30.12,48.49,30.24,48.68z
			"/>
		<path class="st58" d="M39.24,39.69c0,9.15,0,18.3,0,27.44c0,0.5-0.07,1.01,0.38,1.38c-0.33-0.05-0.65-0.1-0.98-0.14
			c-0.09-0.09-0.15-0.2-0.18-0.32c-0.04-2.28-0.13-4.56-0.1-6.84c0.08-6.62-0.02-13.23,0.01-19.85c0-0.61-0.26-1.39,0.66-1.66
			C39.1,39.7,39.17,39.7,39.24,39.69z"/>
		<path class="st59" d="M36.23,40.25c0,9.23,0.01,18.46,0.01,27.69c-0.33-0.08-0.65-0.16-0.98-0.24c0.46-0.18,0.37-0.58,0.37-0.93
			c0-8.49,0-16.98,0-25.47c0-0.28,0.12-0.61-0.23-0.8c0.1-0.07,0.19-0.14,0.29-0.21C35.87,40.28,36.05,40.26,36.23,40.25z"/>
		<path class="st60" d="M40.44,68.59c-0.07-0.06-0.13-0.12-0.2-0.18c-0.18-2.54,0.01-5.09-0.06-7.63c-0.07-2.78,0.05-5.57,0.01-8.35
			c-0.03-1.98,0.12-3.96,0.01-5.95c-0.12-2.15,0.09-4.3-0.01-6.45c-0.02-0.5,0.28-0.53,0.65-0.33c0.23,0.36,0.2,0.76,0.2,1.16
			c0,8.8,0,17.6,0.01,26.4c0,0.47-0.11,0.92-0.21,1.37C40.7,68.61,40.57,68.6,40.44,68.59z"/>
		<path class="st61" d="M38.64,68.21c0,0.05,0,0.1,0,0.16c-0.28,0.04-0.55,0.01-0.8-0.15c-0.69-0.79-0.42-1.77-0.34-2.62
			c0.07-0.73-0.02-1.43-0.02-2.14c-0.05-4.65,0.08-9.3,0-13.94c-0.04-2.58-0.05-5.15,0.04-7.73c0.02-0.51,0.1-1.06-0.28-1.51
			c-0.07-0.08-0.14-0.15-0.21-0.23c0.24-0.21,0.53-0.18,0.81-0.17c0.51,0.08,0.59,0.43,0.59,0.87c-0.01,5.07-0.04,10.14,0.01,15.21
			c0.03,3.61-0.16,7.22,0.08,10.82C38.56,67.27,38.18,67.77,38.64,68.21z"/>
		<path class="st15" d="M27.02,49.48C25.95,50.13,25.1,51,24.5,52.1c0.04-2.14-0.62-4.34,0.61-6.36c0.45-0.74,0.99-1.38,1.91-1.8
			C27.02,45.85,27.02,47.67,27.02,49.48z"/>
		<path class="st62" d="M62.06,31.68c-0.67,0.12-0.44,0.65-0.44,1.04c-0.01,4.12-0.01,8.24-0.01,12.36c0,6.51,0,13.02,0.01,19.53
			c0,0.38-0.22,0.92,0.45,1.04c-0.36,0.24-0.75,0.38-1.17,0.42c-0.09-0.08-0.4,0.09-0.28-0.24c0.42-0.4,0.3-0.93,0.3-1.41
			c0.01-10.55,0-21.11,0-31.66c0-0.3-0.01-0.6,0.01-0.9c0.04-0.48,0.32-0.52,0.69-0.35c0.13,0.01,0.25,0.02,0.38,0.03
			C62.02,31.58,62.04,31.63,62.06,31.68z"/>
		<path class="st39" d="M37.24,40.28c0.3,0.01,0.45,0,0.52,0.47c0.15,1.05,0.02,2.09-0.03,3.11c-0.11,2.62,0.03,5.22,0.06,7.83
			c0.03,2.11-0.22,4.22-0.12,6.32c0.1,2.25-0.09,4.49,0.08,6.74c0.07,0.89,0.08,1.88-0.07,2.81c-0.04,0.26,0.08,0.45,0.16,0.66
			c-0.3,0.01-0.61,0.03-0.87-0.17c0.42-0.29,0.26-0.72,0.26-1.1c0.01-4.18,0.01-8.37,0.01-12.55
			C37.24,49.69,37.24,44.98,37.24,40.28z"/>
		<path class="st63" d="M53.22,30.5c0.44,0.38,0.3,0.85,0.29,1.35c-0.01,1.71-0.2,3.44-0.02,5.11c0.16,1.55-0.28,3.06,0.05,4.61
			c0.11,0.51-0.12,1.16-0.12,1.76c0,4.65-0.01,9.29,0.01,13.94c0.01,2.38,0.09,4.75,0.1,7.13c0.01,1.2-0.07,2.41-0.1,3.61
			c-0.27,0.06-0.53,0.12-0.8,0.17c0-0.16,0.04-0.3,0.2-0.38c0.33-0.45,0.18-0.97,0.18-1.45c-0.01-9.82,0.04-19.64,0-29.45
			c-0.01-1.89,0.05-3.78,0.01-5.67C53.01,30.97,53.02,30.71,53.22,30.5z"/>
		<path class="st64" d="M29.5,48.69c-0.29,0.11-0.57,0.22-0.86,0.32c-0.39,0.07-0.78,0.13-1.17,0.2c-0.01-1.64-0.02-3.29-0.04-4.93
			c-0.01-0.94,0.69-1.08,1.38-1.23c0.64-0.19,0.53,0.29,0.53,0.63c0.01,1.29,0.01,2.57,0,3.86C29.33,47.93,29.34,48.32,29.5,48.69z"
			/>
		<path class="st65" d="M56.89,67.25c-0.13-0.1-0.48,0.14-0.42-0.29c0.32-2.43,0.04-4.88,0.14-7.31c0.04-1.07-0.2-2.16,0.21-3.21
			c0.5,0.69,0.24,1.51,0.26,2.24c0.05,2.09,0.11,4.2-0.07,6.29c-0.05,0.62,0.19,1.23,0.01,1.85c0.16,0.25,0.43,0.19,0.67,0.22
			C57.45,67.23,57.17,67.25,56.89,67.25z"/>
		<path class="st66" d="M29.5,48.69c-0.43,0.01-0.5-0.16-0.48-0.6c0.06-1.55,0.03-3.1,0.07-4.65c0.01-0.27-0.07-0.35-0.29-0.39
			c0.3-0.29,0.69-0.14,1.04-0.2c0.18,1.76,0.06,3.53,0.05,5.29c0,0.2-0.12,0.37-0.25,0.53C29.6,48.69,29.55,48.7,29.5,48.69z"/>
		<path class="st25" d="M30.44,42.7c0.63-0.3,0.91-0.13,0.82,0.58c-0.03,0.26-0.03,0.53-0.04,0.79c-0.05,0.15-0.06,0.32-0.08,0.48
			c-0.09,1.22,0.07,2.45-0.09,3.67c-0.04,0.11-0.1,0.21-0.19,0.29c-0.23,0.05-0.47,0.12-0.67-0.08c-0.01-1.8-0.09-3.61,0.05-5.41
			C30.29,42.89,30.36,42.79,30.44,42.7z"/>
		<path class="st32" d="M51.02,68.39c0-1.86,0-3.71,0-5.57c0.13,0,0.27,0,0.4,0c0.41,0.26,0.32,0.66,0.3,1.05
			c-0.06,1.24,0.08,2.48-0.01,3.72c-0.02,0.25,0.1,0.44,0.28,0.59c0,0,0.04,0.04,0.04,0.04C51.72,68.44,51.37,68.4,51.02,68.39z"/>
		<path class="st67" d="M30.25,48.46c0.2-0.01,0.41-0.01,0.61-0.02c0.13-0.1,0.24-0.08,0.35,0.03c-0.28,0.28-0.66,0.1-0.97,0.22
			c-0.2-0.01-0.4-0.01-0.6-0.02c0-1.55,0-3.11,0-4.66c0-0.4,0-0.79,0.2-1.16c0.15-0.26,0.38-0.18,0.59-0.15
			c0,0.06,0.01,0.11,0.01,0.17c-0.33,0.48-0.19,1.02-0.19,1.54C30.24,45.76,30.24,47.11,30.25,48.46z"/>
		<path class="st68" d="M31.22,48.46c-0.12-0.01-0.24-0.02-0.35-0.03c-0.01-0.06-0.02-0.12-0.02-0.18c0.22-0.97,0.04-1.95,0.1-2.93
			c0.02-0.35-0.09-0.72,0.09-1.06c0.06-0.07,0.12-0.13,0.18-0.2c0.06,0.07,0.12,0.14,0.18,0.21c-0.01,1.39-0.02,2.77-0.03,4.16
			C31.33,48.43,31.27,48.44,31.22,48.46z"/>
		<path class="st69" d="M24.27,59.41c-0.06,0-0.11,0-0.17,0.01c0-2.32,0-4.63,0-6.95c0-0.02,0.05-0.04,0.07-0.04
			c0.03,0,0.06,0.02,0.09,0.03c0.19,0.22,0.19,0.48,0.19,0.75c0,1.82,0,3.63,0,5.45C24.45,58.92,24.46,59.19,24.27,59.41z"/>
		<path class="st70" d="M24.27,59.41c0-2.32,0-4.63-0.01-6.95c0.05-0.01,0.1-0.02,0.15-0.01c0.03-0.03,0.07-0.03,0.1,0
			c0.07,2.33,0.07,4.65,0,6.98l-0.05,0.02c0,0-0.05-0.02-0.05-0.02C24.37,59.43,24.32,59.42,24.27,59.41z"/>
		<path class="st71" d="M41.63,35.89c0.11-1.26-0.22-2.54,0.19-3.79c0.03,1.27,0.06,2.53,0.09,3.8c0,0-0.03,0.03-0.03,0.03
			C41.78,35.99,41.7,35.98,41.63,35.89z"/>
		<path class="st72" d="M42.42,34.85c-0.07,0.15-0.14,0.29-0.21,0.44c-0.42-1.02-0.03-2.08-0.14-3.12
			C42.43,33.03,41.99,33.99,42.42,34.85z"/>
		<path class="st73" d="M63.4,32.3c-0.65,0.17-0.38,0.7-0.38,1.08C63,43.57,63.01,53.76,62.99,63.95c0,0.37,0.27,0.91-0.39,1.07
			c-0.33-0.41-0.19-0.9-0.19-1.35c-0.01-10.04-0.01-20.08-0.01-30.12c0-0.49,0.1-1-0.2-1.46c0.09-0.08,0.19-0.16,0.28-0.24
			c0.29,0.1,0.59,0.21,0.88,0.31C63.37,32.21,63.38,32.26,63.4,32.3z"/>
		<path class="st74" d="M38.64,68.21c-0.33-0.04-0.54-0.15-0.52-0.56c0.15-3.83,0.1-7.66,0.06-11.49
			c-0.05-4.46,0.03-8.91,0.08-13.37c0.01-0.72-0.24-1.43-0.02-2.16c0.11-0.35-0.2-0.53-0.39-0.75c0.08-0.06,0.17-0.12,0.25-0.18
			c0.12-0.01,0.23-0.02,0.35-0.03c0.2,0.01,0.39,0.02,0.59,0.03c-0.32,0.24-0.41,0.55-0.4,0.95c0.09,3.31,0,6.62,0.09,9.93
			c0.06,2.32-0.05,4.66-0.07,6.99c-0.01,2.77-0.07,5.54,0.03,8.31C38.7,66.66,38.82,67.43,38.64,68.21z"/>
		<path class="st75" d="M61.62,31.49c-0.39-0.03-0.44,0.11-0.44,0.51c0.03,10.89,0.03,21.77,0.02,32.66c0,0.47,0.17,1.06-0.6,1.15
			c0-11.34,0-22.69-0.03-34.03c0-0.45,0.13-0.5,0.47-0.5C61.26,31.28,61.46,31.33,61.62,31.49z"/>
		<path class="st76" d="M40.84,39.69c-0.17,0.06-0.49-0.19-0.45,0.29c0.29,2.98,0.11,5.97,0.14,8.95c0.05,4.3-0.1,8.61-0.02,12.91
			c0.04,2-0.25,4.01,0.09,6.01c0.05,0.29-0.26,0.36-0.37,0.55c-0.45-0.33-0.39-0.83-0.39-1.28c0.01-4.22,0.05-8.45,0.06-12.67
			c0-1.96-0.11-3.93-0.05-5.89c0.09-2.97,0-5.94-0.02-8.91c0.07-0.05,0.15-0.1,0.22-0.15c0.19-0.01,0.38-0.02,0.57-0.03
			c0.21-0.14,0.41-0.18,0.6,0.04C41.1,39.58,40.97,39.63,40.84,39.69z"/>
		<path class="st77" d="M39.65,32.12c0.26-0.01,0.52-0.01,0.79-0.02c0,2.08,0,4.15,0,6.23c0,0.43,0.03,0.86-0.4,1.14
			c-0.33-0.01-0.78,0.16-0.61-0.5c0.47-1.93-0.12-3.87,0.04-5.81C39.49,32.79,39.42,32.43,39.65,32.12z"/>
		<path class="st78" d="M41.23,39.52c-0.2-0.01-0.4-0.02-0.6-0.04c0.51-0.22,0.76-0.53,0.62-1.16c-0.1-0.46-0.02-0.96-0.02-1.45
			c0.22-0.23-0.02-0.57,0.2-0.8c0.07-0.07,0.13-0.13,0.2-0.2c0.08,0.01,0.16,0.03,0.24,0.04c-0.01,1.18-0.03,2.37-0.04,3.55
			C41.63,39.49,41.43,39.51,41.23,39.52z"/>
		<path class="st71" d="M41.43,36.09c-0.03,0.28,0.09,0.59-0.2,0.8c0-0.46,0-0.92,0-1.41C41.56,35.64,41.38,35.9,41.43,36.09z"/>
		<path class="st79" d="M52,68.19c-0.63,0.08-0.63-0.36-0.57-0.75c0.22-1.38-0.17-2.76,0.1-4.14c0.03-0.15-0.07-0.31-0.11-0.47
			c0-0.33,0-0.67,0-1c-0.05-0.4-0.21-0.8,0-1.2c0-4.35,0.01-8.71,0.01-13.06c0-4.17-0.04-8.35,0-12.52
			c0.02-1.48,0.13-2.96-0.06-4.44c0-0.03,0.16-0.07,0.24-0.11c0.37,0.33,0.37,0.75,0.46,1.21c0.25,1.34,0.06,2.69,0.03,4.01
			c-0.03,1.23,0.03,2.48,0.02,3.71c-0.01,2.51-0.4,5.03,0.03,7.53c0.21,1.2-0.16,2.35-0.12,3.54c0.09,2.83-0.09,5.67,0,8.5
			c0.07,2.35-0.11,4.7-0.01,7.04C52.07,66.76,52.06,67.47,52,68.19z"/>
		<path class="st32" d="M51.42,60.63c-0.09,0.4,0.21,0.8,0,1.2C51.12,61.43,51.12,61.03,51.42,60.63z"/>
		<path class="st80" d="M55.62,67.41c-0.37-0.36-0.19-0.82-0.19-1.23c-0.01-11.96-0.01-23.92-0.01-35.89
			c0.13,0.01,0.27,0.01,0.4,0.02c0.23,0.36,0.2,0.76,0.2,1.16c0,11,0,22,0,33.01c0,0.63-0.02,1.25,0.01,1.88
			C56.04,66.78,55.99,67.15,55.62,67.41z"/>
		<path class="st81" d="M53.22,30.5c0,6.54,0.03,13.08-0.02,19.62c-0.02,2.85-0.06,5.7-0.04,8.54c0.02,2.73-0.16,5.46,0.04,8.19
			c0.03,0.34,0.23,0.84-0.39,0.97c-0.15-1.14,0.03-2.29,0-3.43c-0.08-2.68-0.16-5.37-0.09-8.03c0.12-4.36,0.01-8.71,0.06-13.06
			c0.03-2.71,0.01-5.43-0.04-8.15c-0.03-1.6-0.09-3.22,0.07-4.82c0.07,0,0.13-0.01,0.2-0.01C53.09,30.37,53.15,30.44,53.22,30.5z"/>
		<path class="st40" d="M49.62,30.9c1.01,0.24,0.51,1.13,0.49,1.57c-0.15,3.05-0.01,6.08,0.07,9.13c0.04,1.72-0.18,3.45-0.13,5.18
			c0.09,3.23-0.09,6.45,0.01,9.68c0.09,3.17-0.03,6.34-0.03,9.51c0,0.75,0.23,1.49,0.08,2.24c-0.03,0.17-0.14,0.2-0.28,0.2
			c-0.43-1.33-0.12-2.69-0.18-4.04c-0.12-2.5,0.04-5,0.02-7.5c-0.03-3.64,0.02-7.28,0.04-10.92C49.73,40.93,49.64,35.91,49.62,30.9z
			"/>
		<path class="st82" d="M24.51,59.43c-0.09-2.33-0.09-4.65,0-6.98c0.33,1.8,0.07,3.62,0.13,5.43C24.66,58.39,24.8,58.94,24.51,59.43
			z"/>
		<path class="st65" d="M57.01,66.82c-0.4-1.74,0.08-3.49-0.03-5.23c-0.08-1.24,0.18-2.49-0.14-3.71c-0.13-0.49,0.31-0.97-0.03-1.44
			c-0.25-0.39-0.2-0.83-0.2-1.26c0.05-5.07-0.02-10.15,0.04-15.22c0.03-2.8-0.03-5.62-0.04-8.43c0-0.35-0.13-0.74,0.19-1.03
			c0.34,0.27,0.41,0.63,0.41,1.05c-0.01,11.48-0.01,22.95-0.01,34.43C57.21,66.27,57.29,66.59,57.01,66.82z"/>
		<path class="st83" d="M62.21,32.1c0.56,0.27,0.39,0.79,0.39,1.23c0.01,10.56,0.01,21.13,0.01,31.69
			c-0.01,0.12-0.01,0.24-0.02,0.36c-0.59-0.27-0.37-0.8-0.37-1.23C62.2,53.47,62.21,42.78,62.21,32.1z"/>
		<path class="st84" d="M30.25,48.46c-0.13-0.02-0.27-0.05-0.27-0.22c0.02-1.51,0.05-3.03,0.07-4.54c0-0.35,0.04-0.66,0.4-0.83
			c0,1.48,0,2.96,0,4.44C30.45,47.7,30.47,48.1,30.25,48.46z"/>
		<path class="st85" d="M31.05,44.27c-0.12,1.33,0.25,2.68-0.2,3.99C30.97,46.93,30.6,45.58,31.05,44.27z"/>
	</g>
</g>
</svg>
