<?xml version="1.0" encoding="utf-8"?>
<!-- Generator: Adobe Illustrator 25.4.1, SVG Export Plug-In . SVG Version: 6.00 Build 0)  -->
<svg version="1.1" id="Layer_1" xmlns="http://www.w3.org/2000/svg" xmlns:xlink="http://www.w3.org/1999/xlink" x="0px" y="0px"
	 viewBox="0 0 200 100" style="enable-background:new 0 0 200 100;" xml:space="preserve">
<style type="text/css">
	.st0{fill:#D6242B;}
	.st1{fill:#CD0744;}
</style>
<g>
	<path class="st0" d="M46.85,42.91c-0.7,0.76-1.35,1.54-2.08,2.25c-1.78,1.75-1.39,3.99-1.44,6.13c-0.01,0.34,0.3,0.33,0.55,0.35
		c1.71,0.15,3.33,0,4.72-1.19c0.31-0.27,0.44-0.51,0.43-0.89c-0.01-0.62,0-1.25,0-1.89c0.18,0.04,0.26,0.03,0.3,0.07
		c1.1,1.03,1.1,1.03,2.25-0.04c0.86-0.8,1.75-1.57,2.86-2.03C56.46,44.83,58,45.81,58.1,48c0.06,1.35-0.36,2.53-1.29,3.5
		c-1.06,1.1-2.18,2.15-3.4,3.07c-1.66,1.25-3.47,0.66-4.09-1.35c-0.18-0.56-0.25-1.16-0.4-1.85c-0.89,0.5-1.43,1.33-2.19,1.86
		c-2.73,1.92-3.98,4.4-3.46,7.81c0.25,1.63,0.1,3.33-0.1,5c-0.16,1.33-0.71,2.45-1.69,3.35c-1.59,1.47-3.2,2.93-4.78,4.42
		c-0.44,0.41-0.91,0.5-1.54,0.38c0.13-0.5,0.52-0.76,0.86-1c2.25-1.58,3.08-3.7,2.91-6.44c-0.19-2.94-0.05-5.9-0.05-8.85
		c0-1.39,0-1.44-1.45-1.45c-3.34-0.03-6.69,0-10.03,0.01c-1.96,0-3.91,0.04-5.87,0.01c-4.55-0.06-7.27-2.36-8.1-6.85
		c-0.45-2.42-0.37-4.87-0.36-7.32c0.01-1.89,0.01-3.77-1.6-5.2c1.64-0.39,2.15-0.11,2.5,1.41c0.48,2.06,0.28,4.15,0.22,6.24
		c-0.05,1.59-0.04,3.2,0.74,4.66c0.73,1.36,1.87,2.19,3.41,2.2c6.62,0.04,13.24,0.02,19.86,0.04c0.47,0,0.75-0.16,0.83-0.62
		c0.35-2.05,1.61-3.51,3.12-4.82c1.1-0.95,2.18-1.94,3.26-2.92C45.84,42.89,46.32,42.68,46.85,42.91z M55.24,51.13
		c-0.06-0.9-0.34-1.7-1.24-2.07c-0.9-0.38-1.75-0.03-2.57,0.33c-0.38,0.17-0.11,0.42,0.02,0.6c0.62,0.84,1.35,1.57,2.27,2.06
		C54.68,52.56,55.25,52.19,55.24,51.13z"/>
	<path class="st0" d="M93.6,62.32c-1.42,0-2.84-0.01-4.25,0c-0.71,0-1.17-0.36-1.35-0.99c-0.2-0.68-0.38-1.38-0.41-2.08
		c-0.06-1.24-0.08-2.48-0.07-3.72c0.03-6.31-0.13-4.83-0.05-8.97c0.01-0.25,0.02-0.89-0.3-1.61c-0.28-0.64-0.71-1.07-0.99-1.31
		c3.59-0.36,4.54,0.09,5.91,2.83c1.15-1.82,2.48-3.07,4.92-3.02c2.44,0.05,3.73,1.41,4.94,3.23c0.09-0.14,2.32-3.43,5.67-3.13
		c0.36,0.03,1.89,0.2,3.08,1.38c0.97,0.96,1.43,2.34,1.44,3.91c0.02,3.09,0.02,6.19-0.02,9.28c-0.02,1.58,0.46,2.92,1.62,4.1
		c-1.62,0.06-3.19,0.32-4.76,0c-1.08-0.22-1.29-1.12-1.37-2.04c-0.27-3.05-0.1-6.12-0.14-9.17c-0.01-0.64,0.01-1.29-0.07-1.92
		c-0.19-1.49-1.27-2.49-2.61-2.47c-1.47,0.02-2.68,1.08-2.7,2.6c-0.05,3.2,0,6.4,0.03,9.6c0.01,1.35,0.8,2.36,1.85,3.51
		c-1.74,0-3.19,0.04-4.63-0.01c-0.84-0.03-1.35-0.55-1.55-1.38c-0.19-0.77-0.24-1.55-0.24-2.33c0-2.78,0-5.55,0-8.33
		c0-0.57-0.01-1.14-0.17-1.69c-0.35-1.2-1.45-2.04-2.6-1.98c-1.35,0.07-2.42,0.94-2.63,2.21c-0.09,0.52-0.09,1.06-0.09,1.59
		c0,1.99,0.05,3.98,0.02,5.98c-0.04,2.09-0.06,4.15,1.72,5.73C93.72,62.18,93.66,62.25,93.6,62.32z"/>
	<path class="st0" d="M16.78,42.95c1.96,1.42,3.02,1.38,4.59-0.23c2.11-2.16,4.13-4.41,6.24-6.57c0.63-0.64,0.59-1.04-0.08-1.6
		c-1.39-1.16-2.73-2.39-4.27-3.36c-1.44-0.91-2.52-0.5-2.97,1.15c-0.46,1.68-0.26,3.39-0.15,5.09c0.03,0.49,0.08,0.99,0.13,1.51
		c-3.25-1.96-4.87-4.99-1.64-7.81c1.01-0.89,2.2-1.46,3.53-1.63c3.18-0.41,6.25-0.25,8.89,1.94c0.71,0.58,0.97,0.43,0.99-0.49
		c0.03-1.42,0-2.85,0-4.27c0-0.29-0.07-0.54-0.27-0.78c-2.66-3.16-1.31-4.24,0.62-6.09c0.2-0.19,0.44-0.35,0.81-0.64
		c0.29,2.25,1.82,3.67,3.01,5.31c0.91,1.25-0.08,3.71-1.59,4.03c-0.28,0.06-0.36-0.15-0.49-0.3c-0.23-0.25-0.33-0.64-0.75-0.72
		c-0.23,0.28-0.1,0.61-0.11,0.91c-0.02,0.85,0.01,1.71-0.02,2.56c-0.04,1.29,0.3,2.8,0.95,3.96c1.51,2.69,1.39,5.6,1.14,8.52
		c-0.05,0.54-0.39,0.99-0.76,1.38c-0.56,0.6-1.12,1.19-1.66,1.81c-1.3,1.47-2.83,2.23-4.88,2.12c-2.55-0.14-5.12-0.03-7.68-0.03
		c-2.63-0.01-3.32-0.62-3.65-3.2C16.61,44.69,16.69,43.89,16.78,42.95z M28.82,44.25c0.53,0,1.07,0,1.6,0c0.57,0,1.14,0.01,1.7-0.01
		c2-0.07,2.54-1.02,1.54-2.76c-1.03-1.8-2.48-3.28-3.85-4.81c-0.36-0.4-0.63-0.34-0.96-0.01c-0.3,0.3-0.61,0.59-0.91,0.89
		c-1.91,1.95-3.81,3.91-5.73,5.86c-0.24,0.24-0.74,0.36-0.56,0.76c0.14,0.3,0.64,0.37,0.96,0.31C24.67,44.1,26.75,44.32,28.82,44.25
		z"/>
	<path class="st0" d="M81.36,49.91c-2.41-1.06-4.65-0.78-6.88-0.81c-0.75-0.01-1.07,0.17-1.05,1.01c0.06,2.28,0.01,4.55,0.02,6.83
		c0.02,2.32,0.54,2.84,2.82,2.84c1.81,0,3.63,0.13,5.44-0.14c1.18-0.18,2.29-0.47,3.21-1.31c0.43,1.79-0.43,3.32-2.12,3.82
		c-0.97,0.29-1.97,0.31-2.96,0.27c-2.78-0.09-5.55-0.07-8.32-0.02c-2.53,0.04-3.13-0.48-3.18-3c-0.11-4.8-0.1-9.6-0.19-14.4
		c-0.06-3.48-0.13-3.6-1.74-6.1c0.2-0.31,0.51-0.17,0.77-0.17c3.45-0.01,6.9-0.01,10.36-0.01c1.54,0,3.06,0.14,4.48,0.79
		c1.37,0.62,2.28,1.63,2.69,3.23c-1.2-0.19-2.09-0.96-3.2-1.14c-2.62-0.43-5.25-0.27-7.88-0.31c-0.42-0.01-0.7,0.13-0.51,0.64
		c0.47,1.26,0.32,2.59,0.32,3.89c0,0.66,0.23,0.89,0.85,0.89c0.85,0,1.71-0.03,2.56,0.06C78.77,46.97,80.21,47.94,81.36,49.91z"/>
	<path class="st0" d="M138.14,47.94c0-0.65,0-1,0-1.36c0-2,0.1-2.18,2.02-2.73c2.13-0.61,4.22-0.58,6.18,0.62
		c1.43,0.88,2.26,2.11,2.25,3.85c-0.02,3.02,0.03,6.05-0.03,9.07c-0.03,1.59,0.19,3.04,1.3,4.25c0.12,0.14,0.33,0.29,0.19,0.66
		c-1.36,0-2.77,0.04-4.18-0.01c-1.14-0.04-1.43-1.02-1.81-2c-0.97,1.39-2.23,2.07-3.85,2.03c-1.88-0.05-3.57-0.56-4.5-2.32
		c-0.97-1.85-0.68-3.73,0.39-5.48c0.67-1.09,1.72-1.79,2.83-2.38c1-0.53,2.05-0.99,3.08-1.47c0.55-0.26,1.08-0.54,1.53-0.96
		c0.91-0.85,1.18-2.05,0.68-2.99c-0.5-0.93-1.68-1.42-2.86-1.18C140.04,45.84,139.11,46.69,138.14,47.94z M144,51.37
		c-1.11,0.79-2.07,1.39-2.94,2.09c-1.26,1.02-1.86,2.38-1.85,4c0.01,2.26,2.04,3.41,4,2.28c0.48-0.28,0.82-0.57,0.81-1.23
		C143.97,56.21,144,53.91,144,51.37z"/>
	<path class="st1" d="M9.22,52.43c1.85-0.3,2.28-0.04,2.65,1.62c0.34,1.54,0.24,3.11,0.26,4.68c0.02,1.73-0.15,3.47,0.25,5.18
		c0.99,4.25,4.84,6.86,8.65,6.94c3.31,0.07,6.62,0.05,9.93,0.02c1.59-0.02,2.73-0.85,3.13-2.12c0.42-1.32,0.06-2.42-1.26-3.43
		c-1.02-0.78-1.53-1.67-1.4-3c0.11-1.23,0.03-2.49,0.04-3.73c0-0.06,0.05-0.12,0.14-0.3c1.81,1.6,3.7,3.05,3.63,5.79
		c-0.03,1.03-0.01,2.06-0.04,3.09c-0.03,1.36-0.44,2.59-1.35,3.62c-0.56,0.64-1.12,1.29-1.69,1.92c-1.85,2.04-4.11,3.1-6.92,2.92
		c-1.03-0.07-2.07-0.09-3.09-0.04c-6.35,0.34-11.15-4.95-11.12-10.59c0.02-2.77-0.09-5.54-0.13-8.31
		C10.87,55.06,10.63,53.54,9.22,52.43z"/>
	<path class="st0" d="M175.53,58.04c0.04,0.47,0.07,0.71,0.09,0.96c0.19,2.31,0.12,2.4-2.18,3.01c-6.52,1.74-11.81-2.83-11.25-9.7
		c0.18-2.21,0.73-4.29,2.14-6.04c1.84-2.28,4.21-3.18,7.15-2.65c1.48,0.26,2.76,0.69,3.65,2c1.05,1.55,0.9,3.08-0.01,4.59
		c-0.76,1.25-1.92,2.08-3.16,2.8c-1.11,0.64-2.25,1.23-3.34,1.89c-1.12,0.68-1.26,1.17-0.78,2.4c1.22,3.17,4.83,3.85,7.14,1.34
		C175.11,58.51,175.24,58.35,175.53,58.04z M167.19,53.66c1.25-0.77,2.32-1.51,3.16-2.52c1.08-1.31,1.52-2.83,1.44-4.55
		c-0.05-0.97-0.59-1.45-1.38-1.62c-0.82-0.17-1.58,0.03-2.06,0.89C167,48.28,167.14,50.89,167.19,53.66z"/>
	<path class="st0" d="M46.65,55.64c2.18,1.71,3.74,3.4,3.79,6.01c0.06,3.06,0.16,6.12-0.15,9.16c-0.5,4.84-4.41,8.55-9.59,9.26
		c-5.06,0.7-6.89-0.01-10.16-3.94c-0.04-0.04-0.03-0.13-0.07-0.32c0.93,0,1.83,0,2.73,0c2.1-0.01,4.19,0.13,6.29-0.15
		c1.22-0.16,2.38-0.47,3.41-1.13c2.68-1.73,4.78-4.03,6.2-6.89c0.89-1.78,0.7-3.28-0.79-4.54c-1.42-1.21-1.78-2.62-1.67-4.34
		C46.7,57.81,46.65,56.86,46.65,55.64z"/>
	<path class="st0" d="M177.85,57.85c0.44,0.52,0.66,0.78,0.88,1.05c1.17,1.39,2.87,1.75,4.52,0.95c2.14-1.04,2.44-3.33,0.56-4.78
		c-1.21-0.93-2.54-1.7-3.79-2.56c-1.16-0.8-1.89-1.88-2.2-3.27c-0.77-3.48,2.32-5.97,5.3-5.81c1.44,0.08,2.78,0.26,4.07,0.95
		c0.68,0.36,0.95,0.74,0.86,1.48c-0.07,0.59-0.01,1.18-0.01,2.11c-0.99-1.53-2.09-2.36-3.64-2.51c-0.97-0.1-2.15,0.31-2.46,1
		c-0.47,1.04,0,1.82,0.78,2.41c0.85,0.64,1.78,1.17,2.67,1.74c0.96,0.61,1.92,1.23,2.62,2.16c2.71,3.58,0.65,8.46-3.95,9.39
		c-2.05,0.42-3.94-0.02-5.79-0.87c-0.3-0.14-0.43-0.32-0.42-0.65C177.86,59.8,177.85,58.99,177.85,57.85z"/>
	<path class="st0" d="M131.17,62.29c-1.41,0-2.82,0.03-4.23-0.01c-1.14-0.03-1.46-0.88-1.6-1.81c-0.39-2.54-0.32-5.1-0.31-7.66
		c0-1.78,0.07-3.55,0.03-5.33c-0.03-1.42-0.18-2.83-1.39-3.89c3.67-0.66,4.65-0.17,5.95,2.92c1.61-2.6,3.1-3.43,5.04-2.8
		c1.26,0.41,1.54,1.27,1.3,4.06c-0.39,0.14-0.55-0.23-0.81-0.38c-1.33-0.8-2.69-0.87-4.06-0.16c-1.24,0.64-1.51,1.77-1.48,3.06
		c0.03,2.1,0.04,4.19,0,6.29c-0.04,2.02-0.09,4.02,1.74,5.49C131.3,62.16,131.24,62.23,131.17,62.29z"/>
	<path class="st0" d="M35.17,48.25c0.56-0.83,1.26-1.32,1.91-1.86c1.26-1.05,1.85-2.33,1.83-4c-0.06-4.34,0.03-8.68-0.04-13.02
		c-0.04-2.75,0.8-4.98,3.05-6.68c1.22-0.92,2.27-2.04,3.38-3.1c0.48-0.46,0.99-0.64,1.8-0.39c-0.52,0.49-0.95,0.94-1.43,1.32
		c-1.62,1.29-2.36,2.97-2.35,5.02c0.01,4.13-0.06,8.26,0.02,12.38c0.05,2.85-0.98,5.11-3.12,6.93c-1.19,1.02-2.36,2.06-3.5,3.12
		C36.29,48.37,35.83,48.35,35.17,48.25z"/>
	<path class="st0" d="M114.62,43.59c1.42-0.12,2.52-0.16,3.61-0.01c1.14,0.15,1.88,0.78,2.2,1.89c0.34,1.18,0.35,2.39,0.34,3.6
		c-0.01,2.24-0.04,4.48-0.04,6.72c0,2.26-0.3,4.6,1.87,6.49c-1.82,0-3.33,0.02-4.83-0.01c-0.6-0.01-0.96-0.4-1.16-0.95
		c-0.32-0.88-0.44-1.79-0.44-2.72c0.01-3.24,0-6.47,0-9.71C116.17,47.04,116.38,45.15,114.62,43.59z"/>
	<path class="st0" d="M29.18,62.77c-0.07,0.17-0.15,0.49-0.33,0.75c-0.34,0.5-0.7,0.99-1.11,1.43c-1.67,1.78-1.69,1.78-2.87-0.29
		c-0.47-0.82-1.27-1.33-1.88-2.01c-0.44-0.49-0.42-0.77,0.06-1.2c0.82-0.74,1.59-1.53,2.34-2.34c0.38-0.41,0.65-0.39,1.05-0.04
		c0.84,0.73,1.63,1.48,2.27,2.4C28.95,61.81,29.15,62.19,29.18,62.77z"/>
	<path class="st0" d="M18.78,66.44c-0.77-1.45-1.68-2.82-2.97-3.9c-0.39-0.32-0.34-0.62,0.02-0.96c0.88-0.83,1.75-1.67,2.59-2.53
		c0.35-0.37,0.64-0.38,0.97-0.03c0.73,0.78,1.5,1.52,2.16,2.35c0.76,0.95,0.64,1.77-0.13,2.67C20.64,64.94,19.94,65.9,18.78,66.44z"
		/>
	<path class="st0" d="M116.15,39.72c-0.01-1.26,1-2.25,2.32-2.28c1.25-0.03,2.23,0.98,2.25,2.33c0.02,1.29-0.94,2.24-2.3,2.26
		C117.16,42.05,116.15,41.03,116.15,39.72z"/>
	<path class="st0" d="M162.06,45.02c-0.13,0.33,0.27,1.03-0.21,1.13c-0.7,0.15-0.84-0.59-1.01-1.12c-0.04-0.13-0.11-0.26-0.14-0.4
		c-0.08-0.33-0.42-0.73-0.12-0.99c0.32-0.27,0.84-0.19,1.23-0.06c0.45,0.15,0.19,0.61,0.25,0.93
		C162.08,44.66,162.06,44.8,162.06,45.02z"/>
	<path class="st0" d="M162.14,43.47h-4.1c-0.02-1.04-0.22-2.08-0.14-3.11c0.02-0.23,0.15-0.56-0.28-0.81
		c-1.59,2.83-4.39,4.26-7.02,5.9c0.48,0.14,0.91,0.22,1.32,0.17c1.06-0.11,1.46,0.24,1.43,1.38c-0.08,3.41-0.04,6.82-0.04,10.23
		c0,0.99-0.02,2,0.07,2.98c0.13,1.33,0.64,1.83,1.93,2c1.37,0.19,2.74,0.07,4.22-0.04c-1.73-1.44-1.67-3.36-1.67-5.26
		c0-1.79-0.17-4.33,0.03-9.38c0.02-0.58,0.04-1.05,0.06-1.36c1.4,0,2.8,0,4.19,0V43.47z"/>
</g>
</svg>
