<?xml version="1.0" encoding="utf-8"?>
<!-- Generator: Adobe Illustrator 25.4.1, SVG Export Plug-In . SVG Version: 6.00 Build 0)  -->
<svg version="1.1" id="Layer_1" xmlns="http://www.w3.org/2000/svg" xmlns:xlink="http://www.w3.org/1999/xlink" x="0px" y="0px"
	 viewBox="0 0 200 100" style="enable-background:new 0 0 200 100;" xml:space="preserve">
<style type="text/css">
	.st0{fill:#BD8C16;}
	.st1{fill:#BD8B15;}
	.st2{fill:#FEFEFD;}
</style>
<g>
	<path class="st0" d="M163.77,58.3c3.32,0.07,7.35-0.13,11.37,0.14c3.33,0.22,6.55,0.82,9.37,2.78c2.55,1.78,4.3,3.99,4.94,7.17
		c0.7,3.48-0.38,6.19-2.88,8.45c-2.68,2.42-5.93,3.6-9.49,3.91c-5.75,0.49-11.51,0.18-17.27,0.25c-1.39,0.02-2.79,0.01-4.18,0
		c-0.2,0-0.5,0.11-0.53-0.26c-0.02-0.24-0.04-0.51,0.25-0.58c0.66-0.18,0.58-0.68,0.58-1.17c0-4.91,0.01-9.81-0.02-14.72
		c0-0.65,0.18-0.84,0.82-0.82c1.29,0.05,2.58,0.04,3.87,0c0.59-0.02,0.73,0.17,0.73,0.74c-0.02,4.21,0.01,8.42-0.03,12.62
		c-0.01,0.74,0.18,0.96,0.93,0.95c3.87-0.07,7.75,0.09,11.62-0.11c2.59-0.14,5.05-0.71,7.19-2.29c3.33-2.45,3.83-6.98,1.05-10.05
		c-1.74-1.93-3.99-2.85-6.54-3.15c-1.49-0.18-2.99-0.23-4.48-0.23c-5.91-0.01-11.83,0-17.74,0c-1.2,0-0.99,0.09-1.01-1.05
		c0-0.26-0.02-0.52,0-0.77c0.04-0.4-0.06-0.71-0.47-0.86c-0.33-0.12-0.39-0.38-0.34-0.69c0.07-0.41,0.4-0.24,0.62-0.24
		C155.78,58.3,159.42,58.3,163.77,58.3z"/>
	<path class="st1" d="M92.9,70.58c0.85-1.06,1.69-2,2.4-3.02c0.57-0.83,1.22-1.12,2.23-1.1c4.18,0.06,8.36,0.02,12.55,0.04
		c0.56,0,0.76-0.12,0.75-0.72c-0.04-1.75-0.01-3.51-0.02-5.27c0-0.69,0.21-1.48-0.84-1.6c0.14-0.34,0.35-0.25,0.51-0.25
		c2.01-0.01,4.03-0.01,6.04,0c0.23,0,0.55-0.13,0.64,0.25c0.09,0.37-0.09,0.59-0.44,0.68c-0.49,0.12-0.51,0.48-0.51,0.9
		c0.01,3.48,0,6.97,0.02,10.45c0,0.5-0.14,0.86-0.48,1.23c-1.64,1.74-3.24,3.51-5.02,5.45c0-1.17,0-2.14,0-3.1
		c0-1.16-0.01-2.32,0-3.48c0-0.39-0.04-0.63-0.53-0.63c-4.98,0.01-9.97,0.01-14.95,0.01c-0.56,0-1.05,0.51-1.52,0.48
		c-1.31-0.07-1,0.79-1,1.49c-0.01,2.35,0.01,4.7-0.01,7.05c0,0.51,0.07,0.91,0.6,1.1c0.31,0.11,0.42,0.36,0.36,0.68
		c-0.07,0.4-0.39,0.26-0.62,0.26c-2.04,0.01-4.08,0.01-6.12,0c-0.23,0-0.56,0.15-0.67-0.2c-0.1-0.32-0.02-0.62,0.33-0.77
		c0.42-0.19,0.47-0.53,0.47-0.95c-0.01-6.48-0.01-12.96,0-19.44c0-0.46-0.09-0.8-0.52-1c-0.32-0.15-0.35-0.44-0.28-0.72
		c0.08-0.32,0.38-0.21,0.59-0.21c2.07-0.01,4.13-0.01,6.2,0c0.23,0,0.55-0.12,0.63,0.27c0.07,0.32-0.06,0.55-0.35,0.7
		c-0.35,0.18-0.52,0.42-0.52,0.85c0.02,3.41,0.01,6.81,0.01,10.22C92.82,70.29,92.85,70.36,92.9,70.58z"/>
	<path class="st1" d="M37.78,57.97c-1.13,1.39-2.24,2.79-3.4,4.16c-0.23,0.27-0.64,0.38-0.61-0.25c0.01-0.3-0.08-0.46-0.37-0.45
		c-3.81,0.11-7.68-0.5-11.43,0.36c-3.44,0.79-5.82,3.02-6.52,6.59c-0.48,2.43,0.39,4.53,2.31,6.14c1.82,1.53,3.96,2.26,6.29,2.53
		c2.08,0.25,4.17,0.21,6.26,0.21c4.52,0.01,9.04,0,13.56,0.01c0.5,0,0.98-0.05,1.41-0.33c0.49-0.31,1.01-0.29,1.66-0.19
		c-1.22,1.37-2.37,2.68-3.53,3.99c-0.16,0.18-0.37,0.15-0.57,0.15c-6.53-0.07-13.07,0.21-19.59-0.16c-4-0.23-7.6-1.6-10.55-4.42
		c-4.01-3.84-4.04-9.87-0.02-13.71c2.08-1.99,4.6-3.28,7.34-4.16c1.5-0.48,3.03-0.59,4.58-0.6c4.23-0.02,8.47-0.01,12.7-0.01
		C37.43,57.83,37.59,57.77,37.78,57.97z"/>
	<path class="st1" d="M115.74,27.21c0,5.62-0.01,10.98,0.01,16.35c0,0.56-0.23,0.61-0.69,0.61c-2.04-0.02-4.08,0.02-6.12-0.02
		c-0.7-0.02-0.82,0.2-0.69,0.83c0.18,0.87,0.37,1.71,1.07,2.37c-0.65,0.39-1.29,0.7-2.04,0.63c-1.27-0.12-2.08-0.99-2.27-2.35
		c-0.08-0.55,0.18-1.3-0.23-1.62c-0.42-0.34-1.14-0.1-1.73-0.1c-5.91-0.01-11.83-0.01-17.74,0.01c-0.61,0-0.77-0.16-0.77-0.77
		c0.02-5.7,0-11.41,0.03-17.11c0-0.93-0.21-1.56-1.18-1.9c-0.94-0.34-1-1.15-0.23-1.74c1.58-1.21,2.95-2.64,4.37-4.34
		c0,0.45,0,0.71,0,0.98c0,6.89,0.01,13.78-0.02,20.68c0,0.68,0.17,0.86,0.85,0.86c5.24-0.03,10.48-0.03,15.72,0
		c0.7,0,0.87-0.2,0.84-0.87c-0.04-1-0.5-1.64-1.41-2.01c-0.76-0.3-1.56-0.35-2.36-0.35c-1.96-0.01-3.92,0-5.89-0.01
		c-1,0-1.52-0.39-1.89-1.39c-0.36-0.95-0.19-1.96,0.43-2.51c0.09-0.08,0.2-0.38,0.4-0.07c0.58,0.89,1.54,0.96,2.46,1.07
		c1.9,0.24,3.82,0.13,5.73,0.13c3.66,0.01,5.29,1.48,5.62,5.12c0.13,1.37,0.13,1.37,1.53,1.37c0.88,0,1.76-0.02,2.63,0.01
		c0.43,0.01,0.58-0.14,0.58-0.58c-0.02-2.04-0.01-4.08,0-6.12c0-0.49-0.23-0.83-0.61-1.09c-0.23-0.16-0.49-0.3-0.68-0.5
		c-0.37-0.37-0.51-0.68,0.06-1.1C113.12,30.48,114.52,29.08,115.74,27.21z"/>
	<path class="st1" d="M37.22,62.2c1.07-1.34,2.1-2.63,3.13-3.91c0.17-0.22,0.4-0.2,0.63-0.2c11.29,0,22.57,0,33.86,0.01
		c0.05,0,0.1,0.02,0.27,0.06c-0.5,0.63-0.97,1.22-1.45,1.81c-0.6,0.74-1.19,1.49-1.81,2.22c-0.43,0.51-0.78,0.45-0.97-0.18
		c-0.09-0.31-0.28-0.32-0.52-0.32c-3.72,0-7.44,0.01-11.16-0.01c-0.63,0-0.46,0.42-0.46,0.74c-0.01,4.42,0,8.83,0,13.25
		c0,1.06,0.02,2.12-0.01,3.18c-0.01,0.48,0.05,0.87,0.53,1.08c0.31,0.14,0.39,0.39,0.33,0.7c-0.07,0.41-0.4,0.25-0.62,0.25
		c-2.07,0.01-4.13,0.01-6.2,0c-0.21,0-0.51,0.14-0.59-0.19c-0.09-0.32-0.03-0.62,0.32-0.78c0.42-0.19,0.48-0.53,0.48-0.95
		c-0.01-5.58-0.01-11.15,0-16.73c0-0.52-0.1-0.71-0.67-0.7c-4.05,0.02-8.11,0.02-12.16,0c-0.59,0-1.03,0.3-1.5,0.54
		C38.24,62.28,37.83,62.48,37.22,62.2z"/>
	<path class="st1" d="M118.55,18.48c1.08,1.8,2.22,3.36,3.75,4.59c0.58,0.47,0.07,0.89-0.24,1.02c-0.88,0.38-0.92,1.05-0.92,1.84
		c0.02,3.98,0.02,7.95,0,11.93c0,0.48,0.13,0.82,0.47,1.15c0.81,0.79,1.6,1.61,2.37,2.45c0.28,0.31,0.46,0.38,0.79,0.04
		c0.84-0.91,1.71-1.8,2.58-2.67c0.25-0.25,0.29-0.51,0.29-0.84c-0.01-4.1-0.01-8.21,0-12.31c0-0.7-0.21-1.22-0.92-1.53
		c-0.65-0.28-0.67-0.72-0.12-1.16c0.75-0.6,1.43-1.27,2-2.04c0.55-0.74,1.05-1.52,1.59-2.3c0.2,0.14,0.08,0.36,0.08,0.54
		c0.01,6.74,0,13.48,0.02,20.21c0,0.51-0.16,0.87-0.51,1.22c-0.99,1.01-1.94,2.08-2.94,3.08c-0.37,0.37-0.33,0.58,0.03,0.91
		c0.81,0.76,1.56,1.58,2.37,2.34c0.32,0.3,0.41,0.49,0.04,0.85c-1.52,1.47-3.01,2.98-4.49,4.49c-0.32,0.32-0.5,0.29-0.8-0.01
		c-1.48-1.51-2.98-3.01-4.49-4.49c-0.31-0.3-0.34-0.47,0-0.77c0.8-0.69,1.54-1.46,2.35-2.14c0.47-0.39,0.4-0.62,0-1.02
		c-1.02-0.99-1.98-2.04-2.98-3.05c-0.25-0.26-0.37-0.51-0.37-0.88c0.01-7.02,0.01-14.04,0.01-21.06
		C118.51,18.79,118.53,18.72,118.55,18.48z M126.36,47.38c-0.05-0.07-0.09-0.14-0.14-0.2c-0.58-0.59-1.17-1.16-1.75-1.75
		c-0.18-0.18-0.3-0.11-0.45,0.04c-0.54,0.55-1.09,1.1-1.64,1.64c-0.22,0.21-0.2,0.37,0.01,0.57c0.54,0.52,1.07,1.05,1.58,1.59
		c0.2,0.21,0.35,0.24,0.57,0.01c0.53-0.56,1.09-1.1,1.63-1.65C126.25,47.56,126.3,47.47,126.36,47.38z"/>
	<path class="st0" d="M60.69,27.05c1.14,1.32,2.22,2.41,3.42,3.38c0.55,0.44-0.1,0.88-0.46,1.23c-0.2,0.19-0.54,0.17-0.66,0.49
		c-0.31,0.85,0.02,1.34,0.93,1.34c4.83,0,9.66,0,14.49,0c1.66,0,2.4,0.66,2.42,2.31c0.04,3.54,0.05,7.07,0,10.61
		c-0.02,1.31-0.87,2.15-2.04,2.57c-2.15,0.77-4.32,0.63-6.42-0.23c-0.74-0.3-1.36-0.84-1.43-1.69c-0.03-0.42,0.18-0.85,0.18-1.31
		c-0.02-1.45-0.01-1.45-1.46-1.45c-2.74,0-5.48-0.02-8.21,0.01c-0.62,0.01-0.81-0.18-0.76-0.78c0.05-0.67,0.03-1.34,0.01-2.01
		c-0.01-0.38,0.13-0.49,0.49-0.49c4.08,0.01,8.16,0.01,12.24,0c0.39,0,0.47,0.16,0.47,0.51c-0.02,1.11,0.01,2.22-0.01,3.33
		c-0.02,0.7,0.31,1.11,0.94,1.35c0.59,0.22,1.21,0.26,1.83,0.17c0.76-0.11,1.16-0.68,1.17-1.66c0.02-1.63,0.01-3.25,0.01-4.88
		c0-0.75,0.01-1.5,0-2.25c-0.02-1.06-0.3-1.33-1.35-1.33c-4.93,0-9.87,0-14.8,0c-1.11,0-0.97,0.13-0.98-1
		C60.69,32.59,60.69,29.93,60.69,27.05z"/>
	<path class="st1" d="M136.1,69.12c-2.33-2.38-4.52-4.65-6.74-6.87c-0.45-0.45-0.49-0.7-0.01-1.14c0.78-0.72,1.5-1.5,2.2-2.29
		c0.38-0.42,0.59-0.46,1.01-0.01c5.26,5.62,10.54,11.21,15.81,16.81c1.71,1.82,3.43,3.64,5.15,5.46c-0.18,0.25-0.41,0.14-0.59,0.14
		c-2.19,0.01-4.39,0.01-6.58,0c-0.23,0-0.6,0.21-0.7-0.22c-0.13-0.51,0.43-0.29,0.62-0.56c-1.2-1.31-2.4-2.62-3.6-3.92
		c-1.03-1.12-2.08-2.23-3.1-3.36c-0.28-0.31-0.56-0.46-1-0.46c-3.3,0.02-6.61,0.01-9.91,0c-0.38,0-0.72,0.05-1.01,0.29
		c-0.37,0.31-0.65,0.06-0.88-0.16c-0.32-0.31,0.1-0.44,0.24-0.59c0.83-0.92,1.69-1.81,2.52-2.73c0.26-0.29,0.54-0.41,0.94-0.4
		C132.28,69.13,134.1,69.12,136.1,69.12z"/>
	<path class="st0" d="M80.33,81.1c-1.01,0-2.01,0.01-3.02,0c-0.21,0-0.5,0.1-0.55-0.25c-0.04-0.28,0.02-0.52,0.34-0.59
		c0.57-0.14,0.64-0.53,0.64-1.05c-0.01-6.3-0.02-12.59,0-18.89c0-0.56-0.17-0.95-0.64-1.2c-0.33-0.18-0.54-0.41-0.44-0.8
		c0.11-0.4,0.47-0.23,0.71-0.23c1.94-0.02,3.87-0.01,5.81,0c0.22,0,0.55-0.16,0.63,0.24c0.06,0.3,0,0.57-0.32,0.71
		c-0.34,0.16-0.37,0.44-0.37,0.77c0.01,6.53,0.01,13.06,0,19.59c0,0.36,0.02,0.67,0.43,0.8c0.31,0.1,0.46,0.31,0.4,0.65
		c-0.08,0.46-0.45,0.25-0.68,0.26C82.29,81.11,81.31,81.1,80.33,81.1z"/>
	<path class="st0" d="M117.02,80.11c0.31,0.01,0.47,0.04,0.62,0.03c0.3-0.02,0.4,0.11,0.41,0.4c0.01,0.33-0.1,0.46-0.44,0.46
		c-2.55-0.01-5.1,0-7.65,0c-0.05-0.31,0.17-0.41,0.3-0.54c5.6-5.83,11.21-11.65,16.79-17.49c0.49-0.51,0.73-0.5,1.15,0.04
		c0.62,0.79,1.3,1.54,2.01,2.25c0.4,0.4,0.32,0.62-0.03,0.99c-4.16,4.35-8.3,8.71-12.44,13.07
		C117.52,79.54,117.33,79.77,117.02,80.11z"/>
	<path class="st0" d="M42.34,66.7c-1.23,1.51-2.35,2.89-3.46,4.27c-0.2,0.25-0.47,0.18-0.71,0.17c-0.35-0.01-0.23-0.28-0.21-0.46
		c0.02-0.31-0.18-0.33-0.39-0.34c-0.23-0.01-0.46-0.01-0.7-0.01c-6.6,0-13.21,0-19.81,0c-0.28,0-0.56,0-1.01,0
		c0.81-1.22,1.56-2.34,2.31-3.46c0.14-0.21,0.36-0.16,0.56-0.16C26.66,66.7,34.4,66.7,42.34,66.7z"/>
	<path class="st1" d="M134.12,18.52c1.25,1.83,2.72,3.09,4.44,4.08c0.5,0.29,0.47,1.18-0.17,1.43c-1.18,0.45-1.16,1.32-1.15,2.31
		c0.04,5.73,0.04,11.46,0.08,17.19c0,0.54-0.16,0.67-0.65,0.64c-0.62-0.03-1.24-0.04-1.86,0c-0.54,0.04-0.71-0.15-0.7-0.69
		c0.03-2.01,0.01-4.03,0.01-6.04c0-5.96,0-11.92,0-17.88C134.12,19.28,134.12,19.01,134.12,18.52z"/>
	<path class="st0" d="M108.33,26.36c-0.11-0.09-0.22-0.16-0.31-0.25c-0.6-0.6-1.2-1.21-1.81-1.8c-0.24-0.23-0.25-0.38,0-0.62
		c0.6-0.57,1.19-1.15,1.75-1.75c0.29-0.31,0.48-0.25,0.74,0.03c0.49,0.53,1.03,1.01,1.52,1.54c0.28,0.31,0.47,0.29,0.74-0.01
		c0.49-0.53,1.02-1.02,1.52-1.54c0.25-0.27,0.44-0.35,0.74-0.04c0.6,0.63,1.23,1.24,1.88,1.83c0.22,0.2,0.1,0.29-0.03,0.42
		c-0.65,0.66-1.32,1.3-1.96,1.98c-0.25,0.26-0.38,0.12-0.55-0.06c-0.52-0.53-1.08-1.04-1.58-1.59c-0.37-0.41-0.61-0.51-0.99,0
		c-0.39,0.54-0.89,1-1.34,1.5C108.57,26.11,108.46,26.22,108.33,26.36z"/>
	<path class="st2" d="M126.36,47.38c-0.06,0.08-0.11,0.17-0.18,0.24c-0.54,0.55-1.1,1.09-1.63,1.65c-0.21,0.22-0.37,0.2-0.57-0.01
		c-0.52-0.54-1.05-1.07-1.58-1.59c-0.21-0.2-0.23-0.36-0.01-0.57c0.56-0.54,1.1-1.09,1.64-1.64c0.14-0.15,0.27-0.22,0.45-0.04
		c0.58,0.59,1.17,1.17,1.75,1.75C126.27,47.24,126.31,47.31,126.36,47.38z"/>
</g>
</svg>
