<?xml version="1.0" encoding="utf-8"?>
<!-- Generator: Adobe Illustrator 24.2.0, SVG Export Plug-In . SVG Version: 6.00 Build 0)  -->
<svg version="1.1" id="Layer_1" xmlns="http://www.w3.org/2000/svg" xmlns:xlink="http://www.w3.org/1999/xlink" x="0px" y="0px"
	 viewBox="0 0 1000 1000" style="enable-background:new 0 0 1000 1000;" xml:space="preserve">
<style type="text/css">
	.st0{fill-rule:evenodd;clip-rule:evenodd;fill:#E1251B;}
	.st1{fill-rule:evenodd;clip-rule:evenodd;fill:#FFFFFF;}
</style>
<g>
	<path class="st0" d="M207.2,194.4c7.4-1.1,13.7,2.8,20.6,4.9c15.9,4.7,33.3,8.1,50.1,11.6c22.5,4.6,45.9,9.3,69.6,12.7
		c92.9,13.5,215.8,13.7,309-0.4c22.5-3.4,46.4-8.4,69.2-13.1c15.4-3.2,33.8-7.1,49.8-12c5.9-1.8,11.7-4.5,16.5-4.1
		c7.8,0.7,14,7.1,14.2,15.3c0.1,4.5-2.8,10.6-4.5,16.1c-4.7,15.6-8.6,33.7-12,49.8c-4.9,22.9-9.3,47-12.7,69.2
		c-14.3,91.9-13.7,215.1-0.4,307.9c5.2,36.2,11.9,70.2,20.2,103.2c1.4,5.4,2.5,11.1,4.1,16.5c1.5,5.2,3.9,10.2,4.9,15.3
		c1.8,9.9-5.3,18.8-15.7,18.7c-4.4,0-10.5-2.8-16.1-4.5c-15.6-4.7-33.6-8.6-49.8-12c-22.4-4.7-46.2-9.3-69.2-12.7
		c-91.2-13.5-215.2-14.3-307.9-0.4c-35.7,5.4-69.9,11.9-102.9,20.2c-5.3,1.3-10.9,2.5-16.5,4.1c-8.5,2.5-20.2,8.5-28.4,1.5
		c-3-2.6-5-6-5.2-11.2c-0.2-5.4,2.4-11.1,4.1-16.8c4.6-15.5,8.5-32.9,12-49.8c9.6-46.5,17.9-91.4,20.9-143.6
		c4.5-77.5,2.7-165.3-7.9-234.9c-5.5-36.4-12-69.3-20.6-102.9c-1.3-5.2-2.5-10.9-4.1-16.5c-1.9-6.2-5.7-12.3-4.5-19.5
		C195.4,199.6,201,195.3,207.2,194.4z"/>
	<g>
		<path class="st1" d="M322.4,366.9c-6.9,0-13.6,0-19.8,0c-0.4,0.1-0.4,0.6-0.4,1.1c2.1,9.7-3.9,28.5,2.6,34
			c3.6,3,11.3,1.9,17.6,1.9c7.1,0,13.6,0,19.8,0c-2-10.4,3.8-28.7-2.6-34.8C336.2,365.9,328.7,366.9,322.4,366.9z"/>
		<path class="st1" d="M452.2,422.2c-16.4,0.1-29.4,7.9-38.2,15.3c-0.2,0.2-0.8,2-1.5,0.7c0-10.8,0-23.4,0-35.9
			c0-9.1,2.1-28.8-2.6-33.3c-3.5-3.3-11-2.2-17.2-2.2c-7.2,0-13.5,0-19.8,0c-0.4,0.1-0.4,0.6-0.4,1.1c0,60.4,0,121.5,0,182.5
			c0,8-1.4,20.4,1.5,24.7c2.5,3.6,9.3,4.8,14.2,6c16.3,4,37.1,6.1,55.7,4.1c49.7-5.3,68.9-41.5,65.1-97.3
			C506.5,450,491.9,421.9,452.2,422.2z M454.8,549c-9.9,8.6-26.3,9.1-42.3,4.1c0-23.4,0-48,0-72.2c0-3.4-0.6-7.5,0-10.1
			c0.5-2.2,4.2-5.2,7.1-7.5c7-5.5,21.4-12.2,32.5-5.6c11.6,6.8,14.5,25.5,15.3,44.5C468.4,520.4,465,540.2,454.8,549z"/>
		<path class="st1" d="M551.7,366.9c-6.6,0-13.4,0-19.5,0c-0.4,0.1-0.4,0.6-0.4,1.1c1.9,10.4-4.1,30.1,3.7,34.8
			c4,2.4,11.2,1.1,17.6,1.1c6.4,0,12.8,0,18.7,0c-2.1-10.3,4-29.6-3-35.2C565.3,365.8,558.1,366.9,551.7,366.9z"/>
		<path class="st1" d="M652,483.2c-7.7-3.5-17.6-7.8-18-15.3c-0.6-12.6,14.4-13.7,27.3-12.7c13.3,1,23,3.4,31.8,5.6
			c-1.3-11.9,2.8-22-2.6-28.1c-3.5-4-14.2-5.3-20.2-6.4c-30.8-5.4-58.7,1.7-69.6,20.2c-7.4,12.6-7.9,36.5,2.2,50.1
			c6.4,8.7,18.5,15.6,30.3,20.9c10.8,4.9,28.3,10.7,28.8,22.8c0.6,15.2-17.6,16.2-32.5,15c-13.3-1.1-23.4-3.6-32.9-5.6
			c0.8,10.4-2.2,23,3,28.4c2.1,2.2,6.2,3.1,10.1,4.1c19.9,4.9,47.5,5.1,63.2-1.5c15-6.3,27.1-18.8,28.4-37.8
			C704.1,505,676.6,494.4,652,483.2z"/>
		<path class="st1" d="M322.4,426.3c-6.4,0-13.4,0-19.8,0c-0.4,0.1-0.4,0.6-0.4,1.1c0,43,0,92.4,0,137.3c0,6.7-0.5,14.6,2.6,17.2
			c3.5,3,11.5,1.9,17.6,1.9c6.4,0,13.4,0,19.8,0c0-43.3,0-93,0-138c0-6.9,0.3-14.4-2.6-17.2C336.3,425.4,328.5,426.3,322.4,426.3z"
			/>
		<path class="st1" d="M552.5,426.3c-6.6,0-13.5,0-20.2,0c-0.4,0.1-0.4,0.6-0.4,1.1c0,43.4,0,93.2,0,138.4c0,7-0.3,13.8,3.4,16.5
			c3.7,2.6,11.6,1.5,17.6,1.5c6.2,0,12.9,0,19.1,0c0-43,0-92.6,0-137.3c0-6.5,0.4-14.8-2.2-17.6
			C566.4,425.4,558.8,426.3,552.5,426.3z"/>
	</g>
	<g>
		<path class="st1" d="M472.4,666.5c-2.6-1.2-6.2-1.4-10.1-0.7c-2.9,0.5-4.3,0.7-6,1.9c-6.2,4.4-7.9,21.3-2.6,28.1
			c3.5,4.5,13.2,5.7,18.3,3.4C483.4,693.8,481.9,670.9,472.4,666.5z M467.9,693.8c-11.7,4.7-12.9-19.6-4.9-22.1
			C474.8,668.1,474.1,691.3,467.9,693.8z"/>
		<path class="st1" d="M584.7,684.1c-1.3-2-4.2-3.1-7.1-4.5c-2-0.9-7-2.1-6-6c1.1-4.1,9.7-1.7,12.7-0.7c-0.1-1.9,0.2-4.2-0.4-5.6
			c-6.6-2.5-15.4-2-18.3,2.2c-2.5,3.6-1.7,9,0.4,11.6c3.4,4.4,13.1,4.2,13.1,9.4c-0.1,5.9-9.7,3.3-14.6,2.6c0,1.5,0,3,0,4.5
			c6.2,3.8,16.7,3.2,20.2-1.9C586.7,692.7,586.9,687.4,584.7,684.1z"/>
		<path class="st1" d="M445.1,666.5c-1.8-0.7-4.7-0.3-7.1-0.4c-0.2,4.2,0.5,9.5-0.4,13.1c-4,0-8,0-12,0c-0.2-4.2,0.4-9.2-0.4-12.7
			c-1.8-0.7-4.7-0.3-7.1-0.4c0,5.6,0,11.4,0,17.2c0,5.5-0.6,11.2,0.7,15.7c1.6,0.8,4.6,0.2,6.7,0.4c0.2-4.7-0.5-10.5,0.4-14.6
			c4,0,8,0,12,0c0.2,4.7-0.4,10.1,0.4,14.2c1.8,0.7,4.7,0.3,7.1,0.4C445.3,688.5,446,676.7,445.1,666.5z"/>
		<path class="st1" d="M507.2,666.1c-7.9,0.4-20-0.9-25.4,0.7c-0.8,1.1-0.2,3.5-0.4,5.2c3.1,0,6.2,0,9.4,0c0,8.9,0,17.7,0,26.6
			c1.4,1.2,4.6,0.6,7.1,0.7c0.2-9-0.5-19,0.4-27.3c2.8-0.2,6.4,0.4,8.6-0.4C507.6,670.5,507,667.9,507.2,666.1z"/>
		<path class="st1" d="M518.8,684.8c4.2,0,8.5,0,12.7,0c1-1.1,0.7-3.5,0.7-5.6c-4.5,0-9,0-13.5,0c0.2-2.2-0.5-5.5,0.4-7.1
			c4.5-0.2,9.9,0.4,13.8-0.4c0.9-1.3,0.8-3.4,0.7-5.6c-7.4,0-14.7,0-22.1,0c0.7,7.1-1,19.5,0,26.2c1.4,9.5,14,8.4,22.8,6
			c0.6-1.3,0.3-3.4,0.4-5.2C527.6,694.6,516.2,696.2,518.8,684.8z"/>
		<path class="st1" d="M548.4,693c-4.5-3.9,0.6-21.2-1.9-26.6c-1.7-0.7-4.5-0.3-6.7-0.4c1.2,9.4-2.5,26.7,2.2,31.4
			c3.6,3.6,12.8,2.6,18.3,0.7c0.6-1.3,0.3-3.4,0.4-5.2C556.3,693.3,551.3,695.6,548.4,693z"/>
	</g>
</g>
</svg>
