<?xml version="1.0" encoding="utf-8"?>
<!-- Generator: Adobe Illustrator 25.4.1, SVG Export Plug-In . SVG Version: 6.00 Build 0)  -->
<svg version="1.1" id="Layer_1" xmlns="http://www.w3.org/2000/svg" xmlns:xlink="http://www.w3.org/1999/xlink" x="0px" y="0px"
	 viewBox="0 0 200 100" style="enable-background:new 0 0 200 100;" xml:space="preserve">
<style type="text/css">
	.st0{fill:#CB0402;}
	.st1{fill:#FB9604;}
</style>
<path class="st0" d="M149.78,54.67c1.38-2.43,2.7-4.77,4.02-7.11c0.33-0.58,0.71-1.15,0.99-1.75c0.19-0.41,0.45-0.49,0.85-0.48
	c3.37,0.01,6.74-0.02,10.11,0.03c1.48,0.02,2.98-0.05,4.45,0.21c0.94,0.17,1.15,0.58,0.82,1.49c-0.51,1.37-1.43,2.51-2.07,3.8
	c-0.39,0.78-0.89,1.5-1.41,2.21c-0.77,1.05-1.79,1.41-3,1.47C159.66,54.77,154.78,54.61,149.78,54.67z M159.5,52.57
	c0.6,0.06,1.26-0.19,1.71-0.74c0.61-0.74,1.01-1.6,1.28-2.53c0.14-0.49,0.03-0.84-0.46-1.02c-0.64-0.24-1.28-0.11-1.49,0.31
	c-0.53,1.12-1.05,2.24-1.56,3.36C158.7,52.58,158.7,52.58,159.5,52.57z"/>
<path class="st0" d="M130.8,54.66c0.72-1.34,1.4-2.63,2.09-3.92c0.88-1.65,1.76-3.3,2.62-4.97c0.18-0.35,0.39-0.45,0.76-0.45
	c1.78,0.02,3.56,0.02,5.33,0c0.35,0,0.55,0.11,0.72,0.41c0.51,0.88,1.07,1.73,1.59,2.61c0.22,0.37,0.35,0.42,0.55-0.01
	c0.42-0.89,0.88-1.75,1.3-2.64c0.12-0.24,0.22-0.38,0.53-0.38c1.98,0.02,3.96,0.01,6.06,0.01c-0.44,0.84-0.85,1.63-1.26,2.41
	c-1.16,2.18-2.32,4.35-3.46,6.54c-0.15,0.3-0.32,0.39-0.65,0.39c-1.78-0.02-3.56-0.01-5.33,0c-0.31,0-0.51-0.07-0.68-0.37
	c-0.56-0.97-1.19-1.9-1.76-2.87c-0.23-0.38-0.36-0.44-0.59-0.01c-0.52,0.97-1.08,1.92-1.61,2.88c-0.11,0.2-0.19,0.37-0.48,0.37
	C134.63,54.66,132.75,54.66,130.8,54.66z"/>
<path class="st0" d="M96.64,54.66c0.92-1.61,1.77-3.11,2.63-4.61c0.8-1.4,1.61-2.79,2.39-4.2c0.21-0.38,0.46-0.53,0.91-0.53
	c3.86,0.01,7.72-0.01,11.58-0.03c0.61,0,1.22,0.02,1.8,0.27c0.63,0.27,1.04,0.76,0.95,1.42c-0.25,1.78-0.9,3.38-2.43,4.48
	c-0.42,0.3-0.91,0.42-1.5,0.55c0.68,0.89,1.32,1.72,2.03,2.64c-0.75,0-1.39,0-2.03,0c-1.53,0-3.06-0.01-4.6,0.01
	c-0.35,0.01-0.56-0.11-0.74-0.4c-0.48-0.78-0.99-1.54-1.49-2.31c-0.32-0.49-0.52-0.48-0.81,0.02c-0.45,0.77-0.9,1.55-1.35,2.33
	c-0.11,0.19-0.19,0.37-0.48,0.37C101.24,54.66,98.99,54.66,96.64,54.66z M107.97,48.15c-0.61-0.22-0.96,0.13-1.11,0.83
	c-0.05,0.25-0.2,0.48-0.3,0.73c-0.04,0.12-0.17,0.3,0.1,0.3c0.76,0.02,1.56,0.13,2.21-0.4c0.32-0.26,0.56-0.63,0.46-1.06
	c-0.12-0.47-0.56-0.38-0.92-0.39C108.32,48.14,108.21,48.15,107.97,48.15z"/>
<path class="st0" d="M178.33,54.66c1.15-1.37,2.19-2.62,3.23-3.87c1.44-1.72,2.89-3.43,4.32-5.15c0.19-0.23,0.39-0.31,0.67-0.31
	c3.55,0.01,7.11,0.01,10.66,0c0.38,0,0.55,0.01,0.4,0.49c-0.86,2.75-1.69,5.52-2.51,8.29c-0.12,0.4-0.29,0.57-0.75,0.56
	c-1.67-0.03-3.35-0.03-5.02,0c-0.46,0.01-0.59-0.09-0.51-0.56c0.16-0.98,0.14-0.98-0.85-0.98c-0.67,0-1.35,0.02-2.02-0.01
	c-0.32-0.01-0.55,0.08-0.69,0.37c-0.46,0.95-1.18,1.27-2.25,1.19C181.51,54.58,180,54.66,178.33,54.66z M190.8,48.02
	c-1.01,0.84-1.83,1.86-2.88,2.86c0.63,0,1.11,0.01,1.58,0c0.13,0,0.31,0.03,0.36-0.16c0.27-0.92,0.78-1.75,0.93-2.71
	c0.03,0.01,0.05,0.01,0.08,0.02c0-0.02,0.01-0.03,0.01-0.05C190.85,47.99,190.82,48.01,190.8,48.02z"/>
<path class="st0" d="M78.96,54.66c0.03-0.26,0.06-0.46,0.09-0.66c0.11-0.88,0.11-0.88-0.75-0.88c-0.67,0-1.35,0.03-2.02-0.01
	c-0.41-0.02-0.73,0.08-0.9,0.46c-0.42,0.92-1.11,1.16-2.1,1.1c-1.54-0.09-3.1-0.02-4.77-0.02c0.9-1.07,1.74-2.06,2.56-3.05
	c1.62-1.94,3.25-3.87,4.85-5.82c0.27-0.33,0.55-0.46,0.98-0.46c3.47,0.02,6.95,0.02,10.42,0c0.51,0,0.6,0.1,0.44,0.6
	c-0.87,2.76-1.71,5.53-2.54,8.3c-0.09,0.29-0.18,0.45-0.52,0.45C82.81,54.65,80.92,54.66,78.96,54.66z M81.1,48.06
	c-0.06-0.06-0.14-0.1-0.21-0.03c-0.9,0.91-1.8,1.83-2.82,2.87c0.56,0,0.93-0.01,1.31,0c0.4,0.01,0.64-0.08,0.8-0.53
	c0.28-0.78,0.51-1.58,0.91-2.31c-0.01-0.03-0.03-0.07-0.04-0.1c-0.01,0.01-0.02,0.01-0.03,0.02C81.04,48.01,81.07,48.03,81.1,48.06z
	"/>
<path class="st0" d="M99.13,45.34c-0.95,1.69-1.84,3.27-2.72,4.84c-0.75,1.33-1.5,2.66-2.23,4c-0.18,0.34-0.38,0.49-0.8,0.49
	c-2.18-0.03-4.37-0.01-6.64-0.01c0.8-1.42,1.56-2.78,2.32-4.14c0.91-1.62,1.82-3.23,2.73-4.85c0.1-0.18,0.16-0.34,0.43-0.34
	C94.48,45.34,96.75,45.34,99.13,45.34z"/>
<path class="st0" d="M181.73,45.34c-0.87,1.48-1.67,2.84-2.47,4.21c-0.93,1.58-1.87,3.15-2.8,4.73c-0.13,0.21-0.23,0.4-0.54,0.39
	c-2.16-0.02-4.33-0.01-6.49-0.01c-0.03,0-0.07-0.03-0.14-0.07c0.96-1.65,1.92-3.3,2.89-4.94c0.79-1.33,1.59-2.65,2.38-3.98
	c0.11-0.19,0.21-0.32,0.45-0.32C177.21,45.34,179.41,45.34,181.73,45.34z"/>
<path class="st0" d="M133.17,45.34c-0.81,1.42-1.56,2.72-2.31,4.03c-0.94,1.64-1.88,3.29-2.82,4.93c-0.11,0.19-0.18,0.38-0.48,0.38
	c-2.2-0.02-4.4-0.01-6.7-0.01c0.66-1.16,1.27-2.26,1.89-3.35c1.03-1.81,2.08-3.6,3.09-5.42c0.24-0.43,0.52-0.58,1.01-0.57
	C128.92,45.35,130.98,45.34,133.17,45.34z"/>
<path class="st1" d="M63.7,41.21c-2.65,0.4-5.29,0.86-7.9,1.44c-2.51,0.55-5.04,0.96-7.63,0.98c-0.84,0.01-1.67-0.04-2.5-0.04
	c-0.05,0-0.11,0-0.16-0.02c-0.16-0.04-0.35-0.01-0.37-0.27c-0.03-0.27,0.16-0.28,0.32-0.32c0.77-0.19,1.53-0.39,2.31-0.56
	c1.51-0.33,3.04-0.61,4.58-0.78c0.83-0.09,1.67-0.14,2.5-0.16c3.03-0.08,6.06-0.26,9.04-0.85c0.05-0.01,0.11,0,0.16,0
	C63.94,40.84,63.86,41.05,63.7,41.21z"/>
<path class="st1" d="M60.58,46.71c-1.46-0.1-2.91-0.21-4.37-0.31c-0.78-0.05-1.56-0.1-2.34-0.14c-2.42-0.14-4.79-0.57-7.12-1.24
	c-0.45-0.13-0.9-0.29-1.35-0.42c-0.18-0.06-0.26-0.13-0.23-0.35c0.03-0.22,0.14-0.23,0.31-0.23c3.52,0.03,7.02,0.31,10.45,1.19
	c1.63,0.42,3.27,0.75,4.94,1C60.81,46.39,60.72,46.56,60.58,46.71z"/>
<path class="st1" d="M55.67,55.26c-0.72-0.58-1.52-1.05-2.29-1.56c-1.66-1.1-3.35-2.16-4.88-3.43c-1.39-1.15-2.7-2.39-3.89-3.75
	c-0.11-0.12-0.27-0.23-0.1-0.45c0.12-0.15,0.19-0.19,0.37-0.08c2.82,1.66,5.53,3.47,7.92,5.73c1.07,1.01,2.17,1.99,3.25,2.99
	C55.92,54.9,55.79,55.08,55.67,55.26z"/>
<path class="st1" d="M58.06,51.13c-0.2,0.02-0.36-0.09-0.53-0.15c-2.27-0.79-4.59-1.44-6.82-2.37c-1.95-0.81-3.81-1.81-5.57-2.98
	c-0.15-0.1-0.28-0.17-0.17-0.41c0.1-0.23,0.23-0.17,0.4-0.13c3.44,0.93,6.76,2.14,9.87,3.9c0.91,0.52,1.86,0.96,2.79,1.43
	c0.12,0.06,0.23,0.13,0.34,0.19C58.32,50.83,58.19,50.98,58.06,51.13z"/>
<path class="st1" d="M54.79,33.24c0.47-0.15,0.83-0.49,1.21-0.77c1.36-0.97,2.66-2.02,3.91-3.12c0.29-0.26,0.38,0.02,0.52,0.14
	c0.21,0.18-0.03,0.23-0.12,0.3c-2.22,1.73-4.39,3.51-6.48,5.4c-1.81,1.64-3.64,3.25-5.71,4.57c-1.09,0.69-2.19,1.35-3.35,1.91
	c-0.31,0.15-0.42,0.09-0.51-0.28c1.37-1.07,2.74-2.14,4.12-3.21c1.91-1.49,3.83-2.97,5.75-4.45C54.35,33.55,54.57,33.4,54.79,33.24z
	"/>
<path class="st1" d="M45.12,42.6c-0.23,0.04-0.24-0.14-0.3-0.26c-0.08-0.16,0.04-0.21,0.15-0.27c0.99-0.57,2.01-1.1,3.02-1.62
	c2.59-1.34,5.35-2.23,8.14-3.05c1.75-0.52,3.45-1.2,5.11-1.95c0.62-0.28,1.23-0.58,1.84-0.88c0.33-0.17,0.31,0.16,0.43,0.29
	c0.17,0.19-0.04,0.21-0.14,0.25c-3.47,1.43-6.82,3.12-10.18,4.79c-2.53,1.26-5.2,2.14-7.98,2.68C45.18,42.58,45.14,42.6,45.12,42.6z
	"/>
<path class="st0" d="M38.73,63.29c-0.81,0.37-1.67,0.62-2.42,1.11c-0.83,0.53-1.52,1.18-1.84,2.16c-0.2,0.61-0.09,1.16,0.26,1.69
	c0.6,0.91,1.46,1.53,2.39,2.08c1.64,0.97,3.36,1.76,5.24,2.17c1.41,0.31,2.84,0.42,4.28,0.47c0.99,0.03,1.98-0.02,2.97-0.04
	c0.07,0,0.14-0.04,0.22,0.05c-1.08,0.29-2.17,0.49-3.25,0.67c-1.24,0.2-2.49,0.3-3.74,0.34c-3.86,0.11-7.29-1.15-10.44-3.28
	c-1.23-0.83-2.3-1.83-3.39-2.82c-2.36-2.14-4.94-3.99-7.79-5.44c-2.16-1.09-4.45-1.82-6.78-2.4c-1.77-0.44-3.55-0.79-5.36-1.06
	c-1.46-0.22-2.94-0.4-4.41-0.52c-0.77-0.06-1.55-0.1-2.33-0.16c0.28-0.55,0.28-0.53,0.84-0.51c2.71,0.08,5.41,0.13,8.12,0.03
	c1.35-0.05,2.7-0.11,4.05-0.22c3.74-0.31,7.34-1.14,10.75-2.76c0.52-0.25,1.04-0.52,1.56-0.77c-0.03,0.06-0.06,0.12-0.1,0.17
	c-0.39,0.34-0.78,0.67-1.18,1.01c-1.19,1-2.4,1.96-3.62,2.92c-0.07,0.05-0.2,0.07-0.15,0.21c0.11,0.28,0.41,0.36,0.63,0.17
	c2.11-1.88,4.36-3.56,6.78-5.01c2.41-1.44,4.68-3.08,6.74-4.99c0.64-0.59,1.27-1.18,1.89-1.79c0.09-0.09,0.3-0.19,0.14-0.4
	c-0.14-0.19-0.27-0.2-0.47-0.1c-0.16,0.08-0.3,0.23-0.51,0.21c0.62-0.49,1.23-0.99,1.85-1.47c1.54-1.2,3.09-2.39,4.64-3.59
	c0.09,0.37,0.19,0.43,0.51,0.28c1.16-0.56,2.27-1.21,3.35-1.91c2.07-1.32,3.9-2.93,5.71-4.57c2.08-1.89,4.26-3.67,6.48-5.4
	c0.09-0.07,0.33-0.12,0.12-0.3c-0.14-0.12-0.22-0.4-0.52-0.14c-1.25,1.11-2.56,2.15-3.91,3.12c-0.39,0.28-0.74,0.62-1.21,0.77
	c0.67-0.53,1.33-1.06,2-1.58c2.35-1.83,4.7-3.65,7.06-5.47c0.12-0.1,0.24-0.17,0.41-0.17c2.62,0.01,5.24,0,7.86,0
	c0.05,0,0.1,0.01,0.2,0.01c-0.26,0.47-0.5,0.9-0.75,1.34c-2.48,4.36-4.95,8.73-7.43,13.09c-0.03,0.06-0.08,0.11-0.11,0.16
	c-0.05,0-0.11-0.01-0.16,0c-2.98,0.59-6.01,0.77-9.04,0.85c-0.83,0.02-1.67,0.07-2.5,0.16c-1.54,0.17-3.06,0.44-4.58,0.78
	c-0.77,0.17-1.54,0.37-2.31,0.56c-0.16,0.04-0.35,0.05-0.32,0.32c0.03,0.27,0.22,0.23,0.37,0.27c0.05,0.01,0.11,0.01,0.16,0.02
	c0.83,0,1.67,0.05,2.5,0.04c2.59-0.02,5.12-0.43,7.63-0.98c2.62-0.57,5.26-1.03,7.9-1.44c-0.74,1.32-1.49,2.65-2.24,3.97
	c-0.19,0.34-0.36,0.7-0.6,1.01c-1.66-0.25-3.31-0.58-4.94-1c-3.43-0.88-6.92-1.16-10.45-1.19c-0.17,0-0.27,0.01-0.31,0.23
	c-0.03,0.22,0.05,0.3,0.23,0.35c0.45,0.14,0.9,0.29,1.35,0.42c2.33,0.67,4.7,1.1,7.12,1.24c0.78,0.04,1.56,0.09,2.34,0.14
	c1.46,0.1,2.91,0.21,4.37,0.31c-0.71,1.33-1.46,2.63-2.22,3.92c-0.11-0.06-0.23-0.13-0.34-0.19c-0.93-0.48-1.88-0.92-2.79-1.43
	c-3.11-1.76-6.43-2.97-9.87-3.9c-0.16-0.04-0.29-0.1-0.4,0.13c-0.11,0.24,0.02,0.31,0.17,0.41c1.76,1.18,3.62,2.17,5.57,2.98
	c2.23,0.92,4.55,1.58,6.82,2.37c0.17,0.06,0.34,0.17,0.53,0.15c-0.26,0.6-0.63,1.15-0.94,1.72c-0.35,0.63-0.72,1.24-1.07,1.87
	c-1.08-1-2.18-1.97-3.25-2.99c-2.38-2.27-5.09-4.08-7.92-5.73c-0.18-0.1-0.25-0.07-0.37,0.08c-0.17,0.21-0.01,0.32,0.1,0.45
	c1.19,1.36,2.5,2.6,3.89,3.75c1.54,1.27,3.22,2.33,4.88,3.43c0.77,0.51,1.56,0.98,2.29,1.56c-0.41,0.64-0.7,1.31-0.78,2.07
	c-0.1,0.91,0.25,1.65,0.83,2.31c0.65,0.74,1.41,1.34,2.3,1.93c-0.94-0.05-1.79-0.1-2.65-0.14c-1.1-1.36-2.2-2.72-3.15-4.19
	c-0.87-1.34-1.67-2.71-2.56-4.04c-1.56-2.33-3.42-4.41-5.39-6.4c-0.1-0.1-0.19-0.22-0.35-0.08c-0.14,0.12-0.22,0.22-0.12,0.42
	c0.23,0.41,0.43,0.84,0.66,1.26c1.04,1.91,2.26,3.69,3.66,5.35c1.61,1.92,3.36,3.72,4.94,5.67c0.53,0.66,1.11,1.28,1.57,1.99
	c-1.76-0.04-3.51-0.08-5.26,0.03c-0.09,0.01-0.18,0-0.26-0.01c-0.18-0.47-0.37-0.94-0.52-1.42c-0.54-1.69-1.04-3.4-1.61-5.09
	c-0.91-2.66-2.18-5.16-3.57-7.59c-0.07-0.13-0.14-0.15-0.26-0.08c-0.14,0.07-0.29,0.12-0.24,0.33c0.1,0.45,0.19,0.9,0.3,1.35
	c0.67,2.76,1.71,5.37,3,7.9c0.78,1.53,1.59,3.04,2.27,4.61c-1.44,0.13-2.88,0.24-4.3,0.46c0-0.13,0-0.26-0.01-0.4
	c-0.06-1.37-0.15-2.74-0.19-4.12c-0.02-0.9-0.06-1.8-0.17-2.7c-0.29-2.33-0.74-4.64-1.36-6.91c-0.03-0.11-0.01-0.29-0.23-0.24
	c-0.16,0.04-0.31,0.02-0.33,0.27c-0.07,0.91-0.07,1.82-0.06,2.73c0.01,1.56,0.15,3.11,0.4,4.66c0.24,1.54,0.6,3.06,0.91,4.59
	c0.15,0.74,0.31,1.48,0.46,2.22c-1.45,0.28-2.88,0.64-4.28,1.1c0.1-0.91,0.28-1.8,0.47-2.69c0.41-1.96,0.97-3.9,1.23-5.9
	c0.29-2.18,0.42-4.37,0.43-6.57c0-0.15,0.07-0.34-0.2-0.37c-0.24-0.03-0.32,0.08-0.39,0.28c-1.13,3.29-1.62,6.69-1.78,10.15
	c-0.05,1.05-0.14,2.1-0.18,3.16C38.84,61.87,38.71,62.57,38.73,63.29z M39.22,46.84c-0.09,0-0.15,0.09-0.22,0.15
	c-2.18,1.93-4.1,4.1-5.7,6.54c-1.99,3.03-4,6.05-6.21,8.93c-0.07,0.09-0.31,0.21-0.05,0.35c0.18,0.09,0.35,0.29,0.55-0.02
	c1.72-2.64,3.73-5.06,5.92-7.32c1.32-1.36,2.51-2.83,3.58-4.39c0.84-1.22,1.64-2.47,2.38-3.76C39.61,47.09,39.49,46.85,39.22,46.84z
	 M32.7,65.99c0.17,0.02,0.19-0.11,0.23-0.23c0.24-0.66,0.46-1.33,0.71-1.99c0.53-1.4,1.11-2.78,1.8-4.1
	c0.7-1.34,1.43-2.68,2.11-4.04c1.25-2.52,2.12-5.19,2.87-7.89c0.04-0.16,0.06-0.29-0.14-0.38c-0.18-0.08-0.29-0.04-0.4,0.13
	c-0.56,0.88-1.11,1.77-1.61,2.69c-1.27,2.32-2.16,4.79-2.95,7.29c-0.86,2.72-1.87,5.38-2.94,8.02
	C32.24,65.87,32.31,65.99,32.7,65.99z M45.12,42.6c0.02-0.01,0.06-0.02,0.1-0.03c2.78-0.54,5.44-1.43,7.98-2.68
	c3.36-1.67,6.71-3.36,10.18-4.79c0.1-0.04,0.31-0.06,0.14-0.25c-0.11-0.13-0.09-0.46-0.43-0.29c-0.61,0.3-1.22,0.61-1.84,0.88
	c-1.67,0.75-3.36,1.43-5.11,1.95c-2.79,0.82-5.55,1.71-8.14,3.05c-1.02,0.53-2.03,1.05-3.02,1.62c-0.11,0.06-0.23,0.11-0.15,0.27
	C44.88,42.46,44.89,42.64,45.12,42.6z"/>
<path class="st1" d="M54.63,61.4c-0.46-0.71-1.04-1.33-1.57-1.99c-1.57-1.95-3.32-3.75-4.94-5.67c-1.4-1.66-2.62-3.45-3.66-5.35
	c-0.23-0.41-0.43-0.84-0.66-1.26c-0.11-0.19-0.03-0.3,0.12-0.42c0.17-0.14,0.25-0.02,0.35,0.08c1.96,1.99,3.83,4.07,5.39,6.4
	c0.89,1.32,1.69,2.7,2.56,4.04c0.95,1.47,2.05,2.83,3.15,4.19C55.12,61.43,54.87,61.47,54.63,61.4z"/>
<path class="st1" d="M38.73,63.29c-0.02-0.72,0.11-1.42,0.14-2.13c0.04-1.05,0.13-2.1,0.18-3.16c0.16-3.46,0.64-6.86,1.78-10.15
	c0.07-0.21,0.15-0.31,0.39-0.28c0.27,0.03,0.2,0.22,0.2,0.37c-0.01,2.2-0.14,4.39-0.43,6.57c-0.26,2-0.81,3.93-1.23,5.9
	c-0.19,0.89-0.37,1.78-0.47,2.69C39.13,63.21,38.93,63.25,38.73,63.29z"/>
<path class="st1" d="M48.45,61.43c-0.68-1.58-1.49-3.09-2.27-4.61c-1.29-2.53-2.33-5.14-3-7.9c-0.11-0.45-0.19-0.9-0.3-1.35
	c-0.05-0.21,0.1-0.26,0.24-0.33c0.12-0.06,0.19-0.04,0.26,0.08c1.39,2.44,2.66,4.93,3.57,7.59c0.57,1.68,1.07,3.39,1.61,5.09
	c0.15,0.48,0.35,0.95,0.52,1.42C48.88,61.42,48.67,61.43,48.45,61.43z"/>
<path class="st1" d="M43.58,61.99c-0.15-0.74-0.31-1.48-0.46-2.22c-0.3-1.53-0.66-3.05-0.91-4.59c-0.24-1.54-0.39-3.09-0.4-4.66
	c-0.01-0.91,0-1.82,0.06-2.73c0.02-0.25,0.17-0.23,0.33-0.27c0.22-0.05,0.19,0.13,0.23,0.24c0.62,2.27,1.08,4.57,1.36,6.91
	c0.11,0.89,0.14,1.79,0.17,2.7c0.04,1.37,0.12,2.74,0.19,4.12c0.01,0.13,0,0.26,0.01,0.4C43.96,61.93,43.78,62,43.58,61.99z"/>
<path class="st1" d="M37.79,46.44c0.21,0.02,0.35-0.12,0.51-0.21c0.2-0.1,0.33-0.1,0.47,0.1c0.16,0.22-0.04,0.31-0.14,0.4
	c-0.62,0.61-1.26,1.2-1.89,1.79c-2.07,1.91-4.33,3.55-6.74,4.99c-2.42,1.45-4.67,3.13-6.78,5.01c-0.22,0.19-0.52,0.11-0.63-0.17
	c-0.05-0.14,0.08-0.16,0.15-0.21c1.22-0.96,2.43-1.92,3.62-2.92c0.4-0.33,0.79-0.67,1.18-1.01c0.05-0.04,0.07-0.11,0.1-0.17
	c0.71-0.45,1.44-0.87,2.13-1.37c0.89-0.64,1.68-1.4,2.56-2.06c1.77-1.34,3.52-2.73,5.28-4.09c0.03-0.03,0.07-0.05,0.11-0.07
	C37.75,46.49,37.79,46.52,37.79,46.44L37.79,46.44z"/>
<path class="st1" d="M39.22,46.84c0.27,0.01,0.39,0.25,0.25,0.49c-0.74,1.29-1.54,2.54-2.38,3.76c-1.08,1.56-2.27,3.03-3.58,4.39
	c-2.19,2.26-4.2,4.68-5.92,7.32c-0.2,0.31-0.37,0.11-0.55,0.02c-0.27-0.14-0.02-0.26,0.05-0.35c2.21-2.88,4.22-5.9,6.21-8.93
	c1.6-2.44,3.52-4.61,5.7-6.54C39.07,46.93,39.13,46.84,39.22,46.84z"/>
<path class="st1" d="M32.7,65.99c-0.39,0-0.46-0.12-0.31-0.49c1.06-2.64,2.08-5.3,2.94-8.02c0.79-2.51,1.68-4.98,2.95-7.29
	c0.5-0.92,1.05-1.81,1.61-2.69c0.11-0.17,0.22-0.21,0.4-0.13c0.2,0.08,0.18,0.21,0.14,0.38c-0.75,2.7-1.62,5.37-2.87,7.89
	c-0.68,1.36-1.4,2.69-2.11,4.04c-0.69,1.33-1.27,2.71-1.8,4.1c-0.25,0.66-0.48,1.32-0.71,1.99C32.88,65.88,32.87,66.01,32.7,65.99z"
	/>
</svg>
