<?xml version="1.0" encoding="utf-8"?>
<!-- Generator: Adobe Illustrator 25.4.1, SVG Export Plug-In . SVG Version: 6.00 Build 0)  -->
<svg version="1.1" id="Layer_1" xmlns="http://www.w3.org/2000/svg" xmlns:xlink="http://www.w3.org/1999/xlink" x="0px" y="0px"
	 viewBox="0 0 200 100" style="enable-background:new 0 0 200 100;" xml:space="preserve">
<style type="text/css">
	.st0{fill:#3B407F;}
	.st1{fill:#C49D3A;}
	.st2{fill:#FDFDFD;}
</style>
<g>
	<path class="st0" d="M138.21,41.29c-1.17-1.29-1.61-2.4-1.78-3.61c-0.5-3.56,1.54-6.29,5.11-6.68c1.69-0.18,3.41-0.07,5.11-0.16
		c0.99-0.05,1.1,0.47,1.04,1.24c-0.05,0.69,0.21,1.51-1.01,1.46c-1.52-0.06-3.05-0.05-4.57,0.01c-2.51,0.1-3.93,1.42-3.97,3.6
		c-0.04,2.37,1.3,3.98,3.74,4.06c4.26,0.13,8.54,0.04,12.8,0.09c1.02,0.01,1.01-0.57,1.01-1.29c-0.02-2.37-0.01-4.75,0-7.12
		c0.01-1.03-0.37-2.08,1.5-2.11c1.99-0.03,1.59,1.11,1.6,2.2c0.01,2.25,0.13,4.51-0.04,6.75c-0.14,1.84,0.97,1.55,2.06,1.56
		c1.05,0.01,2.02,0.21,1.92-1.49c-0.16-2.55,0.04-5.11-0.07-7.67c-0.06-1.33,0.63-1.3,1.56-1.29c0.89,0.01,1.66-0.11,1.61,1.25
		c-0.1,2.61,0.05,5.24-0.05,7.85c-0.07,2.01,1.35,1.2,2.26,1.33c0.98,0.14,1.73,0.09,1.65-1.35c-0.13-2.61,0.04-5.24-0.07-7.85
		c-0.06-1.39,0.76-1.22,1.61-1.22c0.87,0,1.67-0.15,1.64,1.23c-0.08,3.22-0.02,6.45-0.01,9.68c0.01,1.32,0.37,2.44,1.88,2.71
		c1.56,0.28,2.65-0.72,2.68-2.63c0.06-4.44,0.14-8.89-0.02-13.33c-0.07-1.9,0.75-2.05,2.22-1.97c0.84,0.05,1,0.38,1,1.12
		c-0.03,4.81,0.03,9.62-0.05,14.42c-0.04,2.58-1.27,4.11-3.5,4.77c-2.57,0.76-5.2,0.07-6.54-1.92c-0.5-0.75-1.03-0.87-1.8-0.87
		c-12.68,0.01-25.37,0.02-38.05-0.02c-1.14,0-1.45,0.33-1.44,1.44c0.03,2.07,0.01,4.19-1.72,5.75c-0.4,0.36-0.87,0.7-1.37,0.89
		c-0.45,0.17-1.03,0.78-1.44,0.19c-0.36-0.53-0.03-1.06,0.5-1.54c0.75-0.67,1.28-5.5,0.83-6.33c-0.31-0.57-0.85-0.36-1.3-0.36
		c-2.19-0.02-4.39-0.02-6.59-0.01c-0.68,0-1.2-0.07-1.15-0.96c0.3-6.52,3.57-12.46,10.3-14.4c1.46-0.42,2.08-0.34,2.01,1.43
		c-0.12,3.22,0.02,6.45-0.06,9.68c-0.03,1.22,0.37,1.55,1.55,1.51C133.1,41.24,135.41,41.29,138.21,41.29z M126.12,30.58
		c-3.65,1.86-5.44,4.67-6.16,8.22c-0.49,2.41-0.37,2.5,2.14,2.5c0.97,0,1.95-0.05,2.91,0.01c0.89,0.06,1.13-0.31,1.12-1.16
		C126.1,37.07,126.12,33.98,126.12,30.58z"/>
	<path class="st1" d="M41.99,45.79c-0.76-3.7-1.17-7.04-3.2-10.2c-0.36,1.58-0.88,2.83-0.36,4.18c0.19,0.49,0.16,0.96,0.09,1.43
		c-0.56,3.87,0.21,7.81-0.61,11.67c-0.26,1.24,1.16,1.03,1.6,1.88c-1.58,0-3.13,0-4.77,0c0.28-0.79,1.54-0.61,1.59-1.45
		c0.04-0.77-0.28-1.56-0.27-2.34c0.04-3.93-0.51-7.86-0.06-11.8c0.12-1.05-0.22-2.16-0.4-3.68c-2.2,3.2-2.53,6.61-3.29,9.94
		c-1.12-2.13-1.12-3.02-0.02-10.7c-3.3,2.46-5.04,5.66-6.85,8.86c-0.47-4.34,1.62-7.7,4.63-11.24c-4.47,1.07-7.15,4.04-10.22,6.4
		c1.58-4.89,5.08-7.81,9.7-9.69c-1.72-0.34-2.59-0.25-4.81,0.27c-1.56,0.37-2.99,1.23-4.99,1.36c3.62-3.48,7.68-4.95,12.29-5.11
		c0.19-0.83-1.01-0.58-0.93-1.43c1.1-0.17,2.26-0.32,3.3,0.21c1.05,0.54,1.49,0.32,1.74-0.8c0.11-0.48,0.34-1.18,1-1.13
		c0.61,0.04,0.85,0.7,0.98,1.2c0.25,0.99,0.6,1.29,1.61,0.76c1.05-0.55,2.22-0.45,3.38-0.21c0.09,0.78-0.88,0.6-1.01,1.35
		c4.78,0.22,9.05,1.72,12.41,5.34c-3.19-0.97-6.28-2.35-10.21-1.99c4.94,2,8.43,4.86,9.92,9.7c-3.05-2.48-5.86-5.25-10.3-6.37
		c3.23,3.45,5.22,6.9,4.88,11.33c-1.83-3.15-3.55-6.36-6.73-8.5C42.74,38.49,43.33,41.89,41.99,45.79z"/>
	<path class="st0" d="M137.52,67.17c0-2.55-0.02-5.1,0.01-7.66c0.01-0.94-0.07-1.54-1.29-1.2c-0.44,0.12-1.19,0.68-1.45-0.37
		c-0.28-1.13,0.6-1,1.19-1.1c4.39-0.77,8.79-1.42,13.21-0.27c5.39,1.4,8.11,5.18,7.71,10.57c-0.33,4.45-4.18,8.19-9.1,8.78
		c-2.97,0.36-5.95,0.34-8.94,0.29c-1.01-0.02-1.39-0.32-1.36-1.37C137.57,72.27,137.52,69.72,137.52,67.17z M143.51,57.61
		c-0.62,0.42-2.22-0.81-2.25,0.98c-0.08,4.5-0.02,9.01,0.02,13.51c0.01,0.8,0.23,1.54,1.11,1.93c3.88,1.72,9.41-1,10.4-5.12
		C154.36,62.33,150.68,57.78,143.51,57.61z"/>
	<path class="st0" d="M84.69,35.78c0,2.07-0.02,4.13,0.01,6.2c0.01,1.51,0.74,2.47,2.31,2.44c1.48-0.02,2.19-0.96,2.2-2.38
		c0.04-3.59,0.08-7.17,0.02-10.76c-0.02-1.25,0.31-1.67,1.62-1.68c1.34-0.01,1.61,0.48,1.58,1.7c-0.07,3.4,0,6.81-0.04,10.21
		c-0.03,2.79-1.1,4.47-3.2,5.18c-2.65,0.9-5.35,0.22-6.86-1.89c-0.49-0.68-1-0.76-1.68-0.75c-2.31,0.01-4.63,0-6.94,0
		c-0.61,0-1.26,0.1-1.24-0.86c0.16-5.93,3.13-12.87,10.59-14.66c1.38-0.33,1.69,0.1,1.63,1.4c-0.09,1.94-0.02,3.89-0.02,5.83
		C84.68,35.78,84.68,35.78,84.69,35.78z M81.44,30.54c-3.87,2.1-5.61,5.18-6.21,9.05c-0.21,1.36,0.2,1.88,1.62,1.73
		c1.15-0.12,2.32-0.07,3.47-0.01c0.87,0.05,1.16-0.26,1.15-1.14C81.41,37.08,81.44,33.98,81.44,30.54z"/>
	<path class="st1" d="M32.16,67.39c-1.29-1.64-2.61-1.41-4.2-0.3c-1.13,0.78-2.54,1.18-3.99,1.12c-0.75-0.03-1.4-0.29-2.03-1.29
		c2.33,0.37,4.05-0.56,5.71-1.64c0.38-0.25,1.3-0.35,0.85-1.09c-0.37-0.6-0.82-1.49-1.78-1.18c-0.48,0.15-0.86,0.54-1.21-0.07
		c-0.1-0.17-0.07-0.51,0.04-0.67c0.34-0.48,0.84-0.42,1.32-0.24c0.28,0.1,0.63,0.19,0.81,0.4c1.6,1.92,3.04,1.17,4.56-0.14
		c0.78-0.67,1.69-1.19,2.84-1.98c-6.31-3.55-12.31-7.19-20.3-6.55c2.9-2.06,5.57-1.91,8.25-1.33c4.29,0.92,8.15,2.91,11.81,5.22
		c1.66,1.05,2.85,1.13,4.55,0.03c3.69-2.39,7.62-4.38,11.97-5.3c2.5-0.53,5.02-0.7,7.31,1.07c-7.32-0.14-13.27,3.33-19.45,6.87
		c1.7,1.17,3.22,2.18,4.68,3.25c0.6,0.44,0.96,0.19,1.42-0.2c0.74-0.63,1.49-1.29,2.5-1.43c0.53-0.07,1,0.1,1.02,0.74
		c0.01,0.44-0.39,0.78-0.71,0.6c-1.65-0.95-1.94,0.85-3.25,1.32c2.68,0.84,4.49,3.07,7.52,2.18c-1.23,1.61-2.08,1.77-4.35,1.07
		c-2.53-0.78-3.17-1.32-3.24-3.09c-0.97,1.02-1.77,1.91-2.63,2.74c-0.39,0.38-0.87,0.7-1.45,0.71c-0.51,0.01-0.83-0.29-0.77-0.8
		c0.05-0.41,0.4-0.73,0.78-0.52c1.29,0.73,1.75-0.45,2.02-1.08c0.4-0.9-0.82-0.93-1.28-1.39c-2.81-2.76-5.51-2.79-8.63-0.19
		c-1.39,1.16-1.64,1.72-0.43,2.91C32.33,67.21,32.25,67.3,32.16,67.39z M28.94,64.91c0.05-0.04,0.09-0.08,0.12-0.12
		c-0.08-0.04-0.15-0.09-0.23-0.11c-0.03-0.01-0.08,0.07-0.12,0.1C28.79,64.83,28.86,64.87,28.94,64.91z"/>
	<path class="st0" d="M127.29,63.88c0-2.13,0.05-4.26-0.02-6.39c-0.05-1.61,1.1-1.15,1.9-1.13c0.78,0.01,1.95-0.52,1.93,1.1
		c-0.05,4.02,0.09,8.04-0.08,12.05c-0.16,3.78-1.95,5.79-5.62,6.63c-2.83,0.66-5.69,0.64-8.5-0.2c-2.96-0.88-4.66-2.86-4.78-5.96
		c-0.16-4.19-0.08-8.39-0.12-12.59c-0.02-1.79,1.33-0.95,2.11-1.07c0.86-0.13,1.67-0.17,1.65,1.2c-0.07,3.77,0,7.55-0.03,11.32
		c-0.02,2.11,0.21,4.15,2.43,5.07c2.53,1.05,5.12,1.1,7.51-0.49c1.09-0.72,1.55-1.86,1.57-3.14c0.02-2.13,0.01-4.26,0.01-6.39
		C127.26,63.88,127.27,63.88,127.29,63.88z"/>
	<path class="st0" d="M88.76,75.95c3.31-6.46,6.53-12.8,9.79-19.11c0.65-1.26,1.55-1.21,2.22,0.09c3.08,6.01,6.13,12.03,9.21,18.04
		c0.41,0.8,0.45,1.15-0.64,1.19c-1.76,0.06-3.09-0.07-4.24-1.88c-2.02-3.19-5.17-4.87-9.05-5.06c-0.99-0.05-1.57,0.24-1.96,1.19
		c-0.55,1.35-1.38,2.59-1.87,3.96C91.63,76.03,90.59,76.47,88.76,75.95z M103.15,69.5c-1.55-3.16-2.88-5.88-4.33-8.85
		c-1.05,2.15-1.95,4.06-2.91,5.94c-0.39,0.77-0.1,0.93,0.62,0.95C98.75,67.6,100.82,68.21,103.15,69.5z"/>
	<path class="st0" d="M187.69,76.14c-1.18,0.29-1.96-0.32-2.73-1.49c-2.16-3.27-5.22-5.17-9.23-5.42c-1.03-0.06-1.69,0.16-2.11,1.21
		c-0.64,1.57-1.45,3.07-2.2,4.6c-0.26,0.54-0.47,1.17-1.27,1.09c-0.52-0.06-1.19,0.27-1.53-0.25c-0.3-0.46,0.22-0.89,0.43-1.3
		c2.91-5.74,5.84-11.47,8.79-17.19c0.31-0.61,0.44-1.45,1.44-1.4c0.89,0.04,1,0.8,1.29,1.36c2.87,5.62,5.72,11.26,8.57,16.89
		C190.1,76.14,190.1,76.14,187.69,76.14z M181.9,69.02c0.15-0.1,0.29-0.2,0.44-0.3c-1.26-2.59-2.52-5.18-3.93-8.08
		c-1.2,2.47-2.22,4.56-3.33,6.84C177.59,67.52,179.82,67.97,181.9,69.02z"/>
	<path class="st0" d="M80.26,55.67c1.53,0.09,3.02,0.34,4.5,0.78c1.08,0.32,1.27,0.77,0.87,1.84c-0.49,1.3-1.04,0.51-1.62,0.23
		c-1.97-0.94-3.98-1.47-6.18-0.95c-1.37,0.32-2.39,0.96-2.56,2.45c-0.17,1.53,0.77,2.38,2.05,2.87c1.76,0.67,3.57,1.22,5.32,1.89
		c2.09,0.81,4.01,1.85,4.65,4.25c0.7,2.64-0.5,5.34-3.06,6.54c-4.05,1.89-8.11,1.19-12.05-0.37c-1.37-0.54-0.05-1.54,0.06-2.29
		c0.17-1.1,0.78-0.32,1.14-0.1c2.06,1.29,4.26,2.08,6.72,2c2.26-0.07,3.77-1.14,4.14-2.89c0.37-1.69-0.51-3.06-2.73-3.97
		c-1.68-0.69-3.45-1.19-5.15-1.85c-3.16-1.22-4.52-2.97-4.29-5.39c0.24-2.42,2.19-4.23,5.26-4.8
		C78.31,55.75,79.29,55.75,80.26,55.67z"/>
	<path class="st1" d="M12.04,40.28c-3.16,14.47,0.66,26.19,14.6,32.64c11.64,5.38,22.08,1.99,30.84-7.15
		c-1.42,4.6-10.4,10.39-17.66,11.17c-11,1.18-19.81-2.78-25.85-12.05C8.9,57.12,8.56,48.79,12.04,40.28z"/>
	<path class="st0" d="M102.57,43.97c-1.28,0-2.56-0.07-3.84,0.02c-1.14,0.08-1.46-0.36-1.45-1.46c0.01-1.07,0.39-1.33,1.39-1.31
		c2.68,0.04,5.37,0.08,8.04-0.06c2.69-0.14,3.89-1.2,4.1-3.27c0.27-2.61-0.88-4.08-3.51-4.3c-1.57-0.13-3.17-0.13-4.75-0.06
		c-1.13,0.05-1.28-0.47-1.29-1.42c-0.01-1,0.26-1.43,1.34-1.38c1.82,0.08,3.66-0.07,5.47,0.26c2.25,0.42,3.72,1.68,4.27,3.95
		c0.36,1.5,0.35,3.03,0.07,4.53c-0.48,2.57-2.05,4.02-4.73,4.31c-1.69,0.18-3.4,0.18-5.11,0.26
		C102.57,44.01,102.57,43.99,102.57,43.97z"/>
	<path class="st0" d="M164.82,66.44c0,2.79-0.08,5.59,0.03,8.38c0.07,1.67-1.02,1.3-1.92,1.31c-0.94,0.02-1.9,0.27-1.87-1.36
		c0.1-5.71,0.09-11.42,0.01-17.12c-0.02-1.66,1-1.31,1.91-1.32c0.95-0.01,1.94-0.26,1.88,1.37
		C164.73,60.61,164.82,63.53,164.82,66.44z"/>
	<path class="st0" d="M186.32,35.22c0-2.49,0.07-4.99-0.03-7.48c-0.05-1.44,0.86-1.14,1.67-1.17c0.83-0.03,1.51-0.1,1.49,1.15
		c-0.07,5.05-0.06,10.1,0,15.15c0.01,1.2-0.58,1.25-1.47,1.21c-0.84-0.04-1.73,0.21-1.69-1.19
		C186.37,40.33,186.32,37.77,186.32,35.22z"/>
	<path class="st0" d="M84.5,24.86c-0.52,0.68-0.92,1.73-1.71,1.71c-0.75-0.02-1.57-1.02-1.56-1.72c0.01-0.78,0.8-1.82,1.65-1.77
		C83.59,23.1,84.11,24.08,84.5,24.86z"/>
	<path class="st0" d="M86.28,50.87c-0.51,0.7-0.97,1.76-1.72,1.73c-0.7-0.03-1.57-1.03-1.55-1.76c0.02-0.78,0.82-1.83,1.66-1.78
		C85.36,49.1,85.9,50.08,86.28,50.87z"/>
	<path class="st0" d="M89.27,52.72c-0.65-0.57-1.53-1.13-1.52-1.91c0.01-0.78,0.87-1.8,1.51-1.78c0.77,0.03,1.66,1.02,1.61,1.86
		C90.83,51.6,90,52.26,89.27,52.72z"/>
	<path class="st0" d="M78.02,22.91c0.79,0.42,1.51,1.07,1.61,1.82c0.11,0.83-0.77,1.74-1.44,1.8c-0.88,0.09-1.63-0.96-1.7-1.73
		C76.42,24.05,77.39,23.5,78.02,22.91z"/>
	<path class="st1" d="M32.42,67.11c0.6,0.41,1.33-0.96,1.87,0.14c0.16,0.32,0.02,0.64-0.26,0.77c-0.8,0.38-1.36-0.09-1.88-0.64
		C32.25,67.3,32.33,67.21,32.42,67.11z"/>
	<path class="st2" d="M28.94,64.91c-0.07-0.04-0.15-0.08-0.22-0.12c0.04-0.04,0.09-0.11,0.12-0.1c0.08,0.02,0.15,0.07,0.23,0.11
		C29.02,64.83,28.98,64.86,28.94,64.91z"/>
</g>
</svg>
