<?xml version="1.0" encoding="utf-8"?>
<!-- Generator: Adobe Illustrator 25.4.1, SVG Export Plug-In . SVG Version: 6.00 Build 0)  -->
<svg version="1.1" id="Layer_1" xmlns="http://www.w3.org/2000/svg" xmlns:xlink="http://www.w3.org/1999/xlink" x="0px" y="0px"
	 viewBox="0 0 200 100" style="enable-background:new 0 0 200 100;" xml:space="preserve">
<style type="text/css">
	.st0{fill:#0B2245;}
</style>
<g>
	<path class="st0" d="M28.63,27.17c3,2.25,5.81,4.35,8.78,6.57c1.43-5.32,2.82-10.52,4.21-15.72c0.08,0,0.16,0,0.24,0
		c1.39,5.18,2.77,10.37,4.21,15.73c2.94-2.2,5.76-4.32,8.79-6.59c-0.44,3.73-0.85,7.23-1.29,10.94c3.62-0.43,7.12-0.84,10.88-1.29
		c-2.23,2.99-4.34,5.81-6.56,8.79c5.32,1.43,10.51,2.82,15.7,4.21c0.01,0.07,0.03,0.15,0.04,0.22c-5.18,1.39-10.35,2.78-15.73,4.23
		c2.19,2.96,4.31,5.82,6.55,8.86c-3.71-0.44-7.2-0.86-10.88-1.3c0.43,3.64,0.84,7.15,1.29,10.94c-3-2.25-5.81-4.37-8.79-6.61
		c-1.42,5.35-2.81,10.57-4.2,15.8c-0.07,0.01-0.13,0.03-0.2,0.04c-1.39-5.21-2.79-10.42-4.24-15.83c-2.9,2.17-5.71,4.28-8.76,6.57
		c0.44-3.76,0.86-7.26,1.29-10.93c-3.61,0.43-7.12,0.84-10.87,1.29c2.25-3.01,4.36-5.84,6.57-8.79c-5.31-1.42-10.47-2.81-15.64-4.2
		c-0.01-0.08-0.03-0.17-0.04-0.25c5.17-1.39,10.34-2.78,15.68-4.21c-2.18-2.92-4.31-5.78-6.58-8.83c3.7,0.44,7.16,0.84,10.81,1.27
		C29.49,34.45,29.08,30.93,28.63,27.17z M41.79,37.19c-6.97-0.01-12.67,5.67-12.72,12.7c-0.05,6.99,5.78,12.84,12.75,12.8
		c6.98-0.04,12.67-5.79,12.67-12.77C54.49,42.92,48.78,37.2,41.79,37.19z M41.83,75.53c0.05,0,0.1,0,0.15,0
		c0.78-2.97,1.57-5.94,2.38-9.03c-0.93,0.09-1.71,0.16-2.54,0.23C41.83,69.71,41.83,72.62,41.83,75.53z M58.52,49.9
		c3.03,0,5.96,0,8.88,0c0.01-0.05,0.01-0.09,0.02-0.14c-3-0.8-6-1.59-9.12-2.42C58.38,48.26,58.45,49.04,58.52,49.9z M25.11,49.99
		c-3.02,0-5.9,0-8.77,0c-0.01,0.05-0.02,0.09-0.02,0.14c2.96,0.78,5.91,1.56,8.96,2.37C25.21,51.57,25.16,50.82,25.11,49.99z
		 M41.79,24.49c-0.08-0.01-0.15-0.03-0.23-0.04c-0.78,2.95-1.56,5.89-2.36,8.94c0.93-0.09,1.71-0.16,2.54-0.23
		c0.02-0.21,0.05-0.38,0.05-0.54C41.79,29.9,41.79,27.19,41.79,24.49z M50.15,64.45c0.93,1.61,1.82,3.14,2.71,4.68
		c0.06-0.03,0.13-0.05,0.19-0.08c-0.25-1.96-0.49-3.93-0.76-6.03C51.52,63.54,50.9,63.95,50.15,64.45z M31.29,36.89
		c0.79-0.54,1.43-0.99,2.14-1.48c-0.9-1.55-1.77-3.06-2.65-4.57c-0.07,0.02-0.14,0.04-0.21,0.06C30.8,32.85,31.04,34.79,31.29,36.89
		z M56.29,41.55c1.57-0.92,3.09-1.81,4.61-2.7c-0.03-0.06-0.07-0.12-0.1-0.19c-1.95,0.25-3.89,0.49-5.96,0.76
		C55.37,40.2,55.8,40.83,56.29,41.55z M22.7,61.02c0.03,0.06,0.05,0.13,0.08,0.19c1.95-0.25,3.9-0.49,5.98-0.75
		c-0.53-0.78-0.98-1.42-1.46-2.13C25.73,59.25,24.22,60.14,22.7,61.02z M27.32,41.54c-1.58-0.92-3.11-1.81-4.64-2.71
		c-0.04,0.06-0.08,0.11-0.12,0.17c1.19,1.59,2.38,3.18,3.64,4.87C26.6,43.04,26.93,42.35,27.32,41.54z M35.77,65.57
		c-0.85-0.4-1.56-0.74-2.35-1.11c-0.91,1.58-1.8,3.13-2.69,4.67c0.05,0.04,0.1,0.08,0.15,0.12C32.49,68.05,34.08,66.84,35.77,65.57z
		 M52.8,30.84c-0.06-0.05-0.11-0.1-0.17-0.15c-1.58,1.18-3.15,2.37-4.82,3.62c0.84,0.4,1.54,0.74,2.32,1.12
		C51.04,33.87,51.92,32.36,52.8,30.84z M60.84,61c0.05-0.06,0.11-0.11,0.16-0.17c-1.19-1.59-2.38-3.18-3.62-4.84
		c-0.41,0.89-0.74,1.6-1.09,2.35C57.85,59.26,59.34,60.13,60.84,61z M34.46,38.47c0.43-0.6,0.87-0.95,0.83-1.24
		c-0.04-0.32-0.51-0.6-0.79-0.89c-0.3,0.28-0.78,0.53-0.83,0.86C33.63,37.49,34.05,37.85,34.46,38.47z M35.7,62.69
		c-0.54-0.42-0.89-0.9-1.15-0.85c-0.36,0.07-0.64,0.53-0.96,0.82c0.29,0.29,0.56,0.77,0.88,0.81C34.77,63.5,35.13,63.08,35.7,62.69z
		 M50.37,62.68c-0.54-0.4-0.87-0.85-1.16-0.82c-0.33,0.03-0.62,0.48-0.93,0.75c0.3,0.32,0.55,0.8,0.91,0.89
		C49.43,63.56,49.81,63.09,50.37,62.68z M49.11,38.46c0.43-0.59,0.87-0.94,0.83-1.22c-0.04-0.33-0.5-0.6-0.78-0.9
		c-0.3,0.28-0.78,0.53-0.83,0.85C48.28,37.49,48.71,37.85,49.11,38.46z M28.36,49.81c-0.61-0.38-0.98-0.78-1.26-0.73
		c-0.32,0.06-0.56,0.53-0.84,0.83c0.3,0.27,0.58,0.74,0.9,0.77C27.45,50.7,27.78,50.25,28.36,49.81z M57.69,49.98
		c-0.57-0.43-0.9-0.87-1.19-0.84c-0.32,0.03-0.6,0.48-0.9,0.75c0.27,0.3,0.52,0.77,0.83,0.83C56.72,50.78,57.09,50.36,57.69,49.98z"
		/>
	<path class="st0" d="M100.2,51.64c1.61-3.13,3.11-6.04,4.61-8.95c2.31-4.49,4.64-8.97,6.91-13.49c0.57-1.14,1.25-1.6,2.6-1.52
		c2.36,0.14,4.73-0.02,7.1,0.01c0.4,0.01,1.12,0.35,1.12,0.53c-0.01,0.48-0.2,1.15-0.55,1.4c-0.67,0.46-1.5,0.72-2.29,0.99
		c-1.12,0.37-1.73,1.12-1.86,2.28c-0.03,0.31-0.09,0.62-0.09,0.94c0,6.7,0.01,13.4,0.03,20.1c0.01,3.06,1.2,5.32,4.27,6.34
		c0.32,0.11,0.64,0.3,0.88,0.53c0.68,0.67,0.42,1.67-0.51,1.83c-0.71,0.12-1.46,0.12-2.19,0.05c-3.41-0.35-6.81-0.35-10.22,0.01
		c-0.55,0.06-1.14,0.11-1.67-0.01c-0.42-0.1-1.02-0.41-1.09-0.73c-0.09-0.41,0.18-1.22,0.47-1.32c2.28-0.8,2.12-2.64,2.12-4.48
		c-0.02-5.16-0.01-10.33-0.01-15.49c0-0.45,0-0.9,0-1.35c-0.08-0.03-0.15-0.06-0.23-0.09c-0.21,0.4-0.45,0.79-0.64,1.19
		c-3.23,6.72-6.44,13.44-9.67,20.16c-0.23,0.47-0.46,0.95-0.77,1.36c-0.82,1.11-1.71,1.06-2.31-0.17c-0.81-1.66-1.54-3.35-2.3-5.03
		c-2.47-5.46-4.94-10.92-7.41-16.37c-0.17-0.37-0.38-0.71-0.84-1.04c-0.04,0.38-0.12,0.75-0.12,1.13c-0.01,4.29,0,8.58-0.01,12.87
		c-0.01,3.2,1,5.75,4.27,6.92c0.28,0.1,0.63,0.28,0.75,0.52c0.2,0.4,0.43,0.94,0.31,1.32c-0.09,0.3-0.68,0.62-1.05,0.62
		c-1.11,0.02-2.22-0.17-3.33-0.18c-1.84-0.01-3.68,0.06-5.52,0.11c-0.59,0.02-1.19,0.16-1.77,0.07c-0.41-0.06-1.06-0.33-1.12-0.62
		c-0.09-0.42,0.12-1.03,0.42-1.38c0.34-0.4,0.91-0.62,1.39-0.9c1.68-0.99,2.52-2.46,2.52-4.4c0-6.66,0.04-13.33-0.02-19.99
		c-0.02-2.41-0.82-4.46-3.38-5.34c-0.38-0.13-0.8-0.38-1.01-0.7c-0.2-0.31-0.28-0.82-0.15-1.15c0.09-0.25,0.58-0.5,0.89-0.5
		c2.92-0.04,5.85-0.02,8.78-0.04c0.97-0.01,1.53,0.47,1.92,1.31c3.36,7.16,6.74,14.31,10.12,21.46
		C99.71,50.77,99.91,51.09,100.2,51.64z"/>
	<path class="st0" d="M156.95,46.3c0.12-3.97,0.66-7.43,2.42-10.59c3.22-5.77,8.38-8.2,14.77-8.47c2.91-0.12,5.66,0.61,8.36,1.62
		c0.59,0.22,1.18,0.42,1.76,0.67c0.79,0.34,1.39,0.38,1.92-0.53c0.22-0.38,0.99-0.64,1.48-0.6c0.3,0.03,0.72,0.71,0.78,1.14
		c0.39,2.83,0.69,5.67,1.01,8.51c0.03,0.24,0.07,0.53-0.04,0.72c-0.22,0.4-0.47,0.97-0.82,1.06c-0.34,0.09-0.93-0.23-1.2-0.55
		c-0.47-0.55-0.77-1.24-1.16-1.86c-1.46-2.38-3.21-4.48-5.65-5.9c-5.63-3.28-12.28-0.8-14.1,5.42c-1.46,5.01-1.53,10.06,0.83,14.89
		c1.6,3.28,3.99,5.74,7.76,6.37c2.92,0.49,5.63-0.34,8.06-1.9c1.42-0.91,2.64-2.14,3.95-3.23c0.65-0.55,1.3-1.47,2.22-0.81
		c0.94,0.68,0.3,1.62-0.13,2.34c-2.81,4.7-7.02,7.33-12.37,8.23c-6.92,1.17-14.19-2.22-17.68-8.22
		C157.56,51.91,156.97,48.97,156.95,46.3z"/>
	<path class="st0" d="M139.11,63.06c-2.22-0.49-5.42-1.15-8.59-1.94c-0.43-0.11-0.89-0.78-1.03-1.28c-0.69-2.37-1.27-4.78-1.89-7.17
		c-0.2-0.77-0.36-1.55,0.65-1.91c0.84-0.29,1.6,0.03,2.01,1c0.9,2.11,2.04,4.05,3.75,5.6c2.4,2.17,5.16,3.26,8.36,2.37
		c1.1-0.31,2.23-1.09,2.96-1.98c1.8-2.19,1.3-5.18-1.16-6.57c-1.98-1.12-4.22-1.8-6.31-2.73c-1.72-0.76-3.49-1.45-5.07-2.43
		c-4.15-2.57-5.82-7.72-4.13-12.25c1.66-4.43,6.37-7.26,11.12-6.5c1.84,0.29,3.64,0.91,5.43,1.46c0.94,0.29,1.78,0.39,2.72-0.07
		c1.33-0.64,1.94-0.17,2.03,1.27c0.14,2.19,0.37,4.37,0.56,6.56c0.03,0.35,0.08,0.69,0.09,1.04c0.02,0.71-0.28,1.35-1,1.35
		c-0.53,0-1.18-0.3-1.56-0.68c-0.36-0.36-0.44-1-0.62-1.53c-1.4-4.07-6-7.05-9.94-6.41c-2.92,0.47-4.56,2.72-3.82,5.24
		c0.42,1.41,1.44,2.32,2.71,2.89c1.78,0.79,3.63,1.42,5.44,2.14c1.33,0.53,2.66,1.03,3.96,1.63c6.49,2.97,7.18,9.9,4.85,14.5
		C148.46,60.93,144.88,62.95,139.11,63.06z"/>
	<path class="st0" d="M101.19,81.7c-1.49,0-2.83,0-4.17,0c1.12-0.6,0.83-1.64,0.84-2.57c0.01-1.15,0.02-2.3,0-3.45
		c-0.02-1.06,0.37-2.31-1.43-2.61c0.09-0.12,0.17-0.23,0.26-0.35c2.01,0.1,4.04,0.11,6.04,0.33c0.98,0.11,1.5,0.93,1.59,1.95
		c0.09,0.95-0.32,1.6-1.18,1.99c-0.12,0.05-0.22,0.15-0.43,0.3c0.93,1.36,1.28,3.12,3,3.87c-0.76,0.92-2.25,0.92-2.91-0.12
		c-0.56-0.88-0.99-1.84-1.56-2.71c-0.24-0.37-0.67-0.61-1.13-1.01C99.59,79.86,99.81,80.73,101.19,81.7z M99.91,75.12
		c0,0.21-0.03,0.42,0.01,0.63c0.07,0.39,0.13,1.07,0.27,1.1c0.51,0.08,1.29,0.12,1.54-0.18c0.39-0.47,0.62-1.25,0.55-1.85
		c-0.06-0.5-0.57-1.13-1.05-1.36c-0.89-0.44-1.31-0.08-1.32,0.94C99.91,74.63,99.91,74.87,99.91,75.12z"/>
	<path class="st0" d="M115.26,72.92c1.34,0,2.68,0,4.02,0c-1.15,0.61-0.89,1.69-0.9,2.67c-0.01,0.91-0.02,1.81,0.01,2.72
		c0.06,1.66,0.96,2.61,2.47,2.67c1.65,0.06,2.82-0.84,2.95-2.44c0.11-1.42,0.14-2.87,0-4.28c-0.05-0.48-0.73-0.9-1.15-1.37
		c0.85,0,1.79,0,2.89,0c-1.25,0.75-0.88,1.91-0.93,2.96c-0.05,0.97-0.01,1.96-0.15,2.92c-0.26,1.78-1.29,2.75-3.09,3.05
		c-0.48,0.08-0.97,0.14-1.45,0.12c-2.29-0.1-3.28-1.03-3.46-3.32c-0.08-1.08-0.05-2.16-0.07-3.24
		C116.38,74.42,116.66,73.32,115.26,72.92z"/>
	<path class="st0" d="M166.37,72.85c2.24,0,4.48,0,6.79,0c0,0.72,0,1.39,0,2.05c-0.54-1.49-1.77-1.46-2.99-1.38
		c-0.24,0.02-0.64,0.28-0.66,0.47c-0.08,0.76-0.11,1.54-0.02,2.29c0.07,0.58,1.35,0.61,1.97,0.05c0.22-0.2,0.38-0.45,0.71-0.86
		c0,1.13,0,2.05,0,2.75c-0.63-0.29-1.24-0.66-1.9-0.86c-0.52-0.15-0.85,0.17-0.82,0.77c0.02,0.42,0,0.84,0,1.26
		c0,1.85,0.39,2.14,2.21,1.58c0.42-0.13,0.84-0.35,1.18-0.63c0.31-0.25,0.51-0.62,0.88-1.08c0.19,1.74-0.43,2.53-1.77,2.53
		c-1.71,0.01-3.42-0.01-5.12-0.01c-0.06,0-0.12-0.04-0.34-0.13c1.42-0.83,0.95-2.16,0.99-3.34c0.04-0.94,0.01-1.88,0.01-2.82
		c0-1,0.08-2.05-1.32-2.41C166.24,73.01,166.31,72.93,166.37,72.85z"/>
	<path class="st0" d="M86.36,73.31c0.05,0.61,0.13,1.46,0.21,2.31c-0.07,0.04-0.15,0.07-0.22,0.11c-0.19-0.25-0.34-0.54-0.57-0.74
		c-0.64-0.57-1.23-1.27-1.99-1.6c-1.4-0.6-2.95,0.13-3.3,1.62c-0.25,1.08-0.34,2.32-0.07,3.37c0.63,2.48,3.03,3.2,5.08,1.67
		c0.35-0.26,0.67-0.55,1.14-0.95c-0.48,1.81-2.43,2.96-4.43,2.77c-1.77-0.17-3.18-0.99-3.78-2.7c-0.64-1.81-0.44-3.63,0.89-5.1
		c1.33-1.47,3.07-1.63,4.92-1.18C84.86,73.04,85.5,73.14,86.36,73.31z"/>
	<path class="st0" d="M150.26,78.71c0.31,0.53,0.48,0.86,0.68,1.17c0.64,0.96,1.5,1.68,2.68,1.42c0.52-0.11,1.14-0.71,1.3-1.23
		c0.11-0.34-0.39-1.07-0.8-1.35c-0.65-0.44-1.47-0.6-2.19-0.95c-1.45-0.7-2.04-1.99-1.58-3.33c0.48-1.38,1.81-2.03,3.4-1.64
		c0.59,0.14,1.17,0.29,1.96,0.49c0.05,0.55,0.12,1.35,0.19,2.14c-0.1,0.03-0.2,0.07-0.3,0.1c-0.13-0.24-0.21-0.53-0.41-0.7
		c-0.64-0.55-1.25-1.19-1.99-1.53c-0.67-0.31-1.43,0.01-1.69,0.79c-0.26,0.75,0.16,1.29,0.84,1.59c0.7,0.31,1.44,0.53,2.14,0.84
		c1.43,0.64,2.02,1.83,1.63,3.21c-0.4,1.45-1.68,2.33-3.16,2.17c-0.38-0.04-0.76-0.12-1.13-0.21
		C150.53,81.43,149.97,80.48,150.26,78.71z"/>
	<path class="st0" d="M189.49,73.25c0.05,0.66,0.1,1.45,0.16,2.24c-0.1,0.02-0.21,0.05-0.31,0.07c-0.13-0.25-0.27-0.5-0.39-0.76
		c-0.43-0.88-1.16-1.5-2.09-1.52c-0.53-0.01-1.27,0.41-1.56,0.86c-0.39,0.62,0.11,1.2,0.73,1.49c0.72,0.34,1.5,0.57,2.22,0.89
		c1.45,0.65,2.04,1.91,1.61,3.31c-0.44,1.41-1.77,2.25-3.24,2.05c-0.31-0.04-0.62-0.1-0.93-0.16c-1.41-0.3-1.95-1.17-1.69-3
		c0.26,0.43,0.41,0.7,0.58,0.97c0.6,0.96,1.37,1.68,2.6,1.65c0.77-0.02,1.35-0.36,1.53-1.16c0.17-0.78-0.24-1.27-0.91-1.56
		c-0.7-0.3-1.43-0.54-2.12-0.87c-1.5-0.72-2.07-2.03-1.54-3.43c0.5-1.33,1.91-1.94,3.47-1.52
		C188.19,72.98,188.78,73.09,189.49,73.25z"/>
	<path class="st0" d="M139.89,81.7c-1.32,0-2.63,0-4.25,0c1.42-0.73,1.12-1.86,1.13-2.89c0.01-1.12,0.01-2.23,0-3.35
		c-0.01-0.99,0.26-2.13-1.42-2.31c0.08-0.08,0.15-0.16,0.23-0.24c1.34,0,2.69,0,4.32,0c-1.48,0.6-1.18,1.7-1.19,2.69
		c-0.01,1.26,0.02,2.51-0.01,3.77c-0.03,0.96-0.01,1.86,1.35,2.04C140,81.51,139.94,81.6,139.89,81.7z"/>
	<path class="st0" d="M42.92,41.76c1.19-1.1,2.55-1.57,4.06-0.96c1.49,0.6,2.27,1.81,2.29,3.43c0.02,1.57,0,3.14,0.01,4.71
		c0,1.08,0.31,1.39,1.37,1.13c0.69-0.17,1.06-0.05,1.32,0.93c-0.88,0.02-1.77,0.25-2.52,0.02c-1.93-0.6-3.8-0.73-5.71-0.02
		c-1.43,0.53-2.89,0.39-4.3-0.09c-1.69-0.57-3.32-0.45-5.02,0.02c-0.85,0.23-1.8,0.13-2.93,0.19c0.24-0.61,0.34-0.88,0.47-1.2
		c0.34,0.07,0.64,0.16,0.94,0.2c1.01,0.13,1.31-0.13,1.32-1.13c0-2.68,0-5.36,0-8.18c1.23,0.16,2.47-0.42,3.69,0.51
		C40.14,40.21,41.07,40.26,42.92,41.76z M45.9,49.27c0-1.55,0.03-3.08-0.01-4.61c-0.02-0.75-0.42-1.25-1.24-1.25
		c-0.72,0-1.14,0.42-1.16,1.09c-0.04,1.8-0.02,3.6-0.02,5.48C44.34,49.72,45.09,49.5,45.9,49.27z M40.1,49.9
		c0-1.82,0.01-3.58,0-5.35c-0.01-0.77-0.49-1.15-1.19-1.17c-0.76-0.02-1.16,0.44-1.17,1.17c-0.03,1.42-0.03,2.85,0.01,4.27
		c0.01,0.22,0.26,0.56,0.47,0.63C38.79,49.66,39.41,49.75,40.1,49.9z"/>
	<path class="st0" d="M41.16,53.7c-0.88-0.1-1.82,0.35-2.63-0.49c-0.18-0.19-0.78-0.03-1.16,0.08c-0.13,0.04-0.3,0.51-0.23,0.59
		c0.23,0.27,0.53,0.54,0.86,0.66c0.59,0.21,1.22,0.29,1.82,0.46c0.91,0.26,1.4,0.92,1.47,1.82c0.08,0.96-0.38,1.71-1.26,2.09
		c-1.26,0.53-2.57,0.6-3.87,0.15c-0.88-0.3-1.35-0.93-1.46-1.94c0.91,0.07,1.8-0.37,2.64,0.41c0.22,0.21,0.84,0.04,1.26-0.04
		c0.11-0.02,0.28-0.45,0.23-0.5c-0.27-0.27-0.57-0.57-0.92-0.69c-0.61-0.22-1.29-0.29-1.91-0.5c-0.86-0.3-1.39-0.92-1.42-1.86
		c-0.03-0.96,0.4-1.69,1.29-2.08c1.46-0.64,2.94-0.62,4.31,0.16c0.51,0.29,0.82,0.92,1.22,1.39C41.32,53.5,41.24,53.6,41.16,53.7z"
		/>
	<path class="st0" d="M48.8,54.48c-0.93,0.05-1.85,0.33-2.54-0.75c-0.4-0.62-1.41-0.4-1.66,0.36c-0.21,0.65-0.26,1.43-0.13,2.11
		c0.08,0.41,0.59,0.91,1,1.02c0.31,0.08,0.74-0.47,1.16-0.62c0.66-0.24,1.36-0.38,2.22-0.61c-0.13,1.58-0.82,2.44-1.95,3
		c-1.24,0.6-2.39,0.36-3.41-0.47c-1.89-1.53-1.52-5.45,0.59-6.62C46.12,50.75,48.79,52.19,48.8,54.48z"/>
</g>
</svg>
