<?xml version="1.0" encoding="utf-8"?>
<!-- Generator: Adobe Illustrator 25.4.1, SVG Export Plug-In . SVG Version: 6.00 Build 0)  -->
<svg version="1.1" id="Layer_1" xmlns="http://www.w3.org/2000/svg" xmlns:xlink="http://www.w3.org/1999/xlink" x="0px" y="0px"
	 viewBox="0 0 200 100" style="enable-background:new 0 0 200 100;" xml:space="preserve">
<style type="text/css">
	.st0{fill:#A8AAAD;}
	.st1{fill:#B5995C;}
	.st2{fill:#FDFDFD;}
</style>
<g>
	<path class="st0" d="M153.45,28.91c-1.73,0.83-2.55,2.9-2,5.01c0.46,1.74,1.47,3.16,2.68,4.45c2.93,3.16,6.43,5.69,9.57,8.62
		c2.3,2.14,4.35,4.45,5.75,7.28c1.04,2.11,1.17,4.26,0.12,6.44c-1.79,3.74-5.06,5.87-8.53,7.83c0.31-1.06,0.74-2.02,0.88-3.1
		c0.4-3.01-0.96-5.36-2.75-7.53c-1.45-1.75-3.02-3.41-4.58-5.07c-3.32-3.55-6.86-6.91-9.75-10.84c-1.48-2.02-2.77-4.12-2.81-6.79
		c-0.03-2.73,1.44-4.45,3.62-5.65c2.64-1.46,5.55-1.87,8.54-1.71c0.19,0.01,0.37,0.19,0.56,0.29l0.01-0.01
		c-0.24-0.02-0.45,0.01-0.54,0.27l0.02-0.01c-0.17,0.02-0.29,0.08-0.28,0.28l0.01-0.01c-0.26-0.07-0.45,0-0.54,0.27L153.45,28.91z"
		/>
	<path class="st0" d="M141.19,34.27c0.03,6.15,4.34,9.9,8.04,13.99c3.41,3.76,7.11,7.26,10.12,11.37c2.3,3.14,2.43,6.45,0.31,9.06
		c-1.24,1.52-3.01,2.21-4.83,2.77c-1.48,0.45-3.02,0.48-4.53,0.73c-0.53,0.09-0.85-0.06-0.83-0.67c0.15-6.52-2.7-11.85-6.59-16.84
		c-2.04-2.61-3.99-5.33-4.62-8.73c-0.75-4.06,0.06-7.79,2.32-11.23C140.7,34.52,140.78,34.2,141.19,34.27z"/>
	<path class="st1" d="M107.5,43.35c2.72,0,5.44-0.01,8.16,0c1.66,0,2.17,0.67,1.84,2.32c-0.07,0.35-0.64,0.91,0.11,1.03
		c0.64,0.1,1.48,0.44,1.84-0.67c0.84-2.62,1.75-5.22,2.64-7.82c0.64-1.88,0.77-1.93,2.69-1.75c0.54,0.05,0.68,0.17,0.49,0.71
		c-1.36,3.97-2.71,7.93-4.03,11.91c-0.27,0.81-0.88,0.58-1.41,0.58c-8.92,0.01-17.85,0.03-26.77-0.01c-1.15-0.01-1.9,0.12-2.41,1.38
		c-0.65,1.61-2.5,2.23-4.12,1.71c-0.95-0.31-1.57-1.57-1.21-2.46c0.26-0.65,0.85-0.4,1.25-0.35c1.08,0.14,1.58-0.29,1.85-1.31
		c0.32-1.22,0.78-2.41,1.21-3.6c0.25-0.69,2.8-1.23,3.21-0.67c0.34,0.46-0.07,0.93-0.23,1.35c-0.31,0.79-0.19,1.1,0.73,1.07
		c1.49-0.05,2.99-0.06,4.48,0.01c0.82,0.04,1.21-0.26,1.38-1.02c0.11-0.51,0.32-1,0.5-1.49c0.19-0.52,0.23-1.06,1.04-1.12
		c2.11-0.15,2.2-0.08,1.5,1.95c-0.06,0.17-0.16,0.33-0.15,0.5c0.01,0.38-0.76,0.9,0.05,1.12c0.59,0.16,1.24,0.19,1.53-0.73
		c0.9-2.88,1.91-5.72,2.88-8.57c0.27-0.79,2.2-1.37,2.85-0.86c0.4,0.31,0.04,0.64-0.05,0.94C108.78,39.46,107.89,41.32,107.5,43.35
		c-0.04,0.01-0.08,0.03-0.11,0.05c-0.01,0.01,0,0.06,0.01,0.09C107.43,43.44,107.47,43.39,107.5,43.35z M110.16,46.93
		c1.1,0,2.19,0.01,3.29-0.01c0.32-0.01,0.8,0.14,0.81-0.39c0.01-0.52-0.44-0.56-0.86-0.56c-1.97,0-3.95,0-5.92,0
		c-0.17,0-0.35,0-0.52,0.03c-0.34,0.05-0.6,0.28-0.62,0.59c-0.04,0.52,0.42,0.32,0.67,0.33C108.06,46.95,109.11,46.93,110.16,46.93z
		"/>
	<path class="st1" d="M32.27,49.69c1.24-3.6,2.42-7.06,3.61-10.52c0.16-0.45,0.38-0.9,0.46-1.36c0.19-1.15,0.87-1.38,1.94-1.36
		c1.03,0.02,1.31,0.22,0.93,1.26c-0.96,2.62-1.79,5.29-2.76,7.92c-0.36,0.99-0.09,1.16,0.87,1.15c1.41-0.01,2.72,0.07,3.76-1.25
		c0.61-0.77,1.67-1.12,2.73-1.12c1.04,0,2,0.33,2.26,1.43c0.41,1.69,1.69,0.67,2.55,0.91c0.89,0.26,1.11-0.42,1.3-1.07
		c0.07-0.25,0.17-0.5,0.25-0.75c0.62-1.86,0.93-2.04,2.95-2.08c1.61-0.03,3.23,0.22,4.95-0.27c-0.29,0.87-0.55,1.59-0.77,2.33
		c-0.16,0.55-0.56,0.59-1.03,0.58c-0.7-0.01-1.41-0.02-2.11,0.01c-0.71,0.03-1.24,0.34-1.54,1.26c2.01,0,3.91-0.01,5.82,0
		c0.61,0,0.65-0.47,0.79-0.88c0.95-2.77,1.89-5.54,2.85-8.3c0.32-0.93,2.06-1.54,2.89-1.06c0.35,0.21,0.15,0.45,0.07,0.67
		c-1.35,3.97-2.72,7.93-4.06,11.9c-0.24,0.7-0.77,0.6-1.28,0.6c-4.48,0-8.97,0.01-13.45-0.01c-0.74,0-1.34,0.13-1.88,0.68
		c-0.69,0.7-1.58,1.11-2.56,1.26c-0.92,0.14-1.96,0-2.32-0.84c-0.52-1.2-1.38-1.1-2.35-1.09C35.58,49.7,34,49.69,32.27,49.69z
		 M43.57,47.74c-0.02-0.42-0.2-0.73-0.62-0.71c-0.77,0.04-1.19,0.53-1.29,1.25c-0.06,0.42,0.25,0.64,0.67,0.6
		C43.03,48.81,43.38,48.35,43.57,47.74z"/>
	<path class="st0" d="M42.83,63.57c-2.11,2.35-3.77,5.03-5.73,7.49c-0.57,0.71-3.36,1.31-4.07,0.79c-0.43-0.31-0.39-0.85-0.45-1.32
		c-0.29-2.42-0.56-4.85-1.04-7.31c-0.7,2.54-1.47,5.07-2.08,7.63c-0.21,0.89-0.59,1.16-1.43,1.09c-0.66-0.05-1.32-0.05-1.98,0
		c-0.88,0.07-1.17-0.14-0.86-1.08c1.09-3.32,2.14-6.65,3.16-9.99c0.23-0.73,0.56-1.06,1.38-1.02c1.58,0.07,3.17,0.04,4.75,0.01
		c0.65-0.01,0.93,0.17,0.97,0.87c0.13,2.09,0.34,4.17,0.54,6.62c1.03-1.45,2.1-2.56,2.7-3.89c1.42-3.13,3.72-4.04,7.02-3.65
		c2.35,0.28,2.37,0.05,1.64,2.36c-0.91,2.87-1.83,5.74-2.69,8.63c-0.25,0.85-0.63,1.16-1.56,1.15c-3.1-0.04-3.09,0-2.07-2.96
		C41.67,67.21,42.55,65.49,42.83,63.57c0.11-0.01,0.23-0.02,0.1-0.18C42.9,63.45,42.86,63.51,42.83,63.57z"/>
	<path class="st1" d="M182.47,37.03c-2.33,1.23-4.68,2.39-7.36,2.59c-2.54,0.19-5.08,0.29-7.61,0.57c-2.33,0.26-4.65,0.73-5.9,3.09
		c-0.28,0.54-0.58,0.22-0.83,0.02c-2.05-1.65-4.09-3.3-5.9-5.22c-0.47-0.5-0.48-0.83,0.01-1.3c1.56-1.46,3.33-2.35,5.52-2.42
		c4.22-0.14,8.42,0.5,12.64,0.27c4.65-0.26,9.28-0.72,13.85-3.17c-0.93,2.03-1.99,3.49-3.53,4.61c-0.35,0.25-0.99,0.3-0.9,0.97
		L182.47,37.03z"/>
	<path class="st1" d="M154.75,28.13c4.13-0.57,8.08,0.69,12.1,1.21c5.85,0.74,11.68,1.42,17.54,0.14c1.8-0.39,3.48-1.07,5.23-2.3
		c-0.92,2.26-2.43,3.51-4.26,4.41c-3.13,1.54-6.52,1.94-9.94,2.31c-4.79,0.52-9.56-0.18-14.34-0.13c-2.51,0.03-4.67,0.75-6.45,2.47
		c-0.61,0.59-0.9,0.58-1.38-0.12c-1.58-2.32-1.61-4.33,0.01-6.65c0.12-0.17,0.32-0.32,0.17-0.57c0,0-0.02,0.01-0.02,0.01
		c0.31,0.17,0.44-0.03,0.54-0.27c0,0-0.01,0.01-0.01,0.01c0.18-0.01,0.32-0.05,0.28-0.28l-0.02,0.01c0.27,0.09,0.48,0.05,0.54-0.27
		L154.75,28.13z"/>
	<path class="st0" d="M69.04,63.01c-0.74,2.59-1.51,5.18-2.2,7.78c-0.22,0.84-0.56,1.2-1.51,1.19c-3.11-0.04-3.11,0.01-2.19-2.94
		c0.85-2.71,1.73-5.41,2.54-8.13c0.22-0.76,0.56-1.06,1.38-1.03c1.67,0.06,3.34,0.07,5.01,0c0.86-0.04,1.13,0.3,1.25,1.08
		c0.36,2.33,0.78,4.64,1.18,6.96c0.03,0.2-0.03,0.45,0.42,0.59c0.55-1.82,1.11-3.62,1.63-5.44c0.93-3.26,0.91-3.27,4.3-3.17
		c0.22,0.01,0.43,0.04,0.79,0.08c-0.72,2.34-1.43,4.63-2.14,6.91c-0.43,1.38-0.9,2.74-1.29,4.13c-0.2,0.7-0.54,0.99-1.3,0.96
		c-1.71-0.05-3.43-0.05-5.14,0c-0.84,0.02-1.13-0.28-1.24-1.1c-0.37-2.63-0.83-5.24-1.26-7.85C69.19,63.01,69.12,63.01,69.04,63.01z
		"/>
	<path class="st0" d="M121.53,67.18c1.86,0.93,2.02,1.23,1.48,2.75c-0.24,0.67-0.15,1.74-0.91,1.9c-1.09,0.24-2.28,0.15-3.41,0.06
		c-0.6-0.05-0.32-0.59-0.23-0.95c0.51-2.03,0.42-2.14-1.7-2.15c-0.18,0-0.36,0.03-0.53,0c-1.5-0.29-2.32,0.32-2.51,1.82
		c-0.13,1.04-0.7,1.4-1.8,1.36c-2.77-0.08-2.81-0.03-2.04-2.6c0.87-2.89,1.82-5.75,2.71-8.63c0.2-0.64,0.51-0.89,1.21-0.88
		c2.73,0.05,5.46,0.01,8.18,0.05c0.65,0.01,1.32,0.13,1.94,0.3c1.24,0.35,1.75,1.23,1.47,2.53
		C124.94,64.78,124.3,66.69,121.53,67.18z M117.35,65.98c0.65-0.05,1.33-0.01,1.96-0.17c1.14-0.3,1.4-1.31,1.36-2.28
		c-0.04-1.07-1.01-0.69-1.64-0.75c-0.57-0.05-1.14,0.03-1.71-0.02c-0.84-0.08-1.22,0.21-1.45,1.07
		C115.3,65.95,115.24,65.93,117.35,65.98z"/>
	<path class="st0" d="M15.89,71.96c-1.32,0.04-2.63,0.07-3.92-0.27c-1.93-0.52-2.68-1.69-2.17-3.61c0.4-1.52,0.88-3.02,1.41-4.49
		c0.62-1.74,1.98-2.8,3.71-3.25c2.79-0.72,5.66-0.73,8.47-0.15c2.04,0.42,2.72,1.71,2.19,3.72c-0.37,1.39-0.78,2.78-1.29,4.12
		c-1.06,2.8-3.44,3.66-6.15,3.93C17.38,72.02,16.63,71.96,15.89,71.96z M16.66,69.11c2.72,0,3.02-0.23,3.76-2.79
		c0.2-0.71,0.47-1.41,0.67-2.12c0.25-0.86-0.08-1.41-0.98-1.43c-3.82-0.1-4.31-0.45-5.35,3.29c-0.02,0.08-0.07,0.16-0.09,0.24
		C13.85,68.82,14.06,69.11,16.66,69.11z"/>
	<path class="st0" d="M45.54,71.95c0.76-1.58,1.81-2.75,2.68-4.03c1.65-2.42,3.39-4.78,5.05-7.19c0.41-0.6,0.85-0.89,1.61-0.85
		c1.4,0.06,2.81,0.08,4.21-0.01c0.92-0.06,1.24,0.31,1.31,1.14c0.21,2.82,0.48,5.64,0.64,8.47c0.14,2.47,0.1,2.43-2.48,2.49
		c-1.13,0.03-1.92-0.1-1.75-1.5c0.07-0.57-0.37-0.6-0.79-0.6c-1.36,0-2.72,0.02-4.08-0.01c-0.57-0.01-0.96,0.25-1.14,0.72
		c-0.52,1.31-1.54,1.48-2.77,1.38C47.24,71.9,46.46,71.95,45.54,71.95z M56.57,62.5c-1.1,1.05-1.63,1.94-2.18,2.81
		c-0.41,0.65-1.44,1.49-1.05,1.92c0.59,0.66,1.79,0.18,2.73,0.23c0.3,0.02,0.49-0.18,0.49-0.49C56.57,65.61,56.57,64.24,56.57,62.5z
		"/>
	<path class="st0" d="M97.33,59.97c1.01,0,2.2-0.34,2.97,0.09c0.8,0.45,0.36,1.77,0.47,2.69c0.32,2.68,0.43,5.39,0.67,8.08
		c0.08,0.87-0.21,1.21-1.09,1.12c-0.52-0.05-1.06-0.06-1.58,0c-1.09,0.14-1.78-0.17-1.76-1.39c0.01-0.59-0.35-0.71-0.86-0.7
		c-1.36,0.02-2.72,0.01-4.09,0c-0.39,0-0.73,0.09-0.87,0.45c-0.64,1.62-1.94,1.82-3.44,1.63c-0.59-0.08-1.45,0.31-1.71-0.21
		c-0.25-0.49,0.48-1.03,0.82-1.51c2.24-3.19,4.5-6.36,6.72-9.56c0.4-0.57,0.81-0.84,1.51-0.79c0.74,0.05,1.49,0.01,2.24,0.01
		C97.33,59.92,97.33,59.94,97.33,59.97z M93.18,67.48c1.14,0,2-0.04,2.86,0.01c0.7,0.04,0.94-0.25,0.88-0.92
		c-0.11-1.27-0.2-2.55-0.33-4.14C95.39,64.21,94.36,65.73,93.18,67.48z"/>
	<path class="st1" d="M26.18,42.03c-0.12,1.23-0.65,2.35-1.09,3.48c-0.45,1.15-0.05,1.37,0.98,1.26c0.35-0.04,0.71-0.05,1.05,0
		c1.44,0.21,2.43-0.15,2.71-1.78c0.12-0.71,2.01-1.18,2.53-0.73c0.25,0.21,0.14,0.47,0.06,0.72c-0.42,1.24-0.84,2.48-1.28,3.71
		c-0.21,0.58-0.66,0.95-1.3,0.95c-2.94,0.01-5.88,0.01-8.94,0.01c0.31-0.97,0.6-1.83,0.85-2.7c0.1-0.36,0.57-0.89-0.2-1.02
		c-0.52-0.09-1.18-0.26-1.44,0.52c-0.36,1.08-0.73,2.15-1.11,3.22c-0.98,2.78-4.78,4.41-7.53,3.23c-1.41-0.6-1.85-1.8-1.25-3.38
		c0.41-1.07,1.21-1.85,2.47-2.4c0.3,0.34,0,0.65-0.09,0.93c-0.51,1.59-0.51,1.46,1.22,1.63c1.58,0.16,2.28-0.42,2.6-1.9
		c0.24-1.1,0.72-2.15,1.06-3.23c0.37-1.23,1.17-1.78,2.45-1.71c0.75,0.04,1.5-0.02,2.24,0.01c1.41,0.07,2.79,0,4.01-0.82
		L26.18,42.03z"/>
	<path class="st1" d="M182.46,37.04c0.57,0.42,0.75-0.42,1.29-0.37c-0.59,2.43-2.06,4.22-4.03,5.61c-2.16,1.53-4.59,2.55-7.06,3.49
		c-2.12,0.81-4.12,1.76-4.05,4.99c-1.6-1.63-2.86-2.93-4.14-4.21c-0.4-0.4-0.82-0.79-1.25-1.17c-1.37-1.21-1.35-1.86,0.15-3.02
		c1.87-1.44,4.1-1.71,6.35-1.83c2.32-0.12,4.65-0.21,6.95-0.6c1.89-0.32,3.62-1.05,5.22-2.08c0.28-0.18,0.8-0.27,0.56-0.83
		C182.47,37.03,182.46,37.04,182.46,37.04z"/>
	<path class="st0" d="M108.3,59.89c2.22,0,2.21,0,1.54,2.1c-0.93,2.91-1.87,5.82-2.75,8.75c-0.26,0.88-0.63,1.26-1.63,1.25
		c-3.08-0.05-3.07,0-2.13-2.94c0.76-2.37,1.49-4.75,2.26-7.11C106.4,59.43,105.86,59.96,108.3,59.89z"/>
	<path class="st1" d="M74.54,47.01c-0.3,0.97-0.53,1.71-0.82,2.64c1.12,0,2.14-0.01,3.17,0c0.61,0.01,0.66-0.47,0.79-0.87
		c0.44-1.28,0.86-2.56,1.31-3.83c0.21-0.6,2.85-1.1,3.26-0.63c0.21,0.24,0.01,0.5-0.07,0.74c-0.55,1.65-1.05,3.33-1.69,4.95
		c-1.01,2.57-4.92,4.04-7.47,2.87c-1.23-0.57-1.73-1.57-1.33-2.9C72.11,48.63,72.91,47.59,74.54,47.01z"/>
	<path class="st1" d="M63.74,49.67c-1.36,0.27-1.34-0.27-0.97-1.32c1.3-3.61,2.51-7.24,3.75-10.87c0.29-0.84,2.07-1.43,2.8-0.94
		c0.36,0.24,0.16,0.55,0.08,0.81c-1.32,3.88-2.67,7.74-3.96,11.62C65.11,49.98,64.34,49.6,63.74,49.67z"/>
	<path class="st1" d="M89.55,36.48c-1.3,3.81-2.56,7.47-3.81,11.13c-0.1,0.29-0.2,0.57-0.3,0.86c-0.36,1.05-1.81,1.65-2.79,1.18
		c-0.41-0.2-0.27-0.52-0.18-0.78c1.35-3.96,2.73-7.9,4.08-11.86c0.13-0.39,0.36-0.55,0.77-0.54C88.02,36.5,88.71,36.48,89.55,36.48z
		"/>
	<path class="st1" d="M124.08,49.68c-1.28,0.22-1.44-0.23-1.03-1.35c1.29-3.57,2.48-7.16,3.72-10.75c0.32-0.93,1.97-1.54,2.87-1.07
		c0.37,0.19,0.17,0.43,0.09,0.65c-1.34,3.96-2.71,7.92-4.04,11.88C125.38,49.97,124.64,49.58,124.08,49.68z"/>
	<path class="st1" d="M53.42,40.24c0.04,1.01-0.52,1.54-1.45,1.71c-0.69,0.13-1.39,0.21-2.08,0.27c-0.27,0.03-0.67,0.18-0.72-0.3
		c-0.04-0.36,0.06-0.82,0.43-0.86c0.89-0.1,1.2-0.69,1.56-1.36c0.27-0.51,0.8-0.8,1.45-0.64C53.21,39.22,53.43,39.65,53.42,40.24z"
		/>
	<path class="st1" d="M30.66,41.7c0.08-0.63,0.44-1.25,1.42-1.28c0.83-0.02,1.22,0.49,1.18,1.22c-0.04,0.92-0.57,1.6-1.53,1.62
		C30.95,43.28,30.61,42.7,30.66,41.7z"/>
	<path class="st1" d="M99.86,52c-0.06,0.85-0.5,1.41-1.37,1.42c-0.66,0.01-1.02-0.46-0.98-1.13c0.05-0.84,0.5-1.43,1.37-1.44
		C99.53,50.86,99.89,51.31,99.86,52z"/>
	<path class="st1" d="M13.25,55.04c0.11-0.8,0.55-1.38,1.42-1.36c0.65,0.01,1.01,0.53,0.94,1.17c-0.08,0.82-0.5,1.4-1.41,1.38
		C13.48,56.22,13.26,55.72,13.25,55.04z"/>
	<path class="st1" d="M94.55,52.08c0.06-0.65,0.5-1.22,1.37-1.21c0.66,0,1.01,0.51,0.97,1.15c-0.06,0.82-0.51,1.43-1.39,1.41
		C94.84,53.42,94.52,52.94,94.55,52.08z"/>
	<path class="st1" d="M10.27,55.02c0.14-0.8,0.55-1.35,1.36-1.33c0.73,0.02,1.08,0.57,0.99,1.26c-0.11,0.82-0.59,1.36-1.5,1.27
		C10.39,56.16,10.27,55.61,10.27,55.02z"/>
	<polygon class="st0" points="141.35,33.77 141.44,33.73 141.43,33.83 	"/>
	<path class="st1" d="M26.2,42.04c0.01-0.03,0.03-0.07,0.04-0.1c-0.02,0.03-0.04,0.06-0.06,0.08C26.18,42.03,26.2,42.04,26.2,42.04z
		"/>
	<path class="st2" d="M154.76,28.12c-0.06,0.32-0.27,0.36-0.54,0.27C154.31,28.12,154.52,28.09,154.76,28.12z"/>
	<path class="st2" d="M153.97,28.64c-0.1,0.25-0.23,0.44-0.54,0.27C153.52,28.64,153.71,28.58,153.97,28.64z"/>
	<path class="st2" d="M154.24,28.38c0.04,0.22-0.1,0.27-0.28,0.28C153.94,28.45,154.07,28.39,154.24,28.38z"/>
	<path class="st2" d="M107.5,43.35c-0.03,0.05-0.07,0.09-0.1,0.14c0-0.03-0.02-0.07-0.01-0.09
		C107.42,43.37,107.46,43.36,107.5,43.35L107.5,43.35z"/>
	<path class="st2" d="M42.83,63.57c0.03-0.06,0.07-0.12,0.1-0.18C43.06,63.55,42.94,63.56,42.83,63.57
		C42.82,63.57,42.83,63.57,42.83,63.57z"/>
</g>
</svg>
