<?xml version="1.0" encoding="utf-8"?>
<!-- Generator: Adobe Illustrator 25.4.1, SVG Export Plug-In . SVG Version: 6.00 Build 0)  -->
<svg version="1.1" id="Layer_1" xmlns="http://www.w3.org/2000/svg" xmlns:xlink="http://www.w3.org/1999/xlink" x="0px" y="0px"
	 viewBox="0 0 200 100" style="enable-background:new 0 0 200 100;" xml:space="preserve">
<style type="text/css">
	.st0{fill:#ED222A;}
	.st1{fill:#F3B42A;}
	.st2{fill:#323490;}
	.st3{fill:#050505;}
</style>
<path class="st0" d="M58.16,52.57c1.98-1.65,3.97-3.3,5.95-4.96c6.41-5.4,12.82-10.81,19.23-16.22c1.25-1.06,2.5-2.12,3.76-3.18
	c0.2-0.17,0.41-0.34,0.72-0.59c0,1-0.24,1.84-0.39,2.68c-1.31,7.42-2.65,14.83-3.98,22.24c-1.1,6.16-2.21,12.31-3.32,18.47
	c-0.19,1.05-0.19,1.05-1.22,1.05c-14.17,0-28.34,0.01-42.51,0.01c-0.36,0-0.73-0.03-1.09-0.04c0.07-0.11,0.13-0.22,0.2-0.32
	c3.22-2.71,6.45-5.41,9.67-8.12c2.57-2.16,5.14-4.33,7.71-6.49c1.76-1.48,3.51-2.98,5.26-4.47L58.16,52.57z"/>
<path class="st1" d="M58.13,52.62c-1.75,1.49-3.5,2.98-5.26,4.47c-2.57,2.17-5.14,4.33-7.71,6.49c-3.22,2.71-6.44,5.41-9.67,8.12
	c-1.25-0.45-2.56-0.71-3.83-1.12c-0.97-0.31-1.95-0.41-2.95-0.46c-4.84-0.27-9.68-0.53-14.51-0.8c-0.3-0.02-0.61-0.01-0.89-0.16
	c0.32-0.39,0.69-0.73,1.14-0.97c2.27,0.14,4.54,0.29,6.81,0.43c2.88,0.17,5.75,0.34,8.63,0.5c0.3,0.02,0.61,0.03,0.91-0.01
	c1.45-0.16,2.89-0.33,4.34-0.51c0.48-0.06,0.97-0.15,1.65-0.25c-1.4-0.75-2.61-1.37-3.8-2.04c-0.98-0.56-2.01-0.99-3.11-1.25
	c-1.03-0.25-2.06-0.52-3.08-0.82c-1.92-0.55-3.88-0.98-5.77-1.61c0.29-0.37,0.68-0.64,1.07-0.9c0.23,0.23,0.54,0.25,0.83,0.33
	c2.34,0.63,4.69,1.24,7.02,1.9c1.17,0.33,2.35,0.58,3.57,0.65c0.79,0.04,1.57,0.11,2.36,0.16c0.65,0.04,1.3,0.06,1.96,0.09
	c-0.43-0.5-0.91-0.85-1.4-1.19c-1.12-0.77-2.15-1.72-3.38-2.3c-2.27-1.08-4.6-2.03-6.91-3.04c0.28-0.35,0.61-0.65,1.01-0.87
	c2.02,1.04,4.09,1.98,6.21,2.77c2.13,0.79,4.44,0.87,6.69,1.23c-0.84-1.01-1.72-1.92-2.57-2.86c-0.82-0.9-1.7-1.72-2.67-2.46
	c-1.06-0.81-2.08-1.67-3.11-2.51c0.23-0.32,0.53-0.54,0.87-0.73c1.4,1.11,2.79,2.23,4.2,3.34c0.19,0.15,0.42,0.24,0.64,0.33
	c1.6,0.64,3.21,1.28,4.82,1.91c0.15,0.06,0.31,0.21,0.47,0.01c-1.56-3.32-3.56-6.34-6-9.06c0.23-0.33,0.54-0.57,0.88-0.77
	c0.98,1.23,1.97,2.46,2.95,3.69c0.25,0.32,0.53,0.57,0.86,0.8c1.33,0.89,2.66,1.79,4,2.69c0.18,0.12,0.34,0.3,0.66,0.28
	c-0.42-1.6-0.83-3.14-1.22-4.7c-0.16-0.63-0.4-1.19-0.75-1.73c-0.91-1.39-1.8-2.81-2.69-4.21c0.26-0.31,0.54-0.59,0.91-0.77
	c2.06,3.43,4.27,6.74,7.23,9.69c0-0.65,0-1.15,0-1.65c-0.01-1.64,0.14-3.3-0.06-4.91c-0.32-2.71-0.86-5.39-1.3-8.08
	c0.29-0.4,0.7-0.67,1.09-0.96c0.46,2.82,0.92,5.64,1.38,8.45c0.07,0.45,0.17,0.89,0.4,1.3c0.72,1.27,1.41,2.56,2.12,3.83
	c0.11,0.2,0.15,0.47,0.51,0.55c0.39-1.43,0.75-2.87,1.18-4.28c0.34-1.12,0.45-2.25,0.47-3.41c0.04-2.25,0.12-4.5,0.17-6.74
	c0.03-1.64,0.13-3.28,0.03-4.92c0.36-0.42,0.76-0.8,1.26-1.07c0.01,0.39,0.03,0.79,0.02,1.18c-0.05,2.12-0.11,4.24-0.17,6.36
	c-0.04,1.3-0.05,2.61-0.13,3.9c-0.12,1.92-0.02,3.8,0.64,5.64c0.27,0.74,0.39,1.52,0.62,2.28C57.84,52.11,57.8,52.46,58.13,52.62z"
	/>
<path class="st2" d="M21.05,62.62c1.9,0.63,3.85,1.06,5.77,1.61c1.02,0.29,2.05,0.57,3.08,0.82c1.1,0.27,2.12,0.7,3.11,1.25
	c1.18,0.67,2.4,1.29,3.8,2.04c-0.68,0.1-1.16,0.19-1.65,0.25c-1.44,0.18-2.89,0.35-4.34,0.51c-0.3,0.03-0.61,0.02-0.91,0.01
	c-2.88-0.16-5.76-0.33-8.63-0.5c-2.27-0.14-4.54-0.28-6.81-0.43C16.66,66.33,18.85,64.47,21.05,62.62z"/>
<path class="st2" d="M58.13,52.62c-0.33-0.16-0.29-0.51-0.37-0.78c-0.23-0.75-0.36-1.54-0.62-2.28c-0.66-1.83-0.76-3.72-0.64-5.64
	c0.08-1.3,0.09-2.6,0.13-3.9c0.06-2.12,0.12-4.24,0.17-6.36c0.01-0.39-0.01-0.79-0.02-1.18c1.89-1.61,3.78-3.22,5.67-4.83
	c0.04,0.03,0.09,0.06,0.13,0.09c-1.47,8.27-2.94,16.55-4.42,24.82C58.16,52.57,58.13,52.62,58.13,52.62z"/>
<path class="st2" d="M55.52,33.56c0.09,1.64,0,3.28-0.03,4.92c-0.04,2.25-0.13,4.5-0.17,6.74c-0.02,1.16-0.13,2.29-0.47,3.41
	c-0.43,1.41-0.79,2.84-1.18,4.28c-0.35-0.09-0.4-0.36-0.51-0.55c-0.71-1.27-1.4-2.56-2.12-3.83c-0.23-0.41-0.32-0.85-0.4-1.3
	c-0.47-2.82-0.92-5.63-1.38-8.45C51.35,37.04,53.43,35.3,55.52,33.56z"/>
<path class="st2" d="M48.17,39.74c0.44,2.69,0.98,5.37,1.3,8.08c0.19,1.62,0.05,3.27,0.06,4.91c0,0.5,0,1.01,0,1.65
	c-2.96-2.96-5.17-6.27-7.23-9.69C44.26,43.04,46.22,41.39,48.17,39.74z"/>
<path class="st2" d="M13.32,69.16c0.28,0.15,0.58,0.14,0.89,0.16c4.84,0.27,9.68,0.53,14.51,0.8c1,0.06,1.98,0.15,2.95,0.46
	c1.26,0.41,2.57,0.66,3.83,1.12c-0.07,0.11-0.13,0.22-0.2,0.32c-0.21,0.02-0.42,0.05-0.63,0.05c-7.99,0-15.98,0-23.97-0.01
	c-0.2,0-0.42,0.06-0.7-0.11C11.09,70.97,12.18,70.03,13.32,69.16z"/>
<path class="st2" d="M26.17,58.31c2.31,1.01,4.64,1.96,6.91,3.04c1.23,0.58,2.25,1.53,3.38,2.3c0.49,0.34,0.97,0.69,1.4,1.19
	c-0.65-0.03-1.31-0.05-1.96-0.09c-0.79-0.05-1.57-0.12-2.36-0.16c-1.22-0.06-2.39-0.31-3.57-0.65c-2.33-0.67-4.68-1.27-7.02-1.9
	c-0.29-0.08-0.6-0.1-0.83-0.33C23.46,60.58,24.81,59.45,26.17,58.31z"/>
<path class="st2" d="M31.72,53.62c1.04,0.84,2.05,1.7,3.11,2.51c0.97,0.74,1.85,1.56,2.67,2.46c0.86,0.94,1.74,1.85,2.57,2.86
	c-2.25-0.35-4.56-0.43-6.69-1.23c-2.12-0.79-4.2-1.72-6.21-2.77C28.69,56.17,30.21,54.89,31.72,53.62z"/>
<path class="st2" d="M41.4,45.46c0.89,1.41,1.78,2.82,2.69,4.21c0.36,0.54,0.6,1.11,0.75,1.73c0.39,1.55,0.8,3.1,1.22,4.7
	c-0.31,0.02-0.47-0.16-0.66-0.28c-1.33-0.89-2.66-1.8-4-2.69c-0.33-0.22-0.61-0.48-0.86-0.8c-0.97-1.24-1.96-2.46-2.95-3.69
	C38.86,47.59,40.13,46.53,41.4,45.46z"/>
<path class="st2" d="M36.71,49.42c2.45,2.72,4.44,5.74,6,9.06c-0.15,0.2-0.31,0.05-0.47-0.01c-1.61-0.63-3.21-1.27-4.82-1.91
	c-0.22-0.09-0.46-0.18-0.64-0.33c-1.41-1.1-2.8-2.22-4.2-3.34C33.94,51.7,35.3,50.53,36.71,49.42z"/>
<path class="st3" d="M94.82,42.18c0.23-1.13,0.45-2.18,0.66-3.23c0.75-3.6,1.51-7.21,2.26-10.81c0.11-0.52,0.11-0.53,0.64-0.53
	c2,0.01,4,0.01,6,0.03c0.34,0,0.67,0.05,1,0.11c1.62,0.32,2.5,1.22,2.78,2.85c0.33,1.9-0.7,4.2-2.31,5.19
	c-0.72,0.44-1.52,0.61-2.33,0.71c-1.32,0.17-2.65,0.1-3.98,0.11c-0.56,0.01-0.56,0-0.68,0.56c-0.33,1.54-0.66,3.09-0.97,4.63
	c-0.05,0.24-0.11,0.38-0.39,0.37C96.64,42.17,95.78,42.18,94.82,42.18z M99.56,34.18c1.23,0.04,2.47,0.06,3.69-0.21
	c1.1-0.24,1.89-1.2,1.95-2.28c0.05-0.92-0.4-1.51-1.32-1.6c-1.09-0.11-2.19-0.04-3.28-0.06c-0.26,0-0.3,0.14-0.34,0.35
	c-0.2,1.03-0.43,2.06-0.63,3.09C99.59,33.7,99.46,33.91,99.56,34.18z"/>
<path class="st3" d="M141.92,31.61c-0.04,0.34-0.06,0.61-0.09,0.9c0.32-0.06,0.5-0.28,0.73-0.42c0.96-0.61,1.99-0.87,3.13-0.66
	c1.22,0.22,2.07,0.92,2.52,2.06c0.86,2.2,0.59,5.9-2.13,8.01c-1.11,0.86-2.38,1.13-3.75,0.82c-0.67-0.15-1.25-0.49-1.72-1.01
	c-0.12-0.13-0.2-0.32-0.46-0.41c-0.19,0.88-0.37,1.76-0.55,2.63c-0.16,0.76-0.33,1.52-0.46,2.29c-0.05,0.28-0.14,0.4-0.44,0.39
	c-0.69-0.02-1.39-0.02-2.08,0c-0.35,0.01-0.37-0.13-0.31-0.42c0.27-1.25,0.52-2.51,0.78-3.77c0.67-3.23,1.34-6.46,2.03-9.69
	c0.18-0.86,0.01-0.7,0.86-0.72C140.59,31.6,141.22,31.61,141.92,31.61z M145.83,35.93c0.01-0.55-0.07-1-0.26-1.41
	c-0.39-0.82-1.17-1.23-2.07-1.09c-0.64,0.1-1.14,0.43-1.51,0.95c-0.72,0.99-1,2.11-1.03,3.32c-0.01,0.49,0.06,0.96,0.27,1.41
	c0.56,1.19,1.82,1.54,2.9,0.81c0.37-0.25,0.67-0.57,0.88-0.97C145.51,38,145.8,37,145.83,35.93z"/>
<path class="st3" d="M152.47,40.78c-0.18,0.84-0.33,1.56-0.48,2.28c-0.18,0.88-0.36,1.77-0.54,2.66c-0.1,0.47-0.1,0.48-0.56,0.48
	c-0.63,0.01-1.26,0.01-1.89,0c-0.49,0-0.49-0.01-0.39-0.51c0.41-1.98,0.82-3.95,1.23-5.92c0.54-2.57,1.09-5.14,1.61-7.71
	c0.07-0.34,0.18-0.46,0.52-0.45c0.73,0.02,1.47,0.01,2.21,0.01c0.1,0.33-0.16,0.6-0.04,0.91c0.26-0.03,0.43-0.24,0.63-0.37
	c0.93-0.61,1.93-0.9,3.05-0.74c1.39,0.2,2.31,0.98,2.75,2.29c0.78,2.37,0.34,5.72-2.08,7.7c-1.24,1.02-2.65,1.3-4.2,0.82
	C153.56,41.99,153.03,41.5,152.47,40.78z M153.24,37.65c-0.01,0.39,0.05,0.76,0.16,1.12c0.47,1.57,2.14,2.02,3.34,0.9
	c0.08-0.07,0.16-0.14,0.22-0.22c0.94-1.35,1.4-2.83,1.07-4.47c-0.28-1.39-1.72-1.99-2.95-1.29c-0.37,0.21-0.68,0.5-0.91,0.86
	C153.56,35.49,153.33,36.55,153.24,37.65z"/>
<path class="st3" d="M114.09,27.62c-0.36,1.73-0.7,3.38-1.06,5.13c0.39-0.25,0.69-0.45,1.01-0.64c0.97-0.58,2-0.87,3.14-0.69
	c1.59,0.25,2.47,1.46,2.26,3.08c-0.14,1.09-0.4,2.15-0.62,3.22c-0.28,1.32-0.57,2.63-0.85,3.95c-0.11,0.52-0.11,0.52-0.65,0.53
	c-0.73,0-1.47,0-2.2,0c-0.12-0.22-0.02-0.39,0.01-0.57c0.46-2.16,0.91-4.32,1.37-6.48c0.12-0.54,0.16-1.06-0.32-1.45
	c-0.5-0.4-1.07-0.36-1.62-0.13c-1.09,0.46-1.79,1.31-2.15,2.42c-0.35,1.08-0.53,2.21-0.76,3.32c-0.17,0.82-0.36,1.64-0.51,2.47
	c-0.05,0.3-0.15,0.43-0.48,0.42c-0.8-0.02-1.59-0.01-2.44-0.01c0.19-0.95,0.37-1.83,0.55-2.71c0.78-3.77,1.57-7.53,2.36-11.3
	c0.11-0.55,0.11-0.55,0.68-0.55C112.56,27.62,113.29,27.62,114.09,27.62z"/>
<path class="st3" d="M182.73,37.84c-0.09,0.41-0.01,0.8,0.13,1.17c0.45,1.27,1.9,1.77,3.05,1.06c0.25-0.16,0.51-0.34,0.64-0.6
	c0.26-0.53,0.65-0.53,1.14-0.42c0.55,0.12,1.11,0.2,1.67,0.29c0.11,0.24-0.08,0.37-0.16,0.52c-1.4,2.48-4.32,3.06-6.46,2.19
	c-1.31-0.53-2.2-1.5-2.55-2.87c-0.62-2.45-0.11-4.67,1.76-6.42c1.57-1.47,3.5-1.78,5.52-1.12c1.4,0.46,2.13,1.59,2.41,3
	c0.18,0.9,0.13,1.8,0,2.7c-0.05,0.33-0.19,0.44-0.53,0.43c-1.98-0.02-3.96-0.01-5.94-0.01C183.19,37.79,182.95,37.73,182.73,37.84z
	 M183,36.02c1.41,0,2.73,0,4.05,0c0.26,0,0.4-0.06,0.36-0.35c-0.02-0.12-0.01-0.25-0.02-0.38c-0.06-0.76-0.33-1.4-1.07-1.72
	c-0.78-0.34-1.53-0.2-2.19,0.33C183.46,34.42,183.17,35.15,183,36.02z"/>
<path class="st3" d="M167.31,42.1c0.43-2.09,0.86-4.15,1.29-6.2c0.27-1.3,0.56-2.59,0.8-3.89c0.06-0.32,0.19-0.41,0.5-0.4
	c0.73,0.02,1.47,0.01,2.24,0.01c0.04,0.41-0.14,0.76-0.13,1.12c0.23,0.15,0.32-0.06,0.44-0.15c0.82-0.61,1.7-1.08,2.74-1.2
	c0.53-0.06,1.06-0.02,1.56,0.12c0.99,0.28,1.68,1.18,1.79,2.22c0.06,0.6-0.05,1.18-0.17,1.75c-0.44,2.1-0.91,4.19-1.35,6.29
	c-0.06,0.29-0.15,0.43-0.49,0.42c-0.8-0.02-1.59-0.01-2.45-0.01c0.2-0.95,0.38-1.83,0.57-2.71c0.3-1.42,0.6-2.84,0.9-4.26
	c0.03-0.16,0.07-0.33,0.08-0.5c0.05-0.9-0.51-1.42-1.42-1.3c-0.65,0.09-1.18,0.42-1.66,0.85c-0.54,0.5-0.89,1.11-1.09,1.81
	c-0.5,1.7-0.77,3.45-1.13,5.17c-0.2,0.92-0.18,0.92-1.14,0.92c-0.57,0-1.14,0-1.7-0.01C167.44,42.17,167.4,42.14,167.31,42.1z"/>
<path class="st3" d="M131.9,27.62c-0.2,0.97-0.38,1.87-0.57,2.78c-0.78,3.77-1.57,7.54-2.36,11.31c-0.1,0.47-0.1,0.48-0.55,0.48
	c-0.78,0-1.55,0-2.38,0c0.23-1.14,0.45-2.21,0.67-3.27c0.75-3.58,1.5-7.17,2.25-10.75c0.11-0.54,0.11-0.54,0.62-0.54
	C130.34,27.61,131.09,27.62,131.9,27.62z"/>
<path class="st3" d="M131.62,42.18c0.08-0.81,0.28-1.54,0.43-2.27c0.52-2.57,1.07-5.14,1.61-7.71c0.12-0.58,0.12-0.59,0.72-0.59
	c0.59,0,1.18,0,1.77,0c0.47,0,0.48,0.01,0.39,0.45c-0.29,1.42-0.59,2.84-0.89,4.26c-0.37,1.77-0.74,3.54-1.11,5.31
	c-0.12,0.56-0.11,0.56-0.68,0.56C133.12,42.18,132.39,42.18,131.62,42.18z"/>
<path class="st3" d="M161.72,42.18c0.26-1.24,0.5-2.41,0.75-3.58c0.45-2.16,0.9-4.32,1.35-6.48c0.11-0.51,0.12-0.51,0.65-0.51
	c0.63,0,1.26,0.01,1.89-0.01c0.34-0.01,0.38,0.11,0.31,0.41c-0.37,1.75-0.73,3.5-1.09,5.25c-0.31,1.48-0.63,2.96-0.92,4.44
	c-0.07,0.36-0.18,0.5-0.56,0.49C163.33,42.16,162.55,42.18,161.72,42.18z"/>
<path class="st3" d="M120.5,42.18c0.27-1.28,0.52-2.49,0.77-3.7c0.44-2.12,0.88-4.24,1.33-6.36c0.11-0.51,0.12-0.51,0.65-0.51
	c0.63,0,1.26,0.02,1.89-0.01c0.34-0.01,0.38,0.11,0.32,0.41c-0.27,1.23-0.52,2.47-0.78,3.7c-0.41,1.98-0.82,3.95-1.24,5.92
	c-0.11,0.54-0.12,0.54-0.69,0.54C122.02,42.18,121.28,42.18,120.5,42.18z"/>
<path class="st3" d="M167.58,27.62c-0.17,0.84-0.32,1.61-0.48,2.38c-0.03,0.14-0.13,0.2-0.27,0.2c-0.86,0-1.71,0-2.61,0
	c0.17-0.8,0.32-1.54,0.48-2.27c0.04-0.18,0.08-0.31,0.31-0.31C165.84,27.62,166.67,27.62,167.58,27.62z"/>
<path class="st3" d="M134.08,30.2c0.17-0.82,0.32-1.56,0.47-2.3c0.03-0.16,0.09-0.28,0.28-0.28c0.86,0,1.71,0,2.63,0
	c-0.17,0.82-0.33,1.58-0.48,2.34c-0.04,0.18-0.12,0.24-0.29,0.24C135.83,30.19,134.99,30.2,134.08,30.2z"/>
<path class="st3" d="M126.36,27.62c-0.17,0.84-0.32,1.57-0.48,2.31c-0.03,0.15-0.07,0.27-0.27,0.27c-0.86-0.01-1.71,0-2.61,0
	c0.17-0.82,0.33-1.57,0.47-2.33c0.04-0.21,0.17-0.25,0.36-0.25C124.65,27.62,125.46,27.62,126.36,27.62z"/>
<path class="st3" d="M108.63,72.09c-0.97,0-1.87,0-2.81,0c-0.13-0.88-0.26-1.76-0.39-2.63c-0.09-0.59-0.09-0.59-0.7-0.59
	c-1.54,0-3.07,0.01-4.61-0.01c-0.39-0.01-0.61,0.11-0.79,0.46c-0.42,0.82-0.89,1.62-1.33,2.44c-0.13,0.25-0.28,0.37-0.58,0.36
	c-0.86-0.02-1.72-0.01-2.6-0.01c0-0.31,0.18-0.51,0.3-0.72c2.28-4.05,4.57-8.09,6.85-12.13c0.26-0.46,0.53-0.91,0.77-1.37
	c0.13-0.25,0.29-0.37,0.59-0.36c0.84,0.02,1.68,0.02,2.53,0c0.33-0.01,0.47,0.08,0.52,0.43c0.26,1.7,0.55,3.4,0.82,5.11
	c0.45,2.8,0.9,5.6,1.36,8.41C108.58,71.65,108.6,71.84,108.63,72.09z M104.15,60.82c-0.04-0.01-0.09-0.01-0.13-0.02
	c-1.02,1.86-2.04,3.72-3.09,5.62c1.38,0,2.68,0,4,0c0-0.11,0.01-0.19,0-0.26C104.67,64.38,104.41,62.6,104.15,60.82z"/>
<path class="st3" d="M156.93,69.3c-1.32,3.02-4.78,3.7-7.06,2.52c-1.25-0.65-2.04-1.71-2.28-3.08c-0.42-2.32,0.1-4.42,1.88-6.05
	c1.57-1.44,3.48-1.76,5.47-1.12c1.45,0.47,2.19,1.63,2.46,3.1c0.16,0.86,0.13,1.72-0.01,2.57c-0.07,0.46-0.08,0.47-0.56,0.47
	c-1.96,0-3.91,0-5.87,0c-0.15,0-0.3,0.01-0.44,0c-0.25-0.02-0.32,0.09-0.32,0.33c0,0.95,0.56,1.87,1.36,2.16
	c0.89,0.33,1.91,0.05,2.51-0.81c0.32-0.45,0.63-0.51,1.09-0.41C155.73,69.1,156.31,69.19,156.93,69.3z M150.55,65.95
	c1.2,0,2.35,0,3.51,0c0.96,0,0.96,0,0.8-0.97c-0.01-0.06-0.02-0.12-0.03-0.19c-0.25-1.05-1.11-1.61-2.17-1.42
	C151.54,63.56,150.7,64.57,150.55,65.95z"/>
<path class="st3" d="M134.8,72.11c0.3-1.42,0.57-2.74,0.85-4.06c0.42-2,0.83-3.99,1.25-5.99c0.11-0.52,0.11-0.52,0.64-0.52
	c0.69,0,1.39,0,2.12,0c0.01,0.43-0.13,0.8-0.18,1.24c0.28-0.05,0.43-0.23,0.6-0.35c0.77-0.57,1.61-0.99,2.58-1.11
	c0.55-0.07,1.1-0.03,1.62,0.13c0.98,0.29,1.65,1.14,1.76,2.17c0.06,0.6-0.03,1.18-0.15,1.75c-0.45,2.1-0.91,4.19-1.35,6.29
	c-0.07,0.32-0.17,0.47-0.53,0.46c-0.78-0.02-1.55-0.01-2.36-0.01c-0.02-0.34,0.08-0.62,0.14-0.89c0.43-2.04,0.87-4.07,1.3-6.11
	c0.03-0.12,0.04-0.25,0.06-0.37c0.1-0.96-0.5-1.54-1.46-1.37c-1.06,0.19-1.81,0.86-2.34,1.77c-0.34,0.59-0.5,1.25-0.64,1.9
	c-0.33,1.5-0.62,3.01-0.93,4.51c-0.12,0.56-0.12,0.56-0.67,0.57C136.35,72.11,135.62,72.11,134.8,72.11z"/>
<path class="st3" d="M168.7,64.05c-0.83,0.15-1.63,0.29-2.43,0.44c-0.15,0.03-0.21-0.06-0.29-0.17c-0.69-0.97-2.04-1.36-3.13-0.9
	c-0.41,0.17-0.66,0.49-0.65,0.84c0.01,0.43,0.3,0.64,0.65,0.77c0.53,0.19,1.08,0.36,1.62,0.52c0.63,0.19,1.24,0.4,1.83,0.69
	c1.65,0.81,2.15,2.43,1.23,4.03c-0.65,1.14-1.69,1.73-2.95,1.97c-1.22,0.23-2.44,0.18-3.63-0.13c-1.4-0.36-2.37-1.23-2.9-2.58
	c-0.1-0.25-0.08-0.38,0.22-0.42c0.71-0.09,1.42-0.2,2.12-0.33c0.21-0.04,0.32,0.03,0.4,0.2c0.54,1.32,1.96,1.5,3.11,1.24
	c0.33-0.08,0.64-0.23,0.88-0.47c0.41-0.41,0.35-1-0.17-1.26c-0.41-0.21-0.85-0.36-1.29-0.51c-0.7-0.24-1.38-0.5-2.06-0.78
	c-2.31-0.94-2.15-3.61-0.62-4.83c0.9-0.72,1.94-0.98,3.05-1.07c0.8-0.07,1.6,0,2.38,0.18C167.44,61.8,168.28,62.66,168.7,64.05z"/>
<path class="st3" d="M123.7,72.11c0.16-0.81,0.31-1.55,0.46-2.29c0.81-3.89,1.62-7.78,2.43-11.68c0.02-0.1,0.06-0.2,0.07-0.31
	c0.02-0.2,0.1-0.3,0.32-0.29c0.84,0.01,1.68,0,2.58,0c-0.17,0.84-0.32,1.62-0.49,2.4c-0.8,3.85-1.6,7.7-2.41,11.55
	c-0.03,0.12-0.07,0.24-0.09,0.37c-0.03,0.18-0.12,0.25-0.3,0.25C125.43,72.11,124.6,72.11,123.7,72.11z"/>
<path class="st3" d="M115.73,72.11c0.21-1.02,0.4-1.97,0.59-2.91c0.5-2.39,0.99-4.77,1.49-7.16c0.1-0.5,0.11-0.5,0.6-0.5
	c0.71,0,1.42,0,2.17,0c-0.12,0.58-0.22,1.09-0.33,1.67c0.32-0.12,0.42-0.36,0.58-0.53c0.59-0.65,1.25-1.18,2.15-1.35
	c0.52-0.1,1,0.02,1.48,0.17c0.24,0.07,0.22,0.2,0.14,0.38c-0.28,0.59-0.56,1.18-0.84,1.77c-0.08,0.16-0.15,0.27-0.38,0.22
	c-1.26-0.28-2.14,0.34-2.88,1.26c-0.32,0.4-0.51,0.87-0.67,1.35c-0.46,1.38-0.7,2.81-1,4.23c-0.07,0.35-0.16,0.7-0.21,1.05
	c-0.04,0.24-0.12,0.37-0.4,0.36C117.43,72.1,116.63,72.11,115.73,72.11z"/>
<path class="st3" d="M129.23,72.11c0.25-1.22,0.49-2.37,0.73-3.52c0.46-2.2,0.93-4.4,1.37-6.61c0.07-0.34,0.19-0.45,0.53-0.44
	c0.78,0.02,1.55,0.01,2.37,0.01c-0.05,0.7-0.24,1.32-0.36,1.95c-0.54,2.66-1.1,5.31-1.66,7.97c-0.03,0.14-0.07,0.29-0.1,0.43
	c-0.03,0.15-0.11,0.22-0.25,0.22C131,72.11,130.14,72.11,129.23,72.11z"/>
<path class="st3" d="M110.35,72.11c0.2-0.97,0.38-1.87,0.56-2.77c0.49-2.37,0.99-4.73,1.48-7.09c0.03-0.14,0.08-0.29,0.09-0.43
	c0.02-0.21,0.14-0.28,0.34-0.28c0.74,0.01,1.47,0.01,2.21,0c0.27-0.01,0.33,0.1,0.28,0.34c-0.13,0.62-0.26,1.23-0.39,1.85
	c-0.54,2.61-1.09,5.22-1.63,7.84c-0.11,0.55-0.12,0.55-0.69,0.55C111.88,72.11,111.14,72.11,110.35,72.11z"/>
<path class="st3" d="M135.09,57.55c-0.17,0.85-0.32,1.59-0.48,2.32c-0.03,0.16-0.11,0.26-0.29,0.26c-0.85,0-1.71,0-2.6,0
	c0.17-0.8,0.33-1.54,0.47-2.28c0.04-0.18,0.09-0.3,0.31-0.3C133.34,57.55,134.18,57.55,135.09,57.55z"/>
<path class="st3" d="M112.87,60.13c0.1-0.84,0.32-1.6,0.46-2.37c0.03-0.18,0.17-0.21,0.33-0.21c0.82,0,1.63,0,2.48,0
	c0.04,0.49-0.14,0.92-0.22,1.36c-0.07,0.39-0.02,0.89-0.29,1.13c-0.27,0.25-0.76,0.07-1.15,0.08
	C113.95,60.14,113.43,60.13,112.87,60.13z"/>
</svg>
