<?xml version="1.0" encoding="utf-8"?>
<!-- Generator: Adobe Illustrator 25.4.1, SVG Export Plug-In . SVG Version: 6.00 Build 0)  -->
<svg version="1.1" id="Layer_1" xmlns="http://www.w3.org/2000/svg" xmlns:xlink="http://www.w3.org/1999/xlink" x="0px" y="0px"
	 viewBox="0 0 200 100" style="enable-background:new 0 0 200 100;" xml:space="preserve">
<style type="text/css">
	.st0{fill:#A99115;}
	.st1{fill:#004F2F;}
</style>
<path class="st0" d="M32.42,32.1c0.11,0.68-0.31,1.2-0.49,1.8c-0.18,0.61-0.15,1.21,0.46,1.62c0.63,0.42,1.01,0.39,1.71-0.14
	c0.52-0.4,0.97-0.87,1.4-1.36c0.56-0.63,0.94-0.7,1.65-0.23c1.69,1.13,2.33,2.85,2.56,4.76c0.17,1.41-0.29,2.61-1.39,3.55
	c-0.29,0.25-0.57,0.51-0.83,0.79c-0.46,0.48-0.42,0.72,0.2,0.99c0.95,0.41,1.91,0.79,2.85,1.2c0.64,0.28,1.25,0.62,1.82,1.02
	c2.14,1.45,2.71,3.03,1.99,5.52c-0.7,2.41-2.32,4.06-4.38,5.35c-2.67,1.67-5.64,2.53-8.71,3.09c-1.44,0.27-2.89,0.41-4.35,0.48
	c-0.53,0.03-0.49,0.22-0.27,0.57c0.58,0.92,1.47,1.37,2.47,1.63c1.72,0.45,3.47,0.43,5.23,0.37c3.06-0.1,6.1-0.36,9.04-1.31
	c2-0.64,3.92-1.44,5.58-2.77c0.78-0.63,1.44-1.36,1.82-2.3c0.64-1.59,0.21-3.18-1.15-4.21c-0.57-0.44-1.22-0.75-1.87-1.07
	c-0.54-0.27-1.09-0.52-1.63-0.81c-1.31-0.71-1.36-1.17-0.32-2.23c0.71-0.72,1.39-1.47,2.1-2.19c0.48-0.49,0.55-1.07,0.41-1.69
	c-0.3-1.27-1.1-2.25-1.91-3.21c-0.27-0.32-0.61-0.19-0.94-0.12c-0.28,0.06-0.61,0.17-0.76-0.19c-0.14-0.32,0.07-0.54,0.31-0.74
	c0.81-0.71,1.62-1.42,2.42-2.15c0.46-0.43,0.89-0.44,1.36-0.01c0.71,0.66,1.39,1.35,1.89,2.19c0.84,1.41,0.78,2.85-0.21,4.14
	c-0.55,0.71-1.09,1.42-1.59,2.18c-0.46,0.7-0.45,0.95,0.21,1.46c0.85,0.67,1.63,1.42,2.27,2.29c1.8,2.42,1.89,4.92,0.3,7.47
	c-1.84,2.95-4.26,5.25-7.47,6.69c-2.69,1.2-5.33,2.51-8.26,3.03c-2.6,0.46-5.18,0.57-7.75-0.19c-0.63-0.18-1.22-0.44-1.78-0.78
	c-1.89-1.14-2.5-2.91-1.72-4.97c0.36-0.95,0.36-0.94-0.68-1c-2.09-0.13-4.17-0.38-6.07-1.36c-0.06-0.03-0.12-0.06-0.18-0.1
	c-2.57-1.46-3.3-2.74-2.07-6.13c0.22-0.6,0.07-0.65-0.43-0.64c-0.52,0-1.04,0.02-1.55-0.05c-1.39-0.18-2.7-0.55-3.48-1.88
	c-0.02-0.03-0.07-0.06-0.11-0.07c-0.11-0.04-0.08,0.06-0.11,0.1c0-0.63,0-1.26,0-1.89c0.03,0.03,0.05,0.06,0.08,0.08
	c0.01,0.01,0.04-0.02,0.06-0.03c1.21-1.37,2.66-2.48,3.97-3.74c0.55-0.53,1.2-0.86,1.93-1.05c1.11-0.29,2.24-0.12,3.36-0.15
	c0.85-0.02,1.72,0.11,2.38-0.65c0.18-0.2,0.46-0.22,0.66,0c0.22,0.24,0.17,0.5-0.05,0.72c-0.67,0.67-1.32,1.36-2.03,1.98
	c-0.57,0.5-1.27,0.72-2.06,0.71c-1.48-0.03-2.97-0.01-4.46-0.01c-0.64,0-0.99,0.36-1.17,0.93c-0.17,0.55-0.01,1.02,0.45,1.37
	c0.39,0.3,0.85,0.37,1.34,0.37c4.86,0,9.72,0,14.58-0.01c0.16,0,0.36,0.08,0.52-0.13c-0.32-0.22-0.26-0.5-0.14-0.82
	c0.17-0.46,0.33-0.93,0.32-1.44c-0.02-1.51-0.02-3.01-0.05-4.52c-0.01-0.64,0.21-1.19,0.65-1.64c0.57-0.58,1.14-1.15,1.71-1.72
	c0.16-0.16,0.35-0.31,0.59-0.16c0.3,0.19,0.17,0.43,0.05,0.65c-0.19,0.36-0.33,0.74-0.32,1.15c0.01,1.6-0.02,3.2,0.05,4.79
	c0.03,0.73-0.2,1.24-0.7,1.73c-0.66,0.64-1.28,1.33-2.03,2.11c1.85,0,3.53,0.01,5.21-0.01c0.26,0,0.51-0.15,0.77-0.24
	c0.25-0.09,0.53-0.41,0.76-0.03c0.2,0.33-0.05,0.58-0.3,0.8c-0.66,0.61-1.34,1.21-1.96,1.85c-0.7,0.73-1.54,1.04-2.54,1.04
	c-3.38-0.01-6.75,0-10.13,0c-1.28,0-2.57-0.01-3.85,0c-0.63,0-0.91,0.49-0.61,1.04c0.12,0.21,0.29,0.4,0.46,0.57
	c0.67,0.67,1.5,1.06,2.39,1.34c2.18,0.7,4.45,0.9,6.72,0.94c3.64,0.07,7.29,0.17,10.89-0.54c1.68-0.33,3.35-0.76,4.59-2.07
	c1.19-1.26,1.03-3.23-0.37-4.26c-0.4-0.29-0.83-0.53-1.26-0.79c-1.91-1.14-4.03-1.76-6.13-2.41c-0.46-0.14-0.94-0.3-1-0.86
	c-0.07-0.55,0.33-0.82,0.73-1.12c1.01-0.75,2.04-1.48,2.84-2.47c0.32-0.4,0.57-0.85,0.41-1.37c-0.44-1.4-1.01-2.75-2.1-3.78
	c-0.65-0.62-0.87-0.61-1.52,0.02c-0.61,0.59-1.21,1.21-1.84,1.79c-0.4,0.36-0.69,0.26-0.81-0.26c-0.05-0.2-0.07-0.37-0.26-0.51
	c-1.37-1.03-1.59-2.3-0.68-3.78c0.37-0.6,0.85-1.1,1.38-1.56c0.07-0.06,0.42-0.13,0.09-0.33C31.88,32.1,32.15,32.1,32.42,32.1z"/>
<path class="st1" d="M190,33.18c-0.62,0.19-0.82,0.73-1.01,1.26c-0.32,0.88-0.35,1.81-0.35,2.73c-0.03,4.59-0.06,9.17-0.08,13.76
	c0,0.56,0.07,1.12,0.09,1.68c0.01,0.3-0.01,0.61-0.31,0.76c-0.33,0.17-0.67,0.1-0.95-0.12c-0.21-0.16-0.41-0.36-0.58-0.56
	c-3.95-4.55-7.91-9.1-11.86-13.65c-0.1-0.12-0.2-0.25-0.31-0.36c-0.23-0.23-0.35-0.13-0.38,0.15c-0.02,0.13-0.01,0.27-0.01,0.4
	c-0.02,3.64,0.02,7.28,0.21,10.92c0.05,0.94,0.26,1.78,1.09,2.35c0.11,0.07,0.24,0.16,0.21,0.32c-0.04,0.2-0.23,0.19-0.38,0.18
	c-0.88-0.03-1.75-0.1-2.63-0.11c-0.56-0.01-1.12,0.07-1.68,0.1c-0.15,0.01-0.34,0.04-0.41-0.14c-0.06-0.15,0.07-0.25,0.17-0.33
	c0.94-0.62,1.12-1.55,1.12-2.59c0.02-4.29,0.06-8.59,0.1-12.88c0.01-1.49-0.04-2.95-1.36-3.98c-0.09-0.07-0.16-0.17-0.12-0.29
	c0.06-0.17,0.22-0.13,0.34-0.12c0.83,0.07,1.66,0.15,2.49,0.22c0.33,0.02,0.52,0.24,0.71,0.46c3.8,4.48,7.59,8.95,11.39,13.42
	c0.21,0.25,0.44,0.49,0.66,0.73c0.28-0.17,0.2-0.4,0.2-0.58c0.02-3.78,0-7.55-0.24-11.32c-0.06-0.92-0.21-1.79-1-2.41
	c-0.1-0.08-0.23-0.19-0.16-0.34c0.09-0.19,0.28-0.13,0.42-0.1c1.55,0.29,3.09,0.14,4.64,0.02C190,32.91,190,33.05,190,33.18z"/>
<path class="st0" d="M46.73,32.1c-0.02,0.01-0.04,0.01-0.06,0.02c0.53,0.81-0.09,1.18-0.59,1.62c-0.57,0.51-1.1,1.06-1.69,1.54
	c-0.45,0.36-0.61,0.81-0.6,1.35c0.01,1.53,0.02,3.05,0.02,4.58c0.01,1.76-1.27,2.68-2.43,3.66C41.24,45,41.02,45,40.86,44.9
	c-0.13-0.08-0.13-0.24-0.09-0.37c0.72-1.9,0.3-3.87,0.35-5.8c0.02-1.02,0.25-1.83,1.05-2.49c0.45-0.37,0.83-0.82,1.25-1.23
	c0.11-0.11,0.26-0.2,0.18-0.39c-0.06-0.14-0.21-0.16-0.34-0.17c-1.12-0.07-2.25-0.15-3.28,0.45c-0.24,0.14-0.54,0.34-0.79,0.05
	c-0.27-0.33,0-0.56,0.24-0.79c0.71-0.69,1.45-1.34,2.27-1.9c0.01-0.01,0.01-0.04,0.02-0.06c0.03-0.12-0.07-0.07-0.12-0.1
	C43.31,32.1,45.02,32.1,46.73,32.1z"/>
<path class="st1" d="M110.7,32.89c-0.56,0.3-1.06,0.55-1.53,0.84c-1.5,0.94-2.7,2.23-3.92,3.5c-1.14,1.19-2.23,2.41-3.37,3.59
	c-0.33,0.34-0.36,0.62-0.06,0.99c2.41,3,4.76,6.04,7.33,8.91c0.36,0.4,0.77,0.75,1.23,1.05c0.62,0.41,1.28,0.46,2,0.32
	c0.32-0.06,0.85-0.21,0.94,0.21c0.08,0.37-0.45,0.43-0.75,0.52c-2.49,0.8-4.75,0.5-6.65-1.43c-1.22-1.24-2.17-2.69-3.27-4.04
	c-0.89-1.1-1.78-2.21-2.69-3.29c-0.15-0.18-0.3-0.54-0.63-0.37c-0.29,0.15-0.46,0.43-0.46,0.78c0,0.76,0,1.53,0.02,2.29
	c0.03,1.1,0.07,2.2,0.13,3.3c0.05,0.97,0.26,1.88,1.16,2.46c0.11,0.07,0.25,0.17,0.21,0.32c-0.05,0.2-0.24,0.18-0.39,0.18
	c-0.88-0.03-1.75-0.11-2.63-0.11c-0.79,0-1.57,0.08-2.36,0.11c-0.19,0.01-0.45,0.08-0.54-0.16c-0.08-0.21,0.15-0.31,0.28-0.41
	c0.73-0.55,0.98-1.3,0.98-2.19c0-4.77,0.12-9.54-0.14-14.3c-0.06-1.01-0.22-1.98-1.08-2.66c-0.11-0.08-0.23-0.19-0.18-0.33
	c0.06-0.2,0.24-0.18,0.39-0.17c1.71,0.2,3.41,0.17,5.12,0c0.13-0.01,0.29-0.04,0.35,0.12c0.06,0.16-0.06,0.25-0.16,0.34
	c-0.75,0.6-0.93,1.47-1.03,2.34c-0.2,1.68-0.14,3.37-0.13,5.06c0,0.17-0.07,0.4,0.14,0.48c0.2,0.08,0.32-0.13,0.44-0.25
	c1.6-1.65,3.14-3.34,4.51-5.19c0.52-0.7,0.83-1.49,0.69-2.4c-0.06-0.36,0.08-0.6,0.47-0.55c1.8,0.2,3.59,0.05,5.39,0.01
	C110.53,32.75,110.56,32.79,110.7,32.89z"/>
<path class="st1" d="M73.21,53.14c0.09-0.35,0.27-0.41,0.43-0.48c1.21-0.53,1.94-1.48,2.43-2.67c1.84-4.47,3.68-8.94,5.55-13.4
	c0.29-0.69,0.23-1.31-0.14-1.93c-0.3-0.51-0.71-0.93-1.15-1.32c-0.13-0.11-0.34-0.21-0.24-0.43c0.08-0.17,0.28-0.1,0.43-0.08
	c0.99,0.12,1.98,0.13,2.97,0.09c0.66-0.03,1,0.2,1.24,0.83c2.1,5.31,4.24,10.61,6.36,15.92c0.46,1.16,0.94,2.3,2.12,2.94
	c0.14,0.07,0.28,0.19,0.18,0.38c-0.08,0.15-0.23,0.11-0.36,0.09c-1.81-0.29-3.63-0.25-5.45-0.02c-0.51,0.06-0.6-0.27-0.35-0.56
	c0.89-1.02,0.53-2.03,0.11-3.09c-0.47-1.17-0.9-2.35-1.31-3.54c-0.17-0.49-0.45-0.64-0.94-0.67c-1.39-0.07-2.78-0.06-4.18,0
	c-0.47,0.02-0.74,0.17-0.91,0.62c-0.66,1.75-1.34,3.49-2.01,5.23c-0.2,0.53-0.25,1.05,0.06,1.56c0.15,0.25,0.21,0.52-0.22,0.46
	C76.3,52.85,74.78,52.89,73.21,53.14z M83.2,38.49c-0.05,0-0.11,0-0.16,0c-0.67,1.66-1.35,3.32-2.01,4.98
	c-0.15,0.39,0.18,0.39,0.42,0.42c1.07,0.14,2.15,0.06,3.23,0.06c0.4,0,0.51-0.2,0.36-0.57c-0.33-0.86-0.65-1.72-0.97-2.59
	C83.78,40.03,83.49,39.26,83.2,38.49z"/>
<path class="st1" d="M149.76,53.14c0.1-0.35,0.28-0.41,0.44-0.48c1.21-0.53,1.94-1.47,2.43-2.67c1.8-4.39,3.59-8.78,5.45-13.14
	c0.47-1.1,0.25-1.96-0.47-2.78c-0.26-0.3-0.58-0.57-0.86-0.85c-0.08-0.08-0.17-0.17-0.12-0.29c0.05-0.13,0.19-0.12,0.29-0.1
	c1.19,0.14,2.38,0.11,3.57,0.12c0.52,0.01,0.6,0.4,0.74,0.74c2.03,5.05,4.05,10.1,6.08,15.14c0.18,0.46,0.37,0.92,0.55,1.38
	c0.37,0.97,0.87,1.83,1.82,2.35c0.15,0.08,0.36,0.19,0.28,0.4c-0.09,0.23-0.31,0.13-0.47,0.1c-1.72-0.26-3.45-0.24-5.18-0.03
	c-0.2,0.03-0.47,0.15-0.6-0.13c-0.1-0.23,0.03-0.45,0.18-0.62c0.61-0.71,0.54-1.46,0.22-2.27c-0.54-1.38-1.04-2.78-1.53-4.18
	c-0.16-0.45-0.41-0.62-0.89-0.64c-1.42-0.07-2.83-0.06-4.24,0c-0.47,0.02-0.74,0.19-0.9,0.64c-0.62,1.66-1.27,3.32-1.92,4.97
	c-0.24,0.63-0.4,1.24,0.01,1.87c0.18,0.28,0.06,0.44-0.26,0.4C152.85,52.84,151.34,52.89,149.76,53.14z M159.64,38.4
	c-0.7,1.74-1.37,3.37-2.03,5.01c-0.17,0.41,0.13,0.45,0.41,0.49c1.03,0.13,2.06,0.05,3.1,0.06c0.57,0.01,0.63-0.24,0.44-0.72
	c-0.44-1.13-0.84-2.27-1.29-3.4C160.1,39.4,159.99,38.91,159.64,38.4z"/>
<path class="st1" d="M67.12,46.9c-0.05,1.04,0.1,2.29,0.16,3.55c0.04,0.87,0.23,1.71,1.13,2.16c0.13,0.07,0.32,0.15,0.25,0.34
	c-0.07,0.19-0.27,0.12-0.42,0.11c-1.82-0.12-3.64-0.15-5.45,0c-0.16,0.01-0.4,0.1-0.46-0.14c-0.05-0.21,0.16-0.31,0.31-0.39
	c1.02-0.57,1.37-1.45,1.37-2.59c-0.01-4.54,0.07-9.08-0.15-13.62c-0.05-1.1-0.23-2.16-1.27-2.83c-0.11-0.07-0.24-0.16-0.18-0.32
	c0.06-0.16,0.22-0.12,0.35-0.14c0.02,0,0.05,0,0.07,0c2.38,0.26,4.76-0.05,7.14-0.09c1.31-0.02,2.6,0.29,3.76,0.94
	c3.3,1.87,3.61,6.16,0.67,8.79c-1.17,1.04-2.52,1.53-4.05,1.59c-0.9,0.03-1.8,0.1-2.69-0.06c-0.41-0.07-0.53,0.1-0.53,0.47
	C67.13,45.33,67.12,46,67.12,46.9z M67.1,39.11c0,1,0,1.74,0,2.49c0,1.57,0.07,1.64,1.64,1.72c0.07,0,0.13,0,0.2,0
	c2.29,0.01,3.7-1.38,4.05-3.97c0.44-3.3-1.66-5.45-4.97-5.09c-0.51,0.06-0.76,0.27-0.79,0.8C67.16,36.5,67.08,37.93,67.1,39.11z"/>
<path class="st1" d="M128.88,53.21c-1.67,0.1-3.25-0.33-4.8-0.88c-0.39-0.14-0.62-0.44-0.67-0.86c-0.09-0.76-0.19-1.52-0.25-2.28
	c-0.04-0.5,0.06-0.98,0.64-1.11c0.57-0.13,0.77,0.34,0.91,0.72c0.52,1.37,1.48,2.28,2.84,2.8c1.47,0.56,2.9,0.22,3.85-0.91
	c0.91-1.09,1.03-2.7,0.27-3.98c-0.59-0.99-1.46-1.7-2.38-2.36c-0.86-0.62-1.73-1.21-2.59-1.83c-0.48-0.34-0.92-0.72-1.33-1.14
	c-1.4-1.42-1.9-3.08-1.26-5.01c0.65-1.96,2.07-3.04,4.05-3.45c0.97-0.2,1.93-0.13,2.88,0.07c0.73,0.15,1.44,0.23,2.19,0.03
	c0.85-0.23,1.1,0.01,1.14,0.88c0.04,0.83,0.11,1.66,0.15,2.49c0.02,0.32-0.02,0.65-0.39,0.78c-0.37,0.12-0.67-0.05-0.88-0.33
	c-0.2-0.27-0.41-0.54-0.55-0.85c-0.69-1.46-2.71-1.99-3.86-1.83c-1.93,0.27-2.81,2.64-1.62,4.35c0.44,0.64,1.05,1.11,1.64,1.6
	c1.3,1.07,2.75,1.96,4.02,3.08c1.05,0.93,1.89,2,2.16,3.42c0.47,2.51-0.92,4.97-3.39,6.04C130.76,53.01,129.84,53.19,128.88,53.21z"
	/>
<path class="st1" d="M146.94,42.32c-0.09,2.22,0.08,4.8,0.13,7.39c0.02,1.15,0.15,2.26,1.25,2.96c0.1,0.06,0.19,0.15,0.15,0.28
	c-0.04,0.16-0.2,0.17-0.33,0.16c-1.8-0.14-3.6-0.15-5.39,0c-0.11,0.01-0.24,0.01-0.29-0.11c-0.08-0.16,0.04-0.26,0.15-0.33
	c1.06-0.63,1.21-1.63,1.21-2.75c-0.02-4.86-0.01-9.72-0.02-14.58c0-0.93-0.01-0.93-0.93-0.94c-1.02-0.01-2.02,0.12-3.02,0.29
	c-0.83,0.14-1.5,0.59-2.12,1.13c-0.33,0.29-0.69,0.53-1.16,0.41c-0.35-0.09-0.53-0.29-0.29-0.63c0.59-0.83,1.03-1.74,1.48-2.65
	c0.26-0.53,0.8-0.4,1.18-0.2c0.42,0.22,0.84,0.3,1.29,0.3c3.82-0.02,7.65,0.08,11.47-0.11c0.57-0.03,1.11-0.17,1.64-0.35
	c0.3-0.1,0.65-0.22,0.89,0.03c0.24,0.25-0.01,0.55-0.12,0.81c-0.32,0.74-0.68,1.47-0.98,2.22c-0.17,0.41-0.46,0.51-0.86,0.5
	c-0.41-0.02-0.49-0.32-0.58-0.64c-0.28-1.02-0.39-1.11-1.43-1.12c-0.81-0.01-1.62,0.02-2.43-0.02c-0.62-0.03-0.75,0.29-0.79,0.82
	C146.9,37.45,146.9,39.7,146.94,42.32z"/>
<path class="st1" d="M119.35,53.05c-1.29-0.24-2.72-0.05-4.16-0.01c-0.19,0-0.45,0.1-0.52-0.16c-0.05-0.2,0.18-0.29,0.32-0.39
	c0.69-0.51,0.99-1.22,0.99-2.05c0.01-4.79,0.11-9.58-0.14-14.36c-0.06-1.05-0.23-2.07-1.15-2.77c-0.1-0.08-0.23-0.17-0.17-0.33
	c0.06-0.16,0.22-0.12,0.35-0.11c1.66,0.18,3.32,0.16,4.98,0.04c0.17-0.01,0.4-0.06,0.48,0.14c0.09,0.21-0.13,0.31-0.25,0.43
	c-0.58,0.58-0.76,1.32-0.83,2.09c-0.3,3.32-0.11,6.65-0.13,9.98c-0.01,1.57,0.09,3.14,0.14,4.72c0.03,0.92,0.3,1.72,1.08,2.29
	c0.14,0.1,0.38,0.19,0.31,0.39c-0.09,0.25-0.35,0.11-0.54,0.12C119.91,53.06,119.7,53.05,119.35,53.05z"/>
<path class="st1" d="M152.86,67.22c-0.76,0-1.52,0-2.28,0c-0.3,0-0.47-0.09-0.27-0.39c0.31-0.46,0.18-0.89,0-1.34
	c-0.24-0.63-0.48-1.26-0.69-1.9c-0.15-0.47-0.43-0.71-0.93-0.7c-0.76,0.01-1.53,0.01-2.29,0c-0.44,0-0.72,0.18-0.85,0.61
	c-0.34,1.17-1.12,2.21-1.09,3.5c0,0.14-0.11,0.19-0.23,0.19c-0.44,0.01-0.87,0-1.34-0.07c0.99-0.82,1.23-2,1.69-3.05
	c0.78-1.82,1.49-3.66,2.29-5.47c0.34-0.77,0.34-1.42-0.27-2.02c-0.09-0.09-0.24-0.18-0.17-0.33c0.07-0.15,0.23-0.1,0.36-0.1
	c1.29-0.07,1.29-0.07,1.77,1.13c1.06,2.65,2.12,5.3,3.18,7.95c0.27,0.69,0.54,1.38,1.19,1.84C152.9,67.11,152.88,67.17,152.86,67.22
	z M147.76,58.74c-0.06,0-0.11-0.01-0.17-0.01c-0.42,1.02-0.85,2.04-1.27,3.07c-0.13,0.32,0.07,0.48,0.35,0.49
	c0.63,0.03,1.25,0.03,1.88,0.02c0.32-0.01,0.45-0.21,0.34-0.5C148.53,60.78,148.14,59.76,147.76,58.74z"/>
<path class="st1" d="M94.51,67.19c-0.86,0-1.69-0.01-2.58,0.01c0.72-0.66,0.59-1.47,0.6-2.25c0-0.63,0.01-1.26,0-1.89
	c-0.01-0.64,0.14-1.35-0.95-1.58c0.76-0.37,1.4-0.45,1.93-0.79c0.08-0.05,0.21-0.05,0.24,0.04c0.2,0.7,0.55,0.26,0.84,0.11
	c1.69-0.87,3.14-0.03,3.17,1.84c0.01,0.79,0.01,1.57,0.04,2.36c0.03,0.76,0.03,1.53,0.8,2.22c-0.99-0.03-1.81-0.1-2.73,0.02
	c1.04-1.39,0.64-2.9,0.66-4.34c0.01-0.92-0.48-1.35-1.27-1.32c-0.91,0.04-1.41,0.54-1.41,1.43c0,0.79,0.02,1.57,0.03,2.36
	C93.87,66.07,93.98,66.68,94.51,67.19z"/>
<path class="st1" d="M128.3,67.21c-1.03,0-1.87,0-2.9,0c0.9-0.69,0.74-1.55,0.75-2.37c0-0.72,0.02-1.44-0.03-2.16
	c-0.05-0.73-0.52-1.1-1.22-1.06c-0.81,0.04-1.38,0.5-1.38,1.17c-0.01,1.03,0.03,2.07,0.05,3.1c0.01,0.51,0.27,0.89,0.77,1.33
	c-0.98-0.01-1.83-0.06-2.72-0.04c0.67-0.67,0.6-1.47,0.59-2.25c-0.01-0.63,0.01-1.26,0.01-1.89c0-1.06,0-1.06-0.83-1.63
	c0.6-0.24,1.18-0.48,1.75-0.7c0.07-0.03,0.23,0,0.24,0.03c0.24,0.78,0.6,0.2,0.89,0.07c0.67-0.32,1.35-0.34,2.04-0.15
	c0.67,0.19,1.02,0.75,1.05,1.56c0.04,1.03,0.09,2.07,0.12,3.1C127.49,66.02,127.51,66.69,128.3,67.21z"/>
<path class="st1" d="M70.36,67.19c-0.72,0.01-1.44,0.01-2.16,0.02c-0.35,0-0.49-0.09-0.22-0.41c0.27-0.33,0.34-0.72,0.33-1.14
	c0-0.85,0.02-1.71,0.01-2.56c0-0.67,0.09-1.39-0.97-1.63c0.75-0.3,1.32-0.53,1.9-0.75c0.07-0.03,0.23,0.01,0.24,0.04
	c0.2,0.72,0.55,0.24,0.83,0.09c0.63-0.35,1.3-0.36,1.97-0.21c0.74,0.16,1.14,0.71,1.18,1.53c0.05,1.03,0.1,2.06,0.11,3.1
	c0.01,0.71,0.07,1.39,0.77,1.92c-0.94,0-1.75,0-2.6,0c0.91-1.5,0.45-3.09,0.47-4.63c0-0.64-0.52-0.97-1.17-0.94
	c-0.75,0.03-1.4,0.48-1.44,1.06c-0.09,1.17,0.01,2.33,0.13,3.5C69.77,66.62,70.12,66.88,70.36,67.19L70.36,67.19z"/>
<path class="st1" d="M170.28,67.2c0.53-0.59,0.68-1.29,0.65-2.06c-0.03-0.67,0-1.35-0.01-2.02c0-0.67,0.05-1.38-0.95-1.65
	c0.73-0.3,1.3-0.53,1.88-0.75c0.07-0.03,0.23,0.01,0.24,0.04c0.18,0.75,0.54,0.24,0.81,0.1c1.71-0.89,3.17-0.04,3.18,1.87
	c0.01,0.81,0,1.62,0.05,2.43c0.04,0.69,0.05,1.4,0.71,2.02c-0.95,0-1.77,0-2.56,0c1.04-1.44,0.53-3.1,0.49-4.68
	c-0.02-0.63-0.62-0.96-1.22-0.88c-0.78,0.09-1.36,0.55-1.37,1.15c-0.01,0.97,0.01,1.93,0.04,2.9c0.02,0.57,0.2,1.09,0.75,1.55
	C171.98,67.2,171.13,67.2,170.28,67.2L170.28,67.2z"/>
<path class="st1" d="M117.16,67.46c-2.05,0.01-3.29-1.33-3.29-3.52c0-1.95,1.47-3.34,3.54-3.36c1.84-0.02,3.32,1.55,3.33,3.52
	C120.75,66.09,119.29,67.46,117.16,67.46z M119.5,64.42c-0.05-0.76-0.3-1.56-0.84-2.26c-0.55-0.71-1.32-0.96-2.15-0.71
	c-0.74,0.22-1.22,0.84-1.3,1.71c-0.09,0.9,0.12,1.74,0.61,2.5c0.6,0.94,1.33,1.24,2.28,0.94C118.98,66.33,119.51,65.55,119.5,64.42z
	"/>
<path class="st1" d="M131.9,60.58c1.24,0,1.63,0.38,1.65,1.53c0.02,1.15,0,2.29,0.1,3.43c0.05,0.51,0.11,0.91,0.78,0.75
	c0.15-0.04,0.33-0.05,0.4,0.14c0.07,0.17-0.04,0.3-0.15,0.41c-0.52,0.51-1.56,0.65-2.1,0.2c-0.31-0.26-0.52-0.14-0.78-0.01
	c-0.66,0.34-1.33,0.4-1.99,0c-1.06-0.62-1.13-1.9-0.14-2.62c0.57-0.42,1.25-0.6,1.9-0.86c0.77-0.31,1.09-1.4,0.62-2.1
	c-0.34-0.5-1.03-0.37-1.42,0.28c-0.09,0.15-0.14,0.33-0.17,0.5c-0.05,0.27,0.1,0.64-0.3,0.72c-0.36,0.07-0.66-0.1-0.89-0.38
	c-0.23-0.29-0.16-0.6,0.03-0.88c0.5-0.73,1.26-0.98,2.07-1.12C131.67,60.57,131.83,60.58,131.9,60.58z M132.34,65.07
	c0-1.2-0.05-1.22-1-0.68c-0.21,0.12-0.42,0.25-0.61,0.41c-0.43,0.37-0.47,0.81-0.14,1.25c0.34,0.44,0.78,0.46,1.25,0.19
	C132.38,65.95,132.37,65.45,132.34,65.07z"/>
<path class="st1" d="M103.63,67.34c-0.1-0.02-0.34,0-0.44-0.11c-0.48-0.53-0.93-0.24-1.43-0.05c-1,0.38-2.16-0.19-2.39-1.12
	c-0.17-0.67,0.11-1.3,0.77-1.72c0.61-0.39,1.32-0.57,1.98-0.85c0.32-0.14,0.62-0.28,0.62-0.7c-0.01-0.54,0.08-1.1-0.38-1.51
	c-0.21-0.2-0.46-0.12-0.69-0.01c-0.42,0.2-0.67,0.52-0.69,1c-0.01,0.28,0.11,0.63-0.3,0.72c-0.36,0.08-0.67-0.09-0.9-0.35
	c-0.26-0.3-0.16-0.63,0.03-0.93c0.56-0.89,2.55-1.44,3.48-0.95c0.46,0.24,0.56,0.67,0.58,1.14c0.04,1.21,0.09,2.42,0.12,3.63
	c0.01,0.54,0.12,0.96,0.82,0.78c0.13-0.03,0.28-0.02,0.34,0.14c0.07,0.17,0.01,0.31-0.13,0.41C104.63,67.13,104.2,67.3,103.63,67.34
	z M102.65,64.92c-0.05-0.23,0.15-0.64-0.14-0.81c-0.3-0.18-0.56,0.16-0.83,0.3c-0.2,0.1-0.39,0.22-0.56,0.36
	c-0.44,0.35-0.49,0.8-0.19,1.24c0.31,0.46,0.76,0.49,1.24,0.25C102.72,65.99,102.66,65.47,102.65,64.92z"/>
<path class="st1" d="M181.15,63.42c-0.61,0-1.22,0-1.82,0c-0.35,0-0.53,0.13-0.55,0.51c-0.03,0.94,0.61,2.05,1.44,2.44
	c0.81,0.38,1.74,0.15,2.54-0.57c0.2-0.18,0.41-0.64,0.66-0.4c0.3,0.28,0.02,0.69-0.23,0.95c-0.97,1.01-2.18,1.21-3.48,0.89
	c-1.23-0.3-1.88-1.18-2.1-2.38c-0.1-0.55-0.11-1.13-0.01-1.68c0.19-1.1,0.81-1.9,1.86-2.3c1.14-0.44,2.25-0.4,3.25,0.4
	c0.27,0.21,0.46,0.49,0.61,0.8c0.47,0.99,0.25,1.35-0.82,1.36C182.05,63.42,181.6,63.42,181.15,63.42
	C181.15,63.42,181.15,63.42,181.15,63.42z M180.53,62.74C180.53,62.74,180.53,62.74,180.53,62.74c0.34,0,0.67,0.01,1.01,0
	c0.55-0.02,0.66-0.25,0.35-0.71c-0.35-0.53-0.86-0.68-1.46-0.63c-0.6,0.05-1.08,0.3-1.37,0.84c-0.19,0.35-0.03,0.5,0.33,0.5
	C179.77,62.74,180.15,62.74,180.53,62.74z"/>
<path class="st1" d="M83.19,63.42c-0.56,0-1.12,0.01-1.68,0c-0.47-0.02-0.67,0.18-0.6,0.64c0.14,1.01,0.5,1.89,1.49,2.32
	c0.93,0.41,1.74,0.06,2.48-0.56c0.19-0.16,0.36-0.64,0.66-0.35c0.27,0.27-0.01,0.64-0.24,0.89c-0.91,0.96-2.06,1.14-3.29,0.91
	c-1.15-0.21-1.85-0.95-2.18-2.05c-0.73-2.45,0.6-4.49,3.02-4.63c1.29-0.07,2.52,0.77,2.76,1.91c0.15,0.7,0,0.9-0.72,0.91
	C84.31,63.42,83.75,63.41,83.19,63.42C83.19,63.42,83.19,63.42,83.19,63.42z M82.62,62.74C82.62,62.74,82.62,62.74,82.62,62.74
	c0.36,0,0.72,0,1.08,0.01c0.5,0.01,0.61-0.22,0.37-0.63c-0.33-0.57-0.84-0.77-1.48-0.72c-0.63,0.05-1.12,0.31-1.42,0.87
	c-0.17,0.32-0.02,0.46,0.31,0.47C81.85,62.74,82.24,62.74,82.62,62.74z"/>
<path class="st0" d="M53.08,44.78c0.37,0.04,0.53,0.34,0.74,0.56c1.13,1.2,1.13,1.2,2.26,0c0.72-0.78,0.78-0.78,1.52,0.02
	c1.09,1.16,1.09,1.16,0,2.35c-0.71,0.78-0.8,0.78-1.52,0.02c-0.02-0.02-0.03-0.03-0.05-0.05c-1.07-1.15-1.12-1.15-2.17,0
	c-0.75,0.82-0.81,0.82-1.56,0.02c-1.1-1.17-1.1-1.17,0.01-2.34C52.53,45.12,52.7,44.79,53.08,44.78z"/>
<path class="st1" d="M66.79,67.18c-0.93,0-1.75,0-2.69,0c0.75-0.79,0.7-1.67,0.69-2.54c-0.02-2.11-0.07-4.22-0.1-6.33
	c-0.01-0.61-0.05-1.21-0.42-1.74c-0.12-0.17-0.11-0.32,0.13-0.32c0.71-0.01,1.41,0,2.19,0c-0.8,0.98-0.53,2.15-0.61,3.25
	c-0.15,2.13,0.05,4.26,0.1,6.39C66.08,66.38,66.33,66.79,66.79,67.18z"/>
<path class="st1" d="M185.91,67.36c-0.51-0.02-0.89-0.03-1.26-0.14c-0.4-0.12-0.62-0.35-0.57-0.79c0.03-0.26-0.1-0.61,0.19-0.73
	c0.23-0.09,0.32,0.26,0.48,0.4c0.54,0.44,1.14,0.66,1.81,0.42c0.72-0.26,0.84-0.97,0.27-1.49c-0.37-0.34-0.85-0.49-1.29-0.72
	c-1.07-0.54-1.46-1.19-1.28-2.11c0.17-0.88,0.95-1.5,2.02-1.59c0.49-0.04,0.99-0.04,1.46,0.15c0.24,0.1,0.45,0.23,0.47,0.52
	c0.02,0.26,0.13,0.61-0.08,0.77c-0.26,0.19-0.39-0.19-0.59-0.31c-0.2-0.11-0.38-0.25-0.58-0.33c-0.63-0.25-1.25-0.07-1.47,0.42
	c-0.27,0.64,0.15,0.95,0.63,1.22c0.37,0.21,0.76,0.38,1.13,0.6c0.93,0.54,1.27,1.21,1.08,2.1c-0.17,0.82-0.88,1.45-1.82,1.58
	C186.29,67.35,186.04,67.35,185.91,67.36z"/>
<path class="st1" d="M138.22,67.2c-0.98,0-1.78,0-2.76,0c0.91-0.62,0.79-1.48,0.78-2.3c-0.02-2.02,0.09-4.05-0.1-6.07
	c-0.05-0.5-0.09-0.99-0.57-1.3c-0.24-0.15-0.19-0.31,0.05-0.37c0.53-0.12,1.01-0.37,1.52-0.54c0.46-0.16,0.47,0.19,0.44,0.5
	c-0.21,2.42-0.1,4.85-0.08,7.28C137.5,65.33,137.41,66.31,138.22,67.2z"/>
<path class="st1" d="M162.75,57.33c0.7-0.27,1.29-0.5,1.9-0.72c0.33-0.12,0.43,0.04,0.41,0.37c-0.06,1.05-0.11,2.11-0.15,3.16
	c-0.06,1.8,0.07,3.59,0.11,5.39c0.01,0.62,0.17,1.19,0.75,1.67c-0.94,0-1.75,0-2.69,0c0.78-0.9,0.66-1.91,0.68-2.87
	c0.03-1.71,0.01-3.41-0.1-5.12C163.62,58.48,163.59,57.77,162.75,57.33z"/>
<path class="st1" d="M160.27,67.2c-0.85-0.01-1.67-0.01-2.56,0.08c1.01-1.58,0.47-3.24,0.53-4.83c0.01-0.36-0.24-0.67-0.57-0.87
	c-0.09-0.06-0.23-0.1-0.22-0.23c0.01-0.16,0.17-0.19,0.3-0.22c0.4-0.07,0.77-0.24,1.14-0.4c0.34-0.15,0.68-0.2,0.72,0.34
	c0.04,0.47,0.25,0.3,0.47,0.13c0.41-0.33,0.87-0.57,1.41-0.58c0.31,0,0.74,0.01,0.63,0.46c-0.08,0.36-0.1,0.92-0.73,0.86
	c-1.22-0.13-1.79,0.36-1.79,1.6c0,0.61,0.02,1.21,0.04,1.82C159.65,66.03,159.74,66.66,160.27,67.2z"/>
<path class="st1" d="M89.27,67.28c-0.98-0.07-1.8-0.11-2.71,0.01c1.11-1.53,0.56-3.17,0.61-4.74c0.01-0.38-0.21-0.73-0.56-0.96
	c-0.11-0.07-0.27-0.13-0.22-0.29c0.04-0.15,0.2-0.15,0.33-0.19c0.3-0.09,0.6-0.18,0.89-0.3c0.45-0.2,0.81-0.34,0.87,0.38
	c0.03,0.37,0.27,0.19,0.43,0.06c0.43-0.34,0.89-0.62,1.46-0.63c0.3-0.01,0.68-0.03,0.67,0.45c-0.01,0.48-0.43,0.92-0.81,0.86
	c-1.06-0.16-1.73,0.39-1.77,1.45c-0.03,0.88,0.05,1.75,0.12,2.62C88.62,66.47,88.91,66.78,89.27,67.28z"/>
<path class="st1" d="M106.67,63.99c0-0.63-0.01-1.26,0-1.89c0.01-0.43-0.12-0.7-0.6-0.69c-0.13,0-0.3,0.01-0.34-0.15
	c-0.06-0.2,0.13-0.26,0.25-0.35c0.6-0.42,1.1-0.92,1.45-1.57c0.06-0.12,0.13-0.27,0.29-0.24c0.21,0.04,0.16,0.24,0.17,0.38
	c0.01,0.2,0.02,0.41,0,0.61c-0.03,0.45,0.09,0.75,0.62,0.73c0.18,0,0.39,0.02,0.41,0.26c0.02,0.29-0.21,0.32-0.42,0.32
	c-0.51-0.01-0.65,0.27-0.63,0.73c0.03,1.05,0.02,2.11,0.06,3.17c0.04,0.97,0.37,1.19,1.28,0.93c0.15-0.04,0.3-0.16,0.43,0
	c0.14,0.18,0.01,0.33-0.1,0.48c-0.4,0.52-1.22,0.75-1.9,0.53c-0.67-0.22-0.96-0.64-0.98-1.43C106.65,65.2,106.66,64.6,106.67,63.99
	C106.67,63.99,106.67,63.99,106.67,63.99z"/>
<path class="st1" d="M76.03,63.93c0-0.61-0.01-1.21,0-1.82c0.01-0.42-0.08-0.71-0.58-0.7c-0.14,0-0.35,0.03-0.38-0.18
	c-0.02-0.15,0.13-0.22,0.24-0.3c0.63-0.42,1.14-0.95,1.5-1.62c0.06-0.12,0.14-0.25,0.31-0.19c0.13,0.05,0.12,0.18,0.12,0.29
	c0.01,0.2,0.02,0.41,0,0.61c-0.05,0.5,0.06,0.85,0.67,0.82c0.18-0.01,0.38,0.06,0.36,0.3c-0.02,0.24-0.23,0.27-0.4,0.26
	c-0.51-0.01-0.65,0.26-0.63,0.72c0.03,1.12-0.05,2.25,0.1,3.37c0.11,0.85,0.35,0.99,1.17,0.77c0.18-0.05,0.4-0.23,0.53,0.03
	c0.11,0.21-0.08,0.38-0.21,0.52c-0.46,0.48-1.3,0.65-1.94,0.39c-0.66-0.27-0.88-0.79-0.86-1.45c0-0.04,0-0.09,0-0.13
	C76.02,65.06,76.02,64.49,76.03,63.93C76.02,63.93,76.03,63.93,76.03,63.93z"/>
<path class="st1" d="M156.74,67.19c-0.96,0-1.77,0-2.61,0c0.87-1.57,0.4-3.19,0.44-4.77c0.01-0.26-0.17-0.5-0.4-0.67
	c-0.11-0.08-0.35-0.09-0.29-0.3c0.05-0.17,0.26-0.15,0.4-0.2c0.38-0.14,0.75-0.28,1.13-0.42c0.42-0.15,0.72-0.15,0.63,0.45
	c-0.23,1.49-0.14,2.99-0.07,4.5C156,66.32,156.2,66.79,156.74,67.19z"/>
<path class="st1" d="M113.26,67.2c-0.97,0-1.79,0-2.74,0c0.65-0.57,0.66-1.24,0.66-1.92c-0.01-0.74,0.07-1.48,0.06-2.22
	c-0.01-0.52-0.07-1.04-0.57-1.37c-0.33-0.22-0.2-0.36,0.09-0.43c0.42-0.1,0.81-0.25,1.2-0.43c0.52-0.23,0.74-0.07,0.66,0.5
	c-0.18,1.28-0.09,2.56-0.1,3.84C112.5,65.9,112.57,66.61,113.26,67.2z"/>
<path class="st1" d="M169.34,67.2c-0.72,0.01-1.44,0.01-2.15,0.02c-0.34,0-0.49-0.08-0.22-0.41c0.29-0.35,0.34-0.77,0.34-1.2
	c-0.01-0.74-0.01-1.48,0-2.22c0.01-0.76,0.03-1.51-0.97-1.91c0.76-0.28,1.35-0.54,1.97-0.72c0.46-0.13,0.43,0.22,0.39,0.54
	c-0.17,1.38-0.17,2.77-0.08,4.16C168.68,66.14,168.83,66.73,169.34,67.2L169.34,67.2z"/>
<path class="st0" d="M54.86,48.01c0.11,0.05,0.22,0.08,0.31,0.14c0.09,0.06,0.17,0.15,0.25,0.23c1.53,1.63,1.4,1.3-0.09,2.93
	c-0.27,0.3-0.57,0.32-0.87,0.02c-0.08-0.08-0.16-0.16-0.24-0.24c-1.22-1.29-1.15-1.9,0.34-2.92C54.65,48.12,54.75,48.07,54.86,48.01
	z"/>
<path class="st1" d="M112.49,59.05c-0.03,0.47-0.31,0.69-0.75,0.7c-0.43,0.01-0.68-0.24-0.67-0.67c0.01-0.49,0.31-0.74,0.78-0.73
	C112.3,58.35,112.49,58.63,112.49,59.05z"/>
<path class="st1" d="M155.21,58.33c0.45,0.02,0.71,0.22,0.71,0.66c0,0.49-0.28,0.75-0.76,0.76c-0.43,0-0.67-0.25-0.65-0.68
	C154.52,58.61,154.79,58.38,155.21,58.33z"/>
<path class="st1" d="M167.18,59.08c0.03-0.46,0.28-0.73,0.76-0.74c0.43,0,0.68,0.26,0.66,0.68c-0.01,0.44-0.28,0.71-0.73,0.73
	C167.45,59.76,167.21,59.54,167.18,59.08z"/>
<path class="st1" d="M70.36,67.2C70.36,67.2,70.36,67.19,70.36,67.2C70.36,67.19,70.36,67.2,70.36,67.2z"/>
<path class="st1" d="M170.29,67.2C170.29,67.2,170.28,67.2,170.29,67.2C170.28,67.2,170.29,67.2,170.29,67.2z"/>
<path class="st1" d="M169.34,67.2C169.34,67.2,169.34,67.2,169.34,67.2C169.34,67.2,169.34,67.2,169.34,67.2z"/>
</svg>
