<?xml version="1.0" encoding="utf-8"?>
<!-- Generator: Adobe Illustrator 25.4.1, SVG Export Plug-In . SVG Version: 6.00 Build 0)  -->
<svg version="1.1" id="Layer_1" xmlns="http://www.w3.org/2000/svg" xmlns:xlink="http://www.w3.org/1999/xlink" x="0px" y="0px"
	 viewBox="0 0 200 100" style="enable-background:new 0 0 200 100;" xml:space="preserve">
<style type="text/css">
	.st0{fill:#0154A0;}
	.st1{fill:#727372;}
	.st2{fill:#FDFEFE;}
</style>
<path class="st0" d="M68.44,39.11c0.04,0.05,0.01,0.08-0.01,0.12c-1.09,1.93-2.39,3.69-4.18,5.04c-2.02,1.51-4.29,2.1-6.78,1.87
	c-2.23-0.21-4.29-0.96-6.3-1.89c-1.48-0.68-2.92-1.42-4.4-2.1c-2.34-1.08-4.63-0.88-6.86,0.36c-1.09,0.6-2.02,1.43-3.03,2.14
	c-1.26,0.88-2.59,1.61-4.12,1.92c-1.37,0.28-2.72,0.13-4.05-0.2c-1.71-0.43-3.35-1.08-5.01-1.64c-0.82-0.28-1.63-0.59-2.49-0.73
	c-2.18-0.36-4.01,0.31-5.55,1.84c-0.89,0.88-1.56,1.92-2.04,3.08c-1.55,3.73-3.1,7.46-4.66,11.2c-0.24,0.58-0.66,0.67-1.11,0.24
	C5.39,58,3.95,55.14,3.62,51.78C3.05,46,4.99,41.25,9.68,37.75c2.87-2.14,6.16-2.95,9.74-2.68c1.98,0.15,3.9,0.51,5.74,1.27
	c1.58,0.65,3.03,1.52,4.49,2.39c1.67,1,3.39,1.89,5.25,2.48c2.19,0.68,4.25,0.49,6.22-0.73c1.18-0.73,2.3-1.57,3.48-2.31
	c1.29-0.81,2.65-1.42,4.17-1.67c1.56-0.25,3.06-0.02,4.54,0.47c1.61,0.53,3.12,1.29,4.67,1.94c1.5,0.63,3.04,1.15,4.65,1.4
	c1.48,0.23,2.9-0.01,4.29-0.51C67.44,39.61,67.93,39.34,68.44,39.11L68.44,39.11z"/>
<path class="st0" d="M68.12,57.89c-0.44,0.88-0.99,1.7-1.58,2.49c-1.01,1.35-2.17,2.55-3.64,3.41c-2.15,1.27-4.44,1.46-6.83,0.86
	c-1.89-0.48-3.62-1.34-5.29-2.32c-1.42-0.83-2.89-1.56-4.36-2.29c-1.74-0.86-3.52-0.98-5.38-0.49c-1.59,0.42-3.07,1.09-4.55,1.79
	c-2.99,1.42-6.08,2.53-9.34,3.15c-3.37,0.64-6.73,0.72-10.09-0.13c-0.1-0.02-0.19-0.05-0.29-0.08c-0.5-0.14-0.5-0.14-0.31-0.65
	c0.42-1.13,0.9-2.23,1.61-3.21c0.22-0.31,0.48-0.59,0.77-0.84c0.53-0.45,1.14-0.69,1.84-0.66c1.33,0.06,2.66,0.12,3.98,0.18
	c1,0.04,1.49-0.7,1.09-1.62c-0.16-0.35-0.14-0.4,0.17-0.63c0.08-0.06,0.16-0.12,0.23-0.18c0.37-0.35,0.3-0.68-0.18-0.85
	c-0.14-0.05-0.37-0.04-0.36-0.26c0.01-0.23,0.24-0.2,0.4-0.24c0.18-0.04,0.35-0.09,0.51-0.18c0.35-0.2,0.44-0.48,0.27-0.84
	c-0.27-0.61-0.14-0.88,0.5-1.06c0.18-0.05,0.37-0.1,0.53-0.19c0.4-0.21,0.52-0.49,0.38-0.92c-0.32-1.01-0.65-2.01-0.86-3.05
	c-0.08-0.39-0.15-0.78-0.14-1.18c0.01-0.29,0.1-0.55,0.24-0.79c0.2-0.33,0.41-0.39,0.75-0.19c0.71,0.42,1.41,0.85,2.12,1.26
	c1.15,0.67,2.32,1.29,3.55,1.8c2.08,0.86,4.1,0.73,6.09-0.29c1.47-0.75,2.83-1.67,4.22-2.54c1.34-0.85,2.77-1.48,4.35-1.73
	c1.64-0.26,3.22-0.04,4.77,0.51c1.54,0.54,2.96,1.34,4.39,2.11c1.11,0.59,2.23,1.16,3.42,1.55c2.02,0.66,3.99,0.44,5.93-0.36
	c0.39-0.16,0.76-0.36,1.15-0.56c0.01,0.11-0.05,0.17-0.09,0.23c-0.99,1.74-2.17,3.34-3.77,4.58c-1.89,1.46-4.04,2.07-6.42,1.89
	c-1.96-0.14-3.8-0.73-5.61-1.46c-1.91-0.77-3.76-1.68-5.6-2.6c-2.04-1.01-4.06-0.99-6.12-0.11c-1.31,0.56-2.51,1.31-3.72,2.05
	c-1.32,0.82-2.65,1.63-4.11,2.18c-1.37,0.51-2.77,0.75-4.23,0.52c-0.04-0.01-0.09-0.01-0.14-0.01c-0.1-0.01-0.21-0.02-0.25,0.11
	c-0.03,0.12,0.08,0.15,0.15,0.2c0.66,0.4,1.34,0.79,2.03,1.14c1.34,0.68,2.73,1.23,4.21,1.55c2.32,0.49,4.5,0.1,6.56-1.06
	c1.05-0.59,2.02-1.3,3.06-1.91c1.3-0.77,2.68-1.32,4.19-1.54c1.62-0.24,3.19-0.01,4.72,0.52c1.36,0.47,2.63,1.15,3.89,1.84
	c1.18,0.65,2.35,1.3,3.61,1.8c2.27,0.9,4.48,0.68,6.65-0.3c0.29-0.13,0.57-0.28,0.85-0.42C68.09,57.87,68.1,57.88,68.12,57.89z"/>
<path class="st0" d="M68.44,39.11c0.01-0.01,0.02-0.02,0.03-0.03c0,0.01,0.01,0.02,0,0.03C68.46,39.13,68.45,39.13,68.44,39.11
	C68.44,39.11,68.44,39.11,68.44,39.11z"/>
<path class="st0" d="M68.08,57.86c0.02,0,0.04-0.01,0.06-0.01c-0.01,0.01-0.02,0.03-0.03,0.04C68.1,57.88,68.09,57.87,68.08,57.86z"
	/>
<path class="st1" d="M74.43,40.89c0.36-0.17,0.75-0.18,1.14-0.16c1.85,0.08,3.7,0.08,5.55,0.01c0.87-0.03,1.73,0.02,2.58,0.23
	c2.22,0.55,3.43,2.15,3.38,4.45c-0.07,2.83-1.79,5.02-4.43,5.61c-0.56,0.13-1.14,0.2-1.72,0.12c-0.22-0.03-0.45-0.1-0.47-0.38
	c-0.02-0.3,0.21-0.45,0.45-0.45c1.11,0,1.9-0.54,2.49-1.43c0.67-1.03,0.81-2.18,0.64-3.37c-0.13-0.94-0.53-1.75-1.17-2.44
	c-0.71-0.75-1.61-1.04-2.64-0.92c-0.27,0.03-0.41,0.13-0.41,0.44c0.02,4.5,0.02,9,0.05,13.5c0,0.55,0.02,1.12,0.16,1.67
	c0.1,0.39,0.34,0.61,0.75,0.64c0.36,0.03,0.71,0.07,1.06,0.09c0.24,0.02,0.45,0.07,0.46,0.36c0.01,0.28-0.19,0.4-0.42,0.42
	c-0.37,0.03-0.75,0.04-1.12,0.02c-1.65-0.08-3.29-0.09-4.94,0.01c-0.1,0.01-0.2,0.01-0.31,0c-0.32-0.02-0.73,0-0.74-0.43
	c-0.01-0.44,0.41-0.35,0.7-0.38c0.8-0.07,0.98-0.23,1.07-1.05c0.09-0.76,0.12-1.52,0.12-2.29c0-3.82,0-7.64,0-11.46
	c0-0.14,0-0.27-0.01-0.41c-0.03-1.49-0.18-1.66-1.65-1.76c-0.23-0.02-0.44-0.05-0.59-0.23C74.43,41.16,74.43,41.02,74.43,40.89z"/>
<path class="st1" d="M107.74,49.64c0-1.99,0-3.97,0-5.96c0-0.22,0-0.44-0.02-0.66c-0.09-1.24-0.19-1.35-1.43-1.49
	c-0.25-0.03-0.49-0.06-0.5-0.38c-0.01-0.33,0.25-0.38,0.49-0.39c0.35-0.01,0.71,0,1.07,0.01c1.49,0.04,2.99,0.05,4.48-0.03
	c0.22-0.01,0.44,0.02,0.66,0.05c0.19,0.02,0.32,0.15,0.32,0.34c0.01,0.21-0.12,0.35-0.33,0.39c-0.22,0.04-0.44,0.07-0.66,0.08
	c-0.54,0.03-0.79,0.34-0.83,0.85c-0.03,0.37-0.08,0.74-0.08,1.12c0,4.11,0,8.22,0,12.33c0,0.54,0.04,1.09,0.09,1.63
	c0.05,0.65,0.27,0.86,0.92,0.92c0.32,0.03,0.64,0.06,0.96,0.09c0.23,0.02,0.46,0.06,0.48,0.34c0.02,0.31-0.21,0.42-0.46,0.44
	c-0.44,0.03-0.88,0.03-1.32,0c-2.7-0.17-5.4,0.06-8.1,0.04c-1.49-0.01-2.71-0.48-3.68-1.62c-1.27-1.5-2.33-3.13-3.35-4.79
	c-0.52-0.85-1.1-1.25-2.12-1.15c-0.8,0.08-0.81,0.01-0.8,0.81c0.03,1.61-0.06,3.23,0.13,4.83c0.09,0.78,0.25,0.94,1.05,1.02
	c0.25,0.03,0.51,0.06,0.76,0.07c0.21,0.01,0.37,0.11,0.4,0.32c0.03,0.24-0.12,0.38-0.34,0.43c-0.16,0.03-0.34,0.06-0.5,0.05
	c-1.87-0.07-3.73-0.12-5.6,0c-0.1,0.01-0.21,0.01-0.3-0.01c-0.25-0.05-0.54-0.08-0.54-0.42c0-0.36,0.29-0.36,0.55-0.38
	c1.02-0.08,1.11-0.13,1.23-1.16c0.09-0.74,0.12-1.49,0.12-2.24c0.01-3.77,0.01-7.54,0-11.31c0-0.44-0.05-0.88-0.08-1.32
	c-0.04-0.51-0.32-0.8-0.83-0.87c-0.3-0.04-0.61-0.06-0.91-0.09c-0.22-0.02-0.41-0.08-0.42-0.34c-0.02-0.29,0.17-0.39,0.41-0.41
	c0.24-0.02,0.47-0.03,0.71-0.02c1.95,0.08,3.9,0.08,5.86-0.01c1.01-0.05,1.98,0.14,2.94,0.46c2.34,0.8,3.04,3.09,2.79,4.87
	c-0.25,1.76-1.23,3.1-2.49,4.26c-0.3,0.27-0.33,0.44-0.08,0.77c1.51,1.98,2.95,4.02,4.59,5.91c1.04,1.19,2.33,1.7,3.91,1.45
	c0.38-0.06,0.57-0.24,0.64-0.61c0.12-0.65,0.16-1.32,0.16-1.98c0.02-2.07,0.01-4.14,0.01-6.21
	C107.73,49.64,107.73,49.64,107.74,49.64z M93.52,46.19c0,1.14,0.01,2.28-0.01,3.41c-0.01,0.34,0.12,0.51,0.44,0.55
	c0.15,0.02,0.3,0.06,0.45,0.09c1.83,0.3,2.82-0.23,3.32-1.86c0.4-1.29,0.4-2.61-0.05-3.9c-0.55-1.58-1.9-2.41-3.57-2.24
	c-0.41,0.04-0.62,0.16-0.6,0.65C93.55,43.98,93.52,45.08,93.52,46.19z"/>
<path class="st1" d="M119.13,46.25c0,0.91-0.01,1.79,0,2.66c0.04,2.16,0.09,4.31,0.15,6.47c0.02,0.64,0.04,1.29,0.16,1.92
	c0.18,0.92,0.34,1.07,1.25,1.18c0.22,0.03,0.44,0.02,0.66,0.03c0.2,0.01,0.37,0.09,0.39,0.32c0.02,0.25-0.12,0.38-0.35,0.42
	c-0.17,0.03-0.34,0.05-0.5,0.05c-1.75-0.07-3.49-0.09-5.24,0c-0.1,0.01-0.2,0.01-0.31-0.01c-0.27-0.04-0.53-0.11-0.52-0.44
	c0.02-0.3,0.27-0.34,0.53-0.35c1.43-0.09,1.48-0.13,1.59-1.57c0.03-0.37,0.05-0.75,0.06-1.12c0.07-4.82,0.14-9.64,0.21-14.46
	c0.01-0.36-0.08-0.81,0.36-0.97c0.44-0.16,0.67,0.24,0.91,0.51c4,4.39,8.24,8.56,12.3,12.91c0.07,0.07,0.14,0.14,0.27,0.26
	c0-0.98,0.02-1.9,0-2.82c-0.05-2.48-0.12-4.96-0.17-7.43c-0.01-0.41-0.02-0.81-0.09-1.22c-0.12-0.67-0.35-0.9-1.02-0.99
	c-0.27-0.04-0.54-0.05-0.81-0.07c-0.25-0.01-0.5-0.06-0.51-0.37c-0.01-0.31,0.25-0.38,0.5-0.4c0.24-0.02,0.47-0.03,0.71-0.02
	c1.49,0.07,2.99,0.08,4.48,0c0.23-0.01,0.47,0.02,0.71,0.05c0.18,0.02,0.31,0.13,0.32,0.34c0.01,0.23-0.13,0.35-0.33,0.38
	c-0.22,0.04-0.44,0.05-0.66,0.07c-0.59,0.07-0.84,0.3-0.93,0.89c-0.06,0.37-0.09,0.74-0.09,1.12c-0.08,4.96-0.16,9.91-0.24,14.87
	c-0.01,0.39,0.12,0.9-0.35,1.08c-0.45,0.17-0.78-0.2-1.09-0.51c-3.3-3.32-6.62-6.63-9.84-10.04
	C120.78,48.08,119.96,47.16,119.13,46.25z"/>
<path class="st1" d="M147.52,59.64c-2.56-0.01-4.79-0.29-6.81-1.45c-3.08-1.76-4.65-4.45-4.76-7.99c-0.07-2.1,0.45-4.03,1.63-5.77
	c1.69-2.48,4.13-3.63,7.03-3.95c2.56-0.28,5.07,0.08,7.58,0.56c0.36,0.07,0.55,0.23,0.51,0.62c-0.14,1.2-0.1,2.41-0.15,3.61
	c-0.02,0.35,0.06,0.86-0.46,0.88c-0.53,0.02-0.4-0.48-0.44-0.81c-0.14-1.07-0.57-1.99-1.56-2.48c-2.05-1.02-4.21-1.27-6.42-0.57
	c-1.65,0.53-2.81,1.68-3.37,3.3c-1.18,3.43-0.84,6.69,1.37,9.64c1.48,1.97,3.53,2.78,5.97,2.62c0.49-0.03,0.98-0.08,1.46-0.16
	c1.36-0.24,2.24-1.05,2.69-2.35c0.05-0.14,0.09-0.29,0.13-0.44c0.07-0.27,0.19-0.5,0.51-0.44c0.31,0.06,0.36,0.34,0.33,0.6
	c-0.1,0.93-0.27,1.84-0.42,2.76c-0.13,0.83-0.58,1.23-1.37,1.39C149.75,59.48,148.51,59.68,147.52,59.64z"/>
<path class="st1" d="M159.65,40.78c1.14,0,2.28-0.01,3.41,0c0.65,0,1.29-0.02,1.92-0.19c0.39-0.11,0.61,0.03,0.55,0.45
	c-0.13,0.96-0.19,1.92-0.24,2.89c-0.01,0.12-0.04,0.24-0.08,0.35c-0.07,0.17-0.2,0.28-0.39,0.25c-0.17-0.02-0.27-0.14-0.3-0.3
	c-0.01-0.03-0.01-0.07-0.01-0.1c-0.07-1.41-0.41-1.55-1.77-1.67c-0.79-0.07-1.59-0.03-2.39-0.06c-0.25-0.01-0.32,0.09-0.32,0.32
	c0.01,1.85,0.01,3.7,0,5.55c0,0.26,0.08,0.35,0.35,0.35c1.1-0.01,2.21,0,3.31-0.09c0.34-0.03,0.62-0.14,0.83-0.43
	c0.12-0.16,0.28-0.26,0.49-0.18c0.24,0.09,0.23,0.31,0.2,0.52c-0.17,1.08-0.18,2.16-0.26,3.25c-0.02,0.27-0.03,0.55-0.37,0.57
	c-0.34,0.02-0.36-0.27-0.39-0.54c-0.14-1.28-0.31-1.44-1.62-1.49c-0.73-0.03-1.46-0.03-2.19-0.07c-0.27-0.01-0.35,0.08-0.35,0.35
	c0.01,1.9,0,3.8,0.02,5.7c0.01,0.97,0.3,1.28,1.24,1.41c0.84,0.12,1.69,0.11,2.53-0.03c0.82-0.13,1.25-0.61,1.4-1.39
	c0.05-0.23,0.09-0.47,0.16-0.69c0.06-0.18,0.21-0.27,0.4-0.24c0.16,0.03,0.27,0.15,0.27,0.33c0.02,1.11-0.06,2.2-0.36,3.27
	c-0.1,0.36-0.42,0.47-0.77,0.46c-1.54-0.02-3.09-0.01-4.63-0.07c-1.34-0.05-2.68-0.07-4.02,0c-0.29,0.01-0.57,0.06-0.86-0.02
	c-0.22-0.06-0.38-0.18-0.35-0.42c0.02-0.22,0.19-0.29,0.39-0.33c1.23-0.21,1.24-0.21,1.36-1.46c0.04-0.44,0.07-0.88,0.07-1.32
	c0-4.23,0-8.45,0-12.68c0-0.24-0.04-0.47-0.07-0.71c-0.06-0.45-0.35-0.68-0.78-0.74c-0.3-0.04-0.61-0.06-0.91-0.09
	c-0.21-0.02-0.36-0.1-0.38-0.33c-0.02-0.25,0.12-0.37,0.35-0.42c0.34-0.07,0.68-0.03,1.02-0.03c1.19,0,2.38,0,3.56,0
	C159.65,40.75,159.65,40.76,159.65,40.78z"/>
<path class="st1" d="M191.53,42.8c0,0.56,0.01,1.12,0,1.68c-0.01,0.28-0.07,0.58-0.43,0.57c-0.33-0.01-0.37-0.28-0.4-0.55
	c-0.3-2.63-3.01-3.17-4.66-2.2c-1.12,0.65-1.34,2.22-0.5,3.36c0.58,0.79,1.36,1.37,2.13,1.96c1.16,0.89,2.31,1.79,3.2,2.96
	c1.58,2.09,1.68,4.88,0.21,6.82c-1.05,1.39-2.54,2.01-4.21,2.19c-1.45,0.16-2.88,0.03-4.26-0.51c-0.68-0.27-0.8-0.42-0.78-1.13
	c0.02-1.05,0.07-2.1,0.11-3.15c0.01-0.15,0.05-0.3,0.09-0.45c0.06-0.19,0.19-0.32,0.41-0.31c0.22,0.02,0.33,0.18,0.36,0.37
	c0.06,0.33,0.07,0.67,0.14,1.01c0.44,2.28,2.44,3.09,4.42,2.55c1.56-0.43,2.28-2.17,1.64-3.76c-0.31-0.78-0.86-1.38-1.48-1.92
	c-1.06-0.93-2.24-1.72-3.21-2.74c-1.12-1.18-1.94-2.49-1.98-4.17c-0.05-2.12,1.01-3.71,3-4.5c1.47-0.58,2.98-0.58,4.51-0.35
	c0.38,0.06,0.76,0.18,1.14,0.23c0.54,0.07,0.7,0.36,0.65,0.87c-0.04,0.39-0.01,0.78-0.01,1.17C191.59,42.8,191.56,42.8,191.53,42.8z
	"/>
<path class="st1" d="M173.07,59.63c-1.24,0.03-2.35-0.19-3.42-0.61c-0.44-0.17-0.66-0.47-0.64-0.93c0.03-1.1,0.08-2.21,0.12-3.31
	c0-0.08,0.03-0.17,0.05-0.25c0.05-0.27,0.15-0.52,0.47-0.49c0.29,0.03,0.36,0.27,0.37,0.53c0.01,0.43,0.1,0.84,0.22,1.25
	c0.71,2.4,3.35,2.7,4.8,1.94c1.35-0.72,1.79-2.39,1.04-3.85c-0.38-0.74-0.96-1.31-1.59-1.83c-1.22-1.02-2.55-1.93-3.55-3.2
	c-1-1.26-1.59-2.66-1.38-4.29c0.27-2.09,1.71-3.53,3.91-4.02c1.66-0.37,3.31-0.18,4.93,0.23c0.32,0.08,0.5,0.28,0.46,0.63
	c-0.11,0.96-0.07,1.93-0.1,2.9c0,0.15-0.04,0.3-0.09,0.45c-0.06,0.17-0.19,0.28-0.38,0.27c-0.2-0.01-0.31-0.13-0.35-0.31
	c-0.03-0.11-0.05-0.23-0.06-0.35c-0.14-1.1-0.71-1.92-1.75-2.3c-1.09-0.4-2.19-0.35-3.14,0.39c-0.95,0.74-1,2.25-0.15,3.3
	c0.55,0.68,1.22,1.22,1.91,1.75c1.09,0.84,2.19,1.67,3.08,2.74c1.3,1.56,1.78,3.35,1.32,5.32c-0.5,2.11-2.31,3.61-4.63,3.95
	C173.99,59.61,173.48,59.64,173.07,59.63z"/>
<path class="st1" d="M195.02,43.24c-0.8,0-1.37-0.59-1.37-1.39c0.01-0.77,0.62-1.4,1.38-1.41c0.79-0.01,1.44,0.63,1.44,1.41
	C196.47,42.62,195.82,43.24,195.02,43.24z M194.38,41.1c0.29,0,0.43,0,0.58,0c0.69,0.01,0.77,0.15,0.53,0.79
	c-0.11,0.3,0.17,0.46,0.36,0.57c0.19,0.11,0.22-0.13,0.26-0.26c0.16-0.47-0.02-0.84-0.38-1.12
	C195.35,40.79,194.94,40.78,194.38,41.1z M194.26,42.62c0.64,0.48,1.04,0.48,1.52,0.04c-0.22-0.05-0.41-0.14-0.56-0.32
	c-0.08-0.1-0.15-0.34-0.33-0.2c-0.14,0.12-0.04,0.31,0.15,0.48C194.75,42.62,194.55,42.62,194.26,42.62z M194.47,41.81
	c-0.08-0.17,0.14-0.55-0.13-0.57c-0.31-0.01-0.37,0.38-0.38,0.66c-0.01,0.25,0.03,0.6,0.31,0.6c0.36,0,0.14-0.36,0.2-0.56
	C194.48,41.92,194.47,41.88,194.47,41.81z M195.04,41.89c0.15-0.03,0.26-0.11,0.25-0.3c-0.01-0.17-0.09-0.29-0.27-0.3
	c-0.2-0.02-0.21,0.12-0.2,0.26C194.81,41.7,194.8,41.87,195.04,41.89z"/>
<path class="st2" d="M195.04,41.89c-0.23-0.03-0.22-0.19-0.22-0.34c0-0.14,0.01-0.28,0.2-0.26c0.17,0.02,0.26,0.13,0.27,0.3
	C195.29,41.78,195.19,41.86,195.04,41.89z"/>
</svg>
