<?xml version="1.0" encoding="utf-8"?>
<!-- Generator: Adobe Illustrator 25.4.1, SVG Export Plug-In . SVG Version: 6.00 Build 0)  -->
<svg version="1.1" id="Layer_1" xmlns="http://www.w3.org/2000/svg" xmlns:xlink="http://www.w3.org/1999/xlink" x="0px" y="0px"
	 viewBox="0 0 200 100" style="enable-background:new 0 0 200 100;" xml:space="preserve">
<style type="text/css">
	.st0{fill:#5E0A35;}
	.st1{fill:#77828D;}
	.st2{fill:#FDFCFD;}
</style>
<g>
	<path class="st0" d="M102.01,75.01c0.05-0.26-0.36-0.33-0.26-0.62c1.81,0.01,2.16-0.29,2.08-2.13c-0.05-1.13,0.35-2.31-0.24-3.41
		c-0.12-0.22,0.14-0.37,0.3-0.49c0.4-0.31,0.81-0.6,1.4-1.03c0,1.3,0.06,2.44-0.02,3.58c-0.06,0.79,0.3,0.84,0.93,0.85
		c0.67,0.01,0.99-0.11,0.91-0.87c-0.16-1.53,0.23-3.1-0.21-4.62c-0.06-0.22,0.1-0.34,0.23-0.45c0.44-0.35,0.86-0.74,1.51-1.03
		c0,1.11,0,2.13,0,3.16c0,0.4-0.05,0.7,0.57,0.45c0.97-0.39,2.02-0.17,3.03-0.2c1.11-0.03,2.22-0.02,3.33,0
		c1.78,0.02,2.78,1,2.79,2.78c0,0.57,0.13,0.79,0.74,0.76c1.14-0.05,2.28-0.02,3.42-0.01c0.36,0,0.63,0,0.63-0.5
		c0-0.47-0.2-0.57-0.6-0.53c-0.06,0.01-0.12,0.01-0.18,0c-0.42-0.12-1.09,0.32-1.24-0.27c-0.17-0.64-0.13-1.37,0.47-1.91
		c0.82-0.73,1.84-1.08,2.96-1.6c0,1.4,0.06,2.7-0.02,3.99c-0.05,0.82,0.34,0.87,0.95,0.82c0.53-0.04,1.15,0.21,1.09-0.78
		c-0.09-1.28,0.2-2.62-0.08-3.85c-0.32-1.39,0.62-1.6,1.49-2.25c0,2.19,0,4.21,0,6.23c0,1.96,0,1.96-1.93,1.96
		c-6.67,0-13.34,0.01-20.01-0.01c-0.56,0-0.9,0.07-0.97,0.69c-0.07,0.58-0.56,0.89-0.93,1.27
		C103.45,75.01,102.73,75.01,102.01,75.01z M112.69,71.73c1.17,0,2.34,0,3.51,0c0.25,0,0.54,0.09,0.7-0.25
		c0.44-0.95-0.1-1.83-1.15-1.83c-1.41-0.01-2.82,0-4.23,0c-0.66,0-1.32-0.01-1.98,0.01c-1.09,0.02-0.84,0.84-0.89,1.5
		c-0.06,0.79,0.49,0.58,0.9,0.58C110.59,71.74,111.64,71.73,112.69,71.73z"/>
	<path class="st0" d="M169.25,48.39c1.01,0.73,2.18,1.09,3.35,1.44c1.38,0.41,2.78,0.74,4.22,0.84c1.09,0.07,0.62,0.85,0.7,1.37
		c0.11,0.7-0.39,0.66-0.86,0.68c-3.35,0.09-6.7,0.27-10.03,0.63c-0.44,0.05-0.89,0.07-1.4,0.34c0.93,0.53,1.9,0.48,2.8,0.55
		c2.71,0.22,5.43,0.31,8.15,0.47c0.37,0.02,1.09-0.24,0.96,0.47c-0.11,0.59,0.29,1.59-0.92,1.67c-3.16,0.21-6.33,0.28-9.49,0.64
		c-0.52,0.06-1.04,0.18-1.56,0.39c1.08,0.46,2.23,0.5,3.36,0.59c2.27,0.18,4.53,0.36,6.81,0.37c0.64,0,0.77,0.19,0.6,0.9
		c-0.33,1.36-1.26,1.41-2.35,1.44c-2.09,0.06-4.18,0.21-6.26,0.48c-0.38,0.05-0.78,0.05-1.24,0.37c1.04,0.43,2.08,0.41,3.08,0.51
		c1.43,0.14,2.86,0.19,4.3,0.26c0.65,0.03,0.84,0.21,0.39,0.78c-0.3,0.37-0.6,0.75-0.85,1.16c-0.32,0.52-0.78,0.67-1.36,0.7
		c-1.3,0.06-2.59,0.16-4.08,0.59c1.26,0.61,2.43,0.44,3.62,0.76c-1.22,1.18-2.5,2.13-3.87,2.97c-0.32,0.19-0.49-0.04-0.69-0.21
		c-0.45-0.39-0.76-0.93-1.33-1.19c-0.29-0.3-0.57-0.59-0.86-0.89c-0.78-0.98-1.48-2.02-2.36-2.91c-0.2-0.56-0.62-0.98-0.96-1.44
		c-0.48-0.88-1-1.72-1.7-2.44c-0.32-0.63-0.65-1.25-1.21-1.7c-0.36-1.01-1-1.34-1.96-1.06c-0.98,0.29-1.95,0.62-3.04,0.41
		c2.09-0.98,3.92-2.25,4.95-4.35c1.04-2.14,0.82-4.36,0.21-6.81c-0.44,1.06-0.73,1.96-1.57,2.69c0.17-1.79,0.06-3.37-1.15-4.98
		c-0.13,1.6-0.44,2.83-1.85,3.4c-0.12,0.05-0.19,0.23-0.28,0.35c-0.27,0.35-0.7,0.81-0.5,1.16c0.24,0.43,0.78-0.01,1.28-0.08
		c-0.78,2.79-1.77,5.4-3.17,7.84c-0.23,0.4-0.64,0.73-0.6,1.26c-0.91,0.79-1.75,1.69-2.9,2.16c-0.29,0-0.59,0-0.88,0.01
		c-0.69-0.75-1.71-1.23-2.01-2.32c0.75-0.3,1.26-0.81,1.38-1.7c-0.4,0.27-0.8,0.56-1.22,0.8c-0.75,0.43-1.29,0.16-1.46-0.7
		c0.51-0.83,1.02-1.67,1.54-2.5c0.56-0.44,0.96-1.01,1.23-1.67c0.66-0.78,1.31-1.55,1.97-2.33c0.48-0.55,0.97-1.09,1.45-1.64
		c0.73-0.79,1.47-1.58,2.2-2.37c0.76-0.53,1.45-1.13,1.96-1.93c0.88-0.53,1.55-1.3,2.32-1.97c0.92-0.72,1.84-1.45,2.76-2.17
		c0.76-0.57,1.53-1.15,2.29-1.72c1.26-0.87,2.53-1.74,3.79-2.61c0.47-0.35,0.95-0.71,1.42-1.07c1.84-1.13,3.66-2.28,5.51-3.38
		c4.51-2.69,9.15-5.12,14.1-6.91c0.11-0.04,0.22-0.09,0.34-0.12c0.38-0.11,0.86-0.48,1.09,0.08c0.23,0.56-0.35,0.64-0.72,0.8
		c-5.25,2.38-10.2,5.31-15.06,8.39c-2.81,1.79-5.86,3.15-8.6,5.04c-0.89,0.61-1.79,1.2-2.69,1.8c-0.19,0.13-0.43,0.23-0.41,0.54
		c0.3,0.2,0.51-0.04,0.72-0.18c6.72-4.4,14.06-7.48,21.65-9.98c2.05-0.68,4.12-1.28,6.19-1.91c0.2-0.06,0.41-0.11,0.61-0.13
		c0.24-0.02,0.49-0.02,0.56,0.3c0.06,0.31-0.14,0.44-0.37,0.53c-0.39,0.16-0.78,0.3-1.17,0.45c-6.53,2.47-12.99,5.11-19.16,8.41
		c-0.69,0.39-1.37,0.78-2.06,1.16c-1.05,0.64-2.1,1.28-3.13,1.93c-0.25,0.16-0.55,0.37-0.45,0.71c0.1,0.34,0.46,0.17,0.71,0.18
		c2.51,0.11,5.02,0.2,7.54,0.3c0.01,0.42-0.36,0.61-0.54,0.93c-1.41,0.84-2.94,1.22-4.58,1.12c-0.23-0.01-0.51-0.06-0.62,0.22
		c-0.1,0.26,0.07,0.47,0.23,0.63c0.33,0.34,0.69,0.65,1.03,0.97C167.76,47.54,168.43,48.07,169.25,48.39z"/>
	<path class="st0" d="M29.08,59.89c2.87,1.78,5.56,3.45,8.36,5.19c-1.34,0.74-2.62,1.33-3.77,2.13c-0.39,0.27-0.62-0.07-0.86-0.25
		c-2.37-1.83-4.74-3.66-7.07-5.54c-0.63-0.51-1.25-0.72-2.05-0.69c-2.78,0.12-5.46-0.33-7.88-1.76c-3.13-1.85-5.11-4.59-5.8-8.16
		c-0.84-4.34-0.15-8.39,2.69-11.9c1.72-2.13,4.04-3.37,6.67-3.99c3.62-0.86,7.2-0.74,10.67,0.68c4.1,1.68,6.59,4.7,7.25,9.09
		c0.62,4.19-0.06,8.1-2.82,11.48c-1.24,1.51-2.78,2.63-4.58,3.39C29.68,59.64,29.47,59.73,29.08,59.89z M32.38,47.51
		c0.09-2.39-0.2-4.42-1.07-6.33c-1.48-3.23-4.06-4.92-7.6-4.9c-3.29,0.02-5.82,1.49-7.33,4.47c-1.61,3.18-1.9,6.56-1.32,10.03
		c0.38,2.25,1.18,4.36,2.92,5.93c4.36,3.94,11.11,2.36,13.33-3.09C32.14,51.56,32.43,49.41,32.38,47.51z"/>
	<path class="st0" d="M130.56,60.23c-2.1-0.23-4.01-0.33-5.91-0.03c-0.4,0.06-0.52-0.25-0.67-0.49c-2.22-3.7-4.71-7.22-7.19-10.74
		c-0.12-0.17-0.25-0.34-0.36-0.52c-0.22-0.39-0.59-0.39-0.95-0.33c-0.47,0.08-0.28,0.47-0.27,0.73c0.05,3.5,0.1,7,0.18,10.49
		c0.02,0.69-0.1,0.95-0.89,0.79c-1.15-0.23-2.32-0.19-3.48,0.04c-0.48,0.09-0.73-0.02-0.69-0.59c0.31-4.56,0.29-9.14,0.34-13.71
		c0.04-3.26,0-6.52-0.2-9.77c-0.08-1.35-0.12-1.41,1.2-1.31c3.21,0.24,6.41-0.17,9.61-0.1c3.52,0.07,6.25,2.21,6.53,5.21
		c0.32,3.38-1.43,5.98-4.83,7.22c-0.5,0.18-1.33,0.06-1.43,0.6c-0.07,0.37,0.52,0.89,0.82,1.33c2.49,3.59,5.01,7.16,7.76,10.56
		C130.26,59.76,130.34,59.91,130.56,60.23z M115.21,41.46c0,0.87-0.03,1.74,0.01,2.6c0.03,0.73-0.32,1.63,0.15,2.16
		c0.47,0.51,1.37,0.16,2.08,0.2c3.32,0.18,5.4-1.73,5.51-5.05c0.09-2.85-1.35-4.57-4.16-4.82c-0.98-0.09-1.97,0.05-2.96,0.08
		c-0.53,0.02-0.66,0.28-0.65,0.8C115.24,38.76,115.21,40.11,115.21,41.46z"/>
	<path class="st0" d="M64.73,60.13c-0.66,0.17-1.22-0.02-1.77-0.06c-0.97-0.08-1.92-0.06-2.86,0.1c-0.65,0.11-1.01-0.02-1.26-0.71
		c-0.79-2.19-1.68-4.35-2.5-6.53c-0.19-0.5-0.41-0.77-0.99-0.8c-2.67-0.15-5.33-0.16-7.99,0c-0.49,0.03-0.72,0.23-0.89,0.68
		c-0.86,2.26-1.82,4.49-2.5,6.82c-0.12,0.42-0.27,0.67-0.81,0.52c-0.87-0.23-1.77-0.14-2.82,0.12c0.83-1.84,1.59-3.53,2.34-5.21
		c2.59-5.82,5.28-11.59,7.67-17.5c0.32-0.8,0.59-1.63,0.89-2.44c0.06-0.17,0.11-0.34,0.17-0.51c0.12-0.35,0.48-0.25,0.6-0.15
		c0.63,0.51,1.64-0.75,2.08,0.47c2.7,7.45,5.96,14.68,9.16,21.93C63.71,57.92,64.21,59,64.73,60.13z M51.42,40.66
		c-1.31,3.17-2.53,6.11-3.79,9.13c2.47,0.26,4.83,0.32,7.28,0.01C53.76,46.78,52.63,43.83,51.42,40.66z"/>
	<path class="st0" d="M106.29,60.25c-1.81-0.26-3.51-0.3-5.2-0.05c-0.55,0.08-0.55-0.37-0.66-0.67c-0.86-2.2-1.73-4.39-2.55-6.61
		c-0.2-0.56-0.5-0.8-1.08-0.83c-2.58-0.11-5.15-0.13-7.73,0c-0.56,0.03-0.89,0.24-1.11,0.81c-0.88,2.25-1.77,4.5-2.5,6.81
		c-0.1,0.33-0.2,0.58-0.59,0.47c-0.94-0.25-1.89-0.17-2.99,0.02c0.72-1.61,1.39-3.09,2.05-4.58c2.73-6.15,5.6-12.23,8.08-18.49
		c0.1-0.25,0.19-0.5,0.27-0.76c0.71-2.04,0.71-2.05,2.82-1.98c0.68,0.02,0.56,0.69,0.7,1.07c1.6,4.38,3.39,8.68,5.26,12.96
		C102.78,52.31,104.5,56.19,106.29,60.25z M89.19,49.73c0.87,0.34,1.72,0.15,2.55,0.24c1.37,0.16,2.75-0.03,4.12-0.07
		c0.49-0.01,0.58-0.23,0.36-0.69c-0.32-0.7-0.55-1.45-0.83-2.17c-0.78-2.05-1.57-4.1-2.44-6.37C91.65,43.82,90.43,46.75,89.19,49.73
		z"/>
	<path class="st0" d="M63.32,34.8c1.22,0,2.42-0.05,3.61,0.01c3.78,0.21,7.56,0.05,11.34,0.08c1.35,0.01,2.69-0.1,4.04-0.18
		c0.57-0.03,0.97,0.03,0.74,0.75c-0.03,0.08,0,0.18-0.02,0.27c-0.11,0.55,0.35,1.3-0.1,1.6c-0.38,0.25-1.09-0.01-1.66-0.03
		c-1.62-0.06-3.23-0.1-4.85-0.19c-0.53-0.03-0.73,0.1-0.72,0.69c0.02,6.62,0.01,13.24,0.02,19.86c0,0.65,0.09,1.31,0.17,1.96
		c0.06,0.5-0.16,0.65-0.61,0.58c-1.34-0.2-2.68-0.25-4.02-0.01c-0.25,0.04-0.61,0.15-0.56-0.4c0.37-4.08,0.35-8.18,0.33-12.28
		c-0.02-3.2-0.07-6.41-0.05-9.61c0-0.64-0.18-0.83-0.81-0.79c-2.09,0.13-4.19,0.07-6.28,0.29c-0.33,0.03-0.68,0.09-0.52-0.48
		C63.57,36.22,63.45,35.5,63.32,34.8z"/>
	<path class="st1" d="M161.12,63.11c0.34,0.47,0.77,0.88,0.96,1.44c-1.82,0.22-3.65,0.19-5.47,0.23
		c-5.04,0.09-10.07,0.14-15.11,0.18c-0.5,0-1.02-0.07-1.51-0.18c-0.49-0.11-1.13-0.23-1.15-0.84c-0.02-0.66,0.67-0.78,1.16-0.91
		c0.57-0.15,1.18-0.22,1.78-0.22c1.68-0.02,3.36,0.01,5.04,0.03c3.84,0.05,7.67,0.1,11.51,0.19
		C159.27,63.06,160.19,63.18,161.12,63.11z"/>
	<path class="st1" d="M156.11,42.66c-0.77,0.66-1.44,1.44-2.32,1.97c-4.58,0.06-9.17,0.13-13.75,0.18c-0.95,0.01-1.92-0.01-2.79-0.5
		c-0.87-0.49-0.88-0.99,0-1.48c0.81-0.45,1.72-0.5,2.61-0.5c4.91,0.04,9.83,0.1,14.74,0.18C155.11,42.51,155.61,42.61,156.11,42.66z
		"/>
	<path class="st1" d="M161.17,38.77c-0.76,0.57-1.53,1.15-2.29,1.72c-0.17-0.24-0.43-0.19-0.66-0.17c-3.17,0.21-6.36,0.08-9.53,0.21
		c-2.4,0.1-4.8,0.03-7.2,0.09c-0.7,0.02-1.37-0.16-2.02-0.38c-0.31-0.11-0.62-0.32-0.63-0.69c-0.01-0.37,0.3-0.57,0.61-0.7
		c0.53-0.23,1.08-0.35,1.66-0.35c4.23,0.02,8.47-0.04,12.7,0.09C156.26,38.64,158.72,38.6,161.17,38.77z"/>
	<path class="st1" d="M63.41,66.95c-0.61,1.78-1.22,3.56-1.81,5.34c-0.13,0.39-0.16,0.79-0.78,0.76c-0.55-0.02-0.59-0.35-0.72-0.73
		c-0.81-2.35-1.62-4.7-2.48-7.03c-0.21-0.58-0.2-0.7,0.5-0.75c0.96-0.07,1.26,0.3,1.48,1.15c0.44,1.65,1.02,3.25,1.61,5.1
		c0.4-1.08,0.75-1.98,1.06-2.89c0.29-0.85,0.53-1.72,0.83-2.56c0.12-0.34,0.06-0.8,0.73-0.8c0.62,0,0.74,0.29,0.88,0.75
		c0.56,1.76,1.15,3.52,1.95,5.3c0.47-1.42,0.95-2.83,1.41-4.25c0.09-0.28,0.2-0.57,0.23-0.87c0.09-0.87,0.58-1.07,1.41-0.83
		c-1.04,2.64-2.03,5.31-2.89,8.01c-0.12,0.39-0.4,0.35-0.71,0.38c-0.43,0.04-0.56-0.19-0.67-0.54c-0.6-1.85-1.23-3.69-1.85-5.53
		C63.53,66.96,63.47,66.95,63.41,66.95z"/>
	<path class="st1" d="M151.83,46.55c-0.73,0.79-1.47,1.58-2.2,2.37c-3.63,0.01-7.27,0.01-10.9,0.02c-0.94,0-1.86-0.13-2.71-0.54
		c-0.33-0.16-0.64-0.35-0.63-0.79c0.01-0.4,0.31-0.55,0.6-0.72c0.59-0.34,1.23-0.5,1.9-0.5c4.54,0.01,9.07,0.03,13.61,0.06
		C151.6,46.47,151.72,46.52,151.83,46.55z"/>
	<path class="st1" d="M166.38,35.1c-0.47,0.36-0.95,0.71-1.42,1.07c-0.14-0.35-0.45-0.24-0.7-0.23c-2.46,0.06-4.91,0.15-7.37,0.2
		c-4.2,0.1-8.4,0.21-12.6,0.14c-0.32-0.01-0.66-0.08-0.96-0.19c-0.32-0.11-0.77-0.19-0.72-0.66c0.05-0.41,0.44-0.56,0.79-0.64
		c0.49-0.11,1.01-0.2,1.51-0.2c4.44,0.04,8.88,0.08,13.31,0.18C160.94,34.83,163.66,34.98,166.38,35.1z"/>
	<path class="st1" d="M148.17,50.57c-0.66,0.78-1.31,1.55-1.97,2.33c-3.08,0.22-6.16,0.21-9.24,0.01c-0.54-0.04-1.06-0.21-1.52-0.51
		c-0.7-0.46-0.7-0.9,0.01-1.36c0.95-0.62,2.05-0.65,3.12-0.66c2.88-0.02,5.76,0.02,8.63,0.04
		C147.54,50.42,147.88,50.37,148.17,50.57z"/>
	<path class="st0" d="M96.02,65.7c0,1.87,0.02,3.61-0.01,5.34c-0.01,0.55,0.15,0.73,0.71,0.7c0.99-0.04,1.98-0.05,2.97,0
		c0.59,0.03,0.84-0.16,0.74-0.75c-0.07-0.4,0.16-0.83-0.21-1.19c-0.27-0.26,0-0.43,0.16-0.58c0.39-0.38,0.82-0.68,1.48-1.02
		c0,1.3-0.06,2.51,0.02,3.71c0.06,0.92-0.19,1.19-1.15,1.17c-2.82-0.07-5.65-0.04-8.47-0.01c-0.57,0.01-0.68-0.11-0.7-0.73
		c-0.04-1.77,0.71-2.94,2.27-3.71c0.46-0.23,1.22-0.44,0.47-1.2c-0.14-0.14,0.04-0.27,0.14-0.36C94.91,66.61,95.31,66.08,96.02,65.7
		z M94.58,69.84c-0.56,0.11-0.95,0.33-1.28,0.62c-0.44,0.38-0.44,1.12-0.04,1.26c0.84,0.3,1.32-0.04,1.32-0.92
		C94.58,70.51,94.58,70.21,94.58,69.84z"/>
	<path class="st1" d="M164.45,67.46c0.29,0.3,0.57,0.59,0.86,0.89c-1.67,0.07-3.35,0.18-5.02,0.22c-4.62,0.11-9.24,0.23-13.86,0.19
		c-0.8-0.01-1.6,0.21-2.41-0.01c-0.29-0.08-0.59-0.12-0.87-0.22c-0.25-0.09-0.53-0.21-0.54-0.53c-0.02-0.37,0.27-0.5,0.56-0.61
		c0.51-0.18,1.04-0.3,1.58-0.29c4.44,0.06,8.88,0.07,13.32,0.2C160.19,67.36,162.32,67.45,164.45,67.46z"/>
	<path class="st1" d="M54.54,68.85c1.01,1.39,1.95,2.7,2.9,4.01c-1.47,0.41-1.87,0.27-2.66-0.92c-0.55-0.82-1.11-1.64-1.67-2.45
		c-0.11-0.16-0.2-0.44-0.45-0.38c-0.33,0.08-0.17,0.4-0.17,0.61c-0.02,0.9-0.05,1.8,0,2.69c0.04,0.78-0.48,0.58-0.89,0.6
		c-0.43,0.02-0.86,0.08-0.8-0.6c0.19-2.15,0.12-4.3,0.12-6.46c0-1.35,0-1.35,1.35-1.39c0.69-0.02,1.38-0.07,2.07-0.06
		c1.34,0.01,2.09,0.56,2.32,1.67c0.21,1.04-0.39,2.01-1.57,2.5C54.95,68.73,54.8,68.77,54.54,68.85z M52.48,66.7
		c0,0.18-0.03,0.37,0.01,0.54c0.09,0.37-0.28,0.89,0.25,1.11c0.6,0.25,1.18,0.08,1.69-0.29c0.57-0.41,0.56-1.02,0.52-1.63
		c-0.06-0.9-0.62-1.25-1.81-1.27c-1.08-0.02-0.53,0.75-0.66,1.19C52.46,66.45,52.48,66.58,52.48,66.7z"/>
	<path class="st1" d="M37.89,72.95c1.17-2.77,2.49-5.42,3.54-8.18c0.1-0.26,0.26-0.37,0.53-0.38c0.32-0.01,0.48,0.11,0.59,0.41
		c0.96,2.61,2.09,5.15,3.26,7.68c0.18,0.39,0.1,0.52-0.34,0.55c-0.85,0.05-1.48,0.02-1.81-1.05c-0.52-1.69-0.63-1.6-2.45-1.68
		c-0.95-0.04-1.48,0.25-1.64,1.19c-0.04,0.23-0.21,0.44-0.25,0.67C39.21,72.98,38.73,73.17,37.89,72.95z M41.51,66.94
		c-0.37,0.36-0.43,0.82-0.61,1.22c-0.66,1.48-0.57,1.6,1.09,1.45c0.12-0.01,0.24-0.03,0.35-0.05c0.15-0.03,0.31-0.11,0.23-0.29
		C42.23,68.5,42.13,67.61,41.51,66.94z"/>
	<path class="st1" d="M72.34,70.32c-1.82,0.02-1.4-0.15-2.08,1.46c-0.12,0.28-0.22,0.56-0.3,0.85c-0.15,0.59-0.63,0.44-0.95,0.35
		c-0.5-0.13-0.14-0.49-0.04-0.71c1.06-2.47,2.15-4.94,3.22-7.41c0.12-0.27,0.2-0.47,0.55-0.48c0.37-0.01,0.54,0.17,0.65,0.48
		c0.92,2.6,2.09,5.09,3.21,7.61c0.22,0.48,0.05,0.5-0.38,0.56c-0.97,0.13-1.47-0.18-1.8-1.17C73.84,70.13,74.19,70.34,72.34,70.32z
		 M72.37,66.6c-0.27,0.65-0.47,1.11-0.66,1.57c-0.59,1.45-0.45,1.63,1.16,1.43c0.06-0.01,0.12-0.03,0.18-0.03
		c0.3-0.01,0.44-0.11,0.3-0.44C73.04,68.36,72.75,67.59,72.37,66.6z"/>
	<path class="st1" d="M144.97,54.57c-0.51,0.83-1.02,1.67-1.54,2.5c-1.61-0.01-3.23-0.01-4.84-0.02c-0.75,0-1.49-0.08-2.2-0.34
		c-0.46-0.17-0.96-0.35-0.99-0.9c-0.03-0.62,0.52-0.82,1.01-0.98c0.42-0.14,0.87-0.28,1.3-0.29
		C140.14,54.49,142.56,54.44,144.97,54.57z"/>
	<path class="st1" d="M83.91,71.2c0.4,0.14,0.43,0.49,0.61,0.71c0.49,0.59,1.11,0.81,1.84,0.62c0.69-0.18,1.18-0.6,1.22-1.37
		c0.04-0.79-0.38-1.28-1.1-1.56c-0.47-0.18-0.94-0.39-1.4-0.61c-1.07-0.54-1.45-1.23-1.33-2.39c0.1-1,0.72-1.73,1.75-2.05
		c0.71-0.22,1.42-0.22,2.13-0.04c1.21,0.32,1.24,0.39,0.58,1.58c-0.42-0.73-1.03-1.05-1.87-1c-0.68,0.04-1.05,0.38-1.22,0.99
		c-0.16,0.6,0.07,1.08,0.61,1.35c0.61,0.31,1.27,0.54,1.89,0.84c1.07,0.51,1.53,1.28,1.46,2.43c-0.06,1.06-0.79,2-1.82,2.33
		c-0.7,0.22-1.41,0.26-2.13,0.12C83.64,72.87,83.59,72.79,83.91,71.2z"/>
	<path class="st1" d="M147.61,60.97c1.15-0.47,1.99-1.37,2.9-2.16c2.56,0,5.13-0.02,7.69,0.17c0.57,0.45,0.9,1.07,1.21,1.7
		c-0.55,0.21-1.13,0.1-1.69,0.11C154.36,60.87,150.99,60.91,147.61,60.97z"/>
	<path class="st1" d="M75.62,64.62c1.57-0.38,2.39,0.21,2.86,1.57c0.28,0.81,0.78,1.54,1.25,2.43c0.76-1.06,1.26-2.11,1.74-3.18
		c0.42-0.94,0.43-0.94,1.62-0.78c-0.68,1.15-1.28,2.32-2.03,3.39c-0.83,1.19-0.98,2.45-0.83,3.82c0.13,1.19-0.07,1.33-1.29,1.16
		c-0.31-0.04-0.44-0.14-0.38-0.45c0.52-2.49-0.7-4.44-1.99-6.37C76.24,65.72,75.96,65.2,75.62,64.62z"/>
	<path class="st1" d="M144.72,58.66c0.3,1.09,1.31,1.57,2.01,2.32c-2.64,0.01-5.28,0.03-7.92,0.03c-0.57,0-1.13-0.16-1.63-0.44
		c-0.76-0.42-0.77-0.93-0.01-1.4c0.63-0.39,1.35-0.5,2.07-0.51C141.06,58.63,142.89,58.65,144.72,58.66z"/>
	<path class="st1" d="M163.86,32.36c-1.72,0.09-3.44,0.21-5.16,0.27c-2.9,0.09-5.81,0.14-8.71,0.19c-0.56,0.01-1.44,0.18-1.42-0.62
		c0.01-0.7,0.87-0.54,1.41-0.55c3.8-0.07,7.6,0.13,11.4,0.24c0.83,0.02,1.65,0.15,2.47,0.22C163.86,32.19,163.86,32.28,163.86,32.36
		z"/>
	<path class="st1" d="M163.92,71.1c-0.22,0.35-0.53,0.28-0.82,0.3c-4.37,0.28-8.74,0.39-13.12,0.4c-0.55,0-1.45,0.19-1.42-0.64
		c0.03-0.73,0.89-0.51,1.43-0.52c3.81-0.07,7.62,0.12,11.42,0.24C162.24,70.91,163.07,71.03,163.92,71.1z"/>
	<path class="st1" d="M48.7,68.71c0,1.23-0.04,2.45,0.01,3.68c0.04,0.92-0.61,0.56-1.04,0.63c-0.55,0.09-0.68-0.12-0.67-0.69
		c0.04-2.39,0.3-4.77,0.02-7.16c-0.07-0.55,0.06-0.61,0.64-0.65c1.01-0.08,1.1,0.34,1.05,1.14C48.65,66.68,48.7,67.69,48.7,68.71z"
		/>
	<path class="st0" d="M130.64,64.85c0,2.71-0.01,5.22,0.01,7.73c0,0.62-0.41,0.46-0.74,0.47c-0.34,0.01-0.72,0.12-0.71-0.49
		c0.03-1.65,0.03-3.3,0-4.94c-0.01-0.42,0.2-0.88-0.25-1.25c-0.22-0.19,0.06-0.38,0.21-0.49C129.58,65.56,130.03,65.27,130.64,64.85
		z"/>
	<path class="st1" d="M169.25,48.39c-0.82-0.33-1.49-0.86-2.15-1.42c3.34-0.03,6.66,0.16,9.97,0.65
		C174.5,48.28,171.84,48.04,169.25,48.39z"/>
	<path class="st1" d="M166.91,40c0.69-0.39,1.37-0.78,2.06-1.16c0.78,0.48,1.67,0.18,2.5,0.35c0.66,0.13,1.37,0.02,2.02,0.38
		C171.31,39.87,169.12,40.12,166.91,40z"/>
	<path class="st1" d="M171.03,44.03c0.17-0.31,0.54-0.51,0.54-0.93c1.38,0.06,2.76,0.1,4.13,0.45
		C174.16,43.94,172.61,44.05,171.03,44.03z"/>
	<path class="st0" d="M121.75,65.78c-0.54,0.01-0.83-0.12-0.84-0.59c-0.01-0.5,0.27-0.68,0.73-0.66c0.43,0.02,0.76,0.17,0.77,0.66
		C122.42,65.74,121.99,65.74,121.75,65.78z"/>
	<path class="st0" d="M123.59,65.78c-0.48,0-0.71-0.18-0.7-0.64c0.01-0.53,0.35-0.63,0.78-0.61c0.44,0.02,0.75,0.2,0.72,0.69
		C124.35,65.76,123.91,65.73,123.59,65.78z"/>
	<path class="st0" d="M93.49,65.3c-0.08,0.56-0.55,0.62-0.94,0.63c-0.38,0-0.64-0.24-0.6-0.71c0.04-0.49,0.37-0.61,0.73-0.59
		C93.06,64.66,93.45,64.8,93.49,65.3z"/>
	<path class="st0" d="M99.39,73.61c0.5-0.03,0.82,0.18,0.82,0.64c0,0.5-0.45,0.57-0.84,0.6c-0.42,0.03-0.72-0.22-0.72-0.62
		C98.66,73.79,98.93,73.52,99.39,73.61z"/>
	<path class="st0" d="M93.87,65.3c-0.07-0.49,0.25-0.68,0.63-0.67c0.41,0.01,0.87,0.12,0.85,0.69c-0.02,0.53-0.49,0.58-0.84,0.61
		C94.15,65.96,93.81,65.78,93.87,65.3z"/>
	<path class="st0" d="M97.39,73.61c0.48-0.05,0.81,0.16,0.84,0.6c0.03,0.5-0.41,0.6-0.8,0.63c-0.46,0.04-0.75-0.21-0.73-0.67
		C96.71,73.76,96.96,73.53,97.39,73.61z"/>
	<path class="st2" d="M112.69,71.73c-1.05,0-2.1,0.01-3.15,0c-0.4-0.01-0.96,0.21-0.9-0.58c0.05-0.66-0.2-1.47,0.89-1.5
		c0.66-0.01,1.32-0.01,1.98-0.01c1.41,0,2.82-0.01,4.23,0c1.06,0.01,1.6,0.89,1.15,1.83c-0.16,0.34-0.44,0.25-0.7,0.25
		C115.03,71.74,113.86,71.73,112.69,71.73z"/>
	<path class="st2" d="M94.58,69.84c0,0.37,0,0.67,0,0.96c0,0.88-0.49,1.21-1.32,0.92c-0.4-0.14-0.4-0.88,0.04-1.26
		C93.63,70.17,94.02,69.95,94.58,69.84z"/>
	<path class="st2" d="M52.48,66.7c0-0.12-0.03-0.25,0-0.36c0.12-0.44-0.42-1.21,0.66-1.19c1.18,0.02,1.75,0.37,1.81,1.27
		c0.04,0.61,0.04,1.22-0.52,1.63c-0.51,0.37-1.09,0.54-1.69,0.29c-0.53-0.22-0.16-0.73-0.25-1.11
		C52.45,67.07,52.48,66.88,52.48,66.7z"/>
	<path class="st2" d="M41.51,66.94c0.62,0.67,0.72,1.56,1.06,2.33c0.08,0.19-0.07,0.26-0.23,0.29c-0.12,0.03-0.23,0.04-0.35,0.05
		c-1.66,0.15-1.75,0.03-1.09-1.45C41.08,67.76,41.15,67.3,41.51,66.94z"/>
	<path class="st2" d="M72.37,66.6c0.38,0.99,0.67,1.77,0.98,2.53c0.13,0.33,0,0.43-0.3,0.44c-0.06,0-0.12,0.02-0.18,0.03
		c-1.61,0.2-1.76,0.02-1.16-1.43C71.9,67.71,72.09,67.25,72.37,66.6z"/>
</g>
</svg>
