<?xml version="1.0" encoding="utf-8"?>
<!-- Generator: Adobe Illustrator 25.4.1, SVG Export Plug-In . SVG Version: 6.00 Build 0)  -->
<svg version="1.1" id="Layer_1" xmlns="http://www.w3.org/2000/svg" xmlns:xlink="http://www.w3.org/1999/xlink" x="0px" y="0px"
	 viewBox="0 0 200 100" style="enable-background:new 0 0 200 100;" xml:space="preserve">
<style type="text/css">
	.st0{fill:#457697;}
	.st1{fill:#FFFFFF;}
</style>
<path class="st0" d="M63.52,48.51c-0.21-0.21-0.41-0.42-0.62-0.63c0-0.03-0.02-0.05-0.05-0.05c0,0-0.02-0.02-0.02-0.02
	c-0.02-0.05-0.06-0.04-0.1-0.03c-0.3-0.3-0.6-0.61-0.91-0.91c0-0.03-0.02-0.05-0.05-0.05c0,0-0.02-0.02-0.02-0.02
	c-0.02-0.05-0.07-0.05-0.11-0.05c-0.27-0.27-0.55-0.54-0.82-0.81c-0.62-0.62-1.22-1.25-1.84-1.86c-0.86-0.84-1.7-1.68-2.55-2.53
	c-0.22-0.21-0.22-0.22-0.38,0.04c-0.65,1.09-1.4,2.1-2.21,3.07c-0.64,0.78-1.31,1.52-2.01,2.25c-0.64,0.66-1.3,1.31-1.98,1.93
	c-0.6,0.56-1.24,1.08-1.87,1.59c-0.65,0.53-1.32,1.04-2.01,1.52c-0.84,0.58-1.68,1.15-2.56,1.66c-1.19,0.68-2.41,1.31-3.68,1.85
	c-1.56,0.66-3.15,1.21-4.79,1.62c-0.16,0.04-0.31,0.1-0.47,0.15c-0.04-0.04-0.07-0.03-0.11,0c0,0-0.03,0-0.03,0
	c-0.1-0.01-0.19,0.01-0.27,0.06c-0.11,0.08-0.26,0.03-0.38,0.08c-0.1-0.01-0.2,0-0.28,0.06c-0.03,0-0.05,0.01-0.08,0.01
	c-0.12-0.01-0.23,0.01-0.34,0.06c-0.03,0-0.06,0.01-0.09,0.01c-0.12-0.01-0.23,0.01-0.33,0.06c0,0-0.02,0-0.02,0
	c-0.14-0.01-0.29,0-0.42,0.07c0,0-0.01,0-0.01,0c-0.17-0.01-0.33,0.01-0.49,0.07c0,0-0.02,0-0.02,0c-0.19-0.01-0.38,0-0.56,0.07
	c0,0-0.02,0-0.02,0c-0.22-0.01-0.43,0-0.64,0.07c-0.03,0-0.06,0-0.09,0.01c-0.31-0.01-0.61,0.01-0.91,0.07c0,0-0.02,0-0.02,0
	c-1.18,0.03-2.35,0.03-3.53,0c0,0-0.02,0-0.02,0c-0.28-0.05-0.56-0.08-0.84-0.07c-0.03,0-0.06-0.01-0.09-0.01
	c-0.18-0.07-0.37-0.07-0.56-0.07c0,0-0.02,0-0.02,0c-0.15-0.06-0.31-0.08-0.48-0.07c-0.03,0-0.06-0.01-0.09-0.01
	c-0.11-0.06-0.23-0.07-0.35-0.06c0,0-0.03,0-0.03,0c-0.13-0.06-0.26-0.08-0.4-0.07c-0.02,0-0.05-0.01-0.07-0.01
	c-0.09-0.06-0.19-0.07-0.29-0.06c0,0-0.02,0-0.02,0c-0.08-0.06-0.17-0.07-0.27-0.06c-0.85-0.16-1.67-0.4-2.47-0.72
	c-0.62-0.25-1.25-0.49-1.83-0.81c-0.78-0.43-1.54-0.91-2.25-1.46c-0.84-0.66-1.58-1.41-2.27-2.22c-0.57-0.68-1.04-1.43-1.49-2.19
	c-0.49-0.82-0.85-1.7-1.18-2.59c-0.26-0.71-0.45-1.45-0.54-2.2c-0.05-0.38-0.12-0.75-0.18-1.13c0.02-0.23-0.08-0.43-0.11-0.65
	c0-0.53,0-1.05,0-1.58c0.13-0.17,0.11-0.39,0.13-0.58c0.2-2.3,0.82-4.49,1.8-6.58c1.19-2.51,2.82-4.7,4.77-6.66
	c2.56-2.57,5.5-4.62,8.68-6.34c4.06-2.19,8.35-3.77,12.81-4.95c3.94-1.04,7.95-1.75,12.01-2.17c1.67-0.18,3.34-0.3,5.02-0.4
	c1.7-0.09,3.4-0.11,5.11-0.11c0.74,0,1.49,0,2.23,0.01c0.13,0.02,0.25,0.02,0.38,0.01c0.4,0.05,0.8,0.07,1.2,0.05
	c0.17,0.03,0.35,0.03,0.53,0.02c0.25,0.05,0.51,0.06,0.77,0.05c0.13,0.03,0.25,0.03,0.38,0.02c0.21,0.05,0.41,0.07,0.63,0.05
	c0.1,0.03,0.2,0.03,0.31,0.02c0.16,0.05,0.32,0.06,0.48,0.05c0.08,0.01,0.16,0.01,0.24,0.02c0.16,0.05,0.31,0.07,0.48,0.05
	c0.08,0.01,0.16,0.01,0.24,0.02c0.11,0.05,0.22,0.06,0.34,0.05c0.08,0.03,0.16,0.03,0.24,0.02c0.11,0.05,0.22,0.07,0.33,0.05
	c0.06,0.01,0.12,0.01,0.18,0.02c0.1,0.05,0.21,0.07,0.33,0.05c0.06,0.01,0.12,0.01,0.18,0.02c0.08,0.04,0.16,0.06,0.25,0.05
	c0.08,0.03,0.16,0.04,0.24,0.03c0.08,0.05,0.18,0.07,0.27,0.05c0.05,0.01,0.11,0.01,0.16,0.02c0.06,0.04,0.12,0.06,0.2,0.04
	c0.94,0.21,1.88,0.4,2.8,0.68c1.13,0.33,2.23,0.74,3.26,1.31c1.21,0.66,2.27,1.5,3.01,2.69c0.52,0.83,0.81,1.74,0.88,2.72
	c0.1,1.3-0.12,2.54-0.74,3.7c-0.28,0.53-0.63,1.01-1.04,1.45c-0.75,0.8-1.62,1.45-2.56,2.01c-1.13,0.68-2.31,1.23-3.52,1.75
	c-0.69,0.3-1.39,0.61-2.06,0.97c-0.69,0.36-1.4,0.71-1.99,1.23c-0.58,0.51-0.99,1.1-1,1.9c-0.15,0.04-0.31,0.02-0.46,0.02
	c-2.7,0-5.41,0-8.11,0c-0.13,0-0.26-0.03-0.39,0.03c-0.17,0.15-0.22,0.36-0.33,0.54c-0.2,0.33-0.37,0.66-0.56,0.99
	c-0.07,0.12-0.05,0.2,0.05,0.3c0.54,0.54,1.07,1.1,1.61,1.65c1.01,1.02,1.99,2.07,3,3.11c0.91,0.94,1.8,1.89,2.7,2.84
	c0.94,0.99,1.88,1.98,2.84,2.95c0.68,0.69,1.38,1.37,2.1,2.02c1.35,1.23,2.75,2.4,4.3,3.38c1.2,0.75,2.47,1.33,3.84,1.68
	c0.22,0.05,0.43,0.14,0.67,0.1c0.08,0.05,0.17,0.07,0.27,0.05c0.08,0.03,0.15,0.03,0.23,0.02c0.16,0.07,0.32,0.07,0.49,0.05
	c0.39,0.04,0.78,0.04,1.17,0c0.14,0.02,0.28,0.01,0.42-0.05c0.8-0.05,1.5-0.36,2.16-0.8c0.35-0.24,0.62-0.54,0.85-0.89
	c0.37-0.58,0.57-1.21,0.66-1.88c0.01-0.07-0.01-0.14,0.04-0.2c0.75,0.25,1.17,1.09,0.95,1.88c-0.21,0.74-0.66,1.31-1.24,1.8
	c-0.77,0.66-1.67,1.07-2.64,1.33c-0.28,0.08-0.55,0.18-0.84,0.22c-0.14-0.01-0.28,0.01-0.41,0.07c0,0-0.02,0-0.02,0
	c-0.17-0.01-0.33,0-0.49,0.07c-0.03,0-0.06,0.01-0.09,0.01c-0.48,0.02-0.96,0.05-1.43,0.07c-0.05,0-0.1,0-0.15,0
	c-0.38-0.04-0.76-0.08-1.15-0.07c0,0-0.02,0-0.02,0c-0.16-0.06-0.32-0.08-0.48-0.06c-0.03,0-0.06-0.01-0.09-0.01
	c-0.11-0.06-0.22-0.07-0.34-0.06c-0.03,0-0.06-0.01-0.09-0.01c-0.08-0.06-0.18-0.07-0.27-0.06c-0.65-0.09-1.26-0.29-1.88-0.49
	c-1.14-0.37-2.22-0.89-3.26-1.46c-1.13-0.62-2.2-1.31-3.24-2.07c-0.9-0.66-1.78-1.34-2.65-2.04c-0.55-0.44-1.07-0.91-1.6-1.37
	c-0.12-0.11-0.23-0.23-0.35-0.35c0-0.03-0.02-0.05-0.05-0.05c0,0-0.02-0.02-0.02-0.02C63.59,48.49,63.56,48.5,63.52,48.51z
	 M60.71,31.74c0.12,0.01,0.2,0.01,0.28,0.01c0.92,0,1.85,0.01,2.77,0c1.4-0.02,2.8-0.12,4.18-0.41c1.58-0.33,3.11-0.82,4.5-1.67
	c1.98-1.2,3.35-2.85,3.68-5.21c0.15-1.09,0.08-2.15-0.42-3.16c-0.42-0.83-1.03-1.5-1.77-2.05c-1.05-0.79-2.23-1.31-3.46-1.72
	c-2.31-0.77-4.7-1.13-7.12-1.37c-1.8-0.18-3.61-0.24-5.43-0.27c-2.22-0.04-4.44,0.03-6.65,0.17c-1.59,0.1-3.18,0.26-4.76,0.47
	c-2.28,0.3-4.54,0.73-6.78,1.28c-4.19,1.05-8.22,2.53-11.98,4.68c-2.99,1.71-5.69,3.78-7.95,6.39c-1.78,2.05-3.17,4.33-4.08,6.89
	c-0.6,1.69-0.95,3.43-1.07,5.23c-0.1,1.42-0.04,2.83,0.28,4.22c0.65,2.89,2.21,5.2,4.57,6.98c2.88,2.16,6.17,3.2,9.72,3.44
	c1.88,0.13,3.76-0.01,5.63-0.34c3.42-0.61,6.55-1.92,9.36-3.96c4.29-3.11,7.37-7.19,9.48-12.03c0.1-0.22,0.07-0.37-0.08-0.55
	c-0.9-1.12-1.93-2.1-3.08-2.95c-2.71-1.99-5.7-2.95-9.08-2.54c-1.24,0.15-2.42,0.51-3.49,1.16c-1.08,0.66-1.95,1.51-2.5,2.66
	c-0.04,0.08-0.05,0.19-0.14,0.24c-0.94-0.49-0.96-1.17-0.66-1.82c0.24-0.53,0.6-0.98,1.05-1.36c0.92-0.79,2-1.27,3.15-1.6
	c1.25-0.36,2.53-0.52,3.83-0.6c1.99-0.12,3.96-0.01,5.91,0.34c2.46,0.44,4.81,1.19,6.94,2.55c0.13,0.08,0.19,0.05,0.26-0.06
	c0.16-0.25,0.29-0.52,0.41-0.8c0.83-1.92,1.48-3.89,1.97-5.92c0.13-0.53,0.24-1.08,0.22-1.63c-0.03-0.96-0.56-1.59-1.5-1.8
	c-0.55-0.12-1.1-0.09-1.65-0.03c-0.35,0.04-0.69,0.08-1.03,0.13c-0.12,0.02-0.21,0.01-0.25-0.13c-0.1-0.33-0.2-0.66-0.31-1.02
	c3.34-0.75,6.65-1.49,9.98-2.24c0.01,0.08,0.02,0.13,0.01,0.18C62.91,24.99,61.78,28.33,60.71,31.74z"/>
<path class="st0" d="M178.82,24c0.06-0.01,0.11-0.01,0.17-0.02c0.08,0.02,0.15,0,0.21-0.05c1.11-0.16,2.07-0.59,2.73-1.53
	c0.21-0.31,0.38-0.65,0.56-0.98c0.41-0.77,0.86-1.53,1.19-2.34c0.14-0.35,0.34-0.54,0.72-0.5c0.23,0.02,0.47,0.01,0.7-0.05
	c0.13,0.01,0.26,0.01,0.39-0.02c0.16,0.02,0.33,0.01,0.48-0.05c0.1,0.01,0.21,0.01,0.31-0.02c0.16,0.02,0.32,0,0.48-0.05
	c0.08-0.01,0.16-0.01,0.24-0.02c0.17,0.01,0.33,0,0.48-0.06c0.1,0.01,0.2,0.02,0.14,0.17c-0.1,0.24-0.2,0.48-0.3,0.72
	c-0.57,1.37-1.14,2.73-1.71,4.1c-0.09,0.22-0.18,0.43-0.28,0.7c1.59,0,3.14,0,4.69,0c0,0.07,0,0.14,0,0.22
	c-0.22,0.23-0.31,0.53-0.44,0.8c-0.1,0.21-0.23,0.26-0.44,0.26c-1.35-0.01-2.71,0-4.06-0.01c-0.28,0-0.42,0.07-0.55,0.33
	c-1.25,2.52-2.52,5.03-3.77,7.55c-0.76,1.53-1.48,3.08-2.21,4.63c-0.8,1.71-1.59,3.43-2.3,5.18c-0.34,0.83-0.7,1.66-0.88,2.55
	c-0.07,0.32-0.07,0.64,0.03,0.96c0.11,0.36,0.33,0.63,0.73,0.69c0.06,0.05,0.13,0.07,0.2,0.05c0.17,0.04,0.35,0.03,0.52,0
	c0.12,0.02,0.24,0.01,0.34-0.05c0.5-0.04,0.97-0.22,1.43-0.38c0.95-0.34,1.85-0.76,2.74-1.22c0.35-0.18,0.35-0.18,0.6,0.14
	c0.01,0.02,0.03,0.04,0.05,0.05c0.43,0.49,0.37,0.44-0.11,0.74c-0.93,0.6-1.9,1.14-2.9,1.62c-0.83,0.4-1.69,0.74-2.57,1.03
	c-0.41,0.14-0.83,0.27-1.26,0.33c-0.1-0.01-0.2,0-0.28,0.06c-0.03,0-0.05,0.01-0.08,0.01c-0.14-0.01-0.28,0.01-0.42,0.07
	c-0.03,0-0.06,0.01-0.09,0.01c-0.57,0.03-1.15,0.06-1.72,0c-0.71-0.05-1.27-0.35-1.63-0.98c-0.22-0.37-0.22-0.79-0.2-1.2
	c0.04-0.72,0.31-1.39,0.57-2.05c0.3-0.77,0.6-1.54,0.93-2.3c0.28-0.64,0.55-1.29,0.83-1.93c0.25-0.57,0.52-1.13,0.77-1.7
	c0.19-0.43,0.4-0.85,0.59-1.28c0.23-0.52,0.49-1.04,0.73-1.56c0.27-0.59,0.61-1.15,0.81-1.76c0.04-0.11,0.09-0.22,0.15-0.32
	c0.39-0.65,0.64-1.36,0.99-2.03c0.34-0.67,0.68-1.35,0.98-2.04c0.24-0.53,0.52-1.03,0.75-1.56c0.33-0.78,0.75-1.52,1.09-2.3
	c0.18-0.41,0.35-0.82,0.56-1.21c0.04-0.05,0.07-0.12-0.01-0.14c-0.09-0.02-0.19-0.01-0.29-0.01c-1.19,0-2.37,0-3.56,0
	c-0.13,0-0.26,0.02-0.39-0.03c0.06-0.32,0.2-0.62,0.29-0.93c0.03-0.11,0.1-0.12,0.18-0.12c0.28-0.01,0.55-0.02,0.83-0.03
	c0.21,0.02,0.42,0.01,0.63-0.05c0.1,0.01,0.21,0.01,0.31-0.02C178.6,24.07,178.71,24.05,178.82,24z"/>
<path class="st0" d="M35.7,85.86c-0.58-1.6-1.16-3.2-1.74-4.8c-0.4-1.11-0.8-2.23-1.2-3.34c-0.34-0.94-0.67-1.88-1.02-2.81
	c-0.04-0.12-0.04-0.23-0.07-0.35c0.77-0.03,1.54-0.02,2.3,0c0.66,1.95,1.31,3.9,1.98,5.85c0.18,0.52,0.32,1.06,0.55,1.57
	c0,0.08-0.03,0.2,0.05,0.22c0.09,0.03,0.08-0.08,0.08-0.15c0.34-1.08,0.71-2.16,1.04-3.24c0.21-0.68,0.46-1.36,0.68-2.04
	c0.21-0.67,0.44-1.34,0.65-2.02c0.04-0.12,0.07-0.18,0.21-0.18c0.67,0,1.34,0,2.05,0c-0.14,0.41-0.26,0.79-0.4,1.16
	c-0.39,1.07-0.78,2.14-1.17,3.21c-0.77,2.12-1.54,4.23-2.31,6.35c-0.07,0.19-0.16,0.37-0.17,0.58
	C36.71,85.86,36.21,85.86,35.7,85.86z"/>
<path class="st0" d="M188.49,77.88c-0.12,0-0.24,0-0.36,0c-0.09-0.05-0.18-0.07-0.28-0.06c-0.63-0.13-1.2-0.73-1.23-1.39
	c-0.03-0.55,0.07-1.03,0.48-1.42c0.27-0.27,0.61-0.38,0.97-0.45c0.19,0,0.38,0,0.56,0c0.62,0.16,1.1,0.5,1.32,1.13
	c0.01,0.02,0.04,0.03,0.06,0.04c0,0.34,0,0.67,0,1.01c-0.07,0.01-0.09,0.07-0.12,0.12c-0.23,0.48-0.59,0.82-1.11,0.97
	C188.67,77.81,188.58,77.83,188.49,77.88z M189.6,76.14c-0.01-0.72-0.58-1.29-1.28-1.27c-0.71,0.02-1.28,0.63-1.26,1.35
	c0.01,0.73,0.6,1.31,1.31,1.29C189.07,77.49,189.6,76.9,189.6,76.14z"/>
<path class="st1" d="M10,43.5c0.03,0.22,0.13,0.42,0.11,0.65c-0.04,0-0.07,0-0.11,0C10,43.93,10,43.71,10,43.5z"/>
<path class="st0" d="M119.35,22.85c0.06-0.01,0.11-0.01,0.17-0.02c0.12,0.02,0.23,0,0.33-0.05c0.06-0.01,0.11-0.01,0.17-0.02
	c0.12,0.01,0.24,0,0.34-0.05c0.08,0.01,0.16,0.01,0.23-0.02c0.16,0.01,0.32-0.01,0.48-0.06c0.08-0.01,0.16-0.01,0.24-0.02
	c0.19,0.01,0.37,0,0.55-0.05c0.13,0.01,0.26,0.01,0.38-0.02c0.31,0.02,0.61-0.01,0.91-0.05c0.39,0.01,0.78,0.01,1.17-0.02
	c0.14,0.02,0.28,0.02,0.42,0c0.46,0.03,0.93,0.03,1.39,0.02c0.3,0.05,0.61,0.07,0.91,0.06c0.04,0.03,0.14,0.01,0.09,0.11
	c-0.07,0.13-0.15,0.24-0.22,0.37c-0.51,0.91-1.03,1.82-1.53,2.73c-0.68,1.25-1.36,2.5-1.97,3.79c-0.16,0.34-0.36,0.67-0.4,1.06
	c-0.11,0.05-0.24,0.01-0.35,0.04c-0.03,0-0.06,0-0.09-0.01c-0.25-0.06-0.51-0.07-0.77-0.07c-0.07-0.08-0.04-0.18-0.03-0.27
	c0.06-0.93,0.3-1.82,0.65-2.68c0.21-0.52,0.39-1.04,0.64-1.55c0.06-0.12,0.11-0.25,0.11-0.39c0.03-0.11-0.05-0.11-0.12-0.12
	c-0.27-0.02-0.55-0.05-0.82-0.02c-0.05,0-0.11,0-0.16-0.01c-0.71-0.06-1.42-0.06-2.13,0c-0.08-0.02-0.16-0.02-0.23,0.01
	c-0.43-0.01-0.85-0.02-1.28,0.07c-0.03,0-0.06,0-0.09,0.01c-0.26-0.01-0.52-0.01-0.77,0.07c-0.03,0-0.06,0-0.09,0.01
	c-0.19-0.01-0.38-0.01-0.56,0.06c-0.03,0-0.06,0.01-0.09,0.01c-0.17-0.01-0.33,0-0.49,0.06c-0.03,0-0.06,0.01-0.09,0.01
	c-0.14-0.01-0.28,0-0.41,0.06c0,0-0.02,0-0.02,0c-0.14-0.01-0.29,0-0.42,0.07c0,0-0.02,0-0.02,0c-0.12-0.01-0.24,0-0.35,0.06
	c-0.03,0-0.05,0.01-0.08,0.01c-0.1-0.01-0.2,0-0.28,0.06c-0.03,0-0.05,0.01-0.08,0.01c-0.1-0.01-0.19,0-0.28,0.06
	c-0.03,0-0.06,0.01-0.08,0.01c-0.1-0.01-0.19,0.01-0.27,0.06c-0.58,0.14-1.17,0.29-1.74,0.46c-0.75,0.23-1.47,0.52-2.19,0.83
	c-1.05,0.44-2.03,1.01-2.94,1.69c-1.31,0.96-2.46,2.08-3.14,3.58c-0.51,1.13-0.38,2.24,0.26,3.27c0.38,0.6,0.96,0.95,1.68,1.02
	c0.11,0.05,0.22,0.07,0.33,0.05c0.22,0.04,0.44,0.03,0.66,0c0.16,0.02,0.32,0.01,0.48-0.05c0.58-0.05,1.11-0.24,1.63-0.48
	c1.42-0.65,2.52-1.69,3.51-2.87c0.41-0.49,0.77-1.02,1.11-1.56c0.36-0.59,0.7-1.2,1-1.83c0.34-0.74,0.64-1.5,0.87-2.28
	c0.1-0.35,0.24-0.69,0.19-1.12c0.45,0.21,0.82,0.46,1.13,0.79c0.84,0.91,0.95,1.96,0.52,3.09c-0.3,0.78-0.77,1.44-1.3,2.08
	c-0.42,0.51-0.91,0.95-1.37,1.42c-0.02,0-0.04,0.01-0.04,0.04c-0.02,0-0.03,0.01-0.03,0.02c-0.03,0-0.05,0.02-0.05,0.05
	c-0.36,0.29-0.72,0.58-1.08,0.87c-0.55,0.45-1.11,0.87-1.69,1.28c-0.72,0.51-1.43,1.02-2.18,1.49c-0.87,0.56-1.75,1.1-2.63,1.66
	c-1.13,0.72-2.27,1.42-3.37,2.17c-0.49,0.34-0.99,0.67-1.39,1.1c-0.58,0.62-0.4,0.74,0.15,1.09c0.37,0.24,0.79,0.38,1.21,0.53
	c1.49,0.54,3.02,0.99,4.53,1.47c1.74,0.55,3.48,1.11,5.2,1.74c1.2,0.45,2.4,0.9,3.56,1.44c1.38,0.63,2.72,1.33,3.93,2.26
	c0.73,0.57,1.41,1.19,1.88,2c0.33,0.56,0.53,1.17,0.52,1.83c-0.01,1.61-0.54,3.03-1.54,4.28c-0.86,1.08-1.92,1.91-3.1,2.61
	c-1.38,0.81-2.85,1.4-4.36,1.91c-0.65,0.22-1.32,0.35-1.96,0.59c-0.09,0.04-0.21-0.02-0.31,0.05c-0.06-0.01-0.13-0.01-0.18,0.04
	c0,0-0.02,0-0.02,0c-0.1-0.01-0.19,0.01-0.28,0.06c-0.34,0.1-0.68,0.16-1.02,0.22c-0.12-0.01-0.23,0.01-0.34,0.07c0,0-0.02,0-0.02,0
	c-0.12-0.01-0.24,0-0.35,0.07c-0.03,0-0.06,0.01-0.09,0.01c-0.12-0.01-0.23,0.01-0.33,0.06c0,0-0.02,0-0.02,0
	c-0.14-0.01-0.28,0.01-0.41,0.07c0,0-0.02,0-0.02,0c-0.14-0.01-0.28,0.01-0.41,0.07c0,0-0.02,0-0.02,0c-0.17-0.01-0.33,0-0.49,0.07
	c0,0-0.02,0-0.02,0c-0.17-0.01-0.33,0-0.49,0.07c-0.03,0-0.06,0.01-0.09,0.01c-0.17-0.01-0.33,0-0.49,0.06
	c-0.03,0-0.06,0.01-0.09,0.01c-0.21-0.01-0.42,0.01-0.62,0.07c0,0-0.02,0-0.02,0c-0.26-0.01-0.52,0-0.77,0.07c0,0-0.02,0-0.02,0
	c-0.36-0.01-0.71,0.01-1.06,0.07c-0.03,0-0.06,0-0.09,0c-0.68,0-1.37,0.01-2.05,0.01c-0.54,0-1.08-0.01-1.62-0.01c0,0-0.02,0-0.02,0
	c-0.42-0.06-0.85-0.08-1.27-0.07c0,0-0.02,0-0.02,0c-0.28-0.06-0.56-0.08-0.84-0.07c-0.03,0-0.06,0-0.09-0.01
	c-0.21-0.07-0.42-0.07-0.63-0.06c-0.03,0-0.06-0.01-0.09-0.01c-0.18-0.08-0.37-0.07-0.57-0.07c0,0-0.01,0-0.01,0
	c-0.13-0.06-0.27-0.07-0.42-0.06c-0.03,0-0.06-0.01-0.09-0.01c-0.13-0.06-0.27-0.07-0.42-0.07c0,0-0.02,0-0.02,0
	c-0.11-0.06-0.22-0.08-0.34-0.06c-0.03,0-0.06-0.01-0.09-0.01c-0.11-0.06-0.22-0.07-0.34-0.07c-0.12-0.08-0.29,0.05-0.4-0.08
	c-0.07-0.06-0.16-0.07-0.25-0.06c0,0-0.03,0-0.03,0c-0.06-0.04-0.12-0.06-0.18,0c-0.51-0.15-1.03-0.27-1.54-0.44
	c-0.95-0.32-1.85-0.73-2.69-1.28c-0.75-0.49-1.36-1.12-1.81-1.88c-0.21-0.35-0.33-0.75-0.39-1.16c-0.17-1.13-0.05-2.19,0.59-3.19
	c0.38-0.59,0.79-1.13,1.29-1.61c0.81-0.78,1.72-1.42,2.68-2c0.85-0.53,1.75-0.98,2.65-1.4c1.09-0.52,2.21-0.97,3.34-1.39
	c1.17-0.44,2.35-0.82,3.54-1.21c0.6-0.2,1.22-0.37,1.84-0.54c0.15-0.04,0.3-0.06,0.43-0.18c-0.21-0.27-0.55-0.31-0.84-0.41
	c-0.92-0.33-1.84-0.67-2.78-0.93c-0.65-0.18-1.28-0.42-1.93-0.61c-0.81-0.25-1.63-0.47-2.44-0.73c-0.41-0.13-0.85-0.2-1.28-0.43
	c2.76-1.85,5.55-3.63,8.26-5.51c0.03-0.02,0.06-0.02,0.09-0.05c0.04-0.04,0-0.07-0.03-0.07c-0.16-0.01-0.32,0-0.49,0
	c0,0-0.01,0-0.01,0c-0.16-0.06-0.32-0.07-0.49-0.06c-0.54-0.07-1.06-0.2-1.51-0.53c-0.6-0.44-0.94-1.03-1.02-1.78
	c-0.05-0.49-0.02-0.98,0.02-1.47c0.03-0.32,0.17-0.63,0.29-0.93c0.33-0.82,0.77-1.59,1.27-2.32c0.89-1.29,1.94-2.45,3.1-3.5
	c0.94-0.85,1.95-1.62,3.01-2.32c1.17-0.76,2.39-1.43,3.65-2.02c1.24-0.58,2.52-1.05,3.81-1.45c1.16-0.35,2.34-0.63,3.54-0.83
	c0.04-0.01,0.07-0.02,0.1-0.03c0.09,0.01,0.17-0.01,0.25-0.05c0.06-0.01,0.12-0.01,0.18-0.02C119.18,22.92,119.27,22.9,119.35,22.85
	z M104.88,64.36c1.26-0.01,2.5-0.07,3.74-0.2c1.45-0.15,2.87-0.4,4.27-0.82c1.48-0.44,2.89-1.05,4.11-2c0.77-0.6,1.41-1.3,1.82-2.19
	c0.34-0.73,0.51-1.5,0.33-2.3c-0.17-0.75-0.6-1.35-1.11-1.9c-0.65-0.69-1.4-1.24-2.2-1.72c-2.1-1.28-4.37-2.17-6.73-2.87
	c-0.16-0.05-0.32-0.08-0.5-0.06c-0.3,0.03-0.6,0.05-0.9,0.08c-1.41,0.16-2.81,0.36-4.19,0.62c-1.9,0.37-3.77,0.83-5.58,1.51
	c-1.28,0.48-2.52,1.06-3.63,1.87c-0.78,0.57-1.47,1.24-1.9,2.12c-0.71,1.45-0.61,2.85,0.36,4.16c0.45,0.61,1.02,1.07,1.66,1.47
	c1.18,0.74,2.48,1.19,3.82,1.53C100.43,64.18,102.65,64.34,104.88,64.36z"/>
<path class="st0" d="M157.97,48.9c-0.03,0-0.06,0.01-0.09,0.01c-0.14-0.01-0.28,0.01-0.41,0.06c0,0-0.02,0-0.02,0
	c-0.24-0.01-0.47,0.01-0.7,0.04c-0.05-0.09-0.03-0.19-0.01-0.28c0.12-0.64,0.21-1.3,0.38-1.93c0.21-0.82,0.47-1.62,0.74-2.42
	c0.31-0.9,0.65-1.8,1.02-2.68c0.21-0.51,0.44-1.01,0.67-1.51c0.33-0.73,0.67-1.46,1.03-2.17c0.34-0.68,0.68-1.38,1.07-2.04
	c0.33-0.57,0.62-1.17,0.94-1.74c0.24-0.43,0.52-0.84,0.76-1.28c0.21-0.38,0.42-0.76,0.64-1.14c0.34-0.57,0.68-1.13,0.99-1.71
	c0.15-0.29,0.36-0.55,0.48-0.87c0.07-0.2,0.21-0.37,0.31-0.55c0.26-0.47,0.44-0.98,0.64-1.48c0.11-0.27,0-0.46-0.34-0.69
	c-0.26-0.13-0.51-0.1-0.77,0c-0.27,0.02-0.5,0.14-0.74,0.25c-0.92,0.42-1.76,0.98-2.58,1.56c-0.96,0.68-1.84,1.45-2.73,2.22
	c-1.23,1.07-2.36,2.23-3.5,3.38c-0.09,0.09-0.16,0.2-0.25,0.31c-0.03,0-0.05,0.02-0.05,0.05c-0.02,0-0.03,0.01-0.02,0.03
	c-0.02,0-0.04,0.01-0.04,0.04c-0.6,0.57-1.13,1.21-1.67,1.83c-0.61,0.7-1.19,1.43-1.77,2.16c-0.58,0.74-1.14,1.5-1.68,2.27
	c-1.12,1.6-2.14,3.26-3,5.01c-0.3,0.61-0.57,1.23-0.82,1.85c-0.07,0.18-0.17,0.27-0.33,0.31c-0.74,0.17-1.45,0.43-2.17,0.66
	c-0.57,0.18-1.16,0.33-1.72,0.55c-0.15,0.06-0.33,0.13-0.52,0.08c0.17-0.34,0.3-0.69,0.48-1.02c0.22-0.4,0.36-0.85,0.58-1.25
	c0.4-0.73,0.69-1.5,1.08-2.23c0.4-0.74,0.69-1.53,1.09-2.26c0.39-0.71,0.7-1.47,1.06-2.2c0.27-0.56,0.56-1.11,0.8-1.69
	c0.22-0.53,0.52-1.03,0.73-1.56c0.16-0.39,0.39-0.75,0.52-1.16c0.12-0.35,0.31-0.68,0.47-1.03c0.22-0.49,0.45-0.98,0.66-1.47
	c0.19-0.45,0.39-0.9,0.58-1.35c0.21-0.48,0.39-0.97,0.58-1.46c0.2-0.53,0.4-1.07,0.57-1.61c0.1-0.31,0.15-0.63,0.25-0.94
	c0.11-0.36-0.21-0.9-0.53-1.09c-0.17-0.1-0.36-0.15-0.55-0.22c-0.23-0.1-0.46-0.07-0.69,0c-0.05,0-0.1,0.01-0.15,0.01
	c-0.12-0.01-0.24,0-0.35,0.06c-0.4,0.13-0.83,0.14-1.21,0.33c-0.05,0.03-0.11,0.01-0.14-0.07c-0.02-0.05-0.08-0.11-0.07-0.16
	c0.03-0.34-0.13-0.65-0.1-0.99c0.1,0,0.19,0,0.28-0.06c0.37-0.02,0.72-0.14,1.08-0.24c0.68-0.18,1.36-0.38,2.04-0.58
	c1.7-0.51,3.4-1.03,5.06-1.67c0.13-0.05,0.25-0.12,0.38-0.18c0.19-0.08,0.23-0.06,0.22,0.15c-0.02,0.38-0.04,0.77-0.1,1.14
	c-0.19,1.23-0.58,2.4-0.99,3.56c-0.4,1.13-0.87,2.23-1.34,3.34c-0.54,1.27-1.15,2.5-1.72,3.76c-0.08,0.08-0.13,0.18-0.17,0.34
	c0.15-0.11,0.26-0.2,0.34-0.33c0.18-0.09,0.26-0.27,0.4-0.41c1.02-1.01,2.07-1.97,3.12-2.95c0.76-0.7,1.53-1.38,2.33-2.04
	c0.8-0.67,1.62-1.33,2.45-1.97c1.06-0.83,2.16-1.61,3.29-2.33c1.29-0.82,2.64-1.55,4.12-1.97c0.35-0.1,0.7-0.16,1.05-0.23
	c0.36,0,0.71,0,1.07,0c0.27,0.09,0.55,0.15,0.78,0.33c0.39,0.31,0.57,0.73,0.59,1.22c0.02,0.52-0.13,1.01-0.26,1.51
	c-0.23,0.8-0.55,1.57-0.91,2.32c-0.73,1.52-1.55,3-2.4,4.46c-1.12,1.91-2.27,3.8-3.39,5.7c-0.71,1.2-1.4,2.41-1.98,3.67
	c-0.27,0.59-0.55,1.19-0.67,1.84c-0.04,0.21-0.06,0.43-0.03,0.64c0.04,0.25,0.15,0.45,0.43,0.5c0.04,0.04,0.08,0.06,0.14,0.04
	c0.15,0.04,0.3,0.03,0.45,0.01c0.14,0.02,0.28,0.01,0.41-0.05c0.55-0.07,1.05-0.27,1.55-0.48c0.21-0.09,0.41-0.17,0.61-0.27
	c0.13-0.06,0.2-0.02,0.27,0.07c0.13,0.17,0.26,0.34,0.39,0.51c0.09,0.11,0.08,0.19-0.03,0.27c-0.11,0.09-0.22,0.17-0.34,0.25
	c-0.97,0.62-2,1.15-3.05,1.63c-1.13,0.52-2.29,0.97-3.48,1.33c-0.25,0.07-0.5,0.14-0.75,0.22c-0.1-0.01-0.19,0.01-0.27,0.07
	c-0.03,0-0.06,0.01-0.09,0.01C158.15,48.82,158.06,48.84,157.97,48.9z"/>
<path class="st0" d="M87.19,33.58c-0.03,0-0.06-0.01-0.09-0.01c-0.08-0.05-0.18-0.07-0.27-0.06c-0.57-0.09-1.05-0.35-1.36-0.85
	c-0.12-0.19-0.25-0.39-0.18-0.66c0.14,0.05,0.27,0.07,0.4,0.05c0.18,0.07,0.37,0.07,0.56,0.05c0.56,0.04,1.11,0.04,1.67,0
	c0.19,0.01,0.38,0.02,0.57-0.05c0.1,0.01,0.2,0.01,0.3-0.02c0.1,0.02,0.19,0.01,0.28-0.05c0.08,0.01,0.15,0,0.23-0.02
	c0.08,0.02,0.14,0,0.2-0.05c0.05-0.01,0.1-0.01,0.15-0.02c0.08,0.01,0.14,0,0.2-0.05c0.05-0.01,0.11-0.02,0.16-0.03
	c0.05,0.01,0.1-0.01,0.13-0.04c0.05-0.01,0.1-0.02,0.15-0.03c0.05,0.01,0.09-0.01,0.13-0.05c0.49-0.08,0.94-0.27,1.39-0.46
	c1.11-0.46,2.14-1.06,3.06-1.84c0.19-0.16,0.38-0.31,0.53-0.53c0.15-0.23,0.45-0.31,0.57-0.58c0.03-0.01,0.05-0.02,0.05-0.06
	c0.02,0,0.02-0.01,0.02-0.03c0,0,0.02-0.01,0.02-0.01l0-0.02c0.33-0.37,0.58-0.79,0.73-1.26c0.21-0.68-0.26-1.37-0.83-1.57
	c-0.79-0.29-1.58-0.25-2.37-0.16c-0.89,0.1-1.72,0.4-2.51,0.79c-0.7,0.35-1.36,0.78-1.99,1.26c-0.84,0.65-1.6,1.38-2.3,2.16
	c-0.93,1.03-1.75,2.13-2.49,3.31c-0.68,1.08-1.29,2.2-1.83,3.36c-0.85,1.84-1.54,3.73-1.81,5.76c-0.11,0.81-0.13,1.62,0.12,2.42
	c0.3,0.98,0.85,1.75,1.88,2.08c0.14,0.05,0.28,0.06,0.42,0.06c0.36,0.1,0.71,0.07,1.07,0c0.08,0.01,0.16,0.01,0.23-0.02
	c0.1,0.02,0.19,0,0.27-0.05c0.46-0.03,0.89-0.19,1.3-0.35c1.13-0.45,2.14-1.1,3.08-1.87c1.09-0.89,2.04-1.9,2.93-2.98
	c0.73-0.89,1.42-1.81,2.03-2.78c0.62-0.97,1.22-1.96,1.7-3.02c0.02-0.04,0.04-0.08,0.07-0.13c0.11-0.19,0.18-0.2,0.3-0.02
	c0.15,0.23,0.22,0.5,0.28,0.77c0.16,0.73,0.07,1.44-0.21,2.13c-0.34,0.85-0.85,1.59-1.41,2.31c-0.58,0.75-1.21,1.45-1.89,2.1
	c-0.82,0.79-1.68,1.54-2.58,2.25c-0.8,0.63-1.64,1.19-2.48,1.75c-0.73,0.48-1.49,0.91-2.27,1.3c-0.97,0.48-1.97,0.9-3.03,1.14
	c-0.18,0.04-0.35,0.13-0.54,0.14c-0.14-0.01-0.28,0.01-0.42,0.07c0,0-0.01,0-0.01,0c-0.57,0.04-1.15,0.04-1.72,0
	c-0.03,0-0.05-0.01-0.08-0.01c-0.08-0.06-0.18-0.07-0.28-0.06c-0.92-0.15-1.65-0.62-2.17-1.38c-0.41-0.6-0.64-1.26-0.71-1.99
	c-0.11-1.07,0.01-2.12,0.12-3.19c0.09-0.79,0.25-1.56,0.48-2.31c0.21-0.7,0.47-1.38,0.77-2.06c0.27-0.62,0.6-1.2,0.88-1.82
	c0.17-0.37,0.39-0.73,0.61-1.08c0.28-0.45,0.57-0.9,0.88-1.33c0.68-0.96,1.4-1.89,2.19-2.76c0.41-0.45,0.83-0.89,1.26-1.32
	c1.54-1.5,3.21-2.84,5.04-3.97c1.95-1.21,4.01-2.18,6.25-2.73c0.49-0.12,0.98-0.21,1.47-0.31c0.09,0.01,0.18,0,0.26-0.04
	c0.08,0.01,0.16,0.01,0.24-0.02c0.16,0.02,0.32,0,0.48-0.05c0.13,0.01,0.26,0.01,0.38-0.02c0.26,0.02,0.52,0.02,0.78,0
	c0.12,0.03,0.25,0.03,0.38,0.02c0.09,0.05,0.18,0.06,0.27,0.05c0.23,0.09,0.47,0.14,0.7,0.23c0.49,0.19,0.75,0.56,0.89,1.03
	c0.03,0.09,0.05,0.18,0.07,0.28c0,0.17,0,0.34,0,0.5c-0.14,0.77-0.44,1.48-0.88,2.12c-0.48,0.7-1.06,1.32-1.69,1.9
	c-0.9,0.82-1.87,1.54-2.92,2.16c-0.56,0.33-1.12,0.66-1.7,0.95c-0.9,0.45-1.83,0.83-2.8,1.13c-0.37,0.11-0.73,0.24-1.11,0.31
	c-0.1-0.01-0.19,0.01-0.27,0.06c-0.03,0-0.06,0.01-0.09,0.01c-0.12-0.01-0.23,0.01-0.33,0.06c0,0-0.02,0-0.02,0
	c-0.17-0.01-0.33,0.01-0.48,0.07c-0.03,0-0.06,0.01-0.09,0.01C88.09,33.58,87.64,33.58,87.19,33.58z"/>
<path class="st0" d="M129.36,31.67c0.39,0.22,0.83,0.22,1.26,0.24c3.38,0.16,6.28-0.97,8.74-3.26c0.48-0.45,0.9-0.96,1.2-1.56
	c0.15-0.29,0.24-0.6,0.22-0.93c-0.03-0.43-0.23-0.75-0.59-0.97c-0.32-0.2-0.68-0.29-1.06-0.32c-1.6-0.15-3.06,0.27-4.45,1.02
	c-1.24,0.68-2.32,1.57-3.3,2.58c-1.4,1.45-2.58,3.07-3.6,4.81c-1.02,1.75-1.86,3.58-2.46,5.52c-0.4,1.29-0.72,2.6-0.69,3.97
	c0.02,0.84,0.21,1.64,0.71,2.32c0.35,0.47,0.78,0.83,1.39,0.93c0.06,0.04,0.12,0.06,0.19,0.05c0.08,0.03,0.15,0.04,0.23,0.03
	c0.28,0.08,0.57,0.07,0.85,0c0.13,0.01,0.25,0.01,0.37-0.03c0.08,0.02,0.15,0.01,0.21-0.04c0.49-0.02,0.95-0.19,1.4-0.37
	c1.07-0.43,2.03-1.04,2.93-1.75c1.24-0.99,2.28-2.15,3.27-3.38c0.61-0.76,1.18-1.54,1.69-2.36c0.37-0.59,0.74-1.18,1.07-1.79
	c0.3-0.55,0.55-1.12,0.87-1.68c0.18,0.14,0.28,0.33,0.35,0.54c0.35,1.01,0.22,1.97-0.24,2.91c-0.37,0.76-0.86,1.45-1.38,2.12
	c-0.4,0.51-0.86,0.96-1.26,1.47c-0.03,0-0.05,0.02-0.05,0.05l-0.02,0c0,0,0,0.02,0,0.02c-0.03,0-0.04,0.01-0.04,0.04
	c-0.31,0.29-0.62,0.57-0.92,0.86c-0.64,0.62-1.32,1.19-2.03,1.73c-0.75,0.58-1.51,1.13-2.3,1.64c-0.95,0.62-1.94,1.17-2.97,1.65
	c-0.52,0.24-1.04,0.48-1.58,0.64c-0.42,0.12-0.83,0.27-1.26,0.34c-0.1-0.01-0.19,0.01-0.27,0.06c-0.03,0-0.06,0.01-0.09,0.01
	c-0.14-0.01-0.28,0.01-0.41,0.06c0,0-0.02,0-0.02,0c-0.5,0-1.01,0-1.51,0c0,0-0.03,0-0.03,0c-0.13-0.05-0.26-0.08-0.4-0.07
	c-0.9-0.15-1.6-0.6-2.16-1.34c-0.55-0.72-0.73-1.54-0.79-2.41c-0.06-1.01,0.05-2.01,0.18-3.01c0.14-1.13,0.47-2.2,0.86-3.26
	c0.23-0.62,0.47-1.25,0.8-1.83c0.25-0.44,0.43-0.92,0.7-1.35c0.43-0.68,0.82-1.38,1.3-2.03c0.33-0.44,0.65-0.88,0.99-1.3
	c0.88-1.11,1.83-2.15,2.86-3.11c0.63-0.59,1.28-1.16,1.97-1.69c0.97-0.75,1.97-1.46,3.02-2.09c0.81-0.49,1.64-0.93,2.5-1.32
	c1.5-0.69,3.07-1.18,4.7-1.47c0.09,0.01,0.18,0,0.27-0.05c0.08,0.01,0.16,0.01,0.24-0.02c0.14,0.01,0.28,0,0.41-0.05
	c0.15,0.01,0.3,0.01,0.45-0.02c0.36,0,0.71,0,1.07,0c0.08,0.01,0.16,0.01,0.24,0.02c0.08,0.04,0.17,0.06,0.26,0.05
	c0.19,0.06,0.39,0.11,0.58,0.18c0.6,0.22,0.99,0.77,1.03,1.41c0.03,0.56-0.11,1.08-0.34,1.59c-0.36,0.81-0.89,1.51-1.5,2.15
	c-0.3,0.31-0.61,0.61-0.91,0.91c-0.02,0-0.04,0.01-0.04,0.04c-0.02,0-0.03,0.01-0.03,0.02c-0.03,0-0.05,0.02-0.05,0.05
	c-0.31,0.24-0.61,0.48-0.92,0.71c-0.7,0.52-1.41,1-2.17,1.43c-0.9,0.51-1.82,0.97-2.78,1.34c-0.61,0.24-1.22,0.46-1.85,0.6
	c-0.22,0.05-0.41,0.18-0.65,0.17c-0.1-0.01-0.19,0-0.28,0.06c-0.03,0-0.06,0.01-0.08,0.01c-0.14-0.01-0.28,0.01-0.41,0.06
	c-0.03,0-0.06,0.01-0.1,0.01c-0.21-0.01-0.43,0.01-0.63,0.06c-0.05,0-0.1,0-0.16,0.01c-0.14-0.02-0.29-0.02-0.43,0
	c0,0-0.02,0-0.02,0c-0.18-0.05-0.37-0.07-0.56-0.06c-0.64-0.07-1.15-0.34-1.5-0.9c-0.12-0.2-0.14-0.41-0.16-0.63
	C129.32,31.69,129.34,31.68,129.36,31.67z"/>
<path class="st0" d="M56.37,74.57c0.73,1.14,1.45,2.29,2.18,3.43c0.79,1.23,1.58,2.46,2.37,3.69c0.12,0.18,0.21,0.37,0.28,0.58
	c0.02,0.06,0.03,0.12,0.12,0.12c0.07-0.06,0.04-0.15,0.04-0.23c0-2.49,0-4.98,0-7.47c0-0.04,0-0.07-0.01-0.11
	c0.41-0.08,0.82-0.03,1.24-0.03c0.26,0,0.52-0.04,0.78,0.03c0,0.41-0.01,0.81-0.01,1.22c0,3.1,0,6.2,0,9.3c0,0.07,0,0.14,0,0.22
	c0,0.31,0,0.31-0.32,0.31c-0.54,0-1.08-0.01-1.62,0.01c-0.24,0.01-0.37-0.08-0.49-0.27c-0.78-1.19-1.55-2.37-2.34-3.55
	c-0.7-1.06-1.4-2.13-2.12-3.18c-0.13-0.19-0.14-0.46-0.38-0.58c0.03-0.15-0.01-0.28-0.13-0.42c0,0.18,0,0.31,0,0.45
	c0,0.04-0.01,0.07-0.01,0.11c0,2.43,0,4.86,0,7.3c-0.67,0.07-1.34,0.03-2.01,0.02c0-2.73,0-5.46,0-8.19c0-0.92,0-1.84,0-2.77
	C54.74,74.55,55.55,74.52,56.37,74.57z"/>
<path class="st0" d="M129.52,85.49c0-0.14,0.01-0.29,0.01-0.43c0-3.32,0-6.64,0-9.96c0-0.07,0-0.14,0-0.22c0-0.3,0-0.31,0.33-0.31
	c1.3,0,2.59,0,3.89,0.01c0.06,0,0.12,0,0.18-0.01c0.16,0.04,0.32,0.06,0.48,0.05c0.44,0.1,0.89,0.17,1.28,0.41
	c0.87,0.52,1.27,1.33,1.37,2.3c0.07,0.73-0.02,1.43-0.36,2.09c-0.32,0.62-0.79,1.08-1.48,1.29c-0.14,0.04-0.27,0.09-0.43,0.14
	c0.12,0.31,0.31,0.58,0.47,0.86c0.71,1.24,1.44,2.47,2.15,3.7c0.02,0.04,0.01,0.09,0.02,0.14c-0.74-0.01-1.48-0.01-2.22-0.02
	c-0.27-0.35-0.47-0.73-0.68-1.11c-0.23-0.41-0.47-0.81-0.71-1.21c-0.24-0.42-0.47-0.84-0.71-1.26c-0.14-0.25-0.3-0.51-0.44-0.76
	c-0.33-0.1-0.66-0.1-0.99,0c-0.05,0.13-0.03,0.26-0.03,0.39c0,1.19,0,2.37,0,3.56c0,0.14,0.04,0.29-0.07,0.41
	c-0.55-0.04-1.09-0.01-1.64-0.02C129.8,85.53,129.66,85.56,129.52,85.49z M132.79,76.35c-0.36,0-0.63,0.01-0.91,0
	c-0.17,0-0.23,0.06-0.23,0.23c0.01,0.86,0,1.72,0,2.58c0,0.15,0.05,0.22,0.21,0.21c0.55-0.02,1.1,0.03,1.65-0.04
	c1.01-0.12,1.44-0.6,1.42-1.61c0-0.02,0-0.05,0-0.07c-0.03-0.66-0.34-1.04-0.97-1.21C133.55,76.33,133.13,76.36,132.79,76.35z"/>
<path class="st0" d="M145.42,83.71c0.84-0.17,1.39-0.78,1.61-1.55c0.13-0.45,0.12-0.89,0.12-1.34c0-2.09,0-4.17,0.01-6.26
	c0.7,0,1.39,0,2.09,0c0,2.32,0.01,4.65,0,6.97c0,0.72-0.1,1.42-0.39,2.1c-0.25,0.58-0.67,1.01-1.17,1.35
	c-0.42,0.28-0.89,0.5-1.39,0.61c-0.1-0.01-0.19,0.01-0.27,0.06c-0.03,0-0.06,0.01-0.09,0.01c-0.16-0.01-0.32,0.02-0.47,0.07
	c0,0-0.03,0-0.03,0c-0.55,0-1.1,0-1.65,0c0,0-0.02,0-0.02,0c-0.15-0.05-0.31-0.08-0.48-0.07c-0.03,0-0.06-0.01-0.09-0.01
	c-0.08-0.06-0.18-0.07-0.28-0.06c-0.63-0.1-1.18-0.4-1.67-0.79c-0.57-0.45-0.98-1.03-1.1-1.76c-0.09-0.55-0.13-1.11-0.13-1.67
	c0.01-2.15,0-4.31,0-6.46c0-0.12,0.01-0.24,0.01-0.36c0.66-0.01,1.33-0.01,1.99-0.02c0.1,0.13,0.06,0.28,0.06,0.42
	c0,2.08,0,4.17,0,6.25c0,0.43,0.01,0.86,0.17,1.27c0.28,0.74,0.83,1.13,1.6,1.24c0.08,0.05,0.17,0.07,0.27,0.05
	c0.37,0.05,0.73,0.06,1.1,0C145.3,83.77,145.36,83.75,145.42,83.71z"/>
<path class="st0" d="M14.76,85.66c-0.53-0.03-0.99-0.26-1.45-0.46c-0.36-0.16-0.74-0.31-1.09-0.49c-0.13-0.07-0.18-0.13-0.1-0.32
	c0.23-0.5,0.44-1.01,0.7-1.49c0.12-0.22,0.12-0.23,0.35-0.11c0.52,0.28,1.03,0.58,1.6,0.76c0.26,0.08,0.51,0.2,0.79,0.16
	c0.33,0.09,0.66,0.11,0.99,0c0.31-0.05,0.59-0.16,0.8-0.39c0.4-0.45,0.4-0.84,0.02-1.29c-0.17-0.2-0.39-0.33-0.62-0.46
	c-0.81-0.46-1.63-0.89-2.42-1.39c-0.41-0.26-0.81-0.54-1.15-0.89c-0.58-0.58-0.79-1.28-0.71-2.08c0.02-0.22,0.06-0.44,0.12-0.66
	c0.19-0.71,0.66-1.17,1.26-1.55c0.46-0.29,0.97-0.43,1.49-0.53c0.14,0.01,0.27-0.01,0.4-0.05c0.44,0,0.89,0,1.33,0
	c0.13,0.04,0.27,0.06,0.41,0.05c0.08,0.03,0.15,0.03,0.23,0.02c0.06,0.04,0.13,0.06,0.2,0.04c0.66,0.16,1.3,0.35,1.91,0.67
	c0.24,0.12,0.24,0.12,0.15,0.36c-0.19,0.46-0.38,0.91-0.57,1.37c-0.07,0.16-0.12,0.22-0.33,0.14c-0.45-0.16-0.88-0.37-1.34-0.48
	c-0.11-0.02-0.25,0.03-0.33-0.09c-0.07-0.08-0.17-0.07-0.26-0.06c-0.03,0-0.05-0.01-0.08-0.01c-0.38-0.11-0.76-0.11-1.15,0
	c-0.3,0-0.56,0.15-0.77,0.32c-0.33,0.26-0.45,0.76-0.06,1.2c0.25,0.28,0.57,0.46,0.9,0.63c0.84,0.45,1.67,0.91,2.46,1.45
	c0.41,0.28,0.8,0.58,1.07,1c0.54,0.85,0.59,1.76,0.27,2.7c-0.28,0.8-0.85,1.33-1.62,1.65c-0.28,0.12-0.56,0.24-0.88,0.26
	c-0.14-0.01-0.28,0.01-0.41,0.06c0,0-0.02,0-0.02,0c-0.5,0-1.01,0-1.51,0c-0.03,0-0.06,0-0.09-0.01
	C15.09,85.67,14.92,85.65,14.76,85.66z"/>
<path class="st0" d="M161.34,76.51c-0.27,0.08-0.51,0.19-0.66,0.44c-0.24,0.41-0.12,0.93,0.28,1.21c0.38,0.27,0.79,0.48,1.2,0.7
	c0.81,0.45,1.61,0.92,2.36,1.47c1.06,0.77,1.34,2.12,1.03,3.16c-0.14,0.48-0.37,0.9-0.71,1.26c-0.34,0.36-0.78,0.57-1.24,0.73
	c-0.2,0.07-0.39,0.17-0.61,0.17c-0.14-0.01-0.28,0.01-0.42,0.07c0,0-0.01,0-0.01,0c-0.5,0-1.01,0-1.51,0c-0.03,0-0.06,0-0.09-0.01
	c-0.16-0.05-0.32-0.07-0.49-0.06c-0.4-0.04-0.78-0.15-1.14-0.32c-0.48-0.22-0.96-0.44-1.44-0.66c-0.12-0.06-0.19-0.12-0.1-0.3
	c0.24-0.48,0.45-0.98,0.67-1.47c0.11-0.25,0.14-0.25,0.4-0.12c0.58,0.3,1.14,0.63,1.78,0.8c0.21,0.05,0.4,0.14,0.63,0.11
	c0.33,0.09,0.66,0.1,0.99,0c0.38-0.03,0.68-0.22,0.9-0.5c0.23-0.3,0.26-0.79-0.03-1.13c-0.24-0.27-0.54-0.42-0.84-0.59
	c-0.86-0.52-1.77-0.94-2.6-1.51c-0.47-0.33-0.88-0.72-1.22-1.18c-0.18-0.25-0.27-0.53-0.3-0.85c-0.04-0.48-0.02-0.96,0.11-1.42
	c0.19-0.67,0.64-1.16,1.25-1.51c0.47-0.28,0.99-0.44,1.52-0.53c0.12,0.01,0.23,0,0.34-0.05c0.46,0,0.93,0,1.39,0
	c0.13,0.05,0.27,0.06,0.41,0.05c0.71,0.13,1.41,0.31,2.07,0.61c0.1,0.04,0.19,0.1,0.29,0.14c0.15,0.06,0.19,0.14,0.12,0.3
	c-0.17,0.37-0.31,0.74-0.46,1.12c-0.03,0.07-0.05,0.13-0.08,0.2c-0.1,0.25-0.21,0.33-0.46,0.22c-0.51-0.23-1.06-0.36-1.58-0.55
	c-0.07-0.07-0.16-0.07-0.26-0.06c-0.03,0-0.06-0.01-0.08-0.01c-0.4-0.11-0.8-0.11-1.2,0c0,0-0.02,0-0.02,0
	C161.48,76.44,161.4,76.45,161.34,76.51z"/>
<path class="st0" d="M76.88,74.48c0.77,0.14,1.51,0.36,2.23,0.68c0.32,0.14,0.33,0.15,0.2,0.46c-0.19,0.45-0.37,0.89-0.55,1.34
	c-0.06,0.15-0.15,0.21-0.3,0.14c-0.53-0.27-1.12-0.39-1.68-0.59c-0.07-0.07-0.16-0.07-0.25-0.06c-0.03,0-0.06-0.01-0.09-0.01
	c-0.4-0.11-0.8-0.11-1.2,0c-0.13,0.04-0.27,0.07-0.4,0.12c-0.25,0.1-0.49,0.23-0.55,0.53c0,0-0.02,0.02-0.02,0.02l0.01,0.03
	c-0.12,0.44-0.01,0.77,0.35,1.03c0.35,0.25,0.73,0.45,1.1,0.65c0.82,0.45,1.62,0.93,2.39,1.48c1.13,0.8,1.42,2.17,1.04,3.34
	c-0.3,0.93-0.98,1.5-1.86,1.83c-0.21,0.08-0.41,0.19-0.64,0.18c-0.14-0.01-0.28,0.01-0.42,0.07c-0.03,0-0.06,0.01-0.09,0.01
	c-0.48,0-0.96,0-1.43,0c-0.03,0-0.06,0-0.09-0.01c-0.16-0.05-0.32-0.07-0.49-0.06c-0.03,0-0.06-0.01-0.09-0.01
	c-0.08-0.05-0.18-0.07-0.27-0.06c-0.35-0.02-0.65-0.18-0.96-0.32c-0.43-0.19-0.85-0.39-1.28-0.57c-0.1-0.04-0.18-0.11-0.12-0.25
	c0.21-0.46,0.42-0.91,0.62-1.37c0.03-0.07,0.07-0.15,0.11-0.22c0.07-0.14,0.15-0.16,0.31-0.09c0.51,0.25,1,0.55,1.54,0.73
	c0.3,0.1,0.6,0.21,0.93,0.2c0.33,0.09,0.66,0.1,0.99,0c0.5-0.05,0.85-0.35,1.05-0.78c0.1-0.21,0.07-0.45-0.07-0.68
	c-0.2-0.32-0.5-0.52-0.8-0.69c-0.64-0.34-1.28-0.7-1.91-1.07c-0.51-0.29-1.03-0.58-1.44-1.02c0-0.03-0.02-0.04-0.04-0.04
	c-0.02-0.01-0.05-0.02-0.07-0.04c-0.02-0.01-0.05-0.02-0.07-0.04c-0.04-0.04-0.07-0.07-0.11-0.11c0.01-0.09-0.06-0.1-0.12-0.13
	c-0.02-0.14-0.15-0.2-0.22-0.32c-0.45-0.88-0.41-1.78-0.03-2.65c0.19-0.44,0.55-0.78,0.97-1.06c0.51-0.34,1.08-0.51,1.67-0.62
	c0.12,0.01,0.23,0,0.34-0.04c0.46,0,0.93,0,1.39,0C76.6,74.48,76.74,74.49,76.88,74.48z"/>
<path class="st0" d="M180.36,85.66c-0.03,0-0.06-0.01-0.09-0.01c-0.08-0.05-0.18-0.07-0.27-0.06c-0.35-0.02-0.65-0.18-0.96-0.32
	c-0.43-0.19-0.85-0.39-1.28-0.57c-0.1-0.04-0.18-0.11-0.12-0.25c0.21-0.46,0.42-0.91,0.62-1.37c0.03-0.07,0.07-0.15,0.11-0.22
	c0.07-0.14,0.15-0.16,0.31-0.09c0.51,0.25,1,0.55,1.54,0.73c0.3,0.1,0.6,0.21,0.93,0.2c0.33,0.09,0.66,0.1,0.99,0
	c0.5-0.05,0.85-0.35,1.05-0.78c0.1-0.21,0.07-0.45-0.07-0.68c-0.2-0.32-0.5-0.52-0.8-0.69c-0.64-0.34-1.28-0.7-1.91-1.07
	c-0.51-0.29-1.03-0.58-1.44-1.02c0-0.03-0.02-0.04-0.04-0.04c-0.02-0.01-0.05-0.02-0.07-0.04c-0.02-0.01-0.05-0.02-0.07-0.04
	c-0.04-0.04-0.07-0.07-0.11-0.11c0.01-0.09-0.06-0.1-0.12-0.13c-0.02-0.14-0.15-0.2-0.22-0.32c-0.45-0.88-0.41-1.78-0.03-2.65
	c0.19-0.44,0.55-0.78,0.97-1.06c0.51-0.34,1.08-0.51,1.67-0.62c0.12,0.01,0.23,0,0.34-0.04c0.46,0,0.93,0,1.39,0
	c0.13,0.05,0.27,0.07,0.41,0.05c0.77,0.14,1.51,0.36,2.23,0.68c0.32,0.14,0.33,0.15,0.2,0.46c-0.19,0.45-0.37,0.89-0.55,1.34
	c-0.06,0.15-0.15,0.21-0.3,0.14c-0.53-0.27-1.12-0.39-1.68-0.59c-0.07-0.07-0.16-0.07-0.25-0.06c-0.03,0-0.06-0.01-0.09-0.01
	c-0.4-0.11-0.8-0.11-1.2,0c-0.13,0.04-0.27,0.07-0.4,0.12c-0.26,0.1-0.49,0.23-0.55,0.53c0,0-0.02,0.02-0.02,0.02l0.01,0.03
	c-0.12,0.44-0.01,0.77,0.35,1.03c0.35,0.25,0.73,0.45,1.1,0.65c0.82,0.45,1.62,0.93,2.39,1.48c1.13,0.8,1.42,2.17,1.04,3.34
	c-0.3,0.93-0.98,1.5-1.86,1.83c-0.21,0.08-0.41,0.19-0.64,0.18c-0.14-0.01-0.28,0.01-0.42,0.07c-0.03,0-0.06,0.01-0.09,0.01
	c-0.48,0-0.96,0-1.43,0c-0.03,0-0.06,0-0.09-0.01C180.68,85.67,180.52,85.65,180.36,85.66z"/>
<path class="st0" d="M103.47,79.44c-0.06-0.07-0.13-0.14-0.19-0.2c-0.01-0.02-0.02-0.05-0.03-0.07c-0.01-0.02-0.02-0.05-0.04-0.07
	c0-0.03-0.01-0.04-0.04-0.04c-0.28-0.33-0.49-0.68-0.51-1.13c-0.02-0.43-0.05-0.86,0.07-1.27c0.32-1.16,1.17-1.75,2.27-2.07
	c0.16-0.05,0.32-0.07,0.49-0.11c0.14,0.01,0.28-0.01,0.41-0.05c0.46,0,0.93,0,1.39,0c0.13,0.05,0.27,0.06,0.41,0.05
	c0.78,0.14,1.54,0.37,2.26,0.7c0.29,0.13,0.29,0.14,0.18,0.42c-0.18,0.44-0.37,0.87-0.55,1.31c-0.12,0.28-0.14,0.3-0.41,0.16
	c-0.36-0.17-0.75-0.26-1.11-0.42c-0.15-0.07-0.32-0.03-0.46-0.13c-0.07-0.07-0.16-0.07-0.25-0.06c-0.03,0-0.06-0.01-0.09-0.01
	c-0.4-0.11-0.8-0.12-1.2,0c-0.19,0.07-0.4,0.09-0.58,0.21c-0.17,0.11-0.34,0.21-0.37,0.44c-0.02,0.01-0.04,0.03-0.02,0.06
	c-0.07,0.18-0.08,0.36,0.02,0.54c0,0-0.01,0.02-0.01,0.02l0.02,0.02c0.04,0.22,0.2,0.34,0.37,0.46c0.51,0.37,1.09,0.63,1.64,0.95
	c0.69,0.4,1.38,0.8,2,1.31c0.78,0.64,1.08,1.5,1,2.48c-0.07,0.93-0.5,1.68-1.29,2.2c-0.35,0.23-0.74,0.37-1.14,0.49
	c-0.07-0.01-0.13,0-0.19,0.04c0,0-0.02,0-0.02,0c-0.14-0.01-0.29,0.01-0.42,0.07c-0.03,0-0.06,0.01-0.09,0.01c-0.48,0-0.96,0-1.43,0
	c-0.03,0-0.06,0-0.09-0.01c-0.16-0.05-0.32-0.07-0.48-0.06c-0.03,0-0.06-0.01-0.09-0.01c-0.08-0.05-0.17-0.07-0.27-0.06
	c-0.29-0.02-0.54-0.13-0.79-0.25c-0.34-0.16-0.71-0.26-1.02-0.47c-0.12-0.08-0.27-0.08-0.4-0.15c-0.11-0.06-0.18-0.14-0.13-0.25
	c0.26-0.59,0.46-1.21,0.83-1.74c0.01-0.01,0.02-0.01,0.04-0.03c0.46,0.23,0.92,0.47,1.39,0.69c0.39,0.18,0.79,0.31,1.23,0.32
	c0.33,0.09,0.66,0.1,0.99,0c0.49-0.06,0.84-0.34,1.05-0.78c0.07-0.15,0.08-0.35,0.01-0.49c-0.11-0.23-0.24-0.47-0.46-0.61
	c-0.38-0.23-0.77-0.46-1.16-0.67c-0.77-0.42-1.53-0.84-2.25-1.34c-0.13-0.09-0.21-0.23-0.37-0.28
	C103.56,79.49,103.56,79.41,103.47,79.44z"/>
<path class="st0" d="M94.11,82.92c-0.19,0.35-0.27,0.74-0.4,1.12c-0.17,0.49-0.35,0.97-0.48,1.47c-0.14,0.05-0.28,0.03-0.43,0.03
	c-0.57,0.01-1.15,0.01-1.72,0.02c-0.02-0.16,0-0.3,0.06-0.45c0.4-1.1,0.79-2.21,1.2-3.31c0.37-1,0.76-2,1.11-3
	c0.47-1.33,0.96-2.66,1.44-3.99c0.06-0.18,0.14-0.22,0.3-0.22c0.49,0,0.98,0.01,1.48,0c0.17,0,0.25,0.05,0.31,0.22
	c0.31,0.9,0.64,1.79,0.97,2.68c0.74,2.04,1.49,4.08,2.23,6.12c0.23,0.65,0.5,1.28,0.69,1.94c-0.63,0-1.25,0-1.88,0
	c-0.12,0-0.24,0.01-0.35-0.04c-0.29-0.85-0.6-1.7-0.82-2.57c-0.04-0.09-0.11-0.07-0.18-0.07c-1.11,0-2.22,0-3.34,0
	C94.22,82.84,94.14,82.83,94.11,82.92z M94.72,81.03c0.88,0,1.69,0,2.54,0c-0.42-1.3-0.83-2.57-1.25-3.85c-0.03,0-0.05,0-0.08,0
	C95.53,78.45,95.13,79.72,94.72,81.03z"/>
<path class="st0" d="M89.2,74.54c0.04,0.54,0.01,1.08,0.02,1.61c0,0.14-0.06,0.2-0.19,0.19c-0.08,0-0.17,0-0.25,0
	c-1.27,0-2.54,0-3.81,0c-0.31,0-0.32,0-0.32,0.31c0.01,0.77-0.02,1.53,0.02,2.3c0,0.05,0.03,0.07,0.07,0.06
	c1.07,0,2.15,0.01,3.22,0.01c0.48,0,0.43-0.05,0.43,0.45c0,0.44,0.01,0.88,0.01,1.32c-0.13,0.04-0.26,0.03-0.39,0.03
	c-1.01,0-2.01,0-3.02,0c-0.11,0-0.24-0.06-0.33,0.07c-0.05,0.88-0.01,1.77-0.02,2.65c0,0.12,0.05,0.18,0.17,0.18
	c0.1,0,0.19,0,0.29,0c1.28,0,2.56,0,3.84,0c0.08,0,0.17,0.01,0.25,0c0.17-0.01,0.24,0.05,0.23,0.22c-0.01,0.53-0.01,1.05-0.02,1.58
	c-2.16,0-4.32,0-6.48,0c-0.14,0-0.29,0.03-0.42-0.05c0.01-0.11,0.02-0.21,0.02-0.32c0-3.41,0-6.82,0-10.23
	c0-0.11-0.01-0.21-0.02-0.32c0.13-0.08,0.28-0.05,0.42-0.05C85.02,74.55,87.11,74.54,89.2,74.54z"/>
<path class="st0" d="M29.87,74.58c0,0.47-0.01,0.93-0.01,1.4c0,0.36,0,0.36-0.36,0.36c-1.26,0-2.52,0-3.77,0
	c-0.13,0-0.26-0.02-0.39,0.02c-0.05,0-0.06,0.02-0.06,0.07c-0.03,0.84-0.03,1.68,0,2.52c-0.01,0.05,0.01,0.06,0.05,0.05
	c0.78,0.04,1.55,0.01,2.33,0.02c0.35,0,0.69,0,1.04,0c0.3,0,0.31,0,0.31,0.29c0,0.5,0,1,0,1.51c-1.13,0-2.27,0-3.4,0.01
	c-0.11,0-0.24-0.07-0.32,0.07c-0.03,0.91-0.03,1.82,0,2.74c-0.01,0.04,0,0.07,0.06,0.07c0.13,0.04,0.26,0.02,0.39,0.02
	c1.28,0,2.56,0,3.84,0c0.07,0,0.14,0,0.22,0c0.27,0.01,0.29,0.02,0.29,0.28c0.01,0.49,0.01,0.98,0.01,1.47
	c-0.1,0.06-0.21,0.05-0.31,0.05c-2.2,0-4.39,0-6.59,0c0-0.08-0.01-0.17-0.01-0.25c0-3.49,0-6.98,0-10.47c0-0.08,0.01-0.17,0.01-0.25
	c2.14,0,4.27,0,6.41,0C29.68,74.55,29.78,74.54,29.87,74.58z"/>
<path class="st0" d="M43.84,85.52c0-2.68,0-5.37,0-8.05c0-0.97,0-1.94,0-2.91c0.12,0,0.24-0.01,0.36-0.01c2.11,0,4.22,0,6.33,0
	c0.02,0.6,0.03,1.2-0.01,1.79c-0.91,0-1.82,0-2.73,0c-0.54,0-1.08,0-1.62,0c-0.08,0-0.2-0.05-0.22,0.1c-0.01,0.79,0,1.58-0.02,2.37
	c0,0.21,0.09,0.23,0.26,0.23c0.47-0.01,0.93,0,1.4,0c0.62,0,1.24,0,1.87,0c0.26,0,0.26,0.01,0.26,0.26c0.01,0.5,0.01,1,0.02,1.51
	c-0.13,0.05-0.26,0.03-0.39,0.03c-1.02,0-2.05,0-3.07,0c-0.11,0-0.24-0.07-0.32,0.07c-0.04,0.9-0.01,1.8-0.01,2.71
	c0,0.03,0.02,0.06,0.04,0.1c0.11,0.08,0.23,0.04,0.35,0.04c1.47,0,2.95,0,4.42,0c0.02,0.59,0.02,1.19,0,1.78c-1.75,0-3.5,0-5.25,0
	C44.94,85.53,44.39,85.52,43.84,85.52z"/>
<path class="st0" d="M171,76.37c-0.02,0.03-0.05,0.06-0.05,0.09c-0.01,0.83-0.03,1.66,0.01,2.5c0,0.08,0.05,0.07,0.1,0.06
	c1.06,0,2.13,0.01,3.19,0.01c0.48,0,0.44-0.06,0.43,0.44c0,0.45,0.03,0.91-0.02,1.36c-1.15,0-2.3,0-3.45,0
	c-0.08,0-0.2-0.06-0.25,0.07c-0.06,0.34-0.02,0.69-0.03,1.03c-0.01,0.48,0,0.95,0,1.43c0,0.11-0.04,0.24,0.06,0.34
	c0.1,0.09,0.23,0.04,0.34,0.04c1.33,0,2.65,0,3.98,0c0.14,0,0.29,0.01,0.43,0.02c0,0.58,0,1.17,0,1.75
	c-0.07,0.01-0.14,0.02-0.21,0.02c-2.14,0-4.28,0-6.41,0c-0.1,0-0.19,0-0.28-0.03c0-1.59,0.01-3.18,0.01-4.78
	c0-2.05,0-4.09-0.01-6.14c0.14-0.05,0.28-0.03,0.43-0.03c1.48,0,2.96,0,4.44,0c0.61,0,1.22,0.01,1.83,0.01c0,0.59,0,1.18,0,1.76
	c-1.4,0-2.79,0.01-4.19,0.01C171.23,76.34,171.1,76.29,171,76.37z"/>
<path class="st0" d="M123.03,83.68c0.46,0.07,0.92,0.06,1.38,0c0.1,0.02,0.19,0.01,0.27-0.05c0.4-0.02,0.76-0.18,1.13-0.3
	c0.3-0.1,0.32-0.09,0.38,0.2c0.09,0.41,0.18,0.81,0.26,1.22c0.05,0.25,0.05,0.27-0.19,0.38c-0.37,0.17-0.76,0.32-1.16,0.42
	c-0.06-0.01-0.13-0.01-0.18,0.04c0,0-0.02,0-0.02,0c-0.12-0.01-0.24,0-0.35,0.06c-0.03,0-0.06,0.01-0.08,0.01
	c-0.24-0.01-0.47,0.02-0.7,0.07c0,0-0.02,0-0.02,0c-0.31,0-0.62,0-0.93,0c-0.03,0-0.06,0-0.09,0c-0.21-0.05-0.42-0.07-0.63-0.06
	c-0.03,0-0.06-0.01-0.09-0.01c-0.11-0.06-0.23-0.07-0.35-0.07c-0.62-0.1-1.19-0.32-1.71-0.67c-0.28-0.18-0.53-0.39-0.76-0.63
	c-0.02-0.06-0.08-0.05-0.12-0.06l0-0.02c0,0-0.02,0-0.02,0c-0.01-0.05-0.01-0.1-0.06-0.12c0,0-0.02-0.02-0.02-0.02
	c0-0.03-0.02-0.05-0.05-0.05c-0.69-0.69-1.13-1.53-1.34-2.47c-0.21-0.95-0.21-1.9-0.05-2.87c0.17-1.06,0.67-1.93,1.36-2.7
	c0.74-0.82,1.68-1.34,2.79-1.54c0.21-0.04,0.42-0.07,0.64-0.11c0.6-0.03,1.19-0.04,1.79,0c0.06,0.01,0.12,0.01,0.17,0.02
	c0.08,0.04,0.16,0.06,0.25,0.05c0.34,0.11,0.68,0.19,1.02,0.31c0.35,0.13,0.66,0.33,0.97,0.53c0.11,0.07,0.13,0.14,0.08,0.27
	c-0.2,0.47-0.44,0.92-0.66,1.38c-0.06,0.13-0.13,0.15-0.25,0.08c-0.1-0.06-0.21-0.11-0.31-0.16c-0.28-0.14-0.57-0.27-0.87-0.37
	c-0.07-0.06-0.16-0.07-0.25-0.06c-0.03,0-0.06-0.01-0.08-0.01c-0.18-0.09-0.37-0.08-0.56-0.07c-0.17-0.03-0.34-0.03-0.51,0
	c-0.19-0.02-0.38-0.01-0.55,0.07c0,0-0.02,0-0.02,0c-0.1-0.01-0.19,0.01-0.27,0.07c-1.28,0.38-2.14,1.18-2.42,2.49
	c-0.31,1.47-0.04,2.83,1.13,3.89c0.5,0.45,1.1,0.74,1.79,0.81C122.84,83.69,122.94,83.7,123.03,83.68z"/>
<path class="st0" d="M152.95,85.55c-0.09-0.1-0.07-0.22-0.07-0.34c0-3.45,0-6.89,0-10.34c0-0.12-0.02-0.24,0.06-0.34
	c0.56,0.01,1.12,0.01,1.68,0.02c0.13,0,0.26-0.02,0.39,0.04c0,0.1-0.01,0.19-0.01,0.29c0,3.44,0,6.88,0,10.32
	c0,0.1,0.01,0.19,0.01,0.29c-0.13,0.07-0.28,0.04-0.42,0.05C154.04,85.54,153.49,85.51,152.95,85.55z"/>
<path class="st1" d="M59,35.37c0.13-0.06,0.26-0.03,0.39-0.03c2.7,0,5.41,0,8.11,0c0.15,0,0.31,0.02,0.46-0.02
	c-0.13,0.1-0.28,0.05-0.42,0.05C64.69,35.37,61.85,35.37,59,35.37z"/>
<path class="st1" d="M23.18,85.53c2.2,0,4.39,0,6.59,0c0.11,0,0.22,0.01,0.31-0.05c-0.1,0.16-0.26,0.09-0.39,0.09
	c-1.64,0.01-3.27,0-4.91,0c-0.42,0-0.84,0-1.25,0C23.41,85.57,23.29,85.61,23.18,85.53z"/>
<path class="st1" d="M168.83,85.5c0.09,0.04,0.19,0.03,0.28,0.03c2.14,0,4.28,0,6.41,0c0.07,0,0.14-0.01,0.21-0.02
	c-0.1,0.1-0.23,0.06-0.34,0.06c-2.08,0-4.16,0-6.24,0C169.05,85.58,168.92,85.62,168.83,85.5z"/>
<path class="st1" d="M82.51,85.48c0.13,0.08,0.28,0.05,0.42,0.05c2.16,0,4.32,0,6.48,0c-0.11,0.07-0.23,0.04-0.35,0.04
	c-2.06,0-4.11,0-6.17,0C82.76,85.57,82.6,85.65,82.51,85.48z"/>
<path class="st1" d="M43.84,85.52c0.55,0,1.1,0.01,1.65,0.01c1.75,0,3.5,0,5.25,0c-0.11,0.08-0.23,0.05-0.35,0.05
	c-2.07,0-4.14,0-6.22,0C44.07,85.58,43.94,85.61,43.84,85.52z"/>
<path class="st1" d="M175.53,74.56c-0.61,0-1.22-0.01-1.83-0.01c-1.48,0-2.96,0-4.44,0c-0.14,0-0.29-0.02-0.43,0.03
	c0.08-0.11,0.19-0.08,0.3-0.08c2.04,0,4.09,0,6.13,0C175.35,74.5,175.45,74.48,175.53,74.56z"/>
<path class="st1" d="M29.87,74.58c-0.09-0.04-0.19-0.04-0.28-0.04c-2.14,0-4.27,0-6.41,0c0.11-0.08,0.23-0.05,0.35-0.05
	c1.99,0,3.99,0,5.98,0C29.63,74.5,29.77,74.45,29.87,74.58z"/>
<path class="st1" d="M89.2,74.54c-2.09,0-4.18,0-6.27,0.01c-0.14,0-0.29-0.03-0.42,0.05c0.08-0.16,0.23-0.1,0.35-0.1
	c1.21,0,2.41,0,3.62,0c0.79,0,1.58,0,2.37,0C88.96,74.5,89.09,74.47,89.2,74.54z"/>
<path class="st1" d="M50.53,74.55c-2.11,0-4.22,0-6.33,0c-0.12,0-0.24,0.01-0.36,0.01c0.09-0.09,0.2-0.06,0.31-0.06
	c2.04,0,4.07,0,6.11,0C50.35,74.5,50.45,74.48,50.53,74.55z"/>
<path class="st1" d="M50.75,83.75c-1.47,0-2.95,0-4.42,0c-0.12,0-0.24,0.04-0.35-0.04c1.46,0,2.92,0,4.38,0
	C50.49,83.71,50.62,83.68,50.75,83.75z"/>
<path class="st1" d="M175.74,83.77c-0.14-0.01-0.29-0.02-0.43-0.02c-1.33,0-2.65,0-3.98,0c-0.11,0-0.24,0.05-0.34-0.04
	c1.46,0,2.91,0,4.37,0.01C175.49,83.71,175.63,83.67,175.74,83.77z"/>
<path class="st1" d="M45.95,76.44c0.02-0.15,0.14-0.1,0.22-0.1c0.54,0,1.08,0,1.62,0c0.91,0,1.82,0,2.73,0
	c-0.13,0.05-0.26,0.03-0.39,0.03c-1.26,0-2.51,0-3.77,0C46.22,76.37,46.08,76.35,45.95,76.44z"/>
<path class="st1" d="M171,76.37c0.11-0.08,0.23-0.04,0.34-0.04c1.4-0.01,2.79-0.01,4.19-0.01c-0.12,0.08-0.26,0.04-0.39,0.04
	C173.76,76.37,172.38,76.37,171,76.37z"/>
<path class="st1" d="M176.25,25.21c0.13,0.05,0.26,0.03,0.39,0.03c1.19,0,2.37,0,3.56,0c0.1,0,0.19-0.01,0.29,0.01
	c0.08,0.02,0.06,0.08,0.01,0.14c-0.1-0.13-0.24-0.08-0.37-0.08c-1.18,0-2.35,0-3.53,0C176.49,25.3,176.34,25.36,176.25,25.21z"/>
<path class="st1" d="M45.95,80.9c0.08-0.13,0.22-0.07,0.32-0.07c1.02-0.01,2.05,0,3.07,0c0.13,0,0.26,0.02,0.39-0.03
	c-0.08,0.16-0.23,0.1-0.35,0.1C48.24,80.9,47.1,80.9,45.95,80.9z"/>
<path class="st1" d="M94.11,82.92c0.03-0.09,0.11-0.07,0.18-0.07c1.11,0,2.22,0,3.34,0c0.07,0,0.15-0.01,0.18,0.07
	C96.58,82.92,95.34,82.92,94.11,82.92z"/>
<path class="st1" d="M84.66,80.9c0.09-0.13,0.22-0.07,0.33-0.07c1.01-0.01,2.01,0,3.02,0c0.13,0,0.26,0.02,0.39-0.03
	c-0.08,0.16-0.23,0.09-0.35,0.1C86.92,80.9,85.79,80.9,84.66,80.9z"/>
<path class="st1" d="M170.96,80.9c0.06-0.12,0.17-0.07,0.25-0.07c1.15,0,2.3,0,3.45,0c-0.11,0.11-0.25,0.06-0.37,0.06
	C173.18,80.9,172.07,80.9,170.96,80.9z"/>
<path class="st1" d="M25.28,80.9c0.08-0.13,0.22-0.07,0.32-0.07c1.13-0.01,2.27-0.01,3.4-0.01c-0.1,0.13-0.24,0.07-0.37,0.08
	C27.52,80.9,26.4,80.9,25.28,80.9z"/>
<path class="st1" d="M100.5,65.95c0.54,0,1.08,0.01,1.62,0.01c0.68,0,1.37-0.01,2.05-0.01c-0.08,0.08-0.18,0.06-0.27,0.06
	c-1.04,0-2.09,0-3.13,0C100.68,66.01,100.58,66.03,100.5,65.95z"/>
<path class="st1" d="M25.84,57.96c1.18,0.03,2.35,0.02,3.53,0c-0.08,0.08-0.18,0.06-0.27,0.06c-1,0-1.99,0-2.99,0
	C26.02,58.03,25.92,58.05,25.84,57.96z"/>
<path class="st1" d="M56.37,74.57c-0.82-0.05-1.63-0.02-2.45-0.01c0.05-0.06,0.13-0.06,0.2-0.06c0.67,0,1.35,0,2.02,0
	C56.22,74.5,56.31,74.49,56.37,74.57z"/>
<path class="st1" d="M33.98,74.56c-0.77-0.02-1.54-0.03-2.3,0c0.05-0.06,0.12-0.06,0.2-0.06c0.64,0,1.27,0,1.91,0
	C33.85,74.5,33.92,74.5,33.98,74.56z"/>
<path class="st1" d="M135.21,85.53c0.74,0.01,1.48,0.01,2.22,0.02c-0.61,0.07-1.23,0.01-1.84,0.03
	C135.46,85.58,135.33,85.61,135.21,85.53z"/>
<path class="st1" d="M98.64,85.49c0.11,0.06,0.23,0.04,0.35,0.04c0.63,0,1.25,0,1.88,0c-0.07,0.05-0.16,0.05-0.24,0.05
	c-0.57,0-1.14,0-1.7,0C98.82,85.58,98.7,85.61,98.64,85.49z"/>
<path class="st1" d="M119.96,25.52c0.71-0.06,1.42-0.06,2.13,0C121.38,25.52,120.67,25.52,119.96,25.52z"/>
<path class="st1" d="M91.08,85.55c0.57-0.01,1.15-0.01,1.72-0.02c0.14,0,0.29,0.02,0.43-0.03c-0.04,0.02-0.08,0.07-0.12,0.07
	C92.44,85.57,91.76,85.61,91.08,85.55z"/>
<path class="st1" d="M152.95,85.55c0.55-0.04,1.09-0.01,1.64-0.02c0.14,0,0.29,0.02,0.42-0.05c-0.03,0.06-0.08,0.09-0.14,0.09
	C154.22,85.56,153.58,85.61,152.95,85.55z"/>
<path class="st1" d="M129.52,85.49c0.13,0.07,0.28,0.04,0.42,0.05c0.55,0.01,1.09-0.02,1.64,0.02c-0.64,0.06-1.28,0.01-1.92,0.02
	C129.6,85.57,129.55,85.54,129.52,85.49z"/>
<path class="st1" d="M149.25,74.56c-0.7,0-1.39,0-2.09,0c0.06-0.06,0.13-0.06,0.2-0.06c0.56,0,1.13,0,1.69,0
	C149.12,74.5,149.19,74.5,149.25,74.56z"/>
<path class="st1" d="M155,74.59c-0.12-0.06-0.26-0.04-0.39-0.04c-0.56-0.01-1.12-0.01-1.68-0.02c0.64-0.07,1.28-0.02,1.92-0.03
	C154.93,74.5,154.98,74.53,155,74.59z"/>
<path class="st1" d="M63.35,74.58c-0.26-0.07-0.52-0.04-0.78-0.03c-0.41,0.01-0.83-0.04-1.24,0.03c0.05-0.09,0.14-0.08,0.22-0.08
	c0.52,0,1.05,0,1.57,0C63.21,74.5,63.3,74.5,63.35,74.58z"/>
<path class="st1" d="M142.03,74.53c-0.66,0.01-1.33,0.01-1.99,0.02c0.02-0.01,0.04-0.03,0.06-0.03
	C140.74,74.5,141.38,74.47,142.03,74.53z"/>
<path class="st1" d="M172.58,49.63c0.57,0.06,1.15,0.03,1.72,0c-0.02,0.01-0.04,0.04-0.06,0.04c-0.54,0.05-1.07,0.08-1.61,0
	C172.62,49.66,172.6,49.64,172.58,49.63z"/>
<path class="st1" d="M53.92,85.52c0.67,0.01,1.34,0.04,2.01-0.02c-0.04,0.07-0.11,0.08-0.19,0.08c-0.56,0-1.11,0-1.67,0
	C54.02,85.58,53.97,85.56,53.92,85.52z"/>
<path class="st1" d="M79.27,56.67c0.48-0.02,0.96-0.05,1.43-0.07c-0.03,0.02-0.06,0.05-0.09,0.05c-0.36,0.03-0.73-0.02-1.08,0.08
	C79.44,56.75,79.34,56.75,79.27,56.67z"/>
<path class="st1" d="M124.11,74.33c-0.6-0.04-1.19-0.03-1.79,0c0.08-0.07,0.18-0.05,0.27-0.05c0.41,0,0.83,0,1.24,0
	C123.93,74.28,124.03,74.26,124.11,74.33z"/>
<path class="st1" d="M79.77,49.12c0.57,0.04,1.15,0.03,1.72,0c-0.04,0.02-0.08,0.06-0.12,0.06c-0.49,0-0.98,0-1.47,0
	C79.85,49.18,79.81,49.14,79.77,49.12z"/>
<path class="st1" d="M143.78,85.73c0.55,0,1.1,0,1.65,0c-0.05,0.06-0.13,0.06-0.2,0.06c-0.42,0-0.84,0-1.26,0
	C143.9,85.79,143.83,85.79,143.78,85.73z"/>
<path class="st1" d="M123.83,48.83c0.5,0,1.01,0,1.51,0c-0.05,0.06-0.12,0.06-0.2,0.06c-0.37,0-0.74,0-1.11,0
	C123.96,48.89,123.89,48.89,123.83,48.83z"/>
<path class="st1" d="M161.06,85.73c0.5,0,1.01,0,1.51,0c-0.05,0.06-0.12,0.07-0.2,0.07c-0.37,0-0.74,0-1.11,0
	C161.18,85.79,161.11,85.79,161.06,85.73z"/>
<path class="st1" d="M15.33,85.73c0.5,0,1.01,0,1.51,0c-0.05,0.06-0.12,0.06-0.2,0.06c-0.37,0-0.74,0-1.11,0
	C15.45,85.79,15.38,85.79,15.33,85.73z"/>
<path class="st1" d="M100.94,24.8c0-0.17,0-0.34,0-0.5c0.22,0.02,0.22,0.17,0.22,0.34C101.15,24.78,101.05,24.8,100.94,24.8z"/>
<path class="st1" d="M74.73,85.73c0.48,0,0.96,0,1.43,0c-0.29,0.13-0.59,0.04-0.88,0.06C75.1,85.79,74.9,85.85,74.73,85.73z"/>
<path class="st1" d="M105.55,85.73c0.48,0,0.96,0,1.43,0c-0.29,0.13-0.59,0.05-0.88,0.06C105.92,85.79,105.72,85.85,105.55,85.73z"
	/>
<path class="st1" d="M180.93,85.73c0.48,0,0.96,0,1.43,0c-0.29,0.13-0.59,0.04-0.88,0.06C181.3,85.79,181.1,85.85,180.93,85.73z"/>
<path class="st1" d="M87.19,33.58c0.45,0,0.91,0,1.36,0c-0.31,0.13-0.63,0.04-0.95,0.06C87.46,33.65,87.31,33.69,87.19,33.58z"/>
<path class="st1" d="M77.97,56.6c0.38,0,0.77,0.03,1.15,0.07c-0.01,0.01-0.02,0.02-0.02,0.02C78.72,56.63,78.33,56.72,77.97,56.6z"
	/>
<path class="st1" d="M99.21,65.88c0.43-0.01,0.85,0.01,1.27,0.07c-0.32,0-0.65,0-0.97-0.01C99.41,65.94,99.3,65.97,99.21,65.88z"/>
<path class="st1" d="M118.45,25.59c0.42-0.08,0.85-0.08,1.28-0.07c-0.09,0.09-0.2,0.06-0.31,0.06
	C119.1,25.59,118.77,25.59,118.45,25.59z"/>
<path class="st1" d="M181.44,76.44c0.4-0.11,0.8-0.11,1.2,0C182.24,76.44,181.84,76.44,181.44,76.44z"/>
<path class="st1" d="M64.14,14.2c-0.4,0.02-0.8,0-1.2-0.05c0.31,0,0.62,0,0.93,0C63.96,14.15,64.05,14.13,64.14,14.2z"/>
<path class="st1" d="M161.58,76.45c0.4-0.12,0.8-0.11,1.2,0C162.38,76.44,161.98,76.45,161.58,76.45z"/>
<path class="st1" d="M106.06,76.44c0.4-0.11,0.8-0.11,1.2,0C106.86,76.44,106.46,76.44,106.06,76.44z"/>
<path class="st1" d="M75.24,76.44c0.4-0.11,0.8-0.11,1.2,0C76.04,76.44,75.64,76.44,75.24,76.44z"/>
<path class="st1" d="M15.91,76.44c0.38-0.11,0.76-0.11,1.15,0C16.67,76.44,16.29,76.44,15.91,76.44z"/>
<path class="st1" d="M84.15,46.37c-0.36,0.08-0.71,0.1-1.07,0C83.43,46.38,83.79,46.38,84.15,46.37z"/>
<path class="st1" d="M104.27,65.94c0.35-0.06,0.71-0.08,1.06-0.07c-0.12,0.11-0.27,0.06-0.4,0.06
	C104.71,65.95,104.49,65.94,104.27,65.94z"/>
<path class="st1" d="M142.76,22.4c-0.36,0-0.71,0-1.07,0C142.05,22.32,142.41,22.32,142.76,22.4z"/>
<path class="st1" d="M122.25,25.53c0.27-0.03,0.55,0,0.82,0.02c0.07,0.01,0.15,0.01,0.12,0.12c-0.11-0.13-0.26-0.06-0.4-0.08
	C122.61,25.56,122.42,25.65,122.25,25.53z"/>
<path class="st1" d="M170.27,23.05c-0.36,0-0.71,0-1.07,0C169.55,22.97,169.91,22.97,170.27,23.05z"/>
<path class="st1" d="M16.55,83.71c-0.33,0.1-0.66,0.09-0.99,0C15.89,83.7,16.22,83.71,16.55,83.71z"/>
<path class="st1" d="M182.14,83.71c-0.33,0.1-0.66,0.09-0.99,0C181.48,83.71,181.81,83.71,182.14,83.71z"/>
<path class="st1" d="M75.94,83.71c-0.33,0.1-0.66,0.09-0.99,0C75.28,83.71,75.61,83.71,75.94,83.71z"/>
<path class="st1" d="M106.76,83.7c-0.33,0.1-0.66,0.1-0.99,0C106.1,83.71,106.43,83.71,106.76,83.7z"/>
<path class="st1" d="M162.27,83.71c-0.33,0.1-0.66,0.09-0.99,0C161.61,83.71,161.94,83.71,162.27,83.71z"/>
<path class="st1" d="M131.68,81.19c0.33-0.1,0.66-0.1,0.99,0C132.34,81.19,132.01,81.19,131.68,81.19z"/>
<path class="st1" d="M152.45,34.95c-0.08,0.12-0.18,0.21-0.34,0.33c0.04-0.15,0.09-0.25,0.17-0.34
	C152.34,34.94,152.39,34.95,152.45,34.95z"/>
<path class="st1" d="M122.83,85.73c0.31,0,0.62,0,0.93,0C123.45,85.83,123.14,85.83,122.83,85.73z"/>
<path class="st1" d="M123.17,22.49c-0.3,0.05-0.61,0.07-0.91,0.05C122.55,22.44,122.86,22.52,123.17,22.49z"/>
<path class="st1" d="M29.39,57.96c0.3-0.06,0.61-0.08,0.91-0.07c-0.15,0.12-0.32,0.05-0.48,0.06
	C29.68,57.97,29.53,57.96,29.39,57.96z"/>
<path class="st1" d="M127.07,22.55c-0.31,0.01-0.61-0.01-0.91-0.06C126.46,22.52,126.77,22.44,127.07,22.55z"/>
<path class="st1" d="M24.98,57.9c0.28-0.02,0.56,0.01,0.84,0.07C25.54,57.92,25.25,58.03,24.98,57.9z"/>
<path class="st1" d="M128,46.09c-0.28,0.07-0.57,0.08-0.85,0C127.44,46.09,127.72,46.09,128,46.09z"/>
<path class="st1" d="M98.35,65.81c0.28-0.01,0.56,0.01,0.84,0.07C98.91,65.83,98.62,65.94,98.35,65.81z"/>
<path class="st1" d="M98.63,22.69c-0.26,0.02-0.52,0.02-0.78,0C98.11,22.61,98.37,22.61,98.63,22.69z"/>
<path class="st1" d="M121.82,30.56c0.26,0,0.52,0,0.77,0.07C122.33,30.59,122.07,30.7,121.82,30.56z"/>
<path class="st1" d="M165.31,26.52c0.26-0.1,0.51-0.13,0.77,0C165.82,26.52,165.56,26.52,165.31,26.52z"/>
<path class="st1" d="M65.43,14.27c-0.26,0.01-0.52,0-0.77-0.05C64.92,14.25,65.18,14.17,65.43,14.27z"/>
<path class="st1" d="M105.35,65.87c0.25-0.07,0.51-0.08,0.77-0.07C105.87,65.94,105.6,65.83,105.35,65.87z"/>
<path class="st1" d="M117.58,25.66c0.25-0.07,0.51-0.08,0.77-0.07C118.11,25.73,117.84,25.63,117.58,25.66z"/>
<path class="st1" d="M149.39,26.52c0.23-0.07,0.46-0.1,0.69,0C149.85,26.52,149.62,26.52,149.39,26.52z"/>
<path class="st1" d="M156.75,49.02c0.23-0.04,0.47-0.05,0.7-0.04C157.23,49.1,156.99,49.02,156.75,49.02z"/>
<path class="st1" d="M123.78,85.73c0.23-0.05,0.46-0.07,0.7-0.07C124.25,85.78,124.01,85.69,123.78,85.73z"/>
<path class="st1" d="M185.09,18.54c-0.23,0.06-0.46,0.07-0.7,0.05C184.62,18.49,184.86,18.57,185.09,18.54z"/>
<path class="st1" d="M132.12,33.29c0.21-0.05,0.42-0.07,0.63-0.06C132.55,33.34,132.33,33.26,132.12,33.29z"/>
<path class="st1" d="M97.63,65.73c0.21-0.01,0.43,0,0.63,0.06C98.05,65.77,97.83,65.86,97.63,65.73z"/>
<path class="st1" d="M66.44,14.35c-0.21,0.01-0.42,0-0.63-0.05C66.02,14.32,66.24,14.24,66.44,14.35z"/>
<path class="st1" d="M122.11,85.66c0.21-0.01,0.42,0.01,0.63,0.06C122.53,85.69,122.31,85.79,122.11,85.66z"/>
<path class="st1" d="M102.88,40.2c0.16,0,0.32,0,0.49,0c0.03,0,0.07,0.03,0.03,0.07c-0.02,0.02-0.06,0.03-0.09,0.05
	C103.19,40.19,102.99,40.33,102.88,40.2z"/>
<path class="st1" d="M55.94,78.1c0-0.14,0-0.28,0-0.45c0.12,0.14,0.16,0.27,0.13,0.42C56.03,78.07,55.99,78.08,55.94,78.1z"/>
<path class="st1" d="M178.18,24.08c-0.21,0.07-0.42,0.07-0.63,0.05C177.75,24.02,177.97,24.1,178.18,24.08z"/>
<path class="st1" d="M106.14,65.8c0.2-0.06,0.41-0.08,0.62-0.07C106.57,65.86,106.35,65.76,106.14,65.8z"/>
<path class="st1" d="M30.39,57.89c0.21-0.06,0.42-0.08,0.64-0.07C30.82,57.95,30.6,57.86,30.39,57.89z"/>
<path class="st1" d="M130.96,33.23c0.19-0.01,0.37,0.02,0.56,0.06C131.34,33.26,131.14,33.34,130.96,33.23z"/>
<path class="st1" d="M116.93,25.74c0.18-0.07,0.37-0.07,0.56-0.06C117.32,25.8,117.12,25.7,116.93,25.74z"/>
<path class="st1" d="M31.04,57.82c0.18-0.07,0.37-0.08,0.56-0.07C31.43,57.88,31.23,57.78,31.04,57.82z"/>
<path class="st1" d="M96.98,65.66c0.19-0.01,0.38-0.01,0.57,0.07C97.35,65.69,97.15,65.79,96.98,65.66z"/>
<path class="st1" d="M188.63,74.55c-0.19,0-0.38,0-0.56,0C188.25,74.47,188.44,74.47,188.63,74.55z"/>
<path class="st1" d="M121.87,22.56c-0.18,0.05-0.37,0.07-0.55,0.05C121.5,22.52,121.69,22.59,121.87,22.56z"/>
<path class="st1" d="M88.48,32.06c-0.18,0.07-0.37,0.06-0.57,0.05C88.09,32.01,88.29,32.09,88.48,32.06z"/>
<path class="st1" d="M86.24,32.11c-0.19,0.02-0.38,0.02-0.56-0.05C85.87,32.08,86.06,32.01,86.24,32.11z"/>
<path class="st1" d="M122.56,76.38c0.18-0.08,0.36-0.09,0.55-0.07C122.94,76.43,122.74,76.34,122.56,76.38z"/>
<path class="st1" d="M123.62,76.31c0.19-0.01,0.38-0.02,0.56,0.07C124,76.34,123.79,76.43,123.62,76.31z"/>
<path class="st1" d="M24.33,57.82c0.19-0.01,0.38-0.01,0.56,0.07C24.7,57.85,24.5,57.95,24.33,57.82z"/>
<path class="st1" d="M80.79,56.59c0.16-0.06,0.32-0.07,0.49-0.07C81.13,56.65,80.95,56.56,80.79,56.59z"/>
<path class="st1" d="M36.63,82.05c0,0.07,0.01,0.17-0.08,0.15c-0.07-0.02-0.05-0.14-0.05-0.22C36.55,82,36.59,82.03,36.63,82.05z"/>
<path class="st1" d="M116.36,25.81c0.16-0.07,0.32-0.08,0.49-0.06C116.7,25.86,116.52,25.78,116.36,25.81z"/>
<path class="st1" d="M23.83,57.75c0.16-0.01,0.32,0.01,0.48,0.07C24.15,57.78,23.97,57.87,23.83,57.75z"/>
<path class="st1" d="M185.95,18.47c-0.16,0.05-0.32,0.07-0.48,0.05C185.63,18.42,185.79,18.49,185.95,18.47z"/>
<path class="st1" d="M186.74,18.39c-0.16,0.05-0.32,0.07-0.48,0.05C186.42,18.35,186.58,18.42,186.74,18.39z"/>
<path class="st1" d="M187.47,18.32c-0.16,0.06-0.32,0.07-0.48,0.06C187.13,18.27,187.31,18.35,187.47,18.32z"/>
<path class="st1" d="M67.95,14.49c-0.16,0.02-0.32-0.01-0.48-0.05C67.64,14.46,67.8,14.39,67.95,14.49z"/>
<path class="st1" d="M107.43,65.66c0.16-0.06,0.32-0.08,0.49-0.07C107.77,65.71,107.59,65.63,107.43,65.66z"/>
<path class="st1" d="M107.4,37.09c-0.15,0.06-0.32,0.07-0.48,0.05C107.07,37.05,107.24,37.12,107.4,37.09z"/>
<path class="st1" d="M67.23,14.42c-0.16,0.01-0.33,0-0.48-0.05C66.91,14.39,67.08,14.32,67.23,14.42z"/>
<path class="st1" d="M121.08,22.64c-0.16,0.05-0.31,0.07-0.48,0.06C120.75,22.59,120.92,22.66,121.08,22.64z"/>
<path class="st1" d="M102.38,40.13c0.17-0.01,0.33,0.01,0.49,0.06C102.71,40.16,102.53,40.25,102.38,40.13z"/>
<path class="st1" d="M14.76,85.66c0.17-0.01,0.33,0.01,0.49,0.06C15.08,85.7,14.91,85.78,14.76,85.66z"/>
<path class="st1" d="M74.16,85.66c0.17-0.01,0.33,0.01,0.49,0.06C74.48,85.69,74.31,85.78,74.16,85.66z"/>
<path class="st1" d="M104.97,85.66c0.17-0.01,0.33,0.01,0.48,0.06C105.3,85.69,105.12,85.78,104.97,85.66z"/>
<path class="st1" d="M97.46,22.71c-0.16,0.05-0.31,0.07-0.48,0.05C97.14,22.66,97.3,22.74,97.46,22.71z"/>
<path class="st1" d="M80.19,55.06c-0.17,0.01-0.33,0.01-0.49-0.05C79.87,55.03,80.04,54.96,80.19,55.06z"/>
<path class="st1" d="M107.94,65.59c0.16-0.07,0.32-0.08,0.49-0.07C108.28,65.64,108.1,65.55,107.94,65.59z"/>
<path class="st1" d="M145.46,85.73c0.15-0.05,0.31-0.08,0.47-0.07C145.79,85.78,145.61,85.69,145.46,85.73z"/>
<path class="st1" d="M160.48,85.66c0.17-0.01,0.33,0.01,0.49,0.06C160.81,85.7,160.63,85.78,160.48,85.66z"/>
<path class="st1" d="M180.36,85.66c0.17-0.01,0.33,0.01,0.49,0.06C180.68,85.69,180.51,85.78,180.36,85.66z"/>
<path class="st1" d="M88.64,33.58c0.16-0.06,0.32-0.08,0.48-0.07C88.98,33.63,88.8,33.55,88.64,33.58z"/>
<path class="st1" d="M106.85,65.73c0.16-0.06,0.32-0.07,0.49-0.06C107.19,65.78,107.01,65.7,106.85,65.73z"/>
<path class="st1" d="M31.62,57.75c0.16-0.06,0.32-0.08,0.49-0.07C31.96,57.8,31.78,57.71,31.62,57.75z"/>
<path class="st1" d="M134.41,74.62c-0.16,0.01-0.32-0.01-0.48-0.05C134.09,74.59,134.26,74.53,134.41,74.62z"/>
<path class="st1" d="M77.47,56.53c0.17-0.01,0.33,0.01,0.48,0.06C77.79,56.56,77.62,56.65,77.47,56.53z"/>
<path class="st1" d="M143.28,85.66c0.16-0.01,0.32,0.02,0.48,0.07C143.6,85.69,143.42,85.78,143.28,85.66z"/>
<path class="st1" d="M96.04,65.52c0.14-0.01,0.28,0,0.42,0.07C96.32,65.56,96.16,65.63,96.04,65.52z"/>
<path class="st1" d="M96.55,65.59c0.14-0.01,0.28,0,0.42,0.06C96.83,65.63,96.67,65.7,96.55,65.59z"/>
<path class="st1" d="M15.74,74.42c-0.13,0.04-0.27,0.06-0.4,0.05C15.46,74.39,15.61,74.45,15.74,74.42z"/>
<path class="st1" d="M17.48,74.47c-0.14,0.01-0.28-0.01-0.41-0.05C17.21,74.45,17.35,74.39,17.48,74.47z"/>
<path class="st1" d="M76.88,74.48c-0.14,0.01-0.28,0-0.41-0.05C76.61,74.45,76.75,74.38,76.88,74.48z"/>
<path class="st1" d="M105.89,74.42c-0.13,0.05-0.27,0.06-0.41,0.05C105.6,74.38,105.75,74.45,105.89,74.42z"/>
<path class="st1" d="M107.7,74.48c-0.14,0.01-0.28,0-0.41-0.05C107.42,74.45,107.57,74.38,107.7,74.48z"/>
<path class="st1" d="M163.21,74.48c-0.14,0.01-0.28,0-0.41-0.05C162.93,74.45,163.08,74.38,163.21,74.48z"/>
<path class="st1" d="M183.08,74.48c-0.14,0.01-0.28,0-0.41-0.05C182.81,74.45,182.95,74.38,183.08,74.48z"/>
<path class="st1" d="M124.76,22.47c-0.14,0.02-0.28,0.02-0.42,0C124.48,22.4,124.62,22.4,124.76,22.47z"/>
<path class="st1" d="M141.24,22.42c-0.13,0.05-0.27,0.06-0.41,0.05C140.96,22.38,141.11,22.44,141.24,22.42z"/>
<path class="st1" d="M115.86,25.88c0.13-0.06,0.27-0.08,0.41-0.06C116.15,25.93,115.99,25.85,115.86,25.88z"/>
<path class="st1" d="M115.42,25.95c0.13-0.07,0.27-0.08,0.42-0.07C115.72,26,115.56,25.92,115.42,25.95z"/>
<path class="st1" d="M16.86,85.73c0.13-0.05,0.27-0.07,0.41-0.06C17.15,85.77,16.99,85.7,16.86,85.73z"/>
<path class="st1" d="M132.85,33.22c0.13-0.06,0.27-0.08,0.41-0.06C133.14,33.26,132.99,33.19,132.85,33.22z"/>
<path class="st1" d="M76.25,85.72c0.13-0.06,0.27-0.07,0.42-0.07C76.55,85.77,76.39,85.7,76.25,85.72z"/>
<path class="st1" d="M131.54,33.29c0.14-0.02,0.29-0.02,0.43,0C131.82,33.39,131.68,33.39,131.54,33.29z"/>
<path class="st1" d="M107.07,85.72c0.13-0.06,0.27-0.07,0.42-0.07C107.36,85.77,107.21,85.7,107.07,85.72z"/>
<path class="st1" d="M163.42,45.22c-0.13,0.07-0.27,0.07-0.41,0.05C163.13,45.18,163.28,45.25,163.42,45.22z"/>
<path class="st1" d="M123.4,48.76c0.14-0.01,0.27,0.02,0.4,0.07C123.67,48.8,123.52,48.87,123.4,48.76z"/>
<path class="st1" d="M125.36,48.83c0.13-0.06,0.27-0.07,0.41-0.06C125.65,48.87,125.5,48.8,125.36,48.83z"/>
<path class="st1" d="M157.48,48.97c0.13-0.05,0.27-0.08,0.41-0.06C157.76,49.02,157.61,48.94,157.48,48.97z"/>
<path class="st1" d="M174.39,49.62c0.13-0.06,0.27-0.08,0.42-0.07C174.68,49.67,174.53,49.59,174.39,49.62z"/>
<path class="st1" d="M162.58,85.72c0.13-0.06,0.27-0.07,0.42-0.07C162.87,85.77,162.72,85.7,162.58,85.72z"/>
<path class="st1" d="M81.78,55.01c-0.13,0.07-0.27,0.07-0.42,0.05C81.49,54.96,81.64,55.03,81.78,55.01z"/>
<path class="st1" d="M182.45,85.72c0.13-0.06,0.27-0.07,0.42-0.07C182.75,85.77,182.59,85.7,182.45,85.72z"/>
<path class="st1" d="M81.3,56.52c0.13-0.06,0.27-0.08,0.41-0.07C81.59,56.57,81.44,56.49,81.3,56.52z"/>
<path class="st1" d="M22.96,57.61c0.14-0.01,0.27,0.01,0.4,0.07C23.23,57.64,23.08,57.72,22.96,57.61z"/>
<path class="st1" d="M32.12,57.67c0.13-0.06,0.27-0.08,0.42-0.07C32.41,57.72,32.26,57.65,32.12,57.67z"/>
<path class="st1" d="M81.51,49.11c0.13-0.06,0.27-0.08,0.42-0.07C81.8,49.16,81.65,49.09,81.51,49.11z"/>
<path class="st1" d="M108.88,65.44c0.13-0.06,0.27-0.08,0.41-0.07C109.17,65.49,109.01,65.41,108.88,65.44z"/>
<path class="st1" d="M108.44,65.51c0.13-0.06,0.27-0.08,0.41-0.07C108.73,65.56,108.58,65.49,108.44,65.51z"/>
<path class="st1" d="M124.56,85.65c0.11-0.06,0.23-0.07,0.35-0.06C124.81,85.69,124.68,85.63,124.56,85.65z"/>
<path class="st1" d="M178.82,24c-0.11,0.05-0.22,0.07-0.33,0.05C178.59,23.97,178.71,24.02,178.82,24z"/>
<path class="st1" d="M89.15,33.51c0.11-0.05,0.22-0.08,0.33-0.06C89.39,33.54,89.26,33.48,89.15,33.51z"/>
<path class="st1" d="M32.98,57.53c0.11-0.06,0.22-0.07,0.34-0.06C33.23,57.57,33.1,57.51,32.98,57.53z"/>
<path class="st1" d="M95.68,65.45c0.12-0.01,0.23,0.01,0.34,0.06C95.91,65.49,95.78,65.55,95.68,65.45z"/>
<path class="st1" d="M109.73,65.3c0.11-0.07,0.22-0.08,0.35-0.07C109.98,65.34,109.85,65.28,109.73,65.3z"/>
<path class="st1" d="M109.31,65.37c0.1-0.05,0.22-0.08,0.33-0.06C109.55,65.41,109.42,65.35,109.31,65.37z"/>
<path class="st1" d="M95.25,65.37c0.12-0.01,0.24,0.01,0.34,0.07C95.48,65.42,95.35,65.48,95.25,65.37z"/>
<path class="st1" d="M148.9,26.6c0.11-0.06,0.23-0.07,0.35-0.06C149.14,26.64,149.01,26.58,148.9,26.6z"/>
<path class="st1" d="M32.56,57.6c0.11-0.05,0.22-0.07,0.33-0.06C32.79,57.64,32.67,57.58,32.56,57.6z"/>
<path class="st1" d="M121.67,85.58c0.12-0.01,0.24,0,0.35,0.07C121.91,85.63,121.77,85.69,121.67,85.58z"/>
<path class="st1" d="M177.17,47.17c-0.11,0.06-0.22,0.07-0.34,0.05C176.93,47.13,177.06,47.18,177.17,47.17z"/>
<path class="st1" d="M115.05,26.02c0.11-0.07,0.23-0.07,0.35-0.06C115.31,26.06,115.17,26,115.05,26.02z"/>
<path class="st1" d="M77.04,56.46c0.12-0.01,0.24,0,0.34,0.06C77.26,56.5,77.14,56.56,77.04,56.46z"/>
<path class="st1" d="M110.1,65.23c0.1-0.06,0.22-0.08,0.34-0.07C110.34,65.26,110.21,65.2,110.1,65.23z"/>
<path class="st1" d="M161.4,74.43c-0.11,0.04-0.22,0.06-0.34,0.05C161.17,74.39,161.29,74.44,161.4,74.43z"/>
<path class="st1" d="M181.27,74.43c-0.11,0.04-0.22,0.06-0.34,0.04C181.04,74.39,181.16,74.44,181.27,74.43z"/>
<path class="st1" d="M75.07,74.43c-0.11,0.04-0.22,0.06-0.34,0.04C74.84,74.39,74.96,74.44,75.07,74.43z"/>
<path class="st1" d="M120.37,22.71c-0.11,0.05-0.23,0.06-0.34,0.05C120.13,22.67,120.25,22.73,120.37,22.71z"/>
<path class="st1" d="M23.39,57.68c0.12-0.01,0.24,0,0.35,0.06C23.62,57.72,23.49,57.78,23.39,57.68z"/>
<path class="st1" d="M68.53,14.56c-0.12,0.02-0.23,0-0.34-0.05C68.3,14.53,68.42,14.48,68.53,14.56z"/>
<path class="st1" d="M106.26,37.14c-0.12,0.02-0.23,0-0.33-0.05C106.03,37.11,106.15,37.06,106.26,37.14z"/>
<path class="st1" d="M69.1,14.63c-0.12,0.01-0.23,0-0.33-0.05C68.88,14.6,69,14.55,69.1,14.63z"/>
<path class="st1" d="M69.61,14.7c-0.11,0.02-0.22-0.01-0.33-0.05C69.39,14.67,69.51,14.62,69.61,14.7z"/>
<path class="st1" d="M122.68,30.63c0.12-0.03,0.24,0.01,0.35-0.04C122.93,30.75,122.81,30.71,122.68,30.63z"/>
<path class="st1" d="M119.85,22.78c-0.11,0.05-0.22,0.07-0.33,0.05C119.62,22.75,119.74,22.8,119.85,22.78z"/>
<path class="st1" d="M174.88,49.54c0.09-0.06,0.18-0.07,0.28-0.06C175.09,49.57,174.98,49.53,174.88,49.54z"/>
<path class="st1" d="M79.41,49.05c0.1-0.01,0.19,0,0.28,0.06C79.59,49.1,79.49,49.14,79.41,49.05z"/>
<path class="st1" d="M157.97,48.9c0.08-0.05,0.17-0.07,0.27-0.06C158.17,48.92,158.07,48.88,157.97,48.9z"/>
<path class="st1" d="M158.33,48.82c0.08-0.06,0.17-0.07,0.27-0.07C158.53,48.85,158.43,48.81,158.33,48.82z"/>
<path class="st1" d="M125.86,48.75c0.08-0.05,0.17-0.07,0.27-0.06C126.06,48.78,125.95,48.74,125.86,48.75z"/>
<path class="st1" d="M146.02,85.65c0.08-0.06,0.18-0.07,0.27-0.06C146.22,85.68,146.11,85.64,146.02,85.65z"/>
<path class="st1" d="M142.91,85.59c0.1-0.01,0.19,0.01,0.28,0.06C143.1,85.64,142.99,85.68,142.91,85.59z"/>
<path class="st1" d="M104.61,85.59c0.1-0.01,0.19,0.01,0.27,0.06C104.79,85.64,104.69,85.68,104.61,85.59z"/>
<path class="st1" d="M73.79,85.59c0.1-0.01,0.19,0.01,0.27,0.06C73.98,85.64,73.87,85.68,73.79,85.59z"/>
<path class="st1" d="M84.65,46.3c-0.08,0.05-0.17,0.07-0.27,0.05C84.46,46.28,84.56,46.31,84.65,46.3z"/>
<path class="st1" d="M124.54,74.4c-0.09,0.01-0.17-0.01-0.25-0.05C124.37,74.37,124.47,74.33,124.54,74.4z"/>
<path class="st1" d="M113.98,26.24c0.08-0.05,0.17-0.08,0.27-0.06C114.18,26.26,114.07,26.23,113.98,26.24z"/>
<path class="st1" d="M147.65,25.66c-0.08,0.06-0.18,0.06-0.28,0.06C147.45,25.63,147.56,25.67,147.65,25.66z"/>
<path class="st1" d="M70.04,14.77c-0.09,0.02-0.17-0.01-0.25-0.05C69.87,14.74,69.96,14.7,70.04,14.77z"/>
<path class="st1" d="M70.55,14.85c-0.1,0.01-0.19,0-0.27-0.05C70.37,14.81,70.47,14.77,70.55,14.85z"/>
<path class="st1" d="M86.83,33.52c0.1-0.01,0.19,0.01,0.27,0.06C87.01,33.56,86.91,33.6,86.83,33.52z"/>
<path class="st1" d="M89.57,33.43c0.08-0.06,0.17-0.07,0.27-0.06C89.77,33.46,89.67,33.42,89.57,33.43z"/>
<path class="st1" d="M133.34,33.14c0.08-0.06,0.18-0.07,0.28-0.06C133.54,33.17,133.44,33.13,133.34,33.14z"/>
<path class="st1" d="M89.05,31.99c-0.09,0.06-0.18,0.07-0.28,0.05C88.86,31.96,88.96,32,89.05,31.99z"/>
<path class="st1" d="M143.26,22.47c-0.09,0.01-0.18-0.01-0.26-0.05C143.09,22.43,143.18,22.4,143.26,22.47z"/>
<path class="st1" d="M114.69,26.09c0.08-0.06,0.18-0.07,0.28-0.06C114.89,26.12,114.79,26.08,114.69,26.09z"/>
<path class="st1" d="M122.26,76.45c0.08-0.06,0.17-0.08,0.27-0.07C122.46,76.47,122.36,76.43,122.26,76.45z"/>
<path class="st1" d="M124.27,76.38c0.09-0.01,0.18,0,0.25,0.06C124.43,76.43,124.33,76.47,124.27,76.38z"/>
<path class="st1" d="M140.6,22.49c-0.08,0.05-0.17,0.06-0.27,0.05C140.41,22.47,140.51,22.5,140.6,22.49z"/>
<path class="st1" d="M118.91,22.92c-0.08,0.04-0.16,0.06-0.25,0.05C118.73,22.9,118.83,22.94,118.91,22.92z"/>
<path class="st1" d="M124.69,83.63c-0.08,0.06-0.18,0.07-0.27,0.05C124.5,83.61,124.6,83.64,124.69,83.63z"/>
<path class="st1" d="M187.84,77.82c0.1-0.01,0.2,0.01,0.28,0.06C188.03,77.87,187.92,77.91,187.84,77.82z"/>
<path class="st1" d="M188.49,77.88c0.09-0.05,0.18-0.07,0.28-0.06C188.69,77.91,188.59,77.87,188.49,77.88z"/>
<path class="st1" d="M123.03,83.68c-0.1,0.01-0.19,0-0.27-0.05C122.85,83.64,122.95,83.61,123.03,83.68z"/>
<path class="st1" d="M107.35,76.46c0.09-0.01,0.18-0.01,0.25,0.06C107.51,76.51,107.42,76.54,107.35,76.46z"/>
<path class="st1" d="M180,85.59c0.1-0.01,0.19,0.01,0.27,0.06C180.18,85.64,180.07,85.68,180,85.59z"/>
<path class="st1" d="M22.6,57.53c0.1-0.01,0.2,0,0.29,0.06C22.79,57.59,22.68,57.63,22.6,57.53z"/>
<path class="st1" d="M114.34,26.17c0.08-0.06,0.18-0.07,0.28-0.06C114.54,26.19,114.43,26.15,114.34,26.17z"/>
<path class="st1" d="M22.32,57.47c0.1-0.01,0.19,0.01,0.27,0.06C22.49,57.51,22.39,57.55,22.32,57.47z"/>
<path class="st1" d="M33.4,57.45c0.08-0.06,0.18-0.07,0.28-0.06C33.61,57.48,33.5,57.44,33.4,57.45z"/>
<path class="st1" d="M162.86,76.45c0.09-0.01,0.18-0.01,0.26,0.06C163.03,76.51,162.93,76.54,162.86,76.45z"/>
<path class="st1" d="M34.06,57.31c0.08-0.05,0.18-0.08,0.27-0.06C34.26,57.34,34.15,57.3,34.06,57.31z"/>
<path class="st1" d="M182.73,76.46c0.09-0.01,0.18-0.01,0.25,0.06C182.9,76.51,182.8,76.54,182.73,76.46z"/>
<path class="st1" d="M99.27,22.76c-0.1,0.01-0.19,0-0.27-0.05C99.09,22.72,99.19,22.69,99.27,22.76z"/>
<path class="st1" d="M17.13,76.45c0.09,0,0.19-0.02,0.26,0.06C17.3,76.51,17.2,76.54,17.13,76.45z"/>
<path class="st1" d="M94.6,65.23c0.09-0.01,0.18,0,0.25,0.06C94.76,65.29,94.67,65.32,94.6,65.23z"/>
<path class="st1" d="M144.13,83.75c-0.1,0.02-0.18,0-0.27-0.05C143.95,83.72,144.05,83.68,144.13,83.75z"/>
<path class="st1" d="M76.53,76.46c0.09-0.01,0.18-0.01,0.25,0.06C76.7,76.51,76.6,76.54,76.53,76.46z"/>
<path class="st1" d="M119.35,22.85c-0.08,0.04-0.17,0.06-0.26,0.05C119.17,22.83,119.26,22.86,119.35,22.85z"/>
<path class="st1" d="M76.68,56.39c0.1-0.01,0.19,0,0.27,0.06C76.86,56.44,76.75,56.48,76.68,56.39z"/>
<path class="st1" d="M96.74,22.78c-0.08,0.04-0.17,0.06-0.26,0.04C96.56,22.76,96.66,22.79,96.74,22.78z"/>
<path class="st1" d="M79.47,54.98c-0.1,0.01-0.19,0-0.27-0.05C79.29,54.94,79.39,54.91,79.47,54.98z"/>
<path class="st1" d="M111.46,64.94c0.08-0.05,0.18-0.08,0.28-0.06C111.66,64.96,111.55,64.92,111.46,64.94z"/>
<path class="st1" d="M126.92,46.06c-0.07,0.01-0.13-0.01-0.19-0.05C126.8,46.02,126.87,46.01,126.92,46.06z"/>
<path class="st1" d="M89.48,31.92c-0.06,0.05-0.13,0.06-0.2,0.05C89.34,31.91,89.41,31.92,89.48,31.92z"/>
<path class="st1" d="M89.84,31.85c-0.06,0.05-0.13,0.06-0.2,0.05C89.69,31.83,89.77,31.85,89.84,31.85z"/>
<path class="st1" d="M161.34,76.51c0.06-0.06,0.14-0.07,0.22-0.06C161.5,76.53,161.42,76.51,161.34,76.51z"/>
<path class="st1" d="M72.35,79.11c0.06,0.03,0.13,0.04,0.12,0.13C72.43,79.2,72.39,79.15,72.35,79.11z"/>
<path class="st1" d="M178.55,79.11c0.06,0.03,0.13,0.04,0.12,0.13C178.63,79.2,178.59,79.15,178.55,79.11z"/>
<path class="st1" d="M103.47,79.44c0.09-0.02,0.09,0.05,0.12,0.1C103.55,79.5,103.51,79.47,103.47,79.44z"/>
<path class="st1" d="M128.58,46.02c-0.06,0.05-0.13,0.06-0.21,0.04C128.44,46,128.51,46.02,128.58,46.02z"/>
<path class="st1" d="M179.2,23.94c-0.06,0.05-0.13,0.06-0.21,0.05C179.05,23.92,179.13,23.94,179.2,23.94z"/>
<path class="st1" d="M145.42,83.71c-0.06,0.05-0.13,0.06-0.2,0.05C145.28,83.69,145.36,83.71,145.42,83.71z"/>
<path class="st1" d="M70.9,14.91c-0.07,0.02-0.14,0-0.2-0.04C70.77,14.87,70.85,14.86,70.9,14.91z"/>
<path class="st1" d="M124.93,85.58c0.05-0.04,0.12-0.05,0.18-0.04C125.06,85.59,124.99,85.57,124.93,85.58z"/>
<path class="st1" d="M111.76,64.87c0.05-0.05,0.11-0.05,0.18-0.04C111.88,64.84,111.82,64.85,111.76,64.87z"/>
<path class="st1" d="M94.39,65.22c0.06-0.06,0.12-0.04,0.18,0C94.51,65.23,94.45,65.23,94.39,65.22z"/>
<path class="st1" d="M107.5,85.65c0.06-0.05,0.12-0.05,0.19-0.04C107.64,85.66,107.57,85.65,107.5,85.65z"/>
<path class="st1" d="M17.91,74.54c-0.07,0.01-0.14,0-0.2-0.04C17.78,74.5,17.85,74.49,17.91,74.54z"/>
<path class="st1" d="M176.31,47.22c-0.08,0.02-0.14,0-0.2-0.05C176.18,47.17,176.26,47.15,176.31,47.22z"/>
<path class="st1" d="M61.64,46.77c0.04,0,0.09-0.01,0.11,0.05C61.71,46.8,61.67,46.78,61.64,46.77z"/>
<path class="st1" d="M171.06,79.02c-0.05,0.01-0.1,0.02-0.1-0.06C171,78.96,171.04,78.98,171.06,79.02z"/>
<path class="st1" d="M63.52,48.51c0.04-0.01,0.08-0.02,0.1,0.03C63.58,48.53,63.55,48.52,63.52,48.51z"/>
<path class="st1" d="M62.72,47.79c0.04-0.01,0.08-0.02,0.1,0.03C62.79,47.81,62.76,47.8,62.72,47.79z"/>
<path class="st1" d="M162.56,45.27c-0.05,0.01-0.1,0-0.14-0.04C162.47,45.23,162.52,45.23,162.56,45.27z"/>
<path class="st1" d="M34.36,57.24c0.03-0.03,0.07-0.05,0.11,0C34.43,57.24,34.4,57.24,34.36,57.24z"/>
<path class="st1" d="M90.42,31.7c-0.04,0.04-0.08,0.06-0.13,0.05C90.32,31.71,90.37,31.7,90.42,31.7z"/>
<path class="st1" d="M90.13,31.78c-0.04,0.04-0.08,0.05-0.13,0.04C90.04,31.78,90.08,31.77,90.13,31.78z"/>
<path class="st1" d="M119,84.09c0.05,0.02,0.05,0.08,0.06,0.12C119.02,84.18,119.01,84.14,119,84.09z"/>
<path class="st1" d="M119.08,84.23c0.05,0.01,0.1,0,0.12,0.06C119.15,84.28,119.11,84.27,119.08,84.23z"/>
<path class="st1" d="M72.58,79.35c0.02,0.01,0.05,0.02,0.07,0.04C72.62,79.38,72.6,79.36,72.58,79.35z"/>
<path class="st1" d="M137.25,41.77c0-0.03,0.02-0.05,0.05-0.05C137.28,41.74,137.27,41.76,137.25,41.77z"/>
<path class="st1" d="M103.24,79.17c0.01,0.02,0.02,0.05,0.03,0.07C103.26,79.21,103.25,79.19,103.24,79.17z"/>
<path class="st1" d="M137.18,41.84c0-0.03,0.02-0.04,0.04-0.04C137.21,41.81,137.2,41.83,137.18,41.84z"/>
<path class="st1" d="M61.77,46.83c0.03,0,0.05,0.02,0.05,0.05C61.8,46.87,61.78,46.85,61.77,46.83z"/>
<path class="st1" d="M103.17,79.05c0.03,0,0.04,0.02,0.04,0.04C103.19,79.09,103.18,79.07,103.17,79.05z"/>
<path class="st1" d="M62.85,47.84c0.03,0,0.05,0.02,0.05,0.05C62.88,47.88,62.86,47.86,62.85,47.84z"/>
<path class="st1" d="M63.64,48.56c0.03,0,0.05,0.02,0.05,0.05C63.67,48.59,63.65,48.58,63.64,48.56z"/>
<path class="st1" d="M84.73,79.02c-0.05,0.01-0.08-0.01-0.07-0.06C84.69,78.98,84.71,79,84.73,79.02z"/>
<polygon class="st1" points="96.06,28.19 96.06,28.21 96.04,28.22 "/>
<path class="st1" d="M25.34,83.71c-0.05,0-0.06-0.03-0.06-0.07C25.3,83.66,25.32,83.68,25.34,83.71z"/>
<path class="st1" d="M25.33,79.01c-0.04,0.01-0.06-0.01-0.05-0.05C25.3,78.98,25.32,79,25.33,79.01z"/>
<path class="st1" d="M142.08,28.76c0-0.02,0.01-0.04,0.04-0.04C142.1,28.73,142.09,28.74,142.08,28.76z"/>
<path class="st1" d="M105.11,77.73l-0.02-0.02c0,0,0.01-0.02,0.01-0.02C105.11,77.7,105.11,77.71,105.11,77.73z"/>
<path class="st1" d="M96.02,28.25c0,0.03-0.02,0.05-0.05,0.06C95.98,28.29,96,28.27,96.02,28.25z"/>
<path class="st1" d="M180.48,77.14l-0.01-0.03c0,0,0.02-0.02,0.02-0.02C180.49,77.11,180.49,77.13,180.48,77.14z"/>
<path class="st1" d="M142,28.83c0.01-0.03,0.02-0.05,0.05-0.05C142.03,28.79,142.01,28.81,142,28.83z"/>
<path class="st1" d="M178.78,79.35c0.02,0.01,0.05,0.02,0.07,0.04C178.82,79.38,178.8,79.36,178.78,79.35z"/>
<path class="st1" d="M178.92,79.42c0.03,0,0.04,0.01,0.04,0.04C178.94,79.45,178.93,79.44,178.92,79.42z"/>
<path class="st1" d="M74.28,77.14l-0.01-0.03c0,0,0.02-0.02,0.02-0.02C74.29,77.11,74.29,77.13,74.28,77.14z"/>
<path class="st1" d="M72.72,79.42c0.03,0,0.04,0.01,0.04,0.04C72.74,79.45,72.73,79.44,72.72,79.42z"/>
<path class="st1" d="M129.36,31.67c-0.02,0.01-0.04,0.02-0.06,0.03C129.32,31.67,129.33,31.65,129.36,31.67z"/>
<path class="st1" d="M155.47,34.29c0-0.03,0.02-0.05,0.05-0.05C155.5,34.26,155.48,34.28,155.47,34.29z"/>
<path class="st1" d="M114.64,34.37c0-0.02,0.01-0.04,0.04-0.04C114.67,34.34,114.66,34.36,114.64,34.37z"/>
<path class="st1" d="M118.93,84.02c0.03,0,0.05,0.02,0.05,0.05C118.96,84.05,118.95,84.04,118.93,84.02z"/>
<path class="st1" d="M155.4,34.36c0-0.02,0.01-0.04,0.04-0.04C155.43,34.33,155.42,34.35,155.4,34.36z"/>
<path class="st1" d="M114.56,34.44c0-0.03,0.02-0.05,0.05-0.05C114.6,34.4,114.58,34.42,114.56,34.44z"/>
<path class="st1" d="M25.28,76.44c-0.01-0.04,0.01-0.07,0.06-0.07C25.32,76.39,25.3,76.42,25.28,76.44z"/>
<path class="st1" d="M105.09,77.15c-0.02-0.03,0-0.05,0.02-0.06C105.11,77.11,105.1,77.13,105.09,77.15z"/>
<path class="st0" d="M188.79,76.25c0.24,0.21,0.27,0.51,0.34,0.8c-0.42,0.07-0.42,0.07-0.5-0.3c-0.01-0.06-0.02-0.12-0.05-0.17
	c-0.08-0.16-0.23-0.16-0.37-0.14c-0.14,0.02-0.08,0.15-0.1,0.23c-0.01,0.06-0.01,0.12,0,0.18c0.01,0.16-0.06,0.21-0.21,0.21
	c-0.15,0-0.22-0.05-0.21-0.21c0.01-0.42,0-0.84,0-1.26c0-0.12,0.03-0.21,0.17-0.23c0.26-0.02,0.53-0.05,0.79,0.01
	c0.2,0.04,0.37,0.13,0.41,0.35c0.04,0.2-0.05,0.34-0.22,0.45C188.81,76.19,188.81,76.22,188.79,76.25z M188.25,75.65
	c-0.19-0.02-0.19,0.11-0.19,0.25c0,0.21,0.04,0.24,0.22,0.23c0.21-0.01,0.34-0.1,0.35-0.24C188.64,75.74,188.5,75.65,188.25,75.65z"
	/>
</svg>
