<?xml version="1.0" encoding="utf-8"?>
<!-- Generator: Adobe Illustrator 25.4.1, SVG Export Plug-In . SVG Version: 6.00 Build 0)  -->
<svg version="1.1" id="Layer_1" xmlns="http://www.w3.org/2000/svg" xmlns:xlink="http://www.w3.org/1999/xlink" x="0px" y="0px"
	 viewBox="0 0 200 100" style="enable-background:new 0 0 200 100;" xml:space="preserve">
<style type="text/css">
	.st0{fill:#1C1044;}
	.st1{fill:#F6F6F7;}
	.st2{fill:#2F5BB1;}
	.st3{fill:#F3C625;}
	.st4{fill:#FFFFFF;stroke:#FFFFFF;stroke-width:0.5;stroke-miterlimit:10;}
</style>
<path class="st0" d="M53.31,58.46c-0.01,4.07-0.02,8.14-0.04,12.2c0,0.32,0.17,0.72-0.26,0.94c-4.67,0-9.34,0.01-14.01,0.01
	c-9.67,0-19.33,0.01-29,0.01c0-14.42,0-28.83,0-43.25c14.15,0,28.29,0,42.44,0c0.32,0,0.65,0.03,0.97,0.04
	c-0.12,0.46-0.14,0.92-0.14,1.39c0,5.67,0,11.34,0,17.02C53.28,50.7,53.3,54.58,53.31,58.46z M18.48,52.51
	c0.39,3.1,0.79,6.15,1.16,9.21c0.06,0.47,0.35,0.54,0.69,0.67c3.46,1.31,6.92,2.62,10.37,3.95c0.56,0.21,1.05,0.21,1.6-0.01
	c3.42-1.33,6.84-2.65,10.27-3.92c0.57-0.21,0.76-0.51,0.82-1.06c0.31-2.65,0.65-5.3,0.97-7.95c0.03-0.27,0.26-0.65-0.06-0.79
	c-0.18-0.08-0.54,0.13-0.77,0.28c-1.13,0.8-2.2,1.68-3.36,2.43c-0.73,0.48-0.76,0.75,0,1.2c0.37,0.21,0.69,0.56,0.94,0.92
	c0.66,0.95,0.48,1.73-0.48,2.39c-0.41,0.28-0.85,0.37-1.33,0.37c-1.26,0-2.53-0.02-3.79,0.06c-0.73,0.05-0.97-0.14-0.96-0.9
	c0.04-3.06,0.04-6.12-0.01-9.18c-0.01-0.71,0.21-0.9,0.89-0.89c2.53,0.03,5.06,0.02,7.59,0.02c1.67,0,1.67,0,1.8-1.63
	c0.02-0.29,0.03-0.59,0.09-0.88c0.13-0.6-0.09-0.75-0.68-0.75c-8.56,0.02-17.12,0.03-25.69,0.01c-0.47,0-0.45,0.15-0.53,0.52
	c-0.14,0.67,0.31,1.26,0.19,1.9c-0.15,0.8,0.28,0.84,0.89,0.84c2.88-0.02,5.77,0,8.65-0.01c0.46,0,0.68,0.06,0.68,0.61
	c-0.03,3.24-0.02,6.47-0.01,9.71c0,0.43-0.09,0.65-0.57,0.64c-1.61-0.05-3.23,0.02-4.83-0.14c-1.41-0.15-1.93-1.67-1.07-2.8
	c0.3-0.4,0.67-0.73,1.1-1c0.35-0.22,0.49-0.43,0.01-0.75c-1.08-0.72-2.1-1.53-3.19-2.25C19.43,53.03,19.06,52.62,18.48,52.51z
	 M16.85,35.07c0.23,1.17,0.2,2.28,0.3,3.38c0.15,1.59,0.38,3.17,0.46,4.75c0.06,1.19-0.02,1.2,1.19,1.2c8.41,0,16.82,0,25.23,0
	c1.15,0,1.16-0.02,1.27-1.21c0.23-2.51,0.46-5.02,0.69-7.53c0.02-0.19,0.16-0.42-0.07-0.56c-0.19-0.11-0.33,0.09-0.46,0.18
	c-1.51,1.1-3,2.21-4.52,3.3c-0.41,0.29-0.39,0.52-0.08,0.84c0.38,0.41,0.74,0.84,1.13,1.24c0.34,0.36,0.37,0.6-0.11,0.88
	c-0.73,0.43-1.44,0.91-2.11,1.43c-0.39,0.31-0.72,0.27-1.12,0.08c-1.15-0.53-2.3-1.04-3.45-1.54c-0.47-0.2-0.72-0.37-0.24-0.85
	c0.41-0.41,0.73-0.91,1.09-1.38c0.23-0.29,0.26-0.53-0.06-0.83c-1.38-1.31-2.73-2.64-4.1-3.97c-0.27-0.26-0.48-0.34-0.81-0.01
	c-0.89,0.89-1.82,1.74-2.72,2.61c-0.57,0.55-1.46,1.05-1.58,1.7c-0.14,0.73,0.82,1.32,1.3,1.96c0.34,0.46,0.18,0.56-0.21,0.72
	c-0.76,0.31-1.56,0.56-2.25,1c-1.29,0.82-2.45,0.91-3.57-0.27c-0.29-0.31-0.69-0.54-1.07-0.73c-0.46-0.23-0.48-0.41-0.11-0.75
	c0.42-0.38,0.78-0.83,1.18-1.24c0.37-0.37,0.42-0.6-0.09-0.94c-1.14-0.76-2.23-1.6-3.32-2.43C18.12,35.71,17.71,35.14,16.85,35.07z"
	/>
<path class="st1" d="M18.48,52.51c0.59,0.12,0.95,0.53,1.37,0.8c1.08,0.72,2.1,1.53,3.19,2.25c0.49,0.32,0.34,0.53-0.01,0.75
	c-0.43,0.27-0.8,0.61-1.1,1c-0.86,1.13-0.33,2.65,1.07,2.8c1.6,0.17,3.22,0.09,4.83,0.14c0.48,0.02,0.57-0.2,0.57-0.64
	c-0.01-3.24-0.02-6.47,0.01-9.71c0-0.55-0.22-0.61-0.68-0.61c-2.88,0.01-5.77-0.01-8.65,0.01c-0.61,0-1.05-0.04-0.89-0.84
	c0.12-0.64-0.33-1.22-0.19-1.9c0.07-0.36,0.06-0.52,0.53-0.52c8.56,0.02,17.12,0.02,25.69-0.01c0.59,0,0.82,0.15,0.68,0.75
	c-0.06,0.28-0.07,0.58-0.09,0.88c-0.13,1.63-0.13,1.63-1.8,1.63c-2.53,0-5.06,0.01-7.59-0.02c-0.68-0.01-0.9,0.18-0.89,0.89
	c0.04,3.06,0.05,6.12,0.01,9.18c-0.01,0.76,0.23,0.94,0.96,0.9c1.26-0.08,2.53-0.06,3.79-0.06c0.48,0,0.93-0.1,1.33-0.37
	c0.96-0.66,1.15-1.44,0.48-2.39c-0.25-0.35-0.57-0.7-0.94-0.92c-0.76-0.44-0.73-0.72,0-1.2c1.16-0.75,2.23-1.63,3.36-2.43
	c0.22-0.16,0.58-0.36,0.77-0.28c0.32,0.14,0.09,0.52,0.06,0.79c-0.32,2.65-0.66,5.3-0.97,7.95c-0.06,0.56-0.25,0.85-0.82,1.06
	c-3.44,1.27-6.86,2.6-10.27,3.92c-0.55,0.21-1.05,0.22-1.6,0.01c-3.45-1.33-6.91-2.64-10.37-3.95c-0.33-0.13-0.63-0.2-0.69-0.67
	C19.27,58.66,18.87,55.61,18.48,52.51z"/>
<path class="st1" d="M16.85,35.07c0.86,0.07,1.26,0.63,1.78,1.03c1.09,0.84,2.18,1.67,3.32,2.43c0.51,0.34,0.46,0.58,0.09,0.94
	c-0.4,0.4-0.76,0.85-1.18,1.24c-0.37,0.34-0.36,0.52,0.11,0.75c0.39,0.19,0.78,0.43,1.07,0.73c1.13,1.18,2.28,1.08,3.57,0.27
	c0.69-0.43,1.49-0.68,2.25-1c0.39-0.16,0.56-0.26,0.21-0.72c-0.48-0.64-1.44-1.23-1.3-1.96c0.12-0.64,1.01-1.15,1.58-1.7
	c0.9-0.88,1.84-1.72,2.72-2.61c0.32-0.33,0.54-0.25,0.81,0.01c1.36,1.33,2.72,2.66,4.1,3.97c0.32,0.3,0.28,0.54,0.06,0.83
	c-0.36,0.46-0.68,0.96-1.09,1.38c-0.48,0.49-0.23,0.65,0.24,0.85c1.16,0.5,2.31,1.01,3.45,1.54c0.4,0.19,0.73,0.22,1.12-0.08
	c0.67-0.52,1.38-0.99,2.11-1.43c0.48-0.29,0.45-0.53,0.11-0.88c-0.39-0.4-0.75-0.83-1.13-1.24c-0.3-0.32-0.33-0.55,0.08-0.84
	c1.52-1.08,3.01-2.2,4.52-3.3c0.13-0.09,0.27-0.29,0.46-0.18c0.24,0.13,0.09,0.37,0.07,0.56c-0.23,2.51-0.47,5.02-0.69,7.53
	c-0.11,1.19-0.11,1.21-1.27,1.21c-8.41,0-16.82,0-25.23,0c-1.21,0-1.13-0.01-1.19-1.2c-0.08-1.59-0.31-3.17-0.46-4.75
	C17.05,37.35,17.08,36.24,16.85,35.07z"/>
<rect x="52.87" y="28.38" class="st2" width="137.13" height="30.59"/>
<rect x="52.87" y="58.97" class="st3" width="137.13" height="12.66"/>
<path class="st4" d="M56.28,49.57c1.84-0.09,2-0.49,2-2.33v-9.33c0-1.84-0.16-2.09-1.9-2.23v-0.35h4.87c2.04,0,4.27,0.7,4.27,3.67
	c0,1.98-0.93,3.14-2.52,3.95c0.33,0.72,1.2,2.21,1.84,3.19c0.99,1.37,2.44,3.37,3.49,3.65l-0.06,0.3c-1.88,0-2.87-0.12-5.99-5.86
	c-0.52-0.84-1.14-0.86-2.89-0.86v3.86c0,1.84,0.16,2.23,1.94,2.33v0.33h-5.06V49.57z M60.66,42.92c1.2,0,1.96-0.19,2.52-0.7
	c0.68-0.6,1.07-1.53,1.07-2.86c0-2.49-1.43-3.56-3.57-3.56c-0.56,0-0.91,0.02-1.09,0.05c-0.1,0-0.19,0.07-0.19,0.51v6.56H60.66z"/>
<path class="st4" d="M78.46,44.87c0,3.51-2.56,5.28-4.54,5.28c-2.73,0-4.58-2.33-4.58-4.86c0-3.77,2.81-5.33,4.54-5.33
	C76.48,39.96,78.46,42.17,78.46,44.87z M70.64,44.52c0,2.98,1.38,5.09,3.57,5.09c1.73,0,2.99-1.26,2.99-4.4
	c0-2.26-1.22-4.7-3.51-4.7C71.79,40.52,70.64,42.2,70.64,44.52z"/>
<path class="st4" d="M79.29,40.22h3.78v0.33c-0.72,0.16-1.07,0.3-1.07,0.77c0,0.14,0.04,0.35,0.14,0.58l2.23,6.19
	c0.31-0.72,2.31-5.49,2.31-6.65c0-0.6-0.35-0.74-1.2-0.88v-0.33h3.86v0.33c-1.16,0.16-1.24,0.44-1.88,1.67
	c-0.62,1.19-1.36,3.09-3.08,7.07c-1.51,3.49-2.06,4.81-2.35,6.05c-0.1,0.35-0.33,0.47-0.6,0.47c-0.5,0-0.93-0.47-0.93-0.95
	c0-0.33,0.23-0.49,0.52-0.72c1.51-1.16,2.54-4.23,2.54-4.49c0-0.28-1.22-4.12-2.4-7.33c-0.45-1.19-0.6-1.53-1.88-1.77V40.22z"/>
<path class="st4" d="M95.49,50.15c-0.04,0-0.45-0.19-0.66-0.42c-0.25-0.3-0.33-0.58-0.45-1.09c-0.81,0.7-1.73,1.51-2.5,1.51
	c-1.43,0-2.4-1.21-2.4-2.65c0-1.05,0.64-1.79,2.06-2.28c1.05-0.35,2.35-0.91,2.83-1.23c0-1.14-0.02-3.16-1.88-3.16
	c-0.33,0.02-1.45,0.12-1.8,1.98c-0.04,0.16-0.17,0.4-0.45,0.4c-0.29,0-0.62-0.33-0.62-0.79c0-0.35,0.25-0.63,0.58-0.84
	c0.52-0.4,1.9-1.35,2.91-1.6c1.01,0,2.29,0.74,2.29,2.79v5c0,0.95,0.31,1.33,0.74,1.33c0.35,0,0.68-0.14,0.91-0.3l0.19,0.4
	L95.49,50.15z M94.37,44.57c-0.43,0.28-1.73,0.84-2.19,1.05c-0.93,0.4-1.49,0.84-1.49,1.7c0,1.21,0.87,1.84,1.61,1.84
	c0.7,0,1.63-0.58,2.07-1.19V44.57z"/>
<path class="st4" d="M97.62,49.57c1.32-0.09,1.53-0.42,1.53-1.86V36.82c0-1.6-0.16-1.77-1.49-1.91v-0.28
	c1.01-0.14,2.13-0.56,2.48-0.79v13.86c0,1.44,0.19,1.77,1.55,1.86v0.33h-4.07V49.57z"/>
<path class="st4" d="M115.89,45.66c-0.29,1.23-0.76,3.14-1.07,3.93c-0.66,0.12-2.6,0.65-4.15,0.65c-5.41,0-7.72-3.91-7.7-7.42
	c0-4.65,3.47-7.84,8.14-7.84c2.02,0,3.32,0.51,3.9,0.65c0.16,1.16,0.27,2.28,0.39,3.6l-0.35,0.07c-0.58-2.7-1.98-3.74-4.67-3.74
	c-4.09,0-5.93,3.05-5.93,6.68c0,4.51,2.4,7.44,6.05,7.44c2.87,0,4.05-1.74,5.04-4.14L115.89,45.66z"/>
<path class="st4" d="M123.17,50.15c-0.04,0-0.45-0.19-0.66-0.42c-0.25-0.3-0.33-0.58-0.45-1.09c-0.81,0.7-1.73,1.51-2.5,1.51
	c-1.42,0-2.39-1.21-2.39-2.65c0-1.05,0.64-1.79,2.07-2.28c1.05-0.35,2.35-0.91,2.83-1.23c0-1.14-0.02-3.16-1.88-3.16
	c-0.33,0.02-1.45,0.12-1.8,1.98c-0.04,0.16-0.17,0.4-0.45,0.4c-0.29,0-0.62-0.33-0.62-0.79c0-0.35,0.25-0.63,0.58-0.84
	c0.52-0.4,1.9-1.35,2.91-1.6c1.01,0,2.29,0.74,2.29,2.79v5c0,0.95,0.31,1.33,0.74,1.33c0.35,0,0.68-0.14,0.91-0.3l0.19,0.4
	L123.17,50.15z M122.05,44.57c-0.43,0.28-1.73,0.84-2.19,1.05c-0.93,0.4-1.49,0.84-1.49,1.7c0,1.21,0.87,1.84,1.61,1.84
	c0.7,0,1.63-0.58,2.07-1.19V44.57z"/>
<path class="st4" d="M125.63,49.57c1.26-0.09,1.47-0.42,1.47-1.88v-4.56c0-1.7-0.14-1.84-1.42-2v-0.28
	c0.85-0.19,1.67-0.47,2.42-0.98v2.84h0.04c0.5-1.26,1.61-2.74,2.62-2.74c0.62,0,1.01,0.6,1.01,0.98c0,0.44-0.41,0.86-0.72,0.86
	c-0.08,0-0.15-0.02-0.19-0.12c-0.31-0.33-0.47-0.49-0.87-0.49c-0.56,0-1.36,1.05-1.9,2.74v3.79c0,1.44,0.19,1.74,1.84,1.84v0.33
	h-4.3V49.57z"/>
<path class="st4" d="M132.55,49.57c1.32-0.12,1.53-0.42,1.53-1.77v-4.84c0-1.49-0.14-1.6-1.32-1.84v-0.3
	c0.87-0.21,1.53-0.47,2.31-0.93v7.91c0,1.35,0.21,1.65,1.55,1.77v0.33h-4.07V49.57z M135.38,35.75c0,0.49-0.35,0.93-0.78,0.93
	c-0.41,0-0.78-0.44-0.78-0.93c0-0.56,0.37-0.98,0.78-0.98C135.07,34.78,135.38,35.27,135.38,35.75z"/>
<path class="st4" d="M141.97,40.01c0.12-0.05,0.33-0.05,0.54-0.05c2.17,0,4.01,1.88,4.01,4.65c0,3.23-2.42,5.54-5.18,5.54
	c-0.85,0-1.92-0.12-2.91-0.65V36.8c0-1.49-0.08-1.65-1.49-1.91v-0.26c0.95-0.12,2.04-0.54,2.48-0.79v7.21L141.97,40.01z
	 M139.41,46.99c0,0.4,0.02,0.58,0.12,0.95c0.14,0.56,1.05,1.53,2.54,1.53c1.98,0,3.24-1.77,3.24-4.35c0-2.4-1.4-4.19-3.51-4.19
	c-0.97,0-1.9,0.26-2.4,0.58V46.99z"/>
<path class="st4" d="M152.36,40.01c0.12-0.05,0.33-0.05,0.54-0.05c2.17,0,4.01,1.88,4.01,4.65c0,3.23-2.42,5.54-5.18,5.54
	c-0.85,0-1.92-0.12-2.91-0.65V36.8c0-1.49-0.08-1.65-1.49-1.91v-0.26c0.95-0.12,2.04-0.54,2.48-0.79v7.21L152.36,40.01z
	 M149.8,46.99c0,0.4,0.02,0.58,0.12,0.95c0.14,0.56,1.05,1.53,2.54,1.53c1.98,0,3.24-1.77,3.24-4.35c0-2.4-1.4-4.19-3.51-4.19
	c-0.97,0-1.9,0.26-2.39,0.58V46.99z"/>
<path class="st4" d="M165.56,48.13c-1.22,1.58-2.62,2.02-3.1,2.02c-2.44,0-3.94-2.19-3.94-4.65c0-3.42,2.48-5.54,4.15-5.54
	c1.78,0,3.06,1.63,3.06,3.28c0,0.47-0.02,0.54-0.35,0.6c-0.33,0.07-2.97,0.33-5.82,0.42c-0.02,3.54,1.86,4.79,3.28,4.79
	c0.7,0,1.45-0.16,2.5-1.28L165.56,48.13z M159.67,43.52c0.48,0,3.39-0.05,4.27-0.07c0.52,0,0.52-0.23,0.52-0.37
	c0-1.3-0.87-2.47-2.35-2.47C161.07,40.62,159.98,41.64,159.67,43.52z"/>
<path class="st4" d="M173.09,50.15c-0.04,0-0.45-0.19-0.66-0.42c-0.25-0.3-0.33-0.58-0.45-1.09c-0.81,0.7-1.73,1.51-2.5,1.51
	c-1.42,0-2.39-1.21-2.39-2.65c0-1.05,0.64-1.79,2.07-2.28c1.05-0.35,2.35-0.91,2.83-1.23c0-1.14-0.02-3.16-1.88-3.16
	c-0.33,0.02-1.45,0.12-1.8,1.98c-0.04,0.16-0.17,0.4-0.45,0.4c-0.29,0-0.62-0.33-0.62-0.79c0-0.35,0.25-0.63,0.58-0.84
	c0.52-0.4,1.9-1.35,2.91-1.6c1.01,0,2.29,0.74,2.29,2.79v5c0,0.95,0.31,1.33,0.74,1.33c0.35,0,0.68-0.14,0.91-0.3l0.19,0.4
	L173.09,50.15z M171.98,44.57c-0.43,0.28-1.73,0.84-2.19,1.05c-0.93,0.4-1.49,0.84-1.49,1.7c0,1.21,0.87,1.84,1.61,1.84
	c0.7,0,1.63-0.58,2.07-1.19V44.57z"/>
<path class="st4" d="M175.49,49.57c1.2-0.09,1.53-0.44,1.53-1.84v-4.67c0-1.56-0.15-1.65-1.3-1.91v-0.3
	c0.83-0.23,1.65-0.44,2.29-0.98v1.93c0.41-0.28,0.93-0.7,1.57-1.19c0.58-0.4,1.09-0.65,1.67-0.65c1.71,0,2.69,1.19,2.69,3.02v4.63
	c0,1.63,0.19,1.86,1.34,1.95v0.33h-3.99v-0.33c1.4-0.09,1.65-0.42,1.65-1.95V43.8c0-1.33-0.33-2.81-2.23-2.81
	c-1.01,0-2.06,0.7-2.71,1.42v5.23c0,1.49,0.21,1.84,1.63,1.93v0.33h-4.15V49.57z"/>
<path d="M58.46,68.35v-6.68h0.8v6.68H58.46z"/>
<path d="M65.75,68.35v-6.68h0.82l3.17,5.25v-5.25h0.77v6.68h-0.82l-3.17-5.25v5.25H65.75z"/>
<path d="M78.48,68.35v-5.9h-1.99v-0.79h4.79v0.79h-2v5.9H78.48z"/>
<path d="M87.2,68.35v-6.68h4.37v0.79H88v2.05h3.34v0.78H88v2.28h3.71v0.79H87.2z"/>
<path d="M97.92,68.35v-6.68h2.68c0.54,0,0.95,0.06,1.23,0.18s0.5,0.33,0.67,0.64c0.17,0.3,0.25,0.64,0.25,1.01
	c0,0.47-0.14,0.87-0.42,1.2c-0.28,0.32-0.71,0.53-1.29,0.62c0.21,0.11,0.37,0.22,0.48,0.33c0.23,0.24,0.45,0.53,0.66,0.89l1.05,1.82
	h-1.01l-0.8-1.39c-0.23-0.4-0.43-0.71-0.58-0.92c-0.15-0.21-0.29-0.36-0.41-0.45c-0.12-0.09-0.24-0.14-0.36-0.18
	c-0.09-0.02-0.24-0.03-0.45-0.03h-0.93v2.97H97.92z M98.71,64.61h1.72c0.37,0,0.65-0.04,0.86-0.13c0.21-0.08,0.36-0.22,0.47-0.4
	s0.16-0.38,0.16-0.6c0-0.32-0.1-0.58-0.31-0.78c-0.21-0.2-0.54-0.31-0.98-0.31h-1.91V64.61z"/>
<path d="M109.08,68.35v-6.68h0.82l3.17,5.25v-5.25h0.77v6.68h-0.82l-3.17-5.25v5.25H109.08z"/>
<path d="M119.6,68.35l2.32-6.68h0.86l2.47,6.68h-0.91l-0.7-2.02h-2.53l-0.66,2.02H119.6z M121.35,65.6h2.05l-0.63-1.85
	c-0.19-0.56-0.33-1.02-0.43-1.39c-0.08,0.43-0.19,0.85-0.33,1.28L121.35,65.6z"/>
<path d="M131.9,68.35v-5.9h-1.99v-0.79h4.79v0.79h-2v5.9H131.9z"/>
<path d="M140.74,68.35v-6.68h0.8v6.68H140.74z"/>
<path d="M147.79,65.09c0-1.11,0.27-1.98,0.81-2.61c0.54-0.63,1.23-0.94,2.08-0.94c0.56,0,1.06,0.15,1.51,0.44
	c0.45,0.3,0.79,0.71,1.02,1.23c0.23,0.53,0.35,1.13,0.35,1.79c0,0.68-0.12,1.28-0.37,1.82c-0.25,0.53-0.6,0.94-1.05,1.22
	c-0.45,0.27-0.94,0.41-1.47,0.41c-0.57,0-1.08-0.15-1.52-0.46c-0.45-0.3-0.79-0.72-1.02-1.24S147.79,65.68,147.79,65.09z
	 M148.62,65.1c0,0.81,0.2,1.44,0.59,1.9c0.39,0.46,0.88,0.7,1.47,0.7c0.6,0,1.1-0.23,1.49-0.7c0.39-0.47,0.58-1.13,0.58-1.99
	c0-0.54-0.08-1.02-0.25-1.42s-0.41-0.72-0.73-0.94c-0.32-0.22-0.68-0.34-1.08-0.34c-0.57,0-1.05,0.22-1.46,0.65
	C148.82,63.38,148.62,64.1,148.62,65.1z"/>
<path d="M159.68,68.35v-6.68h0.82l3.17,5.25v-5.25h0.77v6.68h-0.82l-3.17-5.25v5.25H159.68z"/>
<path d="M170.21,68.35l2.32-6.68h0.86l2.47,6.68h-0.91l-0.7-2.02h-2.53l-0.66,2.02H170.21z M171.95,65.6H174l-0.63-1.85
	c-0.19-0.56-0.33-1.02-0.43-1.39c-0.08,0.43-0.19,0.85-0.33,1.28L171.95,65.6z"/>
<path d="M181.55,68.35v-6.68h0.8v5.9h2.97v0.79H181.55z"/>
</svg>
